<?xml version="1.0" encoding="UTF-8" standalone="no"?>
<!-- Created with Inkscape (http://www.inkscape.org/) -->

<svg
   xmlns:osb="http://www.openswatchbook.org/uri/2009/osb"
   xmlns:dc="http://purl.org/dc/elements/1.1/"
   xmlns:cc="http://creativecommons.org/ns#"
   xmlns:rdf="http://www.w3.org/1999/02/22-rdf-syntax-ns#"
   xmlns:svg="http://www.w3.org/2000/svg"
   xmlns="http://www.w3.org/2000/svg"
   xmlns:sodipodi="http://sodipodi.sourceforge.net/DTD/sodipodi-0.dtd"
   xmlns:inkscape="http://www.inkscape.org/namespaces/inkscape"
   width="135"
   height="135"
   id="svg2"
   version="1.1"
   inkscape:version="0.48.2 r9819"
   sodipodi:docname="3K4-logo.svg"
   inkscape:export-filename="3K4-logo.png"
   inkscape:export-xdpi="90"
   inkscape:export-ydpi="90">
  <sodipodi:namedview
     id="base"
     pagecolor="#ffffff"
     bordercolor="#666666"
     borderopacity="1.0"
     inkscape:pageopacity="0.0"
     inkscape:pageshadow="2"
     inkscape:zoom="7.1513496"
     inkscape:cx="68.532808"
     inkscape:cy="65.524641"
     inkscape:document-units="px"
     inkscape:current-layer="layer1"
     showgrid="false"
     showguides="true"
     inkscape:guide-bbox="true"
     inkscape:window-width="1920"
     inkscape:window-height="1058"
     inkscape:window-x="1440"
     inkscape:window-y="0"
     inkscape:window-maximized="1" />
  <defs
     id="defs4">
    <marker
       style="overflow:visible"
       id="SemiCircleIn"
       refX="0.0"
       refY="0.0"
       orient="auto"
       inkscape:stockid="SemiCircleIn">
      <path
         transform="scale(0.6)"
         style="fill-rule:evenodd;stroke:#000000;stroke-width:1.0pt;marker-start:none;marker-end:none"
         d="M -0.37450702,-0.045692580 C -0.37450702,2.7143074 1.8654930,4.9543074 4.6254930,4.9543074 L 4.6254930,-5.0456926 C 1.8654930,-5.0456926 -0.37450702,-2.8056926 -0.37450702,-0.045692580 z "
         id="path6180" />
    </marker>
    <marker
       style="overflow:visible;"
       id="Arrow2Mend"
       refX="0.0"
       refY="0.0"
       orient="auto"
       inkscape:stockid="Arrow2Mend">
      <path
         transform="scale(0.6) rotate(180) translate(0,0)"
         d="M 8.7185878,4.0337352 L -2.2072895,0.016013256 L 8.7185884,-4.0017078 C 6.9730900,-1.6296469 6.9831476,1.6157441 8.7185878,4.0337352 z "
         style="font-size:12.0;fill-rule:evenodd;stroke-width:0.62500000;stroke-linejoin:round;"
         id="path3800" />
    </marker>
    <marker
       style="overflow:visible"
       id="DotM"
       refX="0.0"
       refY="0.0"
       orient="auto"
       inkscape:stockid="DotM">
      <path
         transform="scale(0.4) translate(7.4, 1)"
         style="fill-rule:evenodd;stroke:#000000;stroke-width:1.0pt;marker-start:none;marker-end:none"
         d="M -2.5,-1.0 C -2.5,1.7600000 -4.7400000,4.0 -7.5,4.0 C -10.260000,4.0 -12.5,1.7600000 -12.5,-1.0 C -12.5,-3.7600000 -10.260000,-6.0 -7.5,-6.0 C -4.7400000,-6.0 -2.5,-3.7600000 -2.5,-1.0 z "
         id="path3838" />
    </marker>
    <marker
       style="overflow:visible"
       id="DotL"
       refX="0.0"
       refY="0.0"
       orient="auto"
       inkscape:stockid="DotL">
      <path
         transform="scale(0.8) translate(7.4, 1)"
         style="fill-rule:evenodd;stroke:#000000;stroke-width:1.0pt;marker-start:none;marker-end:none"
         d="M -2.5,-1.0 C -2.5,1.7600000 -4.7400000,4.0 -7.5,4.0 C -10.260000,4.0 -12.5,1.7600000 -12.5,-1.0 C -12.5,-3.7600000 -10.260000,-6.0 -7.5,-6.0 C -4.7400000,-6.0 -2.5,-3.7600000 -2.5,-1.0 z "
         id="path3835" />
    </marker>
    <marker
       style="overflow:visible;"
       id="Arrow1Mend"
       refX="0.0"
       refY="0.0"
       orient="auto"
       inkscape:stockid="Arrow1Mend">
      <path
         transform="scale(0.4) rotate(180) translate(10,0)"
         style="fill-rule:evenodd;stroke:#000000;stroke-width:1.0pt;marker-start:none;"
         d="M 0.0,0.0 L 5.0,-5.0 L -12.5,0.0 L 5.0,5.0 L 0.0,0.0 z "
         id="path3782" />
    </marker>
    <linearGradient
       osb:paint="gradient"
       id="linearGradient3777">
      <stop
         id="stop3779"
         offset="0"
         style="stop-color:#000000;stop-opacity:1;" />
      <stop
         id="stop3781"
         offset="1"
         style="stop-color:#000000;stop-opacity:0;" />
    </linearGradient>
    <inkscape:perspective
       id="perspective3759"
       inkscape:persp3d-origin="67.5 : 45 : 1"
       inkscape:vp_z="135 : 67.5 : 1"
       inkscape:vp_y="0 : 1000 : 0"
       inkscape:vp_x="0 : 67.5 : 1"
       sodipodi:type="inkscape:persp3d" />
    <marker
       style="overflow:visible;"
       id="Arrow2MendE"
       refX="0.0"
       refY="0.0"
       orient="auto"
       inkscape:stockid="Arrow2MendE">
      <path
         transform="scale(0.6) rotate(180) translate(0,0)"
         d="M 8.7185878,4.0337352 L -2.2072895,0.016013256 L 8.7185884,-4.0017078 C 6.9730900,-1.6296469 6.9831476,1.6157441 8.7185878,4.0337352 z "
         style="stroke-linejoin:round;font-size:12.0;fill-rule:evenodd;stroke:#ac0000;stroke-width:0.62500000;fill:#ac0000"
         id="path5169" />
    </marker>
    <marker
       style="overflow:visible"
       id="DotMC"
       refX="0.0"
       refY="0.0"
       orient="auto"
       inkscape:stockid="DotMC">
      <path
         transform="scale(0.4) translate(7.4, 1)"
         style="marker-end:none;fill-rule:evenodd;marker-start:none;stroke:#000000;stroke-width:1.0pt;fill:#000000"
         d="M -2.5,-1.0 C -2.5,1.7600000 -4.7400000,4.0 -7.5,4.0 C -10.260000,4.0 -12.5,1.7600000 -12.5,-1.0 C -12.5,-3.7600000 -10.260000,-6.0 -7.5,-6.0 C -4.7400000,-6.0 -2.5,-3.7600000 -2.5,-1.0 z "
         id="path5219" />
    </marker>
    <marker
       style="overflow:visible;"
       id="Arrow1Mendf"
       refX="0.0"
       refY="0.0"
       orient="auto"
       inkscape:stockid="Arrow1Mendf">
      <path
         transform="scale(0.4) rotate(180) translate(10,0)"
         style="marker-start:none;stroke:#000000;stroke-width:1.0pt;fill:#000000;fill-rule:evenodd"
         d="M 0.0,0.0 L 5.0,-5.0 L -12.5,0.0 L 5.0,5.0 L 0.0,0.0 z "
         id="path5222" />
    </marker>
    <marker
       style="overflow:visible"
       id="DotMCl"
       refX="0.0"
       refY="0.0"
       orient="auto"
       inkscape:stockid="DotMCl">
      <path
         transform="scale(0.4) translate(7.4, 1)"
         style="marker-end:none;fill-rule:evenodd;marker-start:none;stroke:#8800eb;stroke-width:1.0pt;fill:#8800eb"
         d="M -2.5,-1.0 C -2.5,1.7600000 -4.7400000,4.0 -7.5,4.0 C -10.260000,4.0 -12.5,1.7600000 -12.5,-1.0 C -12.5,-3.7600000 -10.260000,-6.0 -7.5,-6.0 C -4.7400000,-6.0 -2.5,-3.7600000 -2.5,-1.0 z "
         id="path5281" />
    </marker>
    <marker
       style="overflow:visible;"
       id="Arrow1Mendfy"
       refX="0.0"
       refY="0.0"
       orient="auto"
       inkscape:stockid="Arrow1Mendfy">
      <path
         transform="scale(0.4) rotate(180) translate(10,0)"
         style="fill-rule:evenodd;marker-start:none;stroke:#8800eb;stroke-width:1.0pt;fill:#8800eb"
         d="M 0.0,0.0 L 5.0,-5.0 L -12.5,0.0 L 5.0,5.0 L 0.0,0.0 z "
         id="path5284" />
    </marker>
    <marker
       style="overflow:visible;"
       id="Arrow2MendEF"
       refX="0.0"
       refY="0.0"
       orient="auto"
       inkscape:stockid="Arrow2MendEF">
      <path
         transform="scale(0.6) rotate(180) translate(0,0)"
         d="M 8.7185878,4.0337352 L -2.2072895,0.016013256 L 8.7185884,-4.0017078 C 6.9730900,-1.6296469 6.9831476,1.6157441 8.7185878,4.0337352 z "
         style="stroke-linejoin:round;font-size:12.0;fill-rule:evenodd;stroke:#008000;stroke-width:0.62500000;fill:#008000"
         id="path5351" />
    </marker>
    <marker
       style="overflow:visible"
       id="DotMK"
       refX="0.0"
       refY="0.0"
       orient="auto"
       inkscape:stockid="DotMK">
      <path
         transform="scale(0.4) translate(7.4, 1)"
         style="marker-end:none;fill-rule:evenodd;marker-start:none;stroke:#ac0000;stroke-width:1.0pt;fill:#ac0000"
         d="M -2.5,-1.0 C -2.5,1.7600000 -4.7400000,4.0 -7.5,4.0 C -10.260000,4.0 -12.5,1.7600000 -12.5,-1.0 C -12.5,-3.7600000 -10.260000,-6.0 -7.5,-6.0 C -4.7400000,-6.0 -2.5,-3.7600000 -2.5,-1.0 z "
         id="path5618" />
    </marker>
    <marker
       style="overflow:visible;"
       id="Arrow2MendEb"
       refX="0.0"
       refY="0.0"
       orient="auto"
       inkscape:stockid="Arrow2MendEb">
      <path
         transform="scale(0.6) rotate(180) translate(0,0)"
         d="M 8.7185878,4.0337352 L -2.2072895,0.016013256 L 8.7185884,-4.0017078 C 6.9730900,-1.6296469 6.9831476,1.6157441 8.7185878,4.0337352 z "
         style="stroke-linejoin:round;font-size:12.0;fill-rule:evenodd;stroke:#ac0000;stroke-width:0.62500000;fill:#ac0000"
         id="path5621" />
    </marker>
    <marker
       style="overflow:visible"
       id="DotMKr"
       refX="0.0"
       refY="0.0"
       orient="auto"
       inkscape:stockid="DotMKr">
      <path
         transform="scale(0.4) translate(7.4, 1)"
         style="marker-end:none;fill-rule:evenodd;marker-start:none;stroke:#8800eb;stroke-width:1.0pt;fill:#8800eb"
         d="M -2.5,-1.0 C -2.5,1.7600000 -4.7400000,4.0 -7.5,4.0 C -10.260000,4.0 -12.5,1.7600000 -12.5,-1.0 C -12.5,-3.7600000 -10.260000,-6.0 -7.5,-6.0 C -4.7400000,-6.0 -2.5,-3.7600000 -2.5,-1.0 z "
         id="path5694" />
    </marker>
    <marker
       style="overflow:visible;"
       id="Arrow2MendEby"
       refX="0.0"
       refY="0.0"
       orient="auto"
       inkscape:stockid="Arrow2MendEby">
      <path
         transform="scale(0.6) rotate(180) translate(0,0)"
         d="M 8.7185878,4.0337352 L -2.2072895,0.016013256 L 8.7185884,-4.0017078 C 6.9730900,-1.6296469 6.9831476,1.6157441 8.7185878,4.0337352 z "
         style="stroke-linejoin:round;font-size:12.0;fill-rule:evenodd;stroke:#8800eb;stroke-width:0.62500000;fill:#8800eb"
         id="path5697" />
    </marker>
    <marker
       style="overflow:visible;"
       id="Arrow2MendQ"
       refX="0.0"
       refY="0.0"
       orient="auto"
       inkscape:stockid="Arrow2MendQ">
      <path
         transform="scale(0.6) rotate(180) translate(0,0)"
         d="M 8.7185878,4.0337352 L -2.2072895,0.016013256 L 8.7185884,-4.0017078 C 6.9730900,-1.6296469 6.9831476,1.6157441 8.7185878,4.0337352 z "
         style="stroke-linejoin:round;font-size:12.0;fill-rule:evenodd;stroke:#008000;stroke-width:0.62500000;fill:#008000"
         id="path6941" />
    </marker>
    <marker
       style="overflow:visible;"
       id="Arrow2Mendc"
       refX="0.0"
       refY="0.0"
       orient="auto"
       inkscape:stockid="Arrow2Mendc">
      <path
         transform="scale(0.6) rotate(180) translate(0,0)"
         d="M 8.7185878,4.0337352 L -2.2072895,0.016013256 L 8.7185884,-4.0017078 C 6.9730900,-1.6296469 6.9831476,1.6157441 8.7185878,4.0337352 z "
         style="stroke-linejoin:round;font-size:12.0;fill-rule:evenodd;stroke:#8800eb;stroke-width:0.62500000;fill:#8800eb"
         id="path6944" />
    </marker>
    <marker
       style="overflow:visible;"
       id="Arrow2Mendw"
       refX="0.0"
       refY="0.0"
       orient="auto"
       inkscape:stockid="Arrow2Mendw">
      <path
         transform="scale(0.6) rotate(180) translate(0,0)"
         d="M 8.7185878,4.0337352 L -2.2072895,0.016013256 L 8.7185884,-4.0017078 C 6.9730900,-1.6296469 6.9831476,1.6157441 8.7185878,4.0337352 z "
         style="stroke-linejoin:round;font-size:12.0;fill-rule:evenodd;stroke:#ac0000;stroke-width:0.62500000;fill:#ac0000"
         id="path6947" />
    </marker>
  </defs>
  <metadata
     id="metadata7">
    <rdf:RDF>
      <cc:Work
         rdf:about="">
        <dc:format>image/svg+xml</dc:format>
        <dc:type
           rdf:resource="http://purl.org/dc/dcmitype/StillImage" />
        <dc:title></dc:title>
      </cc:Work>
    </rdf:RDF>
  </metadata>
  <g
     transform="translate(0,-917.36218)"
     id="layer1"
     inkscape:groupmode="layer"
     inkscape:label="Layer 1">
    <path
       sodipodi:nodetypes="cc"
       inkscape:connector-curvature="0"
       id="path3916"
       d="m 6.291538,927.73943 c 17.500775,0 27.316087,-2.33725 31.808023,30.25125"
       style="fill:none;stroke:#8800eb;stroke-width:3.125;stroke-linecap:round;stroke-linejoin:round;stroke-miterlimit:2;stroke-opacity:1;stroke-dasharray:none;marker-mid:none;marker-end:url(#Arrow2Mendc)" />
    <path
       style="fill:none;stroke:#ac0000;stroke-width:3.125;stroke-linecap:round;stroke-linejoin:round;stroke-miterlimit:2;stroke-opacity:1;stroke-dasharray:none;marker-mid:none;marker-end:url(#Arrow2Mendw)"
       d="m 101.85352,927.60914 c -17.500815,0 -27.316152,-2.33725 -31.80809,30.25128"
       id="path6897"
       inkscape:connector-curvature="0"
       sodipodi:nodetypes="cc" />
    <path
       style="fill:none;stroke:#008000;stroke-width:3.125;stroke-linecap:round;stroke-linejoin:round;stroke-miterlimit:2;stroke-opacity:1;stroke-dasharray:none;marker-mid:none;marker-end:url(#Arrow2MendQ)"
       d="m 86.555878,993.05849 c 14.741382,0.40992 12.991972,18.20311 12.991142,24.46771 -0.002,16.259 -2.331549,19.6418 28.12217,24.9913"
       id="path6899"
       inkscape:connector-curvature="0"
       sodipodi:nodetypes="csc" />
    <path
       style="fill:none;stroke:#000000;stroke-width:4;stroke-linecap:butt;stroke-linejoin:miter;stroke-miterlimit:4;stroke-opacity:1;stroke-dasharray:none"
       d="M 53.328536,932.05827 52.84029,995.5302"
       id="path7028"
       inkscape:connector-curvature="0" />
    <g
       id="g3111"
       transform="matrix(1.25,0,0,1.25,-18.574288,-256.78834)">
      <path
         sodipodi:nodetypes="ssszs"
         inkscape:connector-curvature="0"
         id="path7064"
         d="m 70.493476,1003.3984 c 0,1.4547 -0.880972,3.4914 -4.838929,3.4914 -3.957958,0 -9.494102,-2.0367 -9.494102,-3.4914 0,-1.4546 5.658649,-3.98144 9.616606,-3.98144 3.957958,0 4.716425,2.52684 4.716425,3.98144 z"
         style="fill:none;stroke:#000000;stroke-width:1;stroke-linecap:round;stroke-linejoin:round;stroke-miterlimit:4;stroke-opacity:1" />
      <path
         style="fill:none;stroke:#000000;stroke-width:1;stroke-linecap:round;stroke-linejoin:round;stroke-miterlimit:4;stroke-opacity:1"
         d="m 44.160445,1003.3984 c 0,1.4547 0.880972,3.4914 4.838929,3.4914 3.957958,0 9.494102,-2.0367 9.494102,-3.4914 0,-1.4546 -5.658649,-3.98144 -9.616606,-3.98144 -3.957958,0 -4.716425,2.52684 -4.716425,3.98144 z"
         id="path7067"
         inkscape:connector-curvature="0"
         sodipodi:nodetypes="ssszs" />
    </g>
    <g
       id="g3067"
       transform="matrix(1.25,0,0,1.25,-33.380508,-252.72847)">
      <path
         sodipodi:nodetypes="cc"
         inkscape:connector-curvature="0"
         id="path7010"
         d="m 94.320138,960.94234 0.244124,47.27066"
         style="fill:none;stroke:#000000;stroke-width:2.01600432;stroke-linecap:butt;stroke-linejoin:miter;stroke-miterlimit:4;stroke-opacity:1;stroke-dasharray:none" />
      <path
         sodipodi:nodetypes="czc"
         inkscape:connector-curvature="0"
         id="path7024"
         d="m 94.609621,1007.9637 c 0,0 -6.923001,10.9855 -25.388801,10.7414 -18.465852,-0.2441 -25.388793,-10.7414 -25.388793,-10.7414"
         style="fill:none;stroke:#000000;stroke-width:2;stroke-linecap:butt;stroke-linejoin:miter;stroke-miterlimit:4;stroke-opacity:1;stroke-dasharray:none" />
      <path
         style="fill:none;stroke:#000000;stroke-width:2.01600432;stroke-linecap:butt;stroke-linejoin:miter;stroke-miterlimit:4;stroke-opacity:1;stroke-dasharray:none"
         d="m 43.742255,960.94234 0.244124,47.27066"
         id="path3037"
         inkscape:connector-curvature="0"
         sodipodi:nodetypes="cc" />
    </g>
  </g>
</svg>
