<?xml version="1.0" encoding="UTF-8" standalone="no"?>
<!-- Created with Inkscape (http://www.inkscape.org/) -->

<svg
   xmlns:osb="http://www.openswatchbook.org/uri/2009/osb"
   xmlns:dc="http://purl.org/dc/elements/1.1/"
   xmlns:cc="http://creativecommons.org/ns#"
   xmlns:rdf="http://www.w3.org/1999/02/22-rdf-syntax-ns#"
   xmlns:svg="http://www.w3.org/2000/svg"
   xmlns="http://www.w3.org/2000/svg"
   xmlns:sodipodi="http://sodipodi.sourceforge.net/DTD/sodipodi-0.dtd"
   xmlns:inkscape="http://www.inkscape.org/namespaces/inkscape"
   width="135"
   height="135"
   id="svg2"
   version="1.1"
   inkscape:version="0.48.2 r9819"
   sodipodi:docname="CSTR-notation.svg"
   inkscape:export-filename="CSTR-notation.png"
   inkscape:export-xdpi="600"
   inkscape:export-ydpi="600">
  <sodipodi:namedview
     id="base"
     pagecolor="#ffffff"
     bordercolor="#666666"
     borderopacity="1.0"
     inkscape:pageopacity="0.0"
     inkscape:pageshadow="2"
     inkscape:zoom="6.4444444"
     inkscape:cx="67.5"
     inkscape:cy="67.5"
     inkscape:document-units="px"
     inkscape:current-layer="layer1"
     showgrid="false"
     showguides="true"
     inkscape:guide-bbox="true"
     inkscape:window-width="1920"
     inkscape:window-height="1058"
     inkscape:window-x="1440"
     inkscape:window-y="0"
     inkscape:window-maximized="1" />
  <defs
     id="defs4">
    <marker
       inkscape:stockid="SemiCircleIn"
       orient="auto"
       refY="0.0"
       refX="0.0"
       id="SemiCircleIn"
       style="overflow:visible">
      <path
         id="path6180"
         d="M -0.37450702,-0.045692580 C -0.37450702,2.7143074 1.8654930,4.9543074 4.6254930,4.9543074 L 4.6254930,-5.0456926 C 1.8654930,-5.0456926 -0.37450702,-2.8056926 -0.37450702,-0.045692580 z "
         style="fill-rule:evenodd;stroke:#000000;stroke-width:1.0pt;marker-start:none;marker-end:none"
         transform="scale(0.6)" />
    </marker>
    <marker
       inkscape:stockid="Arrow2Mend"
       orient="auto"
       refY="0.0"
       refX="0.0"
       id="Arrow2Mend"
       style="overflow:visible;">
      <path
         id="path3800"
         style="font-size:12.0;fill-rule:evenodd;stroke-width:0.62500000;stroke-linejoin:round;"
         d="M 8.7185878,4.0337352 L -2.2072895,0.016013256 L 8.7185884,-4.0017078 C 6.9730900,-1.6296469 6.9831476,1.6157441 8.7185878,4.0337352 z "
         transform="scale(0.6) rotate(180) translate(0,0)" />
    </marker>
    <marker
       inkscape:stockid="DotM"
       orient="auto"
       refY="0.0"
       refX="0.0"
       id="DotM"
       style="overflow:visible">
      <path
         id="path3838"
         d="M -2.5,-1.0 C -2.5,1.7600000 -4.7400000,4.0 -7.5,4.0 C -10.260000,4.0 -12.5,1.7600000 -12.5,-1.0 C -12.5,-3.7600000 -10.260000,-6.0 -7.5,-6.0 C -4.7400000,-6.0 -2.5,-3.7600000 -2.5,-1.0 z "
         style="fill-rule:evenodd;stroke:#000000;stroke-width:1.0pt;marker-start:none;marker-end:none"
         transform="scale(0.4) translate(7.4, 1)" />
    </marker>
    <marker
       inkscape:stockid="DotL"
       orient="auto"
       refY="0.0"
       refX="0.0"
       id="DotL"
       style="overflow:visible">
      <path
         id="path3835"
         d="M -2.5,-1.0 C -2.5,1.7600000 -4.7400000,4.0 -7.5,4.0 C -10.260000,4.0 -12.5,1.7600000 -12.5,-1.0 C -12.5,-3.7600000 -10.260000,-6.0 -7.5,-6.0 C -4.7400000,-6.0 -2.5,-3.7600000 -2.5,-1.0 z "
         style="fill-rule:evenodd;stroke:#000000;stroke-width:1.0pt;marker-start:none;marker-end:none"
         transform="scale(0.8) translate(7.4, 1)" />
    </marker>
    <marker
       inkscape:stockid="Arrow1Mend"
       orient="auto"
       refY="0.0"
       refX="0.0"
       id="Arrow1Mend"
       style="overflow:visible;">
      <path
         id="path3782"
         d="M 0.0,0.0 L 5.0,-5.0 L -12.5,0.0 L 5.0,5.0 L 0.0,0.0 z "
         style="fill-rule:evenodd;stroke:#000000;stroke-width:1.0pt;marker-start:none;"
         transform="scale(0.4) rotate(180) translate(10,0)" />
    </marker>
    <linearGradient
       id="linearGradient3777"
       osb:paint="gradient">
      <stop
         style="stop-color:#000000;stop-opacity:1;"
         offset="0"
         id="stop3779" />
      <stop
         style="stop-color:#000000;stop-opacity:0;"
         offset="1"
         id="stop3781" />
    </linearGradient>
    <inkscape:perspective
       sodipodi:type="inkscape:persp3d"
       inkscape:vp_x="0 : 67.5 : 1"
       inkscape:vp_y="0 : 1000 : 0"
       inkscape:vp_z="135 : 67.5 : 1"
       inkscape:persp3d-origin="67.5 : 45 : 1"
       id="perspective3759" />
    <marker
       inkscape:stockid="Arrow2MendE"
       orient="auto"
       refY="0.0"
       refX="0.0"
       id="Arrow2MendE"
       style="overflow:visible;">
      <path
         id="path5169"
         style="stroke-linejoin:round;font-size:12.0;fill-rule:evenodd;stroke:#ac0000;stroke-width:0.62500000;fill:#ac0000"
         d="M 8.7185878,4.0337352 L -2.2072895,0.016013256 L 8.7185884,-4.0017078 C 6.9730900,-1.6296469 6.9831476,1.6157441 8.7185878,4.0337352 z "
         transform="scale(0.6) rotate(180) translate(0,0)" />
    </marker>
    <marker
       inkscape:stockid="DotMC"
       orient="auto"
       refY="0.0"
       refX="0.0"
       id="DotMC"
       style="overflow:visible">
      <path
         id="path5219"
         d="M -2.5,-1.0 C -2.5,1.7600000 -4.7400000,4.0 -7.5,4.0 C -10.260000,4.0 -12.5,1.7600000 -12.5,-1.0 C -12.5,-3.7600000 -10.260000,-6.0 -7.5,-6.0 C -4.7400000,-6.0 -2.5,-3.7600000 -2.5,-1.0 z "
         style="marker-end:none;fill-rule:evenodd;marker-start:none;stroke:#000000;stroke-width:1.0pt;fill:#000000"
         transform="scale(0.4) translate(7.4, 1)" />
    </marker>
    <marker
       inkscape:stockid="Arrow1Mendf"
       orient="auto"
       refY="0.0"
       refX="0.0"
       id="Arrow1Mendf"
       style="overflow:visible;">
      <path
         id="path5222"
         d="M 0.0,0.0 L 5.0,-5.0 L -12.5,0.0 L 5.0,5.0 L 0.0,0.0 z "
         style="marker-start:none;stroke:#000000;stroke-width:1.0pt;fill:#000000;fill-rule:evenodd"
         transform="scale(0.4) rotate(180) translate(10,0)" />
    </marker>
    <marker
       inkscape:stockid="DotMCl"
       orient="auto"
       refY="0.0"
       refX="0.0"
       id="DotMCl"
       style="overflow:visible">
      <path
         id="path5281"
         d="M -2.5,-1.0 C -2.5,1.7600000 -4.7400000,4.0 -7.5,4.0 C -10.260000,4.0 -12.5,1.7600000 -12.5,-1.0 C -12.5,-3.7600000 -10.260000,-6.0 -7.5,-6.0 C -4.7400000,-6.0 -2.5,-3.7600000 -2.5,-1.0 z "
         style="marker-end:none;fill-rule:evenodd;marker-start:none;stroke:#8800eb;stroke-width:1.0pt;fill:#8800eb"
         transform="scale(0.4) translate(7.4, 1)" />
    </marker>
    <marker
       inkscape:stockid="Arrow1Mendfy"
       orient="auto"
       refY="0.0"
       refX="0.0"
       id="Arrow1Mendfy"
       style="overflow:visible;">
      <path
         id="path5284"
         d="M 0.0,0.0 L 5.0,-5.0 L -12.5,0.0 L 5.0,5.0 L 0.0,0.0 z "
         style="fill-rule:evenodd;marker-start:none;stroke:#8800eb;stroke-width:1.0pt;fill:#8800eb"
         transform="scale(0.4) rotate(180) translate(10,0)" />
    </marker>
    <marker
       inkscape:stockid="Arrow2MendEF"
       orient="auto"
       refY="0.0"
       refX="0.0"
       id="Arrow2MendEF"
       style="overflow:visible;">
      <path
         id="path5351"
         style="stroke-linejoin:round;font-size:12.0;fill-rule:evenodd;stroke:#008000;stroke-width:0.62500000;fill:#008000"
         d="M 8.7185878,4.0337352 L -2.2072895,0.016013256 L 8.7185884,-4.0017078 C 6.9730900,-1.6296469 6.9831476,1.6157441 8.7185878,4.0337352 z "
         transform="scale(0.6) rotate(180) translate(0,0)" />
    </marker>
    <marker
       inkscape:stockid="DotMK"
       orient="auto"
       refY="0.0"
       refX="0.0"
       id="DotMK"
       style="overflow:visible">
      <path
         id="path5618"
         d="M -2.5,-1.0 C -2.5,1.7600000 -4.7400000,4.0 -7.5,4.0 C -10.260000,4.0 -12.5,1.7600000 -12.5,-1.0 C -12.5,-3.7600000 -10.260000,-6.0 -7.5,-6.0 C -4.7400000,-6.0 -2.5,-3.7600000 -2.5,-1.0 z "
         style="marker-end:none;fill-rule:evenodd;marker-start:none;stroke:#ac0000;stroke-width:1.0pt;fill:#ac0000"
         transform="scale(0.4) translate(7.4, 1)" />
    </marker>
    <marker
       inkscape:stockid="Arrow2MendEb"
       orient="auto"
       refY="0.0"
       refX="0.0"
       id="Arrow2MendEb"
       style="overflow:visible;">
      <path
         id="path5621"
         style="stroke-linejoin:round;font-size:12.0;fill-rule:evenodd;stroke:#ac0000;stroke-width:0.62500000;fill:#ac0000"
         d="M 8.7185878,4.0337352 L -2.2072895,0.016013256 L 8.7185884,-4.0017078 C 6.9730900,-1.6296469 6.9831476,1.6157441 8.7185878,4.0337352 z "
         transform="scale(0.6) rotate(180) translate(0,0)" />
    </marker>
    <marker
       inkscape:stockid="DotMKr"
       orient="auto"
       refY="0.0"
       refX="0.0"
       id="DotMKr"
       style="overflow:visible">
      <path
         id="path5694"
         d="M -2.5,-1.0 C -2.5,1.7600000 -4.7400000,4.0 -7.5,4.0 C -10.260000,4.0 -12.5,1.7600000 -12.5,-1.0 C -12.5,-3.7600000 -10.260000,-6.0 -7.5,-6.0 C -4.7400000,-6.0 -2.5,-3.7600000 -2.5,-1.0 z "
         style="marker-end:none;fill-rule:evenodd;marker-start:none;stroke:#8800eb;stroke-width:1.0pt;fill:#8800eb"
         transform="scale(0.4) translate(7.4, 1)" />
    </marker>
    <marker
       inkscape:stockid="Arrow2MendEby"
       orient="auto"
       refY="0.0"
       refX="0.0"
       id="Arrow2MendEby"
       style="overflow:visible;">
      <path
         id="path5697"
         style="stroke-linejoin:round;font-size:12.0;fill-rule:evenodd;stroke:#8800eb;stroke-width:0.62500000;fill:#8800eb"
         d="M 8.7185878,4.0337352 L -2.2072895,0.016013256 L 8.7185884,-4.0017078 C 6.9730900,-1.6296469 6.9831476,1.6157441 8.7185878,4.0337352 z "
         transform="scale(0.6) rotate(180) translate(0,0)" />
    </marker>
    <marker
       inkscape:stockid="Arrow2MendQ"
       orient="auto"
       refY="0.0"
       refX="0.0"
       id="Arrow2MendQ"
       style="overflow:visible;">
      <path
         id="path6941"
         style="stroke-linejoin:round;font-size:12.0;fill-rule:evenodd;stroke:#008000;stroke-width:0.62500000;fill:#008000"
         d="M 8.7185878,4.0337352 L -2.2072895,0.016013256 L 8.7185884,-4.0017078 C 6.9730900,-1.6296469 6.9831476,1.6157441 8.7185878,4.0337352 z "
         transform="scale(0.6) rotate(180) translate(0,0)" />
    </marker>
    <marker
       inkscape:stockid="Arrow2Mendc"
       orient="auto"
       refY="0.0"
       refX="0.0"
       id="Arrow2Mendc"
       style="overflow:visible;">
      <path
         id="path6944"
         style="stroke-linejoin:round;font-size:12.0;fill-rule:evenodd;stroke:#8800eb;stroke-width:0.62500000;fill:#8800eb"
         d="M 8.7185878,4.0337352 L -2.2072895,0.016013256 L 8.7185884,-4.0017078 C 6.9730900,-1.6296469 6.9831476,1.6157441 8.7185878,4.0337352 z "
         transform="scale(0.6) rotate(180) translate(0,0)" />
    </marker>
    <marker
       inkscape:stockid="Arrow2Mendw"
       orient="auto"
       refY="0.0"
       refX="0.0"
       id="Arrow2Mendw"
       style="overflow:visible;">
      <path
         id="path6947"
         style="stroke-linejoin:round;font-size:12.0;fill-rule:evenodd;stroke:#ac0000;stroke-width:0.62500000;fill:#ac0000"
         d="M 8.7185878,4.0337352 L -2.2072895,0.016013256 L 8.7185884,-4.0017078 C 6.9730900,-1.6296469 6.9831476,1.6157441 8.7185878,4.0337352 z "
         transform="scale(0.6) rotate(180) translate(0,0)" />
    </marker>
  </defs>
  <metadata
     id="metadata7">
    <rdf:RDF>
      <cc:Work
         rdf:about="">
        <dc:format>image/svg+xml</dc:format>
        <dc:type
           rdf:resource="http://purl.org/dc/dcmitype/StillImage" />
        <dc:title></dc:title>
      </cc:Work>
    </rdf:RDF>
  </metadata>
  <g
     inkscape:label="Layer 1"
     inkscape:groupmode="layer"
     id="layer1"
     transform="translate(0,-917.36218)">
    <path
       inkscape:connector-curvature="0"
       id="path7028"
       d="m 51.477298,959.76075 -0.488246,63.47195"
       style="fill:none;stroke:#000000;stroke-width:4;stroke-linecap:butt;stroke-linejoin:miter;stroke-miterlimit:4;stroke-opacity:1;stroke-dasharray:none" />
    <g
       transform="matrix(1.25,0,0,1.25,-20.574288,-232.78834)"
       id="g3111">
      <path
         style="fill:none;stroke:#000000;stroke-width:1;stroke-linecap:round;stroke-linejoin:round;stroke-miterlimit:4;stroke-opacity:1"
         d="m 70.493476,1003.3984 c 0,1.4547 -0.880972,3.4914 -4.838929,3.4914 -3.957958,0 -9.494102,-2.0367 -9.494102,-3.4914 0,-1.4546 5.658649,-3.98144 9.616606,-3.98144 3.957958,0 4.716425,2.52684 4.716425,3.98144 z"
         id="path7064"
         inkscape:connector-curvature="0"
         sodipodi:nodetypes="ssszs" />
      <path
         sodipodi:nodetypes="ssszs"
         inkscape:connector-curvature="0"
         id="path7067"
         d="m 44.160445,1003.3984 c 0,1.4547 0.880972,3.4914 4.838929,3.4914 3.957958,0 9.494102,-2.0367 9.494102,-3.4914 0,-1.4546 -5.658649,-3.98144 -9.616606,-3.98144 -3.957958,0 -4.716425,2.52684 -4.716425,3.98144 z"
         style="fill:none;stroke:#000000;stroke-width:1;stroke-linecap:round;stroke-linejoin:round;stroke-miterlimit:4;stroke-opacity:1" />
    </g>
    <path
       sodipodi:nodetypes="cc"
       inkscape:connector-curvature="0"
       id="path7010"
       d="m 82.519665,976.44945 0.305154,59.08835"
       style="fill:none;stroke:#000000;stroke-width:2.52000546;stroke-linecap:butt;stroke-linejoin:miter;stroke-miterlimit:4;stroke-opacity:1;stroke-dasharray:none" />
    <path
       sodipodi:nodetypes="czc"
       inkscape:connector-curvature="0"
       id="path7024"
       d="m 82.881518,1035.2262 c 0,0 -8.653751,13.7318 -31.736001,13.4267 -23.082315,-0.3051 -31.735991,-13.4267 -31.735991,-13.4267"
       style="fill:none;stroke:#000000;stroke-width:2.5;stroke-linecap:butt;stroke-linejoin:miter;stroke-miterlimit:4;stroke-opacity:1;stroke-dasharray:none" />
    <path
       style="fill:none;stroke:#000000;stroke-width:2.52000546;stroke-linecap:butt;stroke-linejoin:miter;stroke-miterlimit:4;stroke-opacity:1;stroke-dasharray:none"
       d="m 19.297311,976.74697 0.305155,59.08833"
       id="path3037"
       inkscape:connector-curvature="0"
       sodipodi:nodetypes="cc" />
    <g
       transform="translate(-6.6581474,1018.1696)"
       id="g3201">
      <g
         style="font-style:normal;font-variant:normal;font-weight:normal;font-stretch:normal;letter-spacing:normal;word-spacing:normal;text-anchor:start;fill:none;stroke:#000000;stroke-linecap:butt;stroke-linejoin:miter;stroke-miterlimit:10.43299961;stroke-opacity:1;stroke-dasharray:none;stroke-dashoffset:0"
         id="g3203"
         transform="matrix(0.19285714,0,0,-0.19285714,-33.75,101.25)"
         xml:space="preserve"
         stroke-miterlimit="10.433"
         font-style="normal"
         font-variant="normal"
         font-weight="normal"
         font-stretch="normal"
         font-size-adjust="none"
         letter-spacing="normal"
         word-spacing="normal"><path
           style="fill:#000000;stroke-width:0"
           inkscape:connector-curvature="0"
           d="m 486.8,434.54 0.23,0.36 0.23,0.33 0.22,0.31 0.22,0.29 0.22,0.28 0.22,0.25 0.22,0.24 0.22,0.22 0.21,0.2 0.21,0.19 0.21,0.17 0.2,0.16 0.21,0.14 0.2,0.13 0.21,0.12 0.19,0.11 0.2,0.09 0.2,0.09 0.19,0.07 0.2,0.07 0.19,0.06 0.19,0.05 0.18,0.04 0.19,0.03 0.18,0.03 0.19,0.03 0.36,0.04 0.35,0.02 0.35,0.02 c 0.6,0.05 0.64,0.89 0.64,0.96 0,0.39 -0.25,0.59 -0.64,0.59 -1.3,0 -2.75,-0.16 -4.09,-0.16 -1.64,0 -3.35,0.16 -4.94,0.16 -0.3,0 -0.94,0 -0.94,-0.95 0,-0.55 0.46,-0.6 0.8,-0.6 1.34,-0.09 2.3,-0.59 2.3,-1.64 0,-0.75 -0.75,-1.84 -0.75,-1.89 l -15.3,-24.31 -3.39,26.34 c 0,0.85 1.14,1.5 3.44,1.5 0.7,0 1.25,0 1.25,1 0,0.44 -0.41,0.55 -0.71,0.55 -1.98,0 -4.14,-0.16 -6.17,-0.16 -0.9,0 -1.84,0.05 -2.75,0.05 -0.89,0 -1.84,0.11 -2.69,0.11 -0.34,0 -0.93,0 -0.93,-0.95 0,-0.6 0.43,-0.6 1.23,-0.6 2.8,0 2.84,-0.45 3,-1.68 l 3.92,-30.75 c 0.16,-1 0.36,-1.14 1,-1.14 0.8,0 1,0.25 1.41,0.89 z"
           id="path3205" /></g>    </g>
    <g
       id="g3323"
       transform="translate(10.934077,980.95917)">
      <g
         word-spacing="normal"
         letter-spacing="normal"
         font-size-adjust="none"
         font-stretch="normal"
         font-weight="normal"
         font-variant="normal"
         font-style="normal"
         stroke-miterlimit="10.433"
         xml:space="preserve"
         transform="matrix(0.19285714,0,0,-0.19285714,-33.75,101.25)"
         id="g3325"
         style="font-style:normal;font-variant:normal;font-weight:normal;font-stretch:normal;letter-spacing:normal;word-spacing:normal;text-anchor:start;fill:none;stroke:#000000;stroke-linecap:butt;stroke-linejoin:miter;stroke-miterlimit:10.43299961;stroke-opacity:1;stroke-dasharray:none;stroke-dashoffset:0"><path
           id="path3327"
           d="m 493.38,440.82 0,0.02 0,0.02 0,0.01 -0.01,0.02 0,0.02 0,0.02 -0.01,0.02 0,0.02 -0.01,0.02 -0.01,0.02 -0.01,0.02 0,0.02 -0.02,0.02 -0.01,0.02 -0.01,0.02 -0.01,0.02 -0.02,0.02 -0.02,0.02 -0.02,0.02 -0.02,0.02 -0.02,0.01 -0.02,0.02 -0.03,0.01 -0.02,0.02 -0.03,0.01 -0.01,0.01 -0.02,0 -0.01,0.01 -0.02,0 -0.02,0.01 -0.01,0 -0.02,0 -0.02,0.01 -0.02,0 -0.02,0 -0.02,0 -0.02,0 -0.02,0 -0.02,0 c -0.14,0 -0.2,-0.04 -0.75,-0.59 l -3.48,-3.84 c -0.44,0.7 -2.74,4.43 -8.27,4.43 -11.11,0 -22.33,-11.01 -22.33,-22.56 0,-8.23 5.89,-13.65 13.52,-13.65 4.33,0 8.11,1.98 10.75,4.28 4.64,4.09 5.48,8.62 5.48,8.76 0,0.5 -0.5,0.5 -0.59,0.5 -0.3,0 -0.55,-0.09 -0.66,-0.5 -0.43,-1.44 -1.59,-4.98 -5.03,-7.87 -3.43,-2.78 -6.58,-3.63 -9.15,-3.63 -4.49,0 -9.77,2.6 -9.77,10.36 0,2.85 1.05,10.91 6.02,16.74 3.04,3.54 7.73,6.03 12.15,6.03 5.1,0 8.03,-3.83 8.03,-9.61 0,-2 -0.15,-2.05 -0.15,-2.55 0,-0.5 0.54,-0.5 0.75,-0.5 0.64,0 0.64,0.11 0.89,1 z"
           inkscape:connector-curvature="0"
           style="fill:#000000;stroke-width:0" /><path
           id="path3329"
           d="m 506.46,420.54 0,0.06 -0.01,0.06 0,0.05 -0.01,0.06 -0.02,0.06 -0.01,0.06 -0.02,0.05 -0.02,0.06 -0.02,0.06 -0.03,0.05 -0.02,0.06 -0.04,0.05 -0.03,0.06 -0.04,0.05 -0.03,0.05 -0.05,0.05 -0.04,0.05 -0.05,0.04 -0.05,0.05 -0.05,0.04 -0.06,0.04 -0.06,0.03 -0.06,0.04 -0.06,0.03 -0.07,0.02 -0.07,0.03 -0.07,0.02 -0.07,0.02 -0.08,0.01 -0.08,0.01 -0.09,0.01 -0.08,0 c -1.02,0 -1.96,-0.98 -1.96,-1.92 0,-0.56 0.43,-1.33 1.39,-1.33 0.94,0 1.96,0.91 1.96,1.92 z"
           inkscape:connector-curvature="0"
           style="fill:#000000;stroke-width:0" /><path
           id="path3331"
           d="m 499.07,397.06 -0.06,-0.23 -0.07,-0.22 -0.07,-0.22 -0.08,-0.21 -0.09,-0.21 -0.09,-0.21 -0.1,-0.21 -0.11,-0.2 -0.11,-0.19 -0.11,-0.19 -0.13,-0.19 -0.12,-0.18 -0.14,-0.17 -0.13,-0.17 -0.14,-0.16 -0.15,-0.15 -0.15,-0.15 -0.16,-0.14 -0.15,-0.13 -0.17,-0.13 -0.16,-0.11 -0.17,-0.11 -0.17,-0.1 -0.18,-0.09 -0.17,-0.08 -0.18,-0.07 -0.19,-0.06 -0.18,-0.05 -0.19,-0.04 -0.19,-0.03 -0.19,-0.02 -0.19,0 c -0.45,0 -0.87,0.06 -1.26,0.2 0.9,0.42 1.18,1.25 1.18,1.78 0,0.83 -0.65,1.28 -1.36,1.28 -1.07,0 -1.98,-0.94 -1.98,-2.04 0,-1.33 1.36,-2.21 3.45,-2.21 2.1,0 6.16,1.25 7.25,5.5 l 3.13,12.49 c 0.11,0.37 0.17,0.68 0.17,1.22 0,1.9 -1.62,3.26 -3.72,3.26 -3.87,0 -6.09,-4.84 -6.09,-5.33 0,-0.45 0.48,-0.45 0.59,-0.45 0.41,0 0.45,0.11 0.69,0.62 0.87,2.04 2.69,4.19 4.7,4.19 0.88,0 1.19,-0.59 1.19,-1.7 0,-0.39 -0.06,-0.88 -0.11,-1.05 z"
           inkscape:connector-curvature="0"
           style="fill:#000000;stroke-width:0" /></g>    </g>
    <g
       transform="translate(70.112837,1026.5227)"
       id="g4093">
      <g
         style="font-style:normal;font-variant:normal;font-weight:normal;font-stretch:normal;letter-spacing:normal;word-spacing:normal;text-anchor:start;fill:none;stroke:#000000;stroke-linecap:butt;stroke-linejoin:miter;stroke-miterlimit:10.43299961;stroke-opacity:1;stroke-dasharray:none;stroke-dashoffset:0"
         id="content"
         transform="matrix(0.19285714,0,0,-0.19285714,-33.75,101.25)"
         xml:space="preserve"
         stroke-miterlimit="10.433"
         font-style="normal"
         font-variant="normal"
         font-weight="normal"
         font-stretch="normal"
         font-size-adjust="none"
         letter-spacing="normal"
         word-spacing="normal"><path
           style="fill:#000000;stroke-width:0"
           inkscape:connector-curvature="0"
           d="m 478.83,424.73 0,0.12 0,0.13 -0.01,0.12 0,0.11 -0.01,0.12 -0.01,0.11 -0.01,0.11 -0.02,0.1 -0.03,0.21 -0.03,0.19 -0.05,0.18 -0.04,0.18 -0.06,0.16 -0.06,0.16 -0.06,0.15 -0.07,0.13 -0.07,0.13 -0.07,0.12 -0.08,0.12 -0.08,0.1 -0.08,0.1 -0.09,0.09 -0.08,0.08 -0.09,0.07 -0.09,0.07 -0.09,0.06 -0.1,0.05 -0.09,0.05 -0.09,0.04 -0.09,0.03 -0.09,0.03 -0.1,0.03 -0.09,0.01 -0.08,0.02 -0.09,0 -0.09,0 c -1.25,0 -2.43,-1.29 -2.43,-2.39 0,-0.64 0.25,-0.93 0.79,-1.48 1.05,-1 1.69,-2.3 1.69,-4.09 0,-2.1 -3.03,-13.5 -8.86,-13.5 -2.54,0 -3.69,1.75 -3.69,4.32 0,2.8 1.35,6.44 2.9,10.57 0.34,0.86 0.59,1.54 0.59,2.5 0,2.23 -1.59,4.07 -4.09,4.07 -4.68,0 -6.58,-7.21 -6.58,-7.67 0,-0.5 0.5,-0.5 0.61,-0.5 0.5,0 0.54,0.11 0.79,0.91 1.44,5.03 3.58,6.17 5.03,6.17 0.4,0 1.25,0 1.25,-1.59 0,-1.25 -0.5,-2.6 -0.85,-3.49 -2.19,-5.78 -2.83,-8.08 -2.83,-10.22 0,-5.37 4.37,-6.17 6.67,-6.17 8.37,0 11.2,16.49 11.2,19.08 z"
           id="path4096" /></g>    </g>
    <g
       id="g4226"
       transform="translate(69.671695,1016.2605)">
      <g
         word-spacing="normal"
         letter-spacing="normal"
         font-size-adjust="none"
         font-stretch="normal"
         font-weight="normal"
         font-variant="normal"
         font-style="normal"
         stroke-miterlimit="10.433"
         xml:space="preserve"
         transform="matrix(0.19285714,0,0,-0.19285714,-33.75,101.25)"
         id="g4228"
         style="font-style:normal;font-variant:normal;font-weight:normal;font-stretch:normal;letter-spacing:normal;word-spacing:normal;text-anchor:start;fill:none;stroke:#000000;stroke-linecap:butt;stroke-linejoin:miter;stroke-miterlimit:10.43299961;stroke-opacity:1;stroke-dasharray:none;stroke-dashoffset:0"><path
           id="path4230"
           d="m 470.61,422.39 h 4.83 c 3.75,0 4.14,-0.8 4.14,-2.24 0,-0.36 0,-0.95 -0.34,-2.44 -0.11,-0.25 -0.16,-0.45 -0.16,-0.56 0,-0.39 0.3,-0.59 0.6,-0.59 0.5,0 0.5,0.15 0.75,1.05 l 2.75,10.81 c 0.14,0.54 0.14,0.65 0.14,0.79 0,0.1 -0.1,0.55 -0.6,0.55 -0.5,0 -0.54,-0.25 -0.75,-1.05 -1.04,-3.87 -2.18,-4.78 -6.42,-4.78 h -4.53 l 3.19,12.66 c 0.43,1.75 0.5,1.94 2.68,1.94 h 6.58 c 6.13,0 7.27,-1.64 7.27,-5.47 0,-1.16 0,-1.35 -0.14,-2.7 -0.11,-0.65 -0.11,-0.74 -0.11,-0.9 0,-0.25 0.15,-0.59 0.61,-0.59 0.54,0 0.59,0.3 0.69,1.25 l 1,8.61 c 0.15,1.34 -0.1,1.34 -1.35,1.34 h -24.4 c -1,0 -1.5,0 -1.5,-1 0,-0.54 0.45,-0.54 1.39,-0.54 1.84,0 3.23,0 3.23,-0.89 0,-0.21 0,-0.3 -0.25,-1.21 l -6.56,-26.34 c -0.5,-1.95 -0.61,-2.34 -4.55,-2.34 -0.84,0 -1.39,0 -1.39,-0.96 0,-0.59 0.59,-0.59 0.75,-0.59 1.44,0 5.13,0.16 6.58,0.16 1.64,0 5.78,-0.16 7.42,-0.16 0.45,0 1.05,0 1.05,0.95 0,0.39 -0.3,0.49 -0.3,0.55 -0.16,0.05 -0.25,0.05 -1.39,0.05 -1.11,0 -1.36,0 -2.59,0.09 -1.46,0.16 -1.6,0.36 -1.6,1 0,0.09 0,0.41 0.19,1.14 z"
           inkscape:connector-curvature="0"
           style="fill:#000000;stroke-width:0" /><path
           id="path4232"
           d="m 502.86,420.54 -0.01,0.06 0,0.06 -0.01,0.05 -0.01,0.06 -0.01,0.06 -0.01,0.06 -0.02,0.05 -0.02,0.06 -0.02,0.06 -0.03,0.05 -0.03,0.06 -0.03,0.05 -0.03,0.06 -0.04,0.05 -0.04,0.05 -0.04,0.05 -0.04,0.05 -0.05,0.04 -0.05,0.05 -0.05,0.04 -0.06,0.04 -0.06,0.03 -0.06,0.04 -0.06,0.03 -0.07,0.02 -0.07,0.03 -0.07,0.02 -0.08,0.02 -0.07,0.01 -0.08,0.01 -0.09,0.01 -0.09,0 c -1.01,0 -1.95,-0.98 -1.95,-1.92 0,-0.56 0.42,-1.33 1.39,-1.33 0.94,0 1.96,0.91 1.96,1.92 z"
           inkscape:connector-curvature="0"
           style="fill:#000000;stroke-width:0" /><path
           id="path4234"
           d="m 495.46,397.06 -0.05,-0.23 -0.07,-0.22 -0.07,-0.22 -0.08,-0.21 -0.09,-0.21 -0.09,-0.21 -0.1,-0.21 -0.11,-0.2 -0.11,-0.19 -0.12,-0.19 -0.12,-0.19 -0.13,-0.18 -0.13,-0.17 -0.13,-0.17 -0.15,-0.16 -0.14,-0.15 -0.15,-0.15 -0.16,-0.14 -0.16,-0.13 -0.16,-0.13 -0.16,-0.11 -0.17,-0.11 -0.17,-0.1 -0.18,-0.09 -0.18,-0.08 -0.18,-0.07 -0.18,-0.06 -0.18,-0.05 -0.19,-0.04 -0.19,-0.03 -0.19,-0.02 -0.19,0 c -0.45,0 -0.87,0.06 -1.27,0.2 0.91,0.42 1.19,1.25 1.19,1.78 0,0.83 -0.65,1.28 -1.36,1.28 -1.08,0 -1.98,-0.94 -1.98,-2.04 0,-1.33 1.36,-2.21 3.45,-2.21 2.1,0 6.16,1.25 7.25,5.5 l 3.13,12.49 c 0.11,0.37 0.17,0.68 0.17,1.22 0,1.9 -1.63,3.26 -3.72,3.26 -3.88,0 -6.09,-4.84 -6.09,-5.33 0,-0.45 0.48,-0.45 0.59,-0.45 0.41,0 0.45,0.11 0.69,0.62 0.87,2.04 2.68,4.19 4.7,4.19 0.88,0 1.19,-0.59 1.19,-1.7 0,-0.39 -0.06,-0.88 -0.11,-1.05 z"
           inkscape:connector-curvature="0"
           style="fill:#000000;stroke-width:0" /></g>    </g>
    <g
       transform="translate(-51.65444,915.55976)"
       id="g4374">
      <g
         style="font-style:normal;font-variant:normal;font-weight:normal;font-stretch:normal;letter-spacing:normal;word-spacing:normal;text-anchor:start;fill:none;stroke:#000000;stroke-linecap:butt;stroke-linejoin:miter;stroke-miterlimit:10.43299961;stroke-opacity:1;stroke-dasharray:none;stroke-dashoffset:0"
         id="g4376"
         transform="matrix(0.19285714,0,0,-0.19285714,-33.75,101.25)"
         xml:space="preserve"
         stroke-miterlimit="10.433"
         font-style="normal"
         font-variant="normal"
         font-weight="normal"
         font-stretch="normal"
         font-size-adjust="none"
         letter-spacing="normal"
         word-spacing="normal"><path
           style="fill:#000000;stroke-width:0"
           inkscape:connector-curvature="0"
           d="m 470.61,422.39 h 4.83 c 3.75,0 4.14,-0.8 4.14,-2.24 0,-0.36 0,-0.95 -0.34,-2.44 -0.11,-0.25 -0.16,-0.45 -0.16,-0.56 0,-0.39 0.3,-0.59 0.6,-0.59 0.5,0 0.5,0.15 0.75,1.05 l 2.75,10.81 c 0.14,0.54 0.14,0.65 0.14,0.79 0,0.1 -0.1,0.55 -0.6,0.55 -0.5,0 -0.54,-0.25 -0.75,-1.05 -1.04,-3.87 -2.18,-4.78 -6.42,-4.78 h -4.53 l 3.19,12.66 c 0.43,1.75 0.5,1.94 2.68,1.94 h 6.58 c 6.13,0 7.27,-1.64 7.27,-5.47 0,-1.16 0,-1.35 -0.14,-2.7 -0.11,-0.65 -0.11,-0.74 -0.11,-0.9 0,-0.25 0.15,-0.59 0.61,-0.59 0.54,0 0.59,0.3 0.69,1.25 l 1,8.61 c 0.15,1.34 -0.1,1.34 -1.35,1.34 h -24.4 c -1,0 -1.5,0 -1.5,-1 0,-0.54 0.45,-0.54 1.39,-0.54 1.84,0 3.23,0 3.23,-0.89 0,-0.21 0,-0.3 -0.25,-1.21 l -6.56,-26.34 c -0.5,-1.95 -0.61,-2.34 -4.55,-2.34 -0.84,0 -1.39,0 -1.39,-0.96 0,-0.59 0.59,-0.59 0.75,-0.59 1.44,0 5.13,0.16 6.58,0.16 1.64,0 5.78,-0.16 7.42,-0.16 0.45,0 1.05,0 1.05,0.95 0,0.39 -0.3,0.49 -0.3,0.55 -0.16,0.05 -0.25,0.05 -1.39,0.05 -1.11,0 -1.36,0 -2.59,0.09 -1.46,0.16 -1.6,0.36 -1.6,1 0,0.09 0,0.41 0.19,1.14 z"
           id="path4378" /><path
           style="fill:#000000;stroke-width:0"
           inkscape:connector-curvature="0"
           d="m 502.86,420.54 -0.01,0.06 0,0.06 -0.01,0.05 -0.01,0.06 -0.01,0.06 -0.01,0.06 -0.02,0.05 -0.02,0.06 -0.02,0.06 -0.03,0.05 -0.03,0.06 -0.03,0.05 -0.03,0.06 -0.04,0.05 -0.04,0.05 -0.04,0.05 -0.04,0.05 -0.05,0.04 -0.05,0.05 -0.05,0.04 -0.06,0.04 -0.06,0.03 -0.06,0.04 -0.06,0.03 -0.07,0.02 -0.07,0.03 -0.07,0.02 -0.08,0.02 -0.07,0.01 -0.08,0.01 -0.09,0.01 -0.09,0 c -1.01,0 -1.95,-0.98 -1.95,-1.92 0,-0.56 0.42,-1.33 1.39,-1.33 0.94,0 1.96,0.91 1.96,1.92 z"
           id="path4380" /><path
           style="fill:#000000;stroke-width:0"
           inkscape:connector-curvature="0"
           d="m 495.46,397.06 -0.05,-0.23 -0.07,-0.22 -0.07,-0.22 -0.08,-0.21 -0.09,-0.21 -0.09,-0.21 -0.1,-0.21 -0.11,-0.2 -0.11,-0.19 -0.12,-0.19 -0.12,-0.19 -0.13,-0.18 -0.13,-0.17 -0.13,-0.17 -0.15,-0.16 -0.14,-0.15 -0.15,-0.15 -0.16,-0.14 -0.16,-0.13 -0.16,-0.13 -0.16,-0.11 -0.17,-0.11 -0.17,-0.1 -0.18,-0.09 -0.18,-0.08 -0.18,-0.07 -0.18,-0.06 -0.18,-0.05 -0.19,-0.04 -0.19,-0.03 -0.19,-0.02 -0.19,0 c -0.45,0 -0.87,0.06 -1.27,0.2 0.91,0.42 1.19,1.25 1.19,1.78 0,0.83 -0.65,1.28 -1.36,1.28 -1.08,0 -1.98,-0.94 -1.98,-2.04 0,-1.33 1.36,-2.21 3.45,-2.21 2.1,0 6.16,1.25 7.25,5.5 l 3.13,12.49 c 0.11,0.37 0.17,0.68 0.17,1.22 0,1.9 -1.63,3.26 -3.72,3.26 -3.88,0 -6.09,-4.84 -6.09,-5.33 0,-0.45 0.48,-0.45 0.59,-0.45 0.41,0 0.45,0.11 0.69,0.62 0.87,2.04 2.68,4.19 4.7,4.19 0.88,0 1.19,-0.59 1.19,-1.7 0,-0.39 -0.06,-0.88 -0.11,-1.05 z"
           id="path4382" /><path
           style="fill:#000000;stroke-width:0"
           inkscape:connector-curvature="0"
           d="m 524.02,409.87 0,0.71 -0.02,0.68 -0.03,0.66 -0.04,0.64 -0.06,0.62 -0.08,0.6 -0.09,0.57 -0.1,0.56 -0.13,0.55 -0.15,0.53 -0.17,0.51 -0.19,0.5 -0.21,0.49 -0.24,0.48 -0.26,0.47 -0.14,0.23 -0.15,0.23 c -1.08,1.61 -3.23,3 -6.03,3 v -0.98 c 1.89,0 3.7,-1.14 4.33,-3.17 0.56,-1.88 0.59,-4.39 0.59,-7.43 0,-2.57 0,-5.15 -0.45,-7.34 -0.7,-3.17 -3.06,-3.94 -4.47,-3.94 h 0 c -1.59,0 -3.72,0.94 -4.42,3.8 -0.49,2.05 -0.49,4.91 -0.49,7.48 0,2.55 0,5.21 0.52,7.11 0.73,2.75 2.97,3.49 4.39,3.49 v 0.98 c -8.08,0 -8.08,-9.51 -8.08,-12.03 0,-2.5 0,-11.81 8.08,-11.81 8.09,0 8.09,9.31 8.09,11.81 z"
           id="path4384" /></g>    </g>
    <g
       id="g4536"
       transform="translate(-52.339082,925.57384)">
      <g
         word-spacing="normal"
         letter-spacing="normal"
         font-size-adjust="none"
         font-stretch="normal"
         font-weight="normal"
         font-variant="normal"
         font-style="normal"
         stroke-miterlimit="10.433"
         xml:space="preserve"
         transform="matrix(0.19285714,0,0,-0.19285714,-33.75,101.25)"
         id="g4538"
         style="font-style:normal;font-variant:normal;font-weight:normal;font-stretch:normal;letter-spacing:normal;word-spacing:normal;text-anchor:start;fill:none;stroke:#000000;stroke-linecap:butt;stroke-linejoin:miter;stroke-miterlimit:10.43299961;stroke-opacity:1;stroke-dasharray:none;stroke-dashoffset:0"><path
           id="path4540"
           d="m 478.83,424.73 0,0.12 0,0.13 -0.01,0.12 0,0.11 -0.01,0.12 -0.01,0.11 -0.01,0.11 -0.02,0.1 -0.03,0.21 -0.03,0.19 -0.05,0.18 -0.04,0.18 -0.06,0.16 -0.06,0.16 -0.06,0.15 -0.07,0.13 -0.07,0.13 -0.07,0.12 -0.08,0.12 -0.08,0.1 -0.08,0.1 -0.09,0.09 -0.08,0.08 -0.09,0.07 -0.09,0.07 -0.09,0.06 -0.1,0.05 -0.09,0.05 -0.09,0.04 -0.09,0.03 -0.09,0.03 -0.1,0.03 -0.09,0.01 -0.08,0.02 -0.09,0 -0.09,0 c -1.25,0 -2.43,-1.29 -2.43,-2.39 0,-0.64 0.25,-0.93 0.79,-1.48 1.05,-1 1.69,-2.3 1.69,-4.09 0,-2.1 -3.03,-13.5 -8.86,-13.5 -2.54,0 -3.69,1.75 -3.69,4.32 0,2.8 1.35,6.44 2.9,10.57 0.34,0.86 0.59,1.54 0.59,2.5 0,2.23 -1.59,4.07 -4.09,4.07 -4.68,0 -6.58,-7.21 -6.58,-7.67 0,-0.5 0.5,-0.5 0.61,-0.5 0.5,0 0.54,0.11 0.79,0.91 1.44,5.03 3.58,6.17 5.03,6.17 0.4,0 1.25,0 1.25,-1.59 0,-1.25 -0.5,-2.6 -0.85,-3.49 -2.19,-5.78 -2.83,-8.08 -2.83,-10.22 0,-5.37 4.37,-6.17 6.67,-6.17 8.37,0 11.2,16.49 11.2,19.08 z"
           inkscape:connector-curvature="0"
           style="fill:#000000;stroke-width:0" /><path
           id="path4542"
           d="m 497.62,409.87 0,0.71 -0.02,0.68 -0.03,0.66 -0.04,0.64 -0.06,0.62 -0.07,0.6 -0.09,0.57 -0.11,0.56 -0.13,0.55 -0.15,0.53 -0.17,0.51 -0.19,0.5 -0.21,0.49 -0.24,0.48 -0.26,0.47 -0.14,0.23 -0.15,0.23 c -1.08,1.61 -3.23,3 -6.03,3 v -0.98 c 1.89,0 3.7,-1.14 4.33,-3.17 0.56,-1.88 0.59,-4.39 0.59,-7.43 0,-2.57 0,-5.15 -0.45,-7.34 -0.7,-3.17 -3.06,-3.94 -4.47,-3.94 h 0 c -1.59,0 -3.72,0.94 -4.42,3.8 -0.49,2.05 -0.49,4.91 -0.49,7.48 0,2.55 0,5.21 0.52,7.11 0.74,2.75 2.97,3.49 4.39,3.49 v 0.98 c -8.08,0 -8.08,-9.51 -8.08,-12.03 0,-2.5 0,-11.81 8.08,-11.81 8.09,0 8.09,9.31 8.09,11.81 z"
           inkscape:connector-curvature="0"
           style="fill:#000000;stroke-width:0" /></g>    </g>
    <path
       sodipodi:nodetypes="ccc"
       inkscape:connector-curvature="0"
       id="path5665"
       d="m 8.092058,953.09493 29.202552,0 0,35.00017"
       style="fill:none;stroke:#000000;stroke-width:2;stroke-linecap:butt;stroke-linejoin:miter;stroke-miterlimit:4;stroke-opacity:1;stroke-dasharray:none;marker-end:url(#Arrow1Mend)" />
    <g
       id="g5966"
       transform="translate(-51.768225,904.34677)">
      <g
         word-spacing="normal"
         letter-spacing="normal"
         font-size-adjust="none"
         font-stretch="normal"
         font-weight="normal"
         font-variant="normal"
         font-style="normal"
         stroke-miterlimit="10.433"
         xml:space="preserve"
         transform="matrix(0.19285714,0,0,-0.19285714,-33.75,101.25)"
         id="g5968"
         style="font-style:normal;font-variant:normal;font-weight:normal;font-stretch:normal;letter-spacing:normal;word-spacing:normal;text-anchor:start;fill:none;stroke:#000000;stroke-linecap:butt;stroke-linejoin:miter;stroke-miterlimit:10.43299961;stroke-opacity:1;stroke-dasharray:none;stroke-dashoffset:0"><path
           id="path5970"
           d="m 493.38,440.82 0,0.02 0,0.02 0,0.01 -0.01,0.02 0,0.02 0,0.02 -0.01,0.02 0,0.02 -0.01,0.02 -0.01,0.02 -0.01,0.02 0,0.02 -0.02,0.02 -0.01,0.02 -0.01,0.02 -0.01,0.02 -0.02,0.02 -0.02,0.02 -0.02,0.02 -0.02,0.02 -0.02,0.01 -0.02,0.02 -0.03,0.01 -0.02,0.02 -0.03,0.01 -0.01,0.01 -0.02,0 -0.01,0.01 -0.02,0 -0.02,0.01 -0.01,0 -0.02,0 -0.02,0.01 -0.02,0 -0.02,0 -0.02,0 -0.02,0 -0.02,0 -0.02,0 c -0.14,0 -0.2,-0.04 -0.75,-0.59 l -3.48,-3.84 c -0.44,0.7 -2.74,4.43 -8.27,4.43 -11.11,0 -22.33,-11.01 -22.33,-22.56 0,-8.23 5.89,-13.65 13.52,-13.65 4.33,0 8.11,1.98 10.75,4.28 4.64,4.09 5.48,8.62 5.48,8.76 0,0.5 -0.5,0.5 -0.59,0.5 -0.3,0 -0.55,-0.09 -0.66,-0.5 -0.43,-1.44 -1.59,-4.98 -5.03,-7.87 -3.43,-2.78 -6.58,-3.63 -9.15,-3.63 -4.49,0 -9.77,2.6 -9.77,10.36 0,2.85 1.05,10.91 6.02,16.74 3.04,3.54 7.73,6.03 12.15,6.03 5.1,0 8.03,-3.83 8.03,-9.61 0,-2 -0.15,-2.05 -0.15,-2.55 0,-0.5 0.54,-0.5 0.75,-0.5 0.64,0 0.64,0.11 0.89,1 z"
           inkscape:connector-curvature="0"
           style="fill:#000000;stroke-width:0" /><path
           id="path5972"
           d="m 506.46,420.54 0,0.06 -0.01,0.06 0,0.05 -0.01,0.06 -0.02,0.06 -0.01,0.06 -0.02,0.05 -0.02,0.06 -0.02,0.06 -0.03,0.05 -0.02,0.06 -0.04,0.05 -0.03,0.06 -0.04,0.05 -0.03,0.05 -0.05,0.05 -0.04,0.05 -0.05,0.04 -0.05,0.05 -0.05,0.04 -0.06,0.04 -0.06,0.03 -0.06,0.04 -0.06,0.03 -0.07,0.02 -0.07,0.03 -0.07,0.02 -0.07,0.02 -0.08,0.01 -0.08,0.01 -0.09,0.01 -0.08,0 c -1.02,0 -1.96,-0.98 -1.96,-1.92 0,-0.56 0.43,-1.33 1.39,-1.33 0.94,0 1.96,0.91 1.96,1.92 z"
           inkscape:connector-curvature="0"
           style="fill:#000000;stroke-width:0" /><path
           id="path5974"
           d="m 499.07,397.06 -0.06,-0.23 -0.07,-0.22 -0.07,-0.22 -0.08,-0.21 -0.09,-0.21 -0.09,-0.21 -0.1,-0.21 -0.11,-0.2 -0.11,-0.19 -0.11,-0.19 -0.13,-0.19 -0.12,-0.18 -0.14,-0.17 -0.13,-0.17 -0.14,-0.16 -0.15,-0.15 -0.15,-0.15 -0.16,-0.14 -0.15,-0.13 -0.17,-0.13 -0.16,-0.11 -0.17,-0.11 -0.17,-0.1 -0.18,-0.09 -0.17,-0.08 -0.18,-0.07 -0.19,-0.06 -0.18,-0.05 -0.19,-0.04 -0.19,-0.03 -0.19,-0.02 -0.19,0 c -0.45,0 -0.87,0.06 -1.26,0.2 0.9,0.42 1.18,1.25 1.18,1.78 0,0.83 -0.65,1.28 -1.36,1.28 -1.07,0 -1.98,-0.94 -1.98,-2.04 0,-1.33 1.36,-2.21 3.45,-2.21 2.1,0 6.16,1.25 7.25,5.5 l 3.13,12.49 c 0.11,0.37 0.17,0.68 0.17,1.22 0,1.9 -1.62,3.26 -3.72,3.26 -3.87,0 -6.09,-4.84 -6.09,-5.33 0,-0.45 0.48,-0.45 0.59,-0.45 0.41,0 0.45,0.11 0.69,0.62 0.87,2.04 2.69,4.19 4.7,4.19 0.88,0 1.19,-0.59 1.19,-1.7 0,-0.39 -0.06,-0.88 -0.11,-1.05 z"
           inkscape:connector-curvature="0"
           style="fill:#000000;stroke-width:0" /><path
           id="path5976"
           d="m 527.62,409.87 0,0.71 -0.02,0.68 -0.03,0.66 -0.04,0.64 -0.06,0.62 -0.08,0.6 -0.09,0.57 -0.11,0.56 -0.12,0.55 -0.15,0.53 -0.17,0.51 -0.19,0.5 -0.21,0.49 -0.24,0.48 -0.26,0.47 -0.14,0.23 -0.15,0.23 c -1.08,1.61 -3.24,3 -6.03,3 v -0.98 c 1.89,0 3.7,-1.14 4.32,-3.17 0.57,-1.88 0.6,-4.39 0.6,-7.43 0,-2.57 0,-5.15 -0.45,-7.34 -0.71,-3.17 -3.07,-3.94 -4.47,-3.94 h 0 c -1.6,0 -3.72,0.94 -4.43,3.8 -0.48,2.05 -0.48,4.91 -0.48,7.48 0,2.55 0,5.21 0.52,7.11 0.73,2.75 2.96,3.49 4.39,3.49 v 0.98 c -8.08,0 -8.08,-9.51 -8.08,-12.03 0,-2.5 0,-11.81 8.08,-11.81 8.09,0 8.09,9.31 8.09,11.81 z"
           inkscape:connector-curvature="0"
           style="fill:#000000;stroke-width:0" /></g>    </g>
    <path
       style="fill:none;stroke:#000000;stroke-width:2;stroke-linecap:butt;stroke-linejoin:miter;stroke-miterlimit:4;stroke-opacity:1;stroke-dasharray:none;marker-end:url(#Arrow1Mend)"
       d="m 82.729988,1035.3363 c 33.476302,-0.3727 10.426688,-0.2655 35.874962,-0.3792"
       id="path6067"
       inkscape:connector-curvature="0"
       sodipodi:nodetypes="cc" />
    <g
       transform="translate(69.330629,1003.1488)"
       id="g6069">
      <g
         style="font-style:normal;font-variant:normal;font-weight:normal;font-stretch:normal;letter-spacing:normal;word-spacing:normal;text-anchor:start;fill:none;stroke:#000000;stroke-linecap:butt;stroke-linejoin:miter;stroke-miterlimit:10.43299961;stroke-opacity:1;stroke-dasharray:none;stroke-dashoffset:0"
         id="g6071"
         transform="matrix(0.19285714,0,0,-0.19285714,-33.75,101.25)"
         xml:space="preserve"
         stroke-miterlimit="10.433"
         font-style="normal"
         font-variant="normal"
         font-weight="normal"
         font-stretch="normal"
         font-size-adjust="none"
         letter-spacing="normal"
         word-spacing="normal"><path
           style="fill:#000000;stroke-width:0"
           inkscape:connector-curvature="0"
           d="m 493.38,440.82 0,0.02 0,0.02 0,0.01 -0.01,0.02 0,0.02 0,0.02 -0.01,0.02 0,0.02 -0.01,0.02 -0.01,0.02 -0.01,0.02 0,0.02 -0.02,0.02 -0.01,0.02 -0.01,0.02 -0.01,0.02 -0.02,0.02 -0.02,0.02 -0.02,0.02 -0.02,0.02 -0.02,0.01 -0.02,0.02 -0.03,0.01 -0.02,0.02 -0.03,0.01 -0.01,0.01 -0.02,0 -0.01,0.01 -0.02,0 -0.02,0.01 -0.01,0 -0.02,0 -0.02,0.01 -0.02,0 -0.02,0 -0.02,0 -0.02,0 -0.02,0 -0.02,0 c -0.14,0 -0.2,-0.04 -0.75,-0.59 l -3.48,-3.84 c -0.44,0.7 -2.74,4.43 -8.27,4.43 -11.11,0 -22.33,-11.01 -22.33,-22.56 0,-8.23 5.89,-13.65 13.52,-13.65 4.33,0 8.11,1.98 10.75,4.28 4.64,4.09 5.48,8.62 5.48,8.76 0,0.5 -0.5,0.5 -0.59,0.5 -0.3,0 -0.55,-0.09 -0.66,-0.5 -0.43,-1.44 -1.59,-4.98 -5.03,-7.87 -3.43,-2.78 -6.58,-3.63 -9.15,-3.63 -4.49,0 -9.77,2.6 -9.77,10.36 0,2.85 1.05,10.91 6.02,16.74 3.04,3.54 7.73,6.03 12.15,6.03 5.1,0 8.03,-3.83 8.03,-9.61 0,-2 -0.15,-2.05 -0.15,-2.55 0,-0.5 0.54,-0.5 0.75,-0.5 0.64,0 0.64,0.11 0.89,1 z"
           id="path6073" /><path
           style="fill:#000000;stroke-width:0"
           inkscape:connector-curvature="0"
           d="m 506.46,420.54 0,0.06 -0.01,0.06 0,0.05 -0.01,0.06 -0.02,0.06 -0.01,0.06 -0.02,0.05 -0.02,0.06 -0.02,0.06 -0.03,0.05 -0.02,0.06 -0.04,0.05 -0.03,0.06 -0.04,0.05 -0.03,0.05 -0.05,0.05 -0.04,0.05 -0.05,0.04 -0.05,0.05 -0.05,0.04 -0.06,0.04 -0.06,0.03 -0.06,0.04 -0.06,0.03 -0.07,0.02 -0.07,0.03 -0.07,0.02 -0.07,0.02 -0.08,0.01 -0.08,0.01 -0.09,0.01 -0.08,0 c -1.02,0 -1.96,-0.98 -1.96,-1.92 0,-0.56 0.43,-1.33 1.39,-1.33 0.94,0 1.96,0.91 1.96,1.92 z"
           id="path6075" /><path
           style="fill:#000000;stroke-width:0"
           inkscape:connector-curvature="0"
           d="m 499.07,397.06 -0.06,-0.23 -0.07,-0.22 -0.07,-0.22 -0.08,-0.21 -0.09,-0.21 -0.09,-0.21 -0.1,-0.21 -0.11,-0.2 -0.11,-0.19 -0.11,-0.19 -0.13,-0.19 -0.12,-0.18 -0.14,-0.17 -0.13,-0.17 -0.14,-0.16 -0.15,-0.15 -0.15,-0.15 -0.16,-0.14 -0.15,-0.13 -0.17,-0.13 -0.16,-0.11 -0.17,-0.11 -0.17,-0.1 -0.18,-0.09 -0.17,-0.08 -0.18,-0.07 -0.19,-0.06 -0.18,-0.05 -0.19,-0.04 -0.19,-0.03 -0.19,-0.02 -0.19,0 c -0.45,0 -0.87,0.06 -1.26,0.2 0.9,0.42 1.18,1.25 1.18,1.78 0,0.83 -0.65,1.28 -1.36,1.28 -1.07,0 -1.98,-0.94 -1.98,-2.04 0,-1.33 1.36,-2.21 3.45,-2.21 2.1,0 6.16,1.25 7.25,5.5 l 3.13,12.49 c 0.11,0.37 0.17,0.68 0.17,1.22 0,1.9 -1.62,3.26 -3.72,3.26 -3.87,0 -6.09,-4.84 -6.09,-5.33 0,-0.45 0.48,-0.45 0.59,-0.45 0.41,0 0.45,0.11 0.69,0.62 0.87,2.04 2.69,4.19 4.7,4.19 0.88,0 1.19,-0.59 1.19,-1.7 0,-0.39 -0.06,-0.88 -0.11,-1.05 z"
           id="path6077" /></g>    </g>
    <path
       style="fill:none;stroke:#000000;stroke-width:1px;stroke-linecap:butt;stroke-linejoin:miter;stroke-opacity:1"
       d="m 19.568965,994.94839 c 1.241379,0 22.96309,3.89274 32.12069,0.93103 9.828494,-3.17869 29.482759,0.15517 29.482759,0.15517"
       id="path6081"
       inkscape:connector-curvature="0"
       sodipodi:nodetypes="csc" />
  </g>
</svg>
