<?xml version="1.0" encoding="UTF-8" standalone="no"?>
<!-- Created with Inkscape (http://www.inkscape.org/) -->

<svg
   xmlns:dc="http://purl.org/dc/elements/1.1/"
   xmlns:cc="http://creativecommons.org/ns#"
   xmlns:rdf="http://www.w3.org/1999/02/22-rdf-syntax-ns#"
   xmlns:svg="http://www.w3.org/2000/svg"
   xmlns="http://www.w3.org/2000/svg"
   xmlns:sodipodi="http://sodipodi.sourceforge.net/DTD/sodipodi-0.dtd"
   xmlns:inkscape="http://www.inkscape.org/namespaces/inkscape"
   width="700"
   height="700"
   id="svg2"
   version="1.1"
   inkscape:version="0.48.0 r9654"
   sodipodi:docname="trimming-and-winsorizing.svg"
   style="display:inline"
   inkscape:export-filename="winsorized-data.png"
   inkscape:export-xdpi="200"
   inkscape:export-ydpi="200">
  <defs
     id="defs4">
    <marker
       inkscape:stockid="Arrow1MstartW"
       orient="auto"
       refY="0"
       refX="0"
       id="Arrow1MstartW"
       style="overflow:visible">
      <path
         id="path6285"
         d="M 0,0 5,-5 -12.5,0 5,5 0,0 z"
         style="fill:#005a00;fill-rule:evenodd;stroke:#005a00;stroke-width:1pt;marker-start:none"
         transform="matrix(0.4,0,0,0.4,4,0)"
         inkscape:connector-curvature="0" />
    </marker>
    <marker
       inkscape:stockid="Arrow1Mend77"
       orient="auto"
       refY="0"
       refX="0"
       id="Arrow1Mend77"
       style="overflow:visible">
      <path
         inkscape:connector-curvature="0"
         id="path4884"
         d="M 0,0 5,-5 -12.5,0 5,5 0,0 z"
         style="fill:#2f7eb5;fill-rule:evenodd;stroke:#2f7eb5;stroke-width:1pt;marker-start:none"
         transform="matrix(-0.4,0,0,-0.4,-4,0)" />
    </marker>
    <marker
       inkscape:stockid="Arrow1Mendj"
       orient="auto"
       refY="0"
       refX="0"
       id="Arrow1Mendj"
       style="overflow:visible">
      <path
         inkscape:connector-curvature="0"
         id="path4061"
         d="M 0,0 5,-5 -12.5,0 5,5 0,0 z"
         style="fill:#a0a0a0;fill-rule:evenodd;stroke:#a0a0a0;stroke-width:1pt;marker-start:none"
         transform="matrix(-0.4,0,0,-0.4,-4,0)" />
    </marker>
    <marker
       inkscape:stockid="Arrow1MendJ"
       orient="auto"
       refY="0"
       refX="0"
       id="Arrow1MendJ"
       style="overflow:visible">
      <path
         inkscape:connector-curvature="0"
         id="path4058"
         d="M 0,0 5,-5 -12.5,0 5,5 0,0 z"
         style="fill:#a0a0a0;fill-rule:evenodd;stroke:#a0a0a0;stroke-width:1pt;marker-start:none"
         transform="matrix(-0.4,0,0,-0.4,-4,0)" />
    </marker>
    <marker
       inkscape:stockid="Arrow1Mendd"
       orient="auto"
       refY="0"
       refX="0"
       id="Arrow1Mendd"
       style="overflow:visible">
      <path
         inkscape:connector-curvature="0"
         id="path3895"
         d="M 0,0 5,-5 -12.5,0 5,5 0,0 z"
         style="fill:#a0a0a0;fill-rule:evenodd;stroke:#a0a0a0;stroke-width:1pt;marker-start:none"
         transform="matrix(-0.4,0,0,-0.4,-4,0)" />
    </marker>
    <marker
       inkscape:stockid="Arrow1Mend7D"
       orient="auto"
       refY="0"
       refX="0"
       id="Arrow1Mend7D"
       style="overflow:visible">
      <path
         inkscape:connector-curvature="0"
         id="path4478"
         d="M 0,0 5,-5 -12.5,0 5,5 0,0 z"
         style="fill:#4e009e;fill-rule:evenodd;stroke:#4e009e;stroke-width:1pt;marker-start:none"
         transform="matrix(-0.4,0,0,-0.4,-4,0)" />
    </marker>
    <marker
       inkscape:stockid="Arrow1Mend7a"
       orient="auto"
       refY="0"
       refX="0"
       id="Arrow1Mend7a"
       style="overflow:visible">
      <path
         inkscape:connector-curvature="0"
         id="path4267"
         d="M 0,0 5,-5 -12.5,0 5,5 0,0 z"
         style="fill:#4e009e;fill-rule:evenodd;stroke:#4e009e;stroke-width:1pt;marker-start:none"
         transform="matrix(-0.4,0,0,-0.4,-4,0)" />
    </marker>
    <marker
       inkscape:stockid="Arrow1Mend7"
       orient="auto"
       refY="0"
       refX="0"
       id="Arrow1Mend7"
       style="overflow:visible">
      <path
         inkscape:connector-curvature="0"
         id="path4059"
         d="M 0,0 5,-5 -12.5,0 5,5 0,0 z"
         style="fill:#f56912;fill-rule:evenodd;stroke:#f56912;stroke-width:1pt;marker-start:none"
         transform="matrix(-0.4,0,0,-0.4,-4,0)" />
    </marker>
    <inkscape:perspective
       sodipodi:type="inkscape:persp3d"
       inkscape:vp_x="0 : 526.18109 : 1"
       inkscape:vp_y="0 : 1000 : 0"
       inkscape:vp_z="744.09448 : 526.18109 : 1"
       inkscape:persp3d-origin="372.04724 : 350.78739 : 1"
       id="perspective10" />
    <marker
       inkscape:stockid="Arrow1Mend"
       orient="auto"
       refY="0"
       refX="0"
       id="Arrow1Mend"
       style="overflow:visible">
      <path
         inkscape:connector-curvature="0"
         id="path3602"
         d="M 0,0 5,-5 -12.5,0 5,5 0,0 z"
         style="fill-rule:evenodd;stroke:#000000;stroke-width:1pt;marker-start:none"
         transform="matrix(-0.4,0,0,-0.4,-4,0)" />
    </marker>
    <marker
       inkscape:stockid="Arrow1Mstart"
       orient="auto"
       refY="0"
       refX="0"
       id="Arrow1Mstart"
       style="overflow:visible">
      <path
         id="path5811"
         d="M 0,0 5,-5 -12.5,0 5,5 0,0 z"
         style="fill-rule:evenodd;stroke:#000000;stroke-width:1pt;marker-start:none"
         transform="matrix(0.4,0,0,0.4,4,0)"
         inkscape:connector-curvature="0" />
    </marker>
  </defs>
  <sodipodi:namedview
     id="base"
     pagecolor="#ffffff"
     bordercolor="#666666"
     borderopacity="1.0"
     inkscape:pageopacity="0.0"
     inkscape:pageshadow="2"
     inkscape:zoom="0.82571429"
     inkscape:cx="350"
     inkscape:cy="350"
     inkscape:document-units="px"
     inkscape:current-layer="g9526"
     showgrid="false"
     width="800px"
     inkscape:window-width="1440"
     inkscape:window-height="796"
     inkscape:window-x="0"
     inkscape:window-y="0"
     inkscape:window-maximized="0" />
  <metadata
     id="metadata7">
    <rdf:RDF>
      <cc:Work
         rdf:about="">
        <dc:format>image/svg+xml</dc:format>
        <dc:type
           rdf:resource="http://purl.org/dc/dcmitype/StillImage" />
        <dc:title></dc:title>
      </cc:Work>
    </rdf:RDF>
  </metadata>
  <g
     inkscape:label="Base"
     inkscape:groupmode="layer"
     id="layer1"
     transform="translate(0,-352.36218)"
     style="display:inline">
    <path
       inkscape:connector-curvature="0"
       id="path4213"
       d="m 16.82298,539.82881 669.35561,0.39315"
       style="fill:none;stroke:#f56912;stroke-width:2.5;stroke-linecap:butt;stroke-linejoin:miter;stroke-miterlimit:4;stroke-opacity:1;stroke-dasharray:none;marker-start:none;marker-mid:none;marker-end:url(#Arrow1Mend7);display:inline;enable-background:new" />
    <path
       style="fill:none;stroke:#f56912;stroke-width:2.5;stroke-linecap:butt;stroke-linejoin:miter;stroke-miterlimit:4;stroke-opacity:1;stroke-dasharray:5, 10;stroke-dashoffset:0;marker-start:none;marker-mid:none;marker-end:none;display:inline;enable-background:new"
       d="m 16.82298,439.82881 669.35561,0.39315"
       id="path9199"
       inkscape:connector-curvature="0" />
    <path
       inkscape:connector-curvature="0"
       id="path9403"
       d="m 16.82298,639.82881 669.35561,0.39315"
       style="fill:none;stroke:#f56912;stroke-width:2.5;stroke-linecap:butt;stroke-linejoin:miter;stroke-miterlimit:4;stroke-opacity:1;stroke-dasharray:5, 10;stroke-dashoffset:0;marker-start:none;marker-mid:none;marker-end:none;display:inline;enable-background:new" />
    <path
       transform="matrix(0.58953374,0.08285357,0.08285357,-0.58953374,-172.19704,631.71427)"
       d="m 336.67596,234.58609 a 15.117731,15.117731 0 1 1 -30.23546,0 15.117731,15.117731 0 1 1 30.23546,0 z"
       sodipodi:ry="15.117731"
       sodipodi:rx="15.117731"
       sodipodi:cy="234.58609"
       sodipodi:cx="321.55823"
       id="path5281"
       style="fill:#2f7eb4;fill-opacity:1;fill-rule:nonzero;stroke:none;stroke-width:1.67974794;marker-start:none;marker-mid:none"
       sodipodi:type="arc" />
    <path
       id="path4215"
       d="M 16.953626,680.96097 16.712574,399.46532"
       style="fill:none;stroke:#f56912;stroke-width:2.5;stroke-linecap:butt;stroke-linejoin:miter;stroke-miterlimit:4;stroke-opacity:1;stroke-dasharray:none;marker-start:none;marker-end:none;display:inline;enable-background:new"
       sodipodi:nodetypes="cc"
       inkscape:connector-curvature="0" />
    <path
       sodipodi:type="arc"
       style="fill:#2f7eb4;fill-opacity:1;fill-rule:nonzero;stroke:none;stroke-width:1.67974794;marker-start:none;marker-mid:none"
       id="path9167"
       sodipodi:cx="321.55823"
       sodipodi:cy="234.58609"
       sodipodi:rx="15.117731"
       sodipodi:ry="15.117731"
       d="m 336.67596,234.58609 a 15.117731,15.117731 0 1 1 -30.23546,0 15.117731,15.117731 0 1 1 30.23546,0 z"
       transform="matrix(0.58953374,0.08285357,0.08285357,-0.58953374,-132.19704,691.71427)" />
    <path
       sodipodi:type="arc"
       style="fill:#2f7eb4;fill-opacity:1;fill-rule:nonzero;stroke:none;stroke-width:1.67974794;marker-start:none;marker-mid:none"
       id="path9171"
       sodipodi:cx="321.55823"
       sodipodi:cy="234.58609"
       sodipodi:rx="15.117731"
       sodipodi:ry="15.117731"
       d="m 336.67596,234.58609 a 15.117731,15.117731 0 1 1 -30.23546,0 15.117731,15.117731 0 1 1 30.23546,0 z"
       transform="matrix(0.58953374,0.08285357,0.08285357,-0.58953374,-92.19704,701.71427)" />
    <path
       transform="matrix(0.58953374,0.08285357,0.08285357,-0.58953374,-52.19704,591.71427)"
       d="m 336.67596,234.58609 a 15.117731,15.117731 0 1 1 -30.23546,0 15.117731,15.117731 0 1 1 30.23546,0 z"
       sodipodi:ry="15.117731"
       sodipodi:rx="15.117731"
       sodipodi:cy="234.58609"
       sodipodi:cx="321.55823"
       id="path9173"
       style="fill:#2f7eb4;fill-opacity:1;fill-rule:nonzero;stroke:none;stroke-width:1.67974794;marker-start:none;marker-mid:none"
       sodipodi:type="arc" />
    <path
       sodipodi:type="arc"
       style="fill:#2f7eb4;fill-opacity:1;fill-rule:nonzero;stroke:none;stroke-width:1.67974794;marker-start:none;marker-mid:none"
       id="path9175"
       sodipodi:cx="321.55823"
       sodipodi:cy="234.58609"
       sodipodi:rx="15.117731"
       sodipodi:ry="15.117731"
       d="m 336.67596,234.58609 a 15.117731,15.117731 0 1 1 -30.23546,0 15.117731,15.117731 0 1 1 30.23546,0 z"
       transform="matrix(0.58953374,0.08285357,0.08285357,-0.58953374,7.80296,531.71427)" />
    <path
       transform="matrix(0.58953374,0.08285357,0.08285357,-0.58953374,47.80296,711.71427)"
       d="m 336.67596,234.58609 a 15.117731,15.117731 0 1 1 -30.23546,0 15.117731,15.117731 0 1 1 30.23546,0 z"
       sodipodi:ry="15.117731"
       sodipodi:rx="15.117731"
       sodipodi:cy="234.58609"
       sodipodi:cx="321.55823"
       id="path9177"
       style="fill:#2f7eb4;fill-opacity:1;fill-rule:nonzero;stroke:none;stroke-width:1.67974794;marker-start:none;marker-mid:none"
       sodipodi:type="arc" />
    <path
       sodipodi:type="arc"
       style="fill:#2f7eb4;fill-opacity:1;fill-rule:nonzero;stroke:none;stroke-width:1.67974794;marker-start:none;marker-mid:none"
       id="path9179"
       sodipodi:cx="321.55823"
       sodipodi:cy="234.58609"
       sodipodi:rx="15.117731"
       sodipodi:ry="15.117731"
       d="m 336.67596,234.58609 a 15.117731,15.117731 0 1 1 -30.23546,0 15.117731,15.117731 0 1 1 30.23546,0 z"
       transform="matrix(0.58953374,0.08285357,0.08285357,-0.58953374,87.80296,611.71427)" />
    <path
       transform="matrix(0.58953374,0.08285357,0.08285357,-0.58953374,127.80296,691.71427)"
       d="m 336.67596,234.58609 a 15.117731,15.117731 0 1 1 -30.23546,0 15.117731,15.117731 0 1 1 30.23546,0 z"
       sodipodi:ry="15.117731"
       sodipodi:rx="15.117731"
       sodipodi:cy="234.58609"
       sodipodi:cx="321.55823"
       id="path9181"
       style="fill:#2f7eb4;fill-opacity:1;fill-rule:nonzero;stroke:none;stroke-width:1.67974794;marker-start:none;marker-mid:none"
       sodipodi:type="arc" />
    <path
       sodipodi:type="arc"
       style="fill:#2f7eb4;fill-opacity:1;fill-rule:nonzero;stroke:none;stroke-width:1.67974794;marker-start:none;marker-mid:none"
       id="path9183"
       sodipodi:cx="321.55823"
       sodipodi:cy="234.58609"
       sodipodi:rx="15.117731"
       sodipodi:ry="15.117731"
       d="m 336.67596,234.58609 a 15.117731,15.117731 0 1 1 -30.23546,0 15.117731,15.117731 0 1 1 30.23546,0 z"
       transform="matrix(0.58953374,0.08285357,0.08285357,-0.58953374,187.80296,761.71427)" />
    <path
       transform="matrix(0.58953374,0.08285357,0.08285357,-0.58953374,227.80296,711.71427)"
       d="m 336.67596,234.58609 a 15.117731,15.117731 0 1 1 -30.23546,0 15.117731,15.117731 0 1 1 30.23546,0 z"
       sodipodi:ry="15.117731"
       sodipodi:rx="15.117731"
       sodipodi:cy="234.58609"
       sodipodi:cx="321.55823"
       id="path9185"
       style="fill:#2f7eb4;fill-opacity:1;fill-rule:nonzero;stroke:none;stroke-width:1.67974794;marker-start:none;marker-mid:none"
       sodipodi:type="arc" />
    <path
       sodipodi:type="arc"
       style="fill:#2f7eb4;fill-opacity:1;fill-rule:nonzero;stroke:none;stroke-width:1.67974794;marker-start:none;marker-mid:none"
       id="path9187"
       sodipodi:cx="321.55823"
       sodipodi:cy="234.58609"
       sodipodi:rx="15.117731"
       sodipodi:ry="15.117731"
       d="m 336.67596,234.58609 a 15.117731,15.117731 0 1 1 -30.23546,0 15.117731,15.117731 0 1 1 30.23546,0 z"
       transform="matrix(0.58953374,0.08285357,0.08285357,-0.58953374,267.80296,563.71427)" />
    <path
       transform="matrix(0.58953374,0.08285357,0.08285357,-0.58953374,307.80296,591.71427)"
       d="m 336.67596,234.58609 a 15.117731,15.117731 0 1 1 -30.23546,0 15.117731,15.117731 0 1 1 30.23546,0 z"
       sodipodi:ry="15.117731"
       sodipodi:rx="15.117731"
       sodipodi:cy="234.58609"
       sodipodi:cx="321.55823"
       id="path9191"
       style="fill:#2f7eb4;fill-opacity:1;fill-rule:nonzero;stroke:none;stroke-width:1.67974794;marker-start:none;marker-mid:none"
       sodipodi:type="arc" />
    <path
       sodipodi:type="arc"
       style="fill:#2f7eb4;fill-opacity:1;fill-rule:nonzero;stroke:none;stroke-width:1.67974794;marker-start:none;marker-mid:none"
       id="path9193"
       sodipodi:cx="321.55823"
       sodipodi:cy="234.58609"
       sodipodi:rx="15.117731"
       sodipodi:ry="15.117731"
       d="m 336.67596,234.58609 a 15.117731,15.117731 0 1 1 -30.23546,0 15.117731,15.117731 0 1 1 30.23546,0 z"
       transform="matrix(0.58953374,0.08285357,0.08285357,-0.58953374,347.80296,731.71427)" />
    <path
       transform="matrix(0.58953374,0.08285357,0.08285357,-0.58953374,387.80296,651.71427)"
       d="m 336.67596,234.58609 a 15.117731,15.117731 0 1 1 -30.23546,0 15.117731,15.117731 0 1 1 30.23546,0 z"
       sodipodi:ry="15.117731"
       sodipodi:rx="15.117731"
       sodipodi:cy="234.58609"
       sodipodi:cx="321.55823"
       id="path9195"
       style="fill:#2f7eb4;fill-opacity:1;fill-rule:nonzero;stroke:none;stroke-width:1.67974794;marker-start:none;marker-mid:none"
       sodipodi:type="arc" />
    <path
       sodipodi:type="arc"
       style="fill:#2f7eb4;fill-opacity:1;fill-rule:nonzero;stroke:none;stroke-width:1.67974794;marker-start:none;marker-mid:none"
       id="path9197"
       sodipodi:cx="321.55823"
       sodipodi:cy="234.58609"
       sodipodi:rx="15.117731"
       sodipodi:ry="15.117731"
       d="m 336.67596,234.58609 a 15.117731,15.117731 0 1 1 -30.23546,0 15.117731,15.117731 0 1 1 30.23546,0 z"
       transform="matrix(0.58953374,0.08285357,0.08285357,-0.58953374,427.80296,591.71427)" />
    <text
       xml:space="preserve"
       style="font-size:20px;font-style:normal;font-variant:normal;font-weight:normal;font-stretch:normal;text-align:start;line-height:125%;letter-spacing:0px;word-spacing:0px;writing-mode:lr-tb;text-anchor:start;fill:#000000;fill-opacity:1;stroke:none;font-family:Monospace;-inkscape-font-specification:Monospace"
       x="655.79242"
       y="436.26526"
       id="text9405"
       sodipodi:linespacing="125%"><tspan
         sodipodi:role="line"
         id="tspan9407"
         x="655.79242"
         y="436.26526">95%</tspan></text>
    <text
       sodipodi:linespacing="125%"
       id="text9409"
       y="660.26526"
       x="655.79242"
       style="font-size:20px;font-style:normal;font-variant:normal;font-weight:normal;font-stretch:normal;text-align:start;line-height:125%;letter-spacing:0px;word-spacing:0px;writing-mode:lr-tb;text-anchor:start;fill:#000000;fill-opacity:1;stroke:none;font-family:Monospace;-inkscape-font-specification:Monospace"
       xml:space="preserve"><tspan
         sodipodi:role="line"
         id="tspan9413"
         x="655.79242"
         y="660.26526"> 5%</tspan></text>
    <text
       xml:space="preserve"
       style="font-size:25px;font-style:normal;font-variant:normal;font-weight:normal;font-stretch:normal;text-align:start;line-height:125%;letter-spacing:0px;word-spacing:0px;writing-mode:lr-tb;text-anchor:start;fill:#000000;fill-opacity:1;stroke:none;font-family:Bitstream Vera Sans;-inkscape-font-specification:Bitstream Vera Sans"
       x="13.008961"
       y="392.32758"
       id="text9486"
       sodipodi:linespacing="125%"><tspan
         sodipodi:role="line"
         id="tspan9488"
         x="13.008961"
         y="392.32758">Raw data</tspan></text>
  </g>
  <g
     inkscape:groupmode="layer"
     id="layer2"
     inkscape:label="Trim"
     style="display:inline">
    <path
       transform="matrix(0.58953374,0.08285357,0.08285357,-0.58953374,187.80296,769.35212)"
       d="m 336.67596,234.58609 a 15.117731,15.117731 0 1 1 -30.23546,0 15.117731,15.117731 0 1 1 30.23546,0 z"
       sodipodi:ry="15.117731"
       sodipodi:rx="15.117731"
       sodipodi:cy="234.58609"
       sodipodi:cx="321.55823"
       id="path9499"
       style="fill:none;stroke:#2f7eb5;stroke-width:5.0392437;stroke-miterlimit:4;stroke-opacity:1;stroke-dasharray:none;marker-start:none;marker-mid:none;display:inline"
       sodipodi:type="arc" />
    <path
       sodipodi:type="arc"
       style="fill:none;stroke:#2f7eb5;stroke-width:5.0392437;stroke-miterlimit:4;stroke-opacity:1;stroke-dasharray:none;marker-start:none;marker-mid:none;display:inline"
       id="path4859"
       sodipodi:cx="321.55823"
       sodipodi:cy="234.58609"
       sodipodi:rx="15.117731"
       sodipodi:ry="15.117731"
       d="m 336.67596,234.58609 a 15.117731,15.117731 0 1 1 -30.23546,0 15.117731,15.117731 0 1 1 30.23546,0 z"
       transform="matrix(0.58953374,0.08285357,0.08285357,-0.58953374,7.80296,539.35209)" />
    <path
       transform="translate(0,-352.36218)"
       style="fill:none;stroke:#f56912;stroke-width:2.5;stroke-linecap:butt;stroke-linejoin:miter;stroke-miterlimit:4;stroke-opacity:1;stroke-dasharray:none;marker-start:none;marker-mid:none;marker-end:url(#Arrow1Mend7);display:inline;enable-background:new"
       d="m 16.82298,899.82881 669.35561,0.39315"
       id="path9415"
       inkscape:connector-curvature="0" />
    <path
       transform="translate(0,-352.36218)"
       inkscape:connector-curvature="0"
       id="path9417"
       d="m 16.82298,799.82881 669.35561,0.39315"
       style="fill:none;stroke:#f56912;stroke-width:2.5;stroke-linecap:butt;stroke-linejoin:miter;stroke-miterlimit:4;stroke-opacity:1;stroke-dasharray:5, 10;stroke-dashoffset:0;marker-start:none;marker-mid:none;marker-end:none;display:inline;enable-background:new" />
    <path
       transform="translate(0,-352.36218)"
       style="fill:none;stroke:#f56912;stroke-width:2.5;stroke-linecap:butt;stroke-linejoin:miter;stroke-miterlimit:4;stroke-opacity:1;stroke-dasharray:5, 10;stroke-dashoffset:0;marker-start:none;marker-mid:none;marker-end:none;display:inline;enable-background:new"
       d="m 16.82298,999.8288 669.35561,0.3932"
       id="path9419"
       inkscape:connector-curvature="0" />
    <path
       sodipodi:type="arc"
       style="fill:#2f7eb4;fill-opacity:1;fill-rule:nonzero;stroke:none;stroke-width:1.67974794;marker-start:none;marker-mid:none;display:inline"
       id="path9421"
       sodipodi:cx="321.55823"
       sodipodi:cy="234.58609"
       sodipodi:rx="15.117731"
       sodipodi:ry="15.117731"
       d="m 336.67596,234.58609 a 15.117731,15.117731 0 1 1 -30.23546,0 15.117731,15.117731 0 1 1 30.23546,0 z"
       transform="matrix(0.58953374,0.08285357,0.08285357,-0.58953374,-172.19704,639.35212)" />
    <path
       transform="translate(0,-352.36218)"
       inkscape:connector-curvature="0"
       sodipodi:nodetypes="cc"
       style="fill:none;stroke:#f56912;stroke-width:2.5;stroke-linecap:butt;stroke-linejoin:miter;stroke-miterlimit:4;stroke-opacity:1;stroke-dasharray:none;marker-start:none;marker-end:none;display:inline;enable-background:new"
       d="M 16.953626,1040.961 16.712574,759.46532"
       id="path9423" />
    <path
       transform="matrix(0.58953374,0.08285357,0.08285357,-0.58953374,-132.19704,699.35212)"
       d="m 336.67596,234.58609 a 15.117731,15.117731 0 1 1 -30.23546,0 15.117731,15.117731 0 1 1 30.23546,0 z"
       sodipodi:ry="15.117731"
       sodipodi:rx="15.117731"
       sodipodi:cy="234.58609"
       sodipodi:cx="321.55823"
       id="path9425"
       style="fill:#2f7eb4;fill-opacity:1;fill-rule:nonzero;stroke:none;stroke-width:1.67974794;marker-start:none;marker-mid:none;display:inline"
       sodipodi:type="arc" />
    <path
       transform="matrix(0.58953374,0.08285357,0.08285357,-0.58953374,-92.19704,709.35212)"
       d="m 336.67596,234.58609 a 15.117731,15.117731 0 1 1 -30.23546,0 15.117731,15.117731 0 1 1 30.23546,0 z"
       sodipodi:ry="15.117731"
       sodipodi:rx="15.117731"
       sodipodi:cy="234.58609"
       sodipodi:cx="321.55823"
       id="path9427"
       style="fill:#2f7eb4;fill-opacity:1;fill-rule:nonzero;stroke:none;stroke-width:1.67974794;marker-start:none;marker-mid:none;display:inline"
       sodipodi:type="arc" />
    <path
       sodipodi:type="arc"
       style="fill:#2f7eb4;fill-opacity:1;fill-rule:nonzero;stroke:none;stroke-width:1.67974794;marker-start:none;marker-mid:none;display:inline"
       id="path9429"
       sodipodi:cx="321.55823"
       sodipodi:cy="234.58609"
       sodipodi:rx="15.117731"
       sodipodi:ry="15.117731"
       d="m 336.67596,234.58609 a 15.117731,15.117731 0 1 1 -30.23546,0 15.117731,15.117731 0 1 1 30.23546,0 z"
       transform="matrix(0.58953374,0.08285357,0.08285357,-0.58953374,-52.19704,599.35209)" />
    <path
       sodipodi:type="arc"
       style="fill:#2f7eb4;fill-opacity:1;fill-rule:nonzero;stroke:none;stroke-width:1.67974794;marker-start:none;marker-mid:none;display:inline"
       id="path9433"
       sodipodi:cx="321.55823"
       sodipodi:cy="234.58609"
       sodipodi:rx="15.117731"
       sodipodi:ry="15.117731"
       d="m 336.67596,234.58609 a 15.117731,15.117731 0 1 1 -30.23546,0 15.117731,15.117731 0 1 1 30.23546,0 z"
       transform="matrix(0.58953374,0.08285357,0.08285357,-0.58953374,47.80296,719.35212)" />
    <path
       transform="matrix(0.58953374,0.08285357,0.08285357,-0.58953374,87.80296,619.35209)"
       d="m 336.67596,234.58609 a 15.117731,15.117731 0 1 1 -30.23546,0 15.117731,15.117731 0 1 1 30.23546,0 z"
       sodipodi:ry="15.117731"
       sodipodi:rx="15.117731"
       sodipodi:cy="234.58609"
       sodipodi:cx="321.55823"
       id="path9435"
       style="fill:#2f7eb4;fill-opacity:1;fill-rule:nonzero;stroke:none;stroke-width:1.67974794;marker-start:none;marker-mid:none;display:inline"
       sodipodi:type="arc" />
    <path
       sodipodi:type="arc"
       style="fill:#2f7eb4;fill-opacity:1;fill-rule:nonzero;stroke:none;stroke-width:1.67974794;marker-start:none;marker-mid:none;display:inline"
       id="path9437"
       sodipodi:cx="321.55823"
       sodipodi:cy="234.58609"
       sodipodi:rx="15.117731"
       sodipodi:ry="15.117731"
       d="m 336.67596,234.58609 a 15.117731,15.117731 0 1 1 -30.23546,0 15.117731,15.117731 0 1 1 30.23546,0 z"
       transform="matrix(0.58953374,0.08285357,0.08285357,-0.58953374,127.80296,699.35212)" />
    <path
       sodipodi:type="arc"
       style="fill:#2f7eb4;fill-opacity:1;fill-rule:nonzero;stroke:none;stroke-width:1.67974794;marker-start:none;marker-mid:none;display:inline"
       id="path9441"
       sodipodi:cx="321.55823"
       sodipodi:cy="234.58609"
       sodipodi:rx="15.117731"
       sodipodi:ry="15.117731"
       d="m 336.67596,234.58609 a 15.117731,15.117731 0 1 1 -30.23546,0 15.117731,15.117731 0 1 1 30.23546,0 z"
       transform="matrix(0.58953374,0.08285357,0.08285357,-0.58953374,227.80296,719.35212)" />
    <path
       transform="matrix(0.58953374,0.08285357,0.08285357,-0.58953374,267.80296,571.35209)"
       d="m 336.67596,234.58609 a 15.117731,15.117731 0 1 1 -30.23546,0 15.117731,15.117731 0 1 1 30.23546,0 z"
       sodipodi:ry="15.117731"
       sodipodi:rx="15.117731"
       sodipodi:cy="234.58609"
       sodipodi:cx="321.55823"
       id="path9443"
       style="fill:#2f7eb4;fill-opacity:1;fill-rule:nonzero;stroke:none;stroke-width:1.67974794;marker-start:none;marker-mid:none;display:inline"
       sodipodi:type="arc" />
    <path
       sodipodi:type="arc"
       style="fill:#2f7eb4;fill-opacity:1;fill-rule:nonzero;stroke:none;stroke-width:1.67974794;marker-start:none;marker-mid:none;display:inline"
       id="path9445"
       sodipodi:cx="321.55823"
       sodipodi:cy="234.58609"
       sodipodi:rx="15.117731"
       sodipodi:ry="15.117731"
       d="m 336.67596,234.58609 a 15.117731,15.117731 0 1 1 -30.23546,0 15.117731,15.117731 0 1 1 30.23546,0 z"
       transform="matrix(0.58953374,0.08285357,0.08285357,-0.58953374,307.80296,599.35209)" />
    <path
       transform="matrix(0.58953374,0.08285357,0.08285357,-0.58953374,347.80296,739.35212)"
       d="m 336.67596,234.58609 a 15.117731,15.117731 0 1 1 -30.23546,0 15.117731,15.117731 0 1 1 30.23546,0 z"
       sodipodi:ry="15.117731"
       sodipodi:rx="15.117731"
       sodipodi:cy="234.58609"
       sodipodi:cx="321.55823"
       id="path9447"
       style="fill:#2f7eb4;fill-opacity:1;fill-rule:nonzero;stroke:none;stroke-width:1.67974794;marker-start:none;marker-mid:none;display:inline"
       sodipodi:type="arc" />
    <path
       sodipodi:type="arc"
       style="fill:#2f7eb4;fill-opacity:1;fill-rule:nonzero;stroke:none;stroke-width:1.67974794;marker-start:none;marker-mid:none;display:inline"
       id="path9449"
       sodipodi:cx="321.55823"
       sodipodi:cy="234.58609"
       sodipodi:rx="15.117731"
       sodipodi:ry="15.117731"
       d="m 336.67596,234.58609 a 15.117731,15.117731 0 1 1 -30.23546,0 15.117731,15.117731 0 1 1 30.23546,0 z"
       transform="matrix(0.58953374,0.08285357,0.08285357,-0.58953374,387.80296,659.35212)" />
    <path
       transform="matrix(0.58953374,0.08285357,0.08285357,-0.58953374,427.80296,599.35209)"
       d="m 336.67596,234.58609 a 15.117731,15.117731 0 1 1 -30.23546,0 15.117731,15.117731 0 1 1 30.23546,0 z"
       sodipodi:ry="15.117731"
       sodipodi:rx="15.117731"
       sodipodi:cy="234.58609"
       sodipodi:cx="321.55823"
       id="path9451"
       style="fill:#2f7eb4;fill-opacity:1;fill-rule:nonzero;stroke:none;stroke-width:1.67974794;marker-start:none;marker-mid:none;display:inline"
       sodipodi:type="arc" />
    <text
       transform="translate(0,-352.36218)"
       sodipodi:linespacing="125%"
       id="text9453"
       y="796.26526"
       x="655.79242"
       style="font-size:20px;font-style:normal;font-variant:normal;font-weight:normal;font-stretch:normal;text-align:start;line-height:125%;letter-spacing:0px;word-spacing:0px;writing-mode:lr-tb;text-anchor:start;fill:#000000;fill-opacity:1;stroke:none;display:inline;font-family:Monospace;-inkscape-font-specification:Monospace"
       xml:space="preserve"><tspan
         y="796.26526"
         x="655.79242"
         id="tspan9455"
         sodipodi:role="line">95%</tspan></text>
    <text
       transform="translate(0,-352.36218)"
       xml:space="preserve"
       style="font-size:20px;font-style:normal;font-variant:normal;font-weight:normal;font-stretch:normal;text-align:start;line-height:125%;letter-spacing:0px;word-spacing:0px;writing-mode:lr-tb;text-anchor:start;fill:#000000;fill-opacity:1;stroke:none;display:inline;font-family:Monospace;-inkscape-font-specification:Monospace"
       x="655.79242"
       y="1020.2654"
       id="text9457"
       sodipodi:linespacing="125%"><tspan
         y="1020.2654"
         x="655.79242"
         id="tspan9459"
         sodipodi:role="line"> 5%</tspan></text>
    <text
       sodipodi:linespacing="125%"
       id="text9490"
       y="397.96539"
       x="13.008961"
       style="font-size:25px;font-style:normal;font-variant:normal;font-weight:normal;font-stretch:normal;text-align:start;line-height:125%;letter-spacing:0px;word-spacing:0px;writing-mode:lr-tb;text-anchor:start;fill:#000000;fill-opacity:1;stroke:none;display:inline;font-family:Bitstream Vera Sans;-inkscape-font-specification:Bitstream Vera Sans"
       xml:space="preserve"><tspan
         sodipodi:role="line"
         id="tspan9496"
         x="13.008961"
         y="397.96539">Trimmed data</tspan></text>
    <text
       xml:space="preserve"
       style="font-size:15px;font-style:oblique;font-variant:normal;font-weight:normal;font-stretch:normal;text-align:start;line-height:125%;letter-spacing:0px;word-spacing:0px;writing-mode:lr-tb;text-anchor:start;fill:#000000;fill-opacity:1;stroke:none;display:inline;font-family:Bitstream Vera Sans;-inkscape-font-specification:Bitstream Vera Sans Oblique"
       x="343.44443"
       y="683.77856"
       id="text9501"
       sodipodi:linespacing="125%"><tspan
         sodipodi:role="line"
         id="tspan9505"
         x="343.44443"
         y="683.77856">set as missing</tspan></text>
  </g>
  <g
     style="display:inline"
     inkscape:label="Winsorize"
     id="g9526"
     inkscape:groupmode="layer">
    <path
       inkscape:connector-curvature="0"
       id="path9536"
       d="m 16.82298,999.8288 669.35561,0.3932"
       style="fill:none;stroke:#f56912;stroke-width:2.5;stroke-linecap:butt;stroke-linejoin:miter;stroke-miterlimit:4;stroke-opacity:1;stroke-dasharray:5, 10;stroke-dashoffset:0;marker-start:none;marker-mid:none;marker-end:none;display:inline;enable-background:new"
       transform="translate(0,-352.36218)" />
    <path
       style="fill:none;stroke:#f56912;stroke-width:2.5;stroke-linecap:butt;stroke-linejoin:miter;stroke-miterlimit:4;stroke-opacity:1;stroke-dasharray:5, 10;stroke-dashoffset:0;marker-start:none;marker-mid:none;marker-end:none;display:inline;enable-background:new"
       d="m 16.82298,799.82881 669.35561,0.39315"
       id="path9534"
       inkscape:connector-curvature="0"
       transform="translate(0,-352.36218)" />
    <path
       sodipodi:type="arc"
       style="fill:#2f7eb5;fill-opacity:1;stroke:none;stroke-width:5.0392437;marker-start:none;marker-mid:none;display:inline"
       id="path9528"
       sodipodi:cx="321.55823"
       sodipodi:cy="234.58609"
       sodipodi:rx="15.117731"
       sodipodi:ry="15.117731"
       d="m 336.67596,234.58609 a 15.117731,15.117731 0 1 1 -30.23546,0 15.117731,15.117731 0 1 1 30.23546,0 z"
       transform="matrix(0.58953374,0.08285357,0.08285357,-0.58953374,187.80296,759.35212)" />
    <path
       transform="matrix(0.58953374,0.08285357,0.08285357,-0.58953374,7.80296,559.35209)"
       d="m 336.67596,234.58609 a 15.117731,15.117731 0 1 1 -30.23546,0 15.117731,15.117731 0 1 1 30.23546,0 z"
       sodipodi:ry="15.117731"
       sodipodi:rx="15.117731"
       sodipodi:cy="234.58609"
       sodipodi:cx="321.55823"
       id="path9530"
       style="fill:#2f7eb5;fill-opacity:1;stroke:none;stroke-width:5.0392437;marker-start:none;marker-mid:none;display:inline"
       sodipodi:type="arc" />
    <path
       inkscape:connector-curvature="0"
       id="path9532"
       d="m 16.82298,899.82881 669.35561,0.39315"
       style="fill:none;stroke:#f56912;stroke-width:2.5;stroke-linecap:butt;stroke-linejoin:miter;stroke-miterlimit:4;stroke-opacity:1;stroke-dasharray:none;marker-start:none;marker-mid:none;marker-end:url(#Arrow1Mend7);display:inline;enable-background:new"
       transform="translate(0,-352.36218)" />
    <path
       transform="matrix(0.58953374,0.08285357,0.08285357,-0.58953374,-172.19704,639.35212)"
       d="m 336.67596,234.58609 a 15.117731,15.117731 0 1 1 -30.23546,0 15.117731,15.117731 0 1 1 30.23546,0 z"
       sodipodi:ry="15.117731"
       sodipodi:rx="15.117731"
       sodipodi:cy="234.58609"
       sodipodi:cx="321.55823"
       id="path9538"
       style="fill:#2f7eb4;fill-opacity:1;fill-rule:nonzero;stroke:none;stroke-width:1.67974794;marker-start:none;marker-mid:none;display:inline"
       sodipodi:type="arc" />
    <path
       id="path9540"
       d="M 16.953626,1040.961 16.712574,759.46532"
       style="fill:none;stroke:#f56912;stroke-width:2.5;stroke-linecap:butt;stroke-linejoin:miter;stroke-miterlimit:4;stroke-opacity:1;stroke-dasharray:none;marker-start:none;marker-end:none;display:inline;enable-background:new"
       sodipodi:nodetypes="cc"
       inkscape:connector-curvature="0"
       transform="translate(0,-352.36218)" />
    <path
       sodipodi:type="arc"
       style="fill:#2f7eb4;fill-opacity:1;fill-rule:nonzero;stroke:none;stroke-width:1.67974794;marker-start:none;marker-mid:none;display:inline"
       id="path9542"
       sodipodi:cx="321.55823"
       sodipodi:cy="234.58609"
       sodipodi:rx="15.117731"
       sodipodi:ry="15.117731"
       d="m 336.67596,234.58609 a 15.117731,15.117731 0 1 1 -30.23546,0 15.117731,15.117731 0 1 1 30.23546,0 z"
       transform="matrix(0.58953374,0.08285357,0.08285357,-0.58953374,-132.19704,699.35212)" />
    <path
       sodipodi:type="arc"
       style="fill:#2f7eb4;fill-opacity:1;fill-rule:nonzero;stroke:none;stroke-width:1.67974794;marker-start:none;marker-mid:none;display:inline"
       id="path9544"
       sodipodi:cx="321.55823"
       sodipodi:cy="234.58609"
       sodipodi:rx="15.117731"
       sodipodi:ry="15.117731"
       d="m 336.67596,234.58609 a 15.117731,15.117731 0 1 1 -30.23546,0 15.117731,15.117731 0 1 1 30.23546,0 z"
       transform="matrix(0.58953374,0.08285357,0.08285357,-0.58953374,-92.19704,709.35212)" />
    <path
       transform="matrix(0.58953374,0.08285357,0.08285357,-0.58953374,-52.19704,599.35209)"
       d="m 336.67596,234.58609 a 15.117731,15.117731 0 1 1 -30.23546,0 15.117731,15.117731 0 1 1 30.23546,0 z"
       sodipodi:ry="15.117731"
       sodipodi:rx="15.117731"
       sodipodi:cy="234.58609"
       sodipodi:cx="321.55823"
       id="path9546"
       style="fill:#2f7eb4;fill-opacity:1;fill-rule:nonzero;stroke:none;stroke-width:1.67974794;marker-start:none;marker-mid:none;display:inline"
       sodipodi:type="arc" />
    <path
       transform="matrix(0.58953374,0.08285357,0.08285357,-0.58953374,47.80296,719.35212)"
       d="m 336.67596,234.58609 a 15.117731,15.117731 0 1 1 -30.23546,0 15.117731,15.117731 0 1 1 30.23546,0 z"
       sodipodi:ry="15.117731"
       sodipodi:rx="15.117731"
       sodipodi:cy="234.58609"
       sodipodi:cx="321.55823"
       id="path9548"
       style="fill:#2f7eb4;fill-opacity:1;fill-rule:nonzero;stroke:none;stroke-width:1.67974794;marker-start:none;marker-mid:none;display:inline"
       sodipodi:type="arc" />
    <path
       sodipodi:type="arc"
       style="fill:#2f7eb4;fill-opacity:1;fill-rule:nonzero;stroke:none;stroke-width:1.67974794;marker-start:none;marker-mid:none;display:inline"
       id="path9550"
       sodipodi:cx="321.55823"
       sodipodi:cy="234.58609"
       sodipodi:rx="15.117731"
       sodipodi:ry="15.117731"
       d="m 336.67596,234.58609 a 15.117731,15.117731 0 1 1 -30.23546,0 15.117731,15.117731 0 1 1 30.23546,0 z"
       transform="matrix(0.58953374,0.08285357,0.08285357,-0.58953374,87.80296,619.35209)" />
    <path
       transform="matrix(0.58953374,0.08285357,0.08285357,-0.58953374,127.80296,699.35212)"
       d="m 336.67596,234.58609 a 15.117731,15.117731 0 1 1 -30.23546,0 15.117731,15.117731 0 1 1 30.23546,0 z"
       sodipodi:ry="15.117731"
       sodipodi:rx="15.117731"
       sodipodi:cy="234.58609"
       sodipodi:cx="321.55823"
       id="path9552"
       style="fill:#2f7eb4;fill-opacity:1;fill-rule:nonzero;stroke:none;stroke-width:1.67974794;marker-start:none;marker-mid:none;display:inline"
       sodipodi:type="arc" />
    <path
       transform="matrix(0.58953374,0.08285357,0.08285357,-0.58953374,227.80296,719.35212)"
       d="m 336.67596,234.58609 a 15.117731,15.117731 0 1 1 -30.23546,0 15.117731,15.117731 0 1 1 30.23546,0 z"
       sodipodi:ry="15.117731"
       sodipodi:rx="15.117731"
       sodipodi:cy="234.58609"
       sodipodi:cx="321.55823"
       id="path9554"
       style="fill:#2f7eb4;fill-opacity:1;fill-rule:nonzero;stroke:none;stroke-width:1.67974794;marker-start:none;marker-mid:none;display:inline"
       sodipodi:type="arc" />
    <path
       sodipodi:type="arc"
       style="fill:#2f7db4;fill-opacity:1;fill-rule:nonzero;stroke:none;stroke-width:1.67974794;marker-start:none;marker-mid:none;display:inline"
       id="path9556"
       sodipodi:cx="321.55823"
       sodipodi:cy="234.58609"
       sodipodi:rx="15.117731"
       sodipodi:ry="15.117731"
       d="m 336.67596,234.58609 a 15.117731,15.117731 0 1 1 -30.23546,0 15.117731,15.117731 0 1 1 30.23546,0 z"
       transform="matrix(0.58953374,0.08285357,0.08285357,-0.58953374,267.80296,571.35209)" />
    <path
       transform="matrix(0.58953374,0.08285357,0.08285357,-0.58953374,307.80296,599.35209)"
       d="m 336.67596,234.58609 a 15.117731,15.117731 0 1 1 -30.23546,0 15.117731,15.117731 0 1 1 30.23546,0 z"
       sodipodi:ry="15.117731"
       sodipodi:rx="15.117731"
       sodipodi:cy="234.58609"
       sodipodi:cx="321.55823"
       id="path9558"
       style="fill:#2f7eb4;fill-opacity:1;fill-rule:nonzero;stroke:none;stroke-width:1.67974794;marker-start:none;marker-mid:none;display:inline"
       sodipodi:type="arc" />
    <path
       sodipodi:type="arc"
       style="fill:#2f7eb4;fill-opacity:1;fill-rule:nonzero;stroke:none;stroke-width:1.67974794;marker-start:none;marker-mid:none;display:inline"
       id="path9560"
       sodipodi:cx="321.55823"
       sodipodi:cy="234.58609"
       sodipodi:rx="15.117731"
       sodipodi:ry="15.117731"
       d="m 336.67596,234.58609 a 15.117731,15.117731 0 1 1 -30.23546,0 15.117731,15.117731 0 1 1 30.23546,0 z"
       transform="matrix(0.58953374,0.08285357,0.08285357,-0.58953374,347.80296,739.35212)" />
    <path
       transform="matrix(0.58953374,0.08285357,0.08285357,-0.58953374,387.80296,659.35212)"
       d="m 336.67596,234.58609 a 15.117731,15.117731 0 1 1 -30.23546,0 15.117731,15.117731 0 1 1 30.23546,0 z"
       sodipodi:ry="15.117731"
       sodipodi:rx="15.117731"
       sodipodi:cy="234.58609"
       sodipodi:cx="321.55823"
       id="path9562"
       style="fill:#2f7eb4;fill-opacity:1;fill-rule:nonzero;stroke:none;stroke-width:1.67974794;marker-start:none;marker-mid:none;display:inline"
       sodipodi:type="arc" />
    <path
       sodipodi:type="arc"
       style="fill:#2f7eb4;fill-opacity:1;fill-rule:nonzero;stroke:none;stroke-width:1.67974794;marker-start:none;marker-mid:none;display:inline"
       id="path9564"
       sodipodi:cx="321.55823"
       sodipodi:cy="234.58609"
       sodipodi:rx="15.117731"
       sodipodi:ry="15.117731"
       d="m 336.67596,234.58609 a 15.117731,15.117731 0 1 1 -30.23546,0 15.117731,15.117731 0 1 1 30.23546,0 z"
       transform="matrix(0.58953374,0.08285357,0.08285357,-0.58953374,427.80296,599.35209)" />
    <text
       xml:space="preserve"
       style="font-size:20px;font-style:normal;font-variant:normal;font-weight:normal;font-stretch:normal;text-align:start;line-height:125%;letter-spacing:0px;word-spacing:0px;writing-mode:lr-tb;text-anchor:start;fill:#000000;fill-opacity:1;stroke:none;display:inline;font-family:Monospace;-inkscape-font-specification:Monospace"
       x="655.79242"
       y="796.26526"
       id="text9566"
       sodipodi:linespacing="125%"
       transform="translate(0,-352.36218)"><tspan
         sodipodi:role="line"
         id="tspan9568"
         x="655.79242"
         y="796.26526">95%</tspan></text>
    <text
       sodipodi:linespacing="125%"
       id="text9570"
       y="1020.2654"
       x="655.79242"
       style="font-size:20px;font-style:normal;font-variant:normal;font-weight:normal;font-stretch:normal;text-align:start;line-height:125%;letter-spacing:0px;word-spacing:0px;writing-mode:lr-tb;text-anchor:start;fill:#000000;fill-opacity:1;stroke:none;display:inline;font-family:Monospace;-inkscape-font-specification:Monospace"
       xml:space="preserve"
       transform="translate(0,-352.36218)"><tspan
         sodipodi:role="line"
         id="tspan9572"
         x="655.79242"
         y="1020.2654"> 5%</tspan></text>
    <text
       xml:space="preserve"
       style="font-size:25px;font-style:normal;font-variant:normal;font-weight:normal;font-stretch:normal;text-align:start;line-height:125%;letter-spacing:0px;word-spacing:0px;writing-mode:lr-tb;text-anchor:start;fill:#000000;fill-opacity:1;stroke:none;display:inline;font-family:Bitstream Vera Sans;-inkscape-font-specification:Bitstream Vera Sans"
       x="13.008961"
       y="397.96539"
       id="text9574"
       sodipodi:linespacing="125%"
       inkscape:export-filename="trimmed-datapng.png"
       inkscape:export-xdpi="200"
       inkscape:export-ydpi="200"><tspan
         y="397.96539"
         x="13.008961"
         id="tspan9576"
         sodipodi:role="line">Winsorized data</tspan></text>
  </g>
</svg>
