<?xml version="1.0" encoding="UTF-8" standalone="no"?>
<!-- Created with Inkscape (http://www.inkscape.org/) -->

<svg
   xmlns:dc="http://purl.org/dc/elements/1.1/"
   xmlns:cc="http://creativecommons.org/ns#"
   xmlns:rdf="http://www.w3.org/1999/02/22-rdf-syntax-ns#"
   xmlns:svg="http://www.w3.org/2000/svg"
   xmlns="http://www.w3.org/2000/svg"
   xmlns:sodipodi="http://sodipodi.sourceforge.net/DTD/sodipodi-0.dtd"
   xmlns:inkscape="http://www.inkscape.org/namespaces/inkscape"
   width="400"
   height="450"
   id="svg2"
   version="1.1"
   inkscape:version="0.48.2 r9819"
   sodipodi:docname="mass-balance-filtration.svg"
   inkscape:export-filename="/Users/kevindunn/Sync/Figures/separations/filtration/mass-balance-filtration.png"
   inkscape:export-xdpi="300"
   inkscape:export-ydpi="300">
  <defs
     id="defs4">
    <marker
       inkscape:stockid="Arrow1Mend"
       orient="auto"
       refY="0"
       refX="0"
       id="Arrow1Mend"
       style="overflow:visible">
      <path
         id="path4048"
         d="M 0,0 5,-5 -12.5,0 5,5 0,0 z"
         style="fill-rule:evenodd;stroke:#000000;stroke-width:1pt;marker-start:none"
         transform="matrix(-0.4,0,0,-0.4,-4,0)"
         inkscape:connector-curvature="0" />
    </marker>
    <marker
       inkscape:stockid="Arrow1Mstart"
       orient="auto"
       refY="0"
       refX="0"
       id="Arrow1Mstart"
       style="overflow:visible">
      <path
         id="path4045"
         d="M 0,0 5,-5 -12.5,0 5,5 0,0 z"
         style="fill-rule:evenodd;stroke:#000000;stroke-width:1pt;marker-start:none"
         transform="matrix(0.4,0,0,0.4,4,0)"
         inkscape:connector-curvature="0" />
    </marker>
  </defs>
  <sodipodi:namedview
     id="base"
     pagecolor="#ffffff"
     bordercolor="#666666"
     borderopacity="1.0"
     inkscape:pageopacity="0.0"
     inkscape:pageshadow="2"
     inkscape:zoom="2.54"
     inkscape:cx="133.26772"
     inkscape:cy="225"
     inkscape:document-units="px"
     inkscape:current-layer="layer1"
     showgrid="false"
     inkscape:window-width="1588"
     inkscape:window-height="1331"
     inkscape:window-x="0"
     inkscape:window-y="0"
     inkscape:window-maximized="0" />
  <metadata
     id="metadata7">
    <rdf:RDF>
      <cc:Work
         rdf:about="">
        <dc:format>image/svg+xml</dc:format>
        <dc:type
           rdf:resource="http://purl.org/dc/dcmitype/StillImage" />
        <dc:title></dc:title>
      </cc:Work>
    </rdf:RDF>
  </metadata>
  <g
     inkscape:label="Layer 1"
     inkscape:groupmode="layer"
     id="layer1"
     transform="translate(0,-602.36218)">
    <path
       style="fill:none;stroke:#000000;stroke-width:4.06461096;stroke-linecap:butt;stroke-linejoin:miter;stroke-miterlimit:4;stroke-opacity:1;stroke-dasharray:none"
       d="m 47,605.34502 0,441.34478"
       id="path2985"
       inkscape:connector-curvature="0" />
    <path
       style="fill:#d3faf6;fill-opacity:1;stroke:none"
       d="m 89.4,781.3077 c -4.675,-0.1361 -15.5875,-0.7791 -24.25,-1.429 l -15.75,-1.1815 0,-80.76394 0,-80.76393 8.25,-1.17414 c 9.069039,-1.2907 157.1892,-0.8922 166,0.44661 l 4.75,0.72177 0,79.80066 0,79.80067 -11.25,0.5426 c -16.70359,0.8056 -49.71791,2.7667 -62.25,3.6978 -10.06223,0.7476 -44.70893,0.9076 -65.5,0.3024 z"
       id="path3831"
       inkscape:connector-curvature="0" />
    <path
       sodipodi:type="arc"
       style="fill:#916f6f;fill-opacity:1;stroke:none"
       id="path3833"
       sodipodi:cx="118.5"
       sodipodi:cy="51.5"
       sodipodi:rx="7.5"
       sodipodi:ry="7.5"
       d="m 126,51.5 a 7.5,7.5 0 1 1 -15,0 7.5,7.5 0 1 1 15,0 z"
       transform="translate(-20,580.36218)" />
    <path
       sodipodi:type="arc"
       style="fill:#916f6f;fill-opacity:1;stroke:none"
       id="path3835"
       sodipodi:cx="110"
       sodipodi:cy="80.5"
       sodipodi:rx="9"
       sodipodi:ry="2.5"
       d="m 119,80.5 a 9,2.5 0 1 1 -18,0 9,2.5 0 1 1 18,0 z"
       transform="translate(-20,580.36218)" />
    <path
       sodipodi:type="arc"
       style="fill:#916f6f;fill-opacity:1;stroke:none"
       id="path3837"
       sodipodi:cx="167"
       sodipodi:cy="81"
       sodipodi:rx="9"
       sodipodi:ry="10"
       d="m 176,81 a 9,10 0 1 1 -18,0 9,10 0 1 1 18,0 z"
       transform="matrix(0.81915205,-0.57357645,0.57357645,0.81915205,-43.257208,671.55054)" />
    <path
       sodipodi:type="arc"
       style="fill:#916f6f;fill-opacity:1;stroke:none"
       id="path3839"
       sodipodi:cx="193"
       sodipodi:cy="74"
       sodipodi:rx="3"
       sodipodi:ry="6"
       d="m 196,74 a 3,6 0 1 1 -6,0 3,6 0 1 1 6,0 z"
       transform="translate(-20,580.36218)" />
    <path
       sodipodi:type="arc"
       style="fill:#916f6f;fill-opacity:1;stroke:none"
       id="path3841"
       sodipodi:cx="139.5"
       sodipodi:cy="115"
       sodipodi:rx="6.5"
       sodipodi:ry="5"
       d="m 146,115 a 6.5,5 0 1 1 -13,0 6.5,5 0 1 1 13,0 z"
       transform="translate(-20,580.36218)" />
    <path
       sodipodi:type="arc"
       style="fill:#916f6f;fill-opacity:1;stroke:none"
       id="path3843"
       sodipodi:cx="164"
       sodipodi:cy="134.5"
       sodipodi:rx="2"
       sodipodi:ry="6.5"
       d="m 166,134.5 a 2,6.5 0 1 1 -4,0 2,6.5 0 1 1 4,0 z"
       transform="matrix(0.5,-0.8660254,0.8660254,0.5,-54.480416,789.64034)" />
    <path
       sodipodi:type="arc"
       style="fill:#916f6f;fill-opacity:1;stroke:none"
       id="path3845"
       sodipodi:cx="94"
       sodipodi:cy="161.5"
       sodipodi:rx="12"
       sodipodi:ry="6.5"
       d="m 106,161.5 a 12,6.5 0 1 1 -24,0 12,6.5 0 1 1 24,0 z"
       transform="translate(-20,580.36218)" />
    <path
       sodipodi:type="arc"
       style="fill:#916f6f;fill-opacity:1;stroke:none"
       id="path3847"
       sodipodi:cx="140.5"
       sodipodi:cy="180.5"
       sodipodi:rx="15.5"
       sodipodi:ry="3.5"
       d="m 156,180.5 a 15.5,3.5 0 1 1 -31,0 15.5,3.5 0 1 1 31,0 z"
       transform="matrix(-0.76604445,0.64278762,-0.64278762,-0.76604445,360.25039,813.72089)" />
    <path
       sodipodi:type="arc"
       style="fill:#916f6f;fill-opacity:1;stroke:none"
       id="path3849"
       sodipodi:cx="99.5"
       sodipodi:cy="133"
       sodipodi:rx="1.5"
       sodipodi:ry="7"
       d="m 101,133 a 1.5,7 0 1 1 -3,0 1.5,7 0 1 1 3,0 z"
       transform="matrix(0.50000001,-0.86602541,0.86602541,0.50000001,-92.430503,724.63277)" />
    <path
       sodipodi:type="arc"
       style="fill:#916f6f;fill-opacity:1;stroke:none"
       id="path3851"
       sodipodi:cx="122.5"
       sodipodi:cy="128.5"
       sodipodi:rx="2.5"
       sodipodi:ry="5.5"
       d="m 125,128.5 a 2.5,5.5 0 1 1 -5,0 2.5,5.5 0 1 1 5,0 z"
       transform="translate(-20,580.36218)" />
    <path
       sodipodi:type="arc"
       style="fill:#916f6f;fill-opacity:1;stroke:none"
       id="path3853"
       sodipodi:cx="145"
       sodipodi:cy="145.5"
       sodipodi:rx="2"
       sodipodi:ry="4.5"
       d="m 147,145.5 a 2,4.5 0 1 1 -4,0 2,4.5 0 1 1 4,0 z"
       transform="translate(-20,580.36218)" />
    <path
       sodipodi:type="arc"
       style="fill:#916f6f;fill-opacity:1;stroke:none"
       id="path3855"
       sodipodi:cx="198.5"
       sodipodi:cy="152.5"
       sodipodi:rx="3.5"
       sodipodi:ry="4.5"
       d="m 202,152.5 a 3.5,4.5 0 1 1 -7,0 3.5,4.5 0 1 1 7,0 z"
       transform="translate(-20,580.36218)" />
    <path
       transform="matrix(-1,0,0,-1,306,812.36218)"
       d="m 126,51.5 a 7.5,7.5 0 1 1 -15,0 7.5,7.5 0 1 1 15,0 z"
       sodipodi:ry="7.5"
       sodipodi:rx="7.5"
       sodipodi:cy="51.5"
       sodipodi:cx="118.5"
       id="path3912"
       style="fill:#916f6f;fill-opacity:1;stroke:none"
       sodipodi:type="arc" />
    <path
       transform="matrix(-1,0,0,-1,306,812.36218)"
       d="m 119,80.5 a 9,2.5 0 1 1 -18,0 9,2.5 0 1 1 18,0 z"
       sodipodi:ry="2.5"
       sodipodi:rx="9"
       sodipodi:cy="80.5"
       sodipodi:cx="110"
       id="path3914"
       style="fill:#916f6f;fill-opacity:1;stroke:none"
       sodipodi:type="arc" />
    <path
       transform="matrix(-0.81915205,0.57357645,-0.57357645,-0.81915205,334.15659,703.67601)"
       d="m 176,81 a 9,10 0 1 1 -18,0 9,10 0 1 1 18,0 z"
       sodipodi:ry="10"
       sodipodi:rx="9"
       sodipodi:cy="81"
       sodipodi:cx="167"
       id="path3916"
       style="fill:#916f6f;fill-opacity:1;stroke:none"
       sodipodi:type="arc" />
    <path
       transform="matrix(-1,0,0,-1,306,812.36218)"
       d="m 196,74 a 3,6 0 1 1 -6,0 3,6 0 1 1 6,0 z"
       sodipodi:ry="6"
       sodipodi:rx="3"
       sodipodi:cy="74"
       sodipodi:cx="193"
       id="path3918"
       style="fill:#916f6f;fill-opacity:1;stroke:none"
       sodipodi:type="arc" />
    <path
       transform="matrix(-1,0,0,-1,306,812.36218)"
       d="m 146,115 a 6.5,5 0 1 1 -13,0 6.5,5 0 1 1 13,0 z"
       sodipodi:ry="5"
       sodipodi:rx="6.5"
       sodipodi:cy="115"
       sodipodi:cx="139.5"
       id="path3920"
       style="fill:#916f6f;fill-opacity:1;stroke:none"
       sodipodi:type="arc" />
    <path
       transform="matrix(-1,0,0,-1,306,812.36218)"
       d="m 166,134.5 a 2,6.5 0 1 1 -4,0 2,6.5 0 1 1 4,0 z"
       sodipodi:ry="6.5"
       sodipodi:rx="2"
       sodipodi:cy="134.5"
       sodipodi:cx="164"
       id="path3922"
       style="fill:#916f6f;fill-opacity:1;stroke:none"
       sodipodi:type="arc" />
    <path
       transform="matrix(-0.93969262,0.34202015,-0.34202015,-0.93969262,355.56736,770.47264)"
       d="m 106,161.5 a 12,6.5 0 1 1 -24,0 12,6.5 0 1 1 24,0 z"
       sodipodi:ry="6.5"
       sodipodi:rx="12"
       sodipodi:cy="161.5"
       sodipodi:cx="94"
       id="path3924"
       style="fill:#916f6f;fill-opacity:1;stroke:none"
       sodipodi:type="arc" />
    <path
       transform="matrix(0.34202015,0.93969262,-0.93969262,0.34202015,287.06069,438.10075)"
       d="m 156,180.5 a 15.5,3.5 0 1 1 -31,0 15.5,3.5 0 1 1 31,0 z"
       sodipodi:ry="3.5"
       sodipodi:rx="15.5"
       sodipodi:cy="180.5"
       sodipodi:cx="140.5"
       id="path3926"
       style="fill:#916f6f;fill-opacity:1;stroke:none"
       sodipodi:type="arc" />
    <path
       transform="matrix(-0.42261826,0.90630778,-0.90630778,-0.42261826,369.08945,645.39278)"
       d="m 101,133 a 1.5,7 0 1 1 -3,0 1.5,7 0 1 1 3,0 z"
       sodipodi:ry="7"
       sodipodi:rx="1.5"
       sodipodi:cy="133"
       sodipodi:cx="99.5"
       id="path3928"
       style="fill:#916f6f;fill-opacity:1;stroke:none"
       sodipodi:type="arc" />
    <path
       transform="matrix(-0.8660254,0.5,-0.5,-0.8660254,353.83811,733.89644)"
       d="m 125,128.5 a 2.5,5.5 0 1 1 -5,0 2.5,5.5 0 1 1 5,0 z"
       sodipodi:ry="5.5"
       sodipodi:rx="2.5"
       sodipodi:cy="128.5"
       sodipodi:cx="122.5"
       id="path3930"
       style="fill:#916f6f;fill-opacity:1;stroke:none"
       sodipodi:type="arc" />
    <path
       transform="matrix(-1,0,0,-1,306,812.36218)"
       d="m 147,145.5 a 2,4.5 0 1 1 -4,0 2,4.5 0 1 1 4,0 z"
       sodipodi:ry="4.5"
       sodipodi:rx="2"
       sodipodi:cy="145.5"
       sodipodi:cx="145"
       id="path3932"
       style="fill:#916f6f;fill-opacity:1;stroke:none"
       sodipodi:type="arc" />
    <path
       transform="matrix(-1,0,0,-1,306,812.36218)"
       d="m 202,152.5 a 3.5,4.5 0 1 1 -7,0 3.5,4.5 0 1 1 7,0 z"
       sodipodi:ry="4.5"
       sodipodi:rx="3.5"
       sodipodi:cy="152.5"
       sodipodi:cx="198.5"
       id="path3934"
       style="fill:#916f6f;fill-opacity:1;stroke:none"
       sodipodi:type="arc" />
    <path
       transform="matrix(-1,0,0,1,188,600.36218)"
       d="m 126,51.5 a 7.5,7.5 0 1 1 -15,0 7.5,7.5 0 1 1 15,0 z"
       sodipodi:ry="7.5"
       sodipodi:rx="7.5"
       sodipodi:cy="51.5"
       sodipodi:cx="118.5"
       id="path3936"
       style="fill:#916f6f;fill-opacity:1;stroke:none"
       sodipodi:type="arc" />
    <path
       transform="matrix(-0.86602541,0.50000001,0.50000001,0.86602541,151.21053,559.99666)"
       d="m 119,80.5 a 9,2.5 0 1 1 -18,0 9,2.5 0 1 1 18,0 z"
       sodipodi:ry="2.5"
       sodipodi:rx="9"
       sodipodi:cy="80.5"
       sodipodi:cx="110"
       id="path3938"
       style="fill:#916f6f;fill-opacity:1;stroke:none"
       sodipodi:type="arc" />
    <path
       transform="matrix(-1,0,0,1,348,638.36218)"
       d="m 146,115 a 6.5,5 0 1 1 -13,0 6.5,5 0 1 1 13,0 z"
       sodipodi:ry="5"
       sodipodi:rx="6.5"
       sodipodi:cy="115"
       sodipodi:cx="139.5"
       id="path3940"
       style="fill:#916f6f;fill-opacity:1;stroke:none"
       sodipodi:type="arc" />
    <path
       transform="matrix(-1,0,0,1,188,600.36218)"
       d="m 106,161.5 a 12,6.5 0 1 1 -24,0 12,6.5 0 1 1 24,0 z"
       sodipodi:ry="6.5"
       sodipodi:rx="12"
       sodipodi:cy="161.5"
       sodipodi:cx="94"
       id="path3942"
       style="fill:#916f6f;fill-opacity:1;stroke:none"
       sodipodi:type="arc" />
    <path
       transform="matrix(-0.86602541,0.50000001,0.50000001,0.86602541,101.92657,403.29461)"
       d="m 156,180.5 a 15.5,3.5 0 1 1 -31,0 15.5,3.5 0 1 1 31,0 z"
       sodipodi:ry="3.5"
       sodipodi:rx="15.5"
       sodipodi:cy="180.5"
       sodipodi:cx="140.5"
       id="path3944"
       style="fill:#916f6f;fill-opacity:1;stroke:none"
       sodipodi:type="arc" />
    <path
       transform="matrix(-0.50000001,0.86602541,0.86602541,0.50000001,28.667923,578.24296)"
       d="m 101,133 a 1.5,7 0 1 1 -3,0 1.5,7 0 1 1 3,0 z"
       sodipodi:ry="7"
       sodipodi:rx="1.5"
       sodipodi:cy="133"
       sodipodi:cx="99.5"
       id="path3946"
       style="fill:#916f6f;fill-opacity:1;stroke:none"
       sodipodi:type="arc" />
    <path
       transform="matrix(-0.76604445,0.64278762,0.64278762,0.76604445,73.242674,546.08468)"
       d="m 125,128.5 a 2.5,5.5 0 1 1 -5,0 2.5,5.5 0 1 1 5,0 z"
       sodipodi:ry="5.5"
       sodipodi:rx="2.5"
       sodipodi:cy="128.5"
       sodipodi:cx="122.5"
       id="path3948"
       style="fill:#916f6f;fill-opacity:1;stroke:none"
       sodipodi:type="arc" />
    <path
       transform="matrix(-1,0,0,1,304,609.36218)"
       d="m 147,145.5 a 2,4.5 0 1 1 -4,0 2,4.5 0 1 1 4,0 z"
       sodipodi:ry="4.5"
       sodipodi:rx="2"
       sodipodi:cy="145.5"
       sodipodi:cx="145"
       id="path3950"
       style="fill:#916f6f;fill-opacity:1;stroke:none"
       sodipodi:type="arc" />
    <path
       sodipodi:type="arc"
       style="fill:#916f6f;fill-opacity:1;stroke:none"
       id="path3952"
       sodipodi:cx="193"
       sodipodi:cy="74"
       sodipodi:rx="3"
       sodipodi:ry="6"
       d="m 196,74 a 3,6 0 1 1 -6,0 3,6 0 1 1 6,0 z"
       transform="matrix(1,0,0,-1,-138,832.36218)" />
    <path
       sodipodi:type="arc"
       style="fill:#916f6f;fill-opacity:1;stroke:none"
       id="path3954"
       sodipodi:cx="164"
       sodipodi:cy="134.5"
       sodipodi:rx="2"
       sodipodi:ry="6.5"
       d="m 166,134.5 a 2,6.5 0 1 1 -4,0 2,6.5 0 1 1 4,0 z"
       transform="matrix(1,0,0,-1,39,843.36218)" />
    <path
       sodipodi:type="arc"
       style="fill:#916f6f;fill-opacity:1;stroke:none"
       id="path3956"
       sodipodi:cx="198.5"
       sodipodi:cy="152.5"
       sodipodi:rx="3.5"
       sodipodi:ry="4.5"
       d="m 202,152.5 a 3.5,4.5 0 1 1 -7,0 3.5,4.5 0 1 1 7,0 z"
       transform="matrix(1,0,0,-1,-138,832.36218)" />
    <path
       style="fill:none;stroke:#000000;stroke-width:3;stroke-linecap:butt;stroke-linejoin:miter;stroke-miterlimit:4;stroke-opacity:1;stroke-dasharray:18, 6;stroke-dashoffset:0"
       d="m 48,914.3622 179,0"
       id="path3960"
       inkscape:connector-curvature="0" />
    <path
       style="fill:#916f6f;fill-opacity:1;stroke:none"
       d="m 49.4,889.46218 0,-21.5 89.5,0 89.5,0 0,21.5 0,21.50002 -89.5,0 -89.5,0 0,-21.50002 z"
       id="path3968"
       inkscape:connector-curvature="0" />
    <text
       xml:space="preserve"
       style="font-size:40px;font-style:normal;font-variant:normal;font-weight:normal;font-stretch:normal;text-align:start;line-height:125%;letter-spacing:0px;word-spacing:0px;writing-mode:lr-tb;text-anchor:start;fill:#000000;fill-opacity:1;stroke:none;font-family:Arial;-inkscape-font-specification:Arial"
       x="267"
       y="708.36218"
       id="text3990"
       sodipodi:linespacing="125%"><tspan
         sodipodi:role="line"
         id="tspan3992"
         x="267"
         y="708.36218">slurry</tspan></text>
    <text
       xml:space="preserve"
       style="font-size:40px;font-style:italic;font-variant:normal;font-weight:normal;font-stretch:normal;text-align:start;line-height:125%;letter-spacing:0px;word-spacing:0px;writing-mode:lr-tb;text-anchor:start;fill:#000000;fill-opacity:1;stroke:none;font-family:Arial;-inkscape-font-specification:Arial Italic"
       x="255"
       y="903.36218"
       id="text4022"
       sodipodi:linespacing="125%"><tspan
         sodipodi:role="line"
         id="tspan4024"
         x="255"
         y="903.36218">L</tspan></text>
    <text
       sodipodi:linespacing="125%"
       id="text4026"
       y="914.36218"
       x="277"
       style="font-size:24px;font-style:normal;font-variant:normal;font-weight:normal;font-stretch:normal;text-align:start;line-height:125%;letter-spacing:0px;word-spacing:0px;writing-mode:lr-tb;text-anchor:start;fill:#000000;fill-opacity:1;stroke:none;font-family:Arial;-inkscape-font-specification:Arial"
       xml:space="preserve"><tspan
         sodipodi:role="line"
         id="tspan4032"
         x="277"
         y="914.36218">C</tspan></text>
    <path
       style="fill:none;stroke:#000000;stroke-width:2;stroke-linecap:butt;stroke-linejoin:miter;stroke-miterlimit:4;stroke-opacity:1;stroke-dasharray:none;marker-start:url(#Arrow1Mstart);marker-mid:none;marker-end:url(#Arrow1Mend)"
       d="m 241,868.36218 0,42.00002"
       id="path4034"
       inkscape:connector-curvature="0" />
    <g
       id="g4064"
       transform="translate(-2,0)">
      <text
         xml:space="preserve"
         style="font-size:30px;font-style:normal;font-variant:normal;font-weight:normal;font-stretch:normal;text-align:start;line-height:125%;letter-spacing:0px;word-spacing:0px;writing-mode:lr-tb;text-anchor:start;fill:#000000;fill-opacity:1;stroke:none;font-family:Arial;-inkscape-font-specification:Arial"
         x="80"
         y="859.04987"
         id="text4006"
         sodipodi:linespacing="125%"><tspan
           y="859.04987"
           x="80"
           id="tspan4854"
           sodipodi:role="line">Area = </tspan></text>
      <text
         sodipodi:linespacing="125%"
         id="text4856"
         y="859.04987"
         x="176"
         style="font-size:30px;font-style:italic;font-variant:normal;font-weight:normal;font-stretch:normal;text-align:start;line-height:125%;letter-spacing:0px;word-spacing:0px;writing-mode:lr-tb;text-anchor:start;fill:#000000;fill-opacity:1;stroke:none;font-family:Arial;-inkscape-font-specification:Arial Italic"
         xml:space="preserve"><tspan
           y="859.04987"
           x="176"
           id="tspan4860"
           sodipodi:role="line">A</tspan></text>
    </g>
    <path
       style="fill:none;stroke:#000000;stroke-width:1;stroke-linecap:butt;stroke-linejoin:miter;stroke-miterlimit:4;stroke-opacity:1;stroke-dasharray:3, 3;stroke-dashoffset:0"
       d="m -6,817.36218 458,0"
       id="path4864"
       inkscape:connector-curvature="0" />
    <text
       xml:space="preserve"
       style="font-size:24px;font-style:italic;font-variant:normal;font-weight:normal;font-stretch:normal;text-align:start;line-height:125%;letter-spacing:0px;word-spacing:0px;writing-mode:lr-tb;text-anchor:start;fill:#000000;fill-opacity:1;stroke:none;font-family:Arial;-inkscape-font-specification:Arial Italic"
       x="326"
       y="806.36218"
       id="text4866"
       sodipodi:linespacing="125%"><tspan
         sodipodi:role="line"
         id="tspan4868"
         x="326"
         y="806.36218"
         style="font-size:24px;font-style:italic;font-variant:normal;font-weight:normal;font-stretch:normal;text-align:start;line-height:125%;writing-mode:lr-tb;text-anchor:start;font-family:Arial;-inkscape-font-specification:Arial Italic">before</tspan></text>
    <text
       sodipodi:linespacing="125%"
       id="text4876"
       y="846.36218"
       x="340"
       style="font-size:24px;font-style:italic;font-variant:normal;font-weight:normal;font-stretch:normal;text-align:start;line-height:125%;letter-spacing:0px;word-spacing:0px;writing-mode:lr-tb;text-anchor:start;fill:#000000;fill-opacity:1;stroke:none;font-family:Arial;-inkscape-font-specification:Arial Italic"
       xml:space="preserve"><tspan
         sodipodi:role="line"
         id="tspan4884"
         x="340"
         y="846.36218">after</tspan></text>
    <text
       xml:space="preserve"
       style="font-size:78.54114532px;font-style:normal;font-variant:normal;font-weight:normal;font-stretch:normal;text-align:start;line-height:125%;letter-spacing:0px;word-spacing:0px;writing-mode:lr-tb;text-anchor:start;fill:#000000;fill-opacity:1;stroke:none;font-family:STSong;-inkscape-font-specification:STSong"
       x="519.72339"
       y="335.59924"
       id="text4886"
       sodipodi:linespacing="125%"
       transform="scale(0.44632492,2.2405202)"><tspan
         sodipodi:role="line"
         id="tspan4888"
         x="519.72339"
         y="335.59924">}</tspan></text>
    <text
       sodipodi:linespacing="125%"
       id="text4913"
       y="903.36218"
       x="255"
       style="font-size:40px;font-style:italic;font-variant:normal;font-weight:normal;font-stretch:normal;text-align:start;line-height:125%;letter-spacing:0px;word-spacing:0px;writing-mode:lr-tb;text-anchor:start;fill:#000000;fill-opacity:1;stroke:none;font-family:Arial;-inkscape-font-specification:Arial Italic"
       xml:space="preserve"><tspan
         y="903.36218"
         x="255"
         id="tspan4915"
         sodipodi:role="line">L</tspan></text>
    <path
       transform="matrix(-0.76604445,-0.64278762,0.64278762,-0.76604445,270.10772,801.71092)"
       d="m 176,81 a 9,10 0 1 1 -18,0 9,10 0 1 1 18,0 z"
       sodipodi:ry="10"
       sodipodi:rx="9"
       sodipodi:cy="81"
       sodipodi:cx="167"
       id="path3054"
       style="fill:#916f6f;fill-opacity:1;stroke:none"
       sodipodi:type="arc" />
    <path
       inkscape:connector-curvature="0"
       id="path3827"
       d="m 227,605.34502 0,441.34478"
       style="fill:none;stroke:#000000;stroke-width:4.06461096;stroke-linecap:butt;stroke-linejoin:miter;stroke-miterlimit:4;stroke-opacity:1;stroke-dasharray:none" />
    <path
       inkscape:connector-curvature="0"
       id="path3829"
       d="m 137.32546,937.09884 0,59.37839"
       style="fill:none;stroke:#000000;stroke-width:3;stroke-linecap:butt;stroke-linejoin:miter;stroke-miterlimit:4;stroke-opacity:1;stroke-dasharray:none;marker-start:none;marker-mid:none;marker-end:url(#Arrow1Mend)" />
    <g
       id="g4054"
       transform="translate(-7.0143211,7.8968451)">
      <text
         sodipodi:linespacing="125%"
         id="text4038"
         y="1017.0499"
         x="80"
         style="font-size:30px;font-style:normal;font-variant:normal;font-weight:normal;font-stretch:normal;text-align:start;line-height:125%;letter-spacing:0px;word-spacing:0px;writing-mode:lr-tb;text-anchor:start;fill:#000000;fill-opacity:1;stroke:none;font-family:Arial;-inkscape-font-specification:Arial"
         xml:space="preserve"><tspan
           id="tspan4050"
           sodipodi:role="line"
           x="80"
           y="1017.0499">Filtrate, </tspan></text>
      <text
         xml:space="preserve"
         style="font-size:30px;font-style:italic;font-variant:normal;font-weight:normal;font-stretch:normal;text-align:start;line-height:125%;letter-spacing:0px;word-spacing:0px;writing-mode:lr-tb;text-anchor:start;fill:#000000;fill-opacity:1;stroke:none;font-family:Arial;-inkscape-font-specification:Arial Italic"
         x="185.2126"
         y="1017.0499"
         id="text4042"
         sodipodi:linespacing="125%"><tspan
           y="1017.0499"
           x="185.2126"
           id="tspan4052"
           sodipodi:role="line">V</tspan></text>
    </g>
  </g>
</svg>
