<?xml version="1.0" encoding="UTF-8" standalone="no"?>
<!-- Created with Inkscape (http://www.inkscape.org/) -->

<svg
   xmlns:dc="http://purl.org/dc/elements/1.1/"
   xmlns:cc="http://creativecommons.org/ns#"
   xmlns:rdf="http://www.w3.org/1999/02/22-rdf-syntax-ns#"
   xmlns:svg="http://www.w3.org/2000/svg"
   xmlns="http://www.w3.org/2000/svg"
   xmlns:sodipodi="http://sodipodi.sourceforge.net/DTD/sodipodi-0.dtd"
   xmlns:inkscape="http://www.inkscape.org/namespaces/inkscape"
   width="1052.3622"
   height="744.09448"
   id="svg2"
   version="1.1"
   inkscape:version="0.48.2 r9819"
   sodipodi:docname="C_categories_1.svg">
  <defs
     id="defs4">
    <marker
       inkscape:stockid="Arrow2Mend"
       orient="auto"
       refY="0.0"
       refX="0.0"
       id="Arrow2Mend"
       style="overflow:visible;">
      <path
         id="path3832"
         style="font-size:12.0;fill-rule:evenodd;stroke-width:0.62500000;stroke-linejoin:round;"
         d="M 8.7185878,4.0337352 L -2.2072895,0.016013256 L 8.7185884,-4.0017078 C 6.9730900,-1.6296469 6.9831476,1.6157441 8.7185878,4.0337352 z "
         transform="scale(0.6) rotate(180) translate(0,0)" />
    </marker>
    <marker
       inkscape:stockid="Arrow2Mstart"
       orient="auto"
       refY="0.0"
       refX="0.0"
       id="Arrow2Mstart"
       style="overflow:visible">
      <path
         id="path3829"
         style="font-size:12.0;fill-rule:evenodd;stroke-width:0.62500000;stroke-linejoin:round"
         d="M 8.7185878,4.0337352 L -2.2072895,0.016013256 L 8.7185884,-4.0017078 C 6.9730900,-1.6296469 6.9831476,1.6157441 8.7185878,4.0337352 z "
         transform="scale(0.6) translate(0,0)" />
    </marker>
  </defs>
  <sodipodi:namedview
     id="base"
     pagecolor="#ffffff"
     bordercolor="#666666"
     borderopacity="1.0"
     inkscape:pageopacity="0.0"
     inkscape:pageshadow="2"
     inkscape:zoom="0.8764954"
     inkscape:cx="620.97757"
     inkscape:cy="466.6876"
     inkscape:document-units="px"
     inkscape:current-layer="layer1"
     showgrid="false"
     inkscape:window-width="1440"
     inkscape:window-height="784"
     inkscape:window-x="0"
     inkscape:window-y="0"
     inkscape:window-maximized="0"
     showguides="true"
     inkscape:guide-bbox="true"
     inkscape:snap-to-guides="true" />
  <metadata
     id="metadata7">
    <rdf:RDF>
      <cc:Work
         rdf:about="">
        <dc:format>image/svg+xml</dc:format>
        <dc:type
           rdf:resource="http://purl.org/dc/dcmitype/StillImage" />
        <dc:title />
      </cc:Work>
    </rdf:RDF>
  </metadata>
  <g
     inkscape:label="Layer 1"
     inkscape:groupmode="layer"
     id="layer1"
     transform="translate(0,-308.2677)">
    <path
       sodipodi:nodetypes="cssssssccc"
       inkscape:connector-curvature="0"
       id="path3786"
       d="m 496.3834,559.15042 c 22.76364,-30.72216 44.38768,-49.7765 48.8422,-49.78251 7.42908,-0.01 22.82049,7.58973 30.93703,13.12757 6.39588,4.36384 18.19917,22.85618 30.41206,48.86887 12.7405,27.13645 22.46179,60.08393 46.67874,78.94093 17.31178,13.4802 22.25759,21.5671 35.18129,33.3774 3.75065,3.4275 19.22105,28.9952 24.61951,29.0047 16.21215,0.028 32.67722,0.2525 50.08573,1.0954 l 0.004,5.1994 -266.81506,-0.2932 z"
       style="fill:#ff0000;stroke:none;fill-opacity:1" />
    <path
       style="fill:none;stroke:#00009b;stroke-width:2;stroke-linecap:butt;stroke-linejoin:miter;stroke-miterlimit:4;stroke-opacity:1;stroke-dasharray:none"
       d="m 161.54809,409.96071 c 8.2581,-3.08014 18.56086,-1.87003 20.62153,-5.31583 1.55745,-2.60433 4.37467,-11.89888 6.13683,-14.27087 5.08738,-6.84795 18.59712,-13.57588 22.13508,-20.6656 27.54546,-55.1984 51.32668,-83.40207 62.69613,-95.74333 14.29963,-15.5219 23.22899,-17.77655 34.72203,-32.0786 66.67729,-82.97389 105.41747,-43.47554 149.23494,29.18079 9.89368,16.40529 16.16112,41.51578 32.01378,57.53146 12.85845,12.99067 18.26262,37.51803 30.6558,48.23231 13.372,11.5605 36.7449,14.52737 50.46901,20.31435 18.31887,7.72444 22.87162,8.21602 46.94575,13.13647"
       id="path2985"
       inkscape:connector-curvature="0"
       transform="translate(0,308.2677)"
       sodipodi:nodetypes="csssssssssc" />
    <path
       style="fill:none;stroke:#9b0000;stroke-width:2;stroke-linecap:butt;stroke-linejoin:miter;stroke-miterlimit:4;stroke-opacity:1;stroke-dasharray:none"
       d="m 370.57239,717.85045 c 22.44962,-7.25111 35.30718,-7.76874 46.85066,-18.75102 4.95718,-4.71617 7.78895,-11.59856 10.63251,-16.77249 16.80561,-30.57826 31.44014,-65.15082 47.12989,-91.86064 28.75969,-48.95975 64.19275,-81.79078 70.04015,-81.79867 7.42908,-0.01 22.82049,7.58973 30.93703,13.12757 6.39588,4.36384 18.19917,22.85618 30.41206,48.86887 12.7405,27.13645 22.46179,60.08396 46.67874,78.94096 17.31178,13.48015 22.25759,21.56709 35.18129,33.37734 3.75065,3.42751 19.22105,28.99524 24.61951,29.00471 16.21215,0.0284 32.67722,0.2525 50.08573,1.09542"
       id="path2987"
       inkscape:connector-curvature="0"
       sodipodi:nodetypes="csssssssssc" />
    <path
       style="fill:none;stroke:#000000;stroke-width:2;stroke-linecap:butt;stroke-linejoin:miter;stroke-opacity:1;stroke-miterlimit:4;stroke-dasharray:none"
       d="m 155.56349,410.23907 619.22351,0"
       id="path2989"
       inkscape:connector-curvature="0"
       transform="translate(0,308.2677)" />
    <path
       style="fill:none;stroke:#000000;stroke-width:2;stroke-linecap:butt;stroke-linejoin:miter;stroke-miterlimit:4;stroke-opacity:1;stroke-dasharray:none;marker-start:url(#Arrow2Mstart);marker-end:url(#Arrow2Mend)"
       d="m 169.84782,453.65652 590.65484,0"
       id="path3800"
       inkscape:connector-curvature="0" />
    <text
       xml:space="preserve"
       style="font-size:18px;font-style:normal;font-variant:normal;font-weight:normal;font-stretch:normal;line-height:125%;letter-spacing:0px;word-spacing:0px;fill:#000000;fill-opacity:1;stroke:none;font-family:arial;-inkscape-font-specification:arial"
       x="508.21811"
       y="443.8602"
       id="text4432"
       sodipodi:linespacing="125%"><tspan
         sodipodi:role="line"
         id="tspan4434"
         x="508.21811"
         y="443.8602">&quot;positive&quot; observations</tspan></text>
    <text
       sodipodi:linespacing="125%"
       id="text4436"
       y="443.8602"
       x="292.21811"
       style="font-size:18px;font-style:normal;font-variant:normal;font-weight:normal;font-stretch:normal;line-height:125%;letter-spacing:0px;word-spacing:0px;fill:#000000;fill-opacity:1;stroke:none;font-family:arial;-inkscape-font-specification:arial"
       xml:space="preserve"><tspan
         y="443.8602"
         x="292.21811"
         id="tspan4438"
         sodipodi:role="line">&quot;negative&quot; observations</tspan></text>
    <text
       sodipodi:linespacing="125%"
       id="text4440"
       y="558.59174"
       x="614.70026"
       style="font-size:28px;font-style:normal;font-variant:normal;font-weight:normal;font-stretch:normal;line-height:125%;letter-spacing:0px;word-spacing:0px;fill:#000000;fill-opacity:1;stroke:none;font-family:arial;-inkscape-font-specification:arial"
       xml:space="preserve"><tspan
         y="558.59174"
         x="614.70026"
         sodipodi:role="line"
         id="tspan4444">True positives</tspan></text>
    <path
       style="fill:none;stroke:#009b00;stroke-width:2;stroke-linecap:butt;stroke-linejoin:miter;stroke-miterlimit:4;stroke-opacity:1;stroke-dasharray:4, 4;stroke-dashoffset:0"
       d="m 496.20154,751.38684 0,-334.18023"
       id="path3784"
       inkscape:connector-curvature="0" />
    <g
       id="g4470">
      <text
         sodipodi:linespacing="125%"
         id="text4448"
         y="778.70624"
         x="489.64566"
         style="font-size:28px;font-style:normal;font-variant:normal;font-weight:normal;font-stretch:normal;line-height:125%;letter-spacing:0px;word-spacing:0px;fill:#000000;fill-opacity:1;stroke:none;font-family:Times New Roman;-inkscape-font-specification:Times New Roman"
         xml:space="preserve"><tspan
           y="778.70624"
           x="489.64566"
           id="tspan4450"
           sodipodi:role="line">y</tspan></text>
      <g
         id="g4466">
        <path
           style="fill:none;stroke:#000000;stroke-width:1.29999995;stroke-linecap:butt;stroke-linejoin:miter;stroke-miterlimit:4;stroke-opacity:1;stroke-dasharray:none"
           d="m 488.364,763.53703 8.69555,-6.7609"
           id="path4456"
           inkscape:connector-curvature="0" />
        <path
           inkscape:connector-curvature="0"
           id="path4458"
           d="M 504.92754,763.53703 496.232,756.77612"
           style="fill:none;stroke:#000000;stroke-width:1.29999995;stroke-linecap:butt;stroke-linejoin:miter;stroke-miterlimit:4;stroke-opacity:1;stroke-dasharray:none" />
      </g>
    </g>
    <text
       xml:space="preserve"
       style="font-size:28px;font-style:normal;font-variant:normal;font-weight:normal;font-stretch:normal;line-height:125%;letter-spacing:0px;word-spacing:0px;fill:#000000;fill-opacity:1;stroke:none;font-family:arial;-inkscape-font-specification:arial"
       x="614.70026"
       y="528.59174"
       id="text4552"
       sodipodi:linespacing="125%"><tspan
         id="tspan4554"
         sodipodi:role="line"
         x="614.70026"
         y="528.59174">Area =</tspan></text>
  </g>
</svg>
