<?xml version="1.0" encoding="UTF-8" standalone="no"?>
<!-- Created with Inkscape (http://www.inkscape.org/) -->

<svg
   xmlns:dc="http://purl.org/dc/elements/1.1/"
   xmlns:cc="http://creativecommons.org/ns#"
   xmlns:rdf="http://www.w3.org/1999/02/22-rdf-syntax-ns#"
   xmlns:svg="http://www.w3.org/2000/svg"
   xmlns="http://www.w3.org/2000/svg"
   xmlns:sodipodi="http://sodipodi.sourceforge.net/DTD/sodipodi-0.dtd"
   xmlns:inkscape="http://www.inkscape.org/namespaces/inkscape"
   width="380"
   height="300"
   id="svg2"
   version="1.1"
   inkscape:version="0.48.0 r9654"
   sodipodi:docname="classification-in-the-score-space.svg"
   inkscape:export-filename="classification-in-the-score-space.png"
   inkscape:export-xdpi="300"
   inkscape:export-ydpi="300">
  <defs
     id="defs4">
    <marker
       inkscape:stockid="Arrow1Sstart"
       orient="auto"
       refY="0"
       refX="0"
       id="Arrow1Sstart"
       style="overflow:visible">
      <path
         id="path3607"
         d="M 0,0 5,-5 -12.5,0 5,5 0,0 z"
         style="fill-rule:evenodd;stroke:#000000;stroke-width:1pt;marker-start:none"
         transform="matrix(0.2,0,0,0.2,1.2,0)"
         inkscape:connector-curvature="0" />
    </marker>
    <marker
       inkscape:stockid="Arrow1Send"
       orient="auto"
       refY="0"
       refX="0"
       id="Arrow1Send"
       style="overflow:visible">
      <path
         id="path3610"
         d="M 0,0 5,-5 -12.5,0 5,5 0,0 z"
         style="fill-rule:evenodd;stroke:#000000;stroke-width:1pt;marker-start:none"
         transform="matrix(-0.2,0,0,-0.2,-1.2,0)"
         inkscape:connector-curvature="0" />
    </marker>
    <marker
       inkscape:stockid="Arrow1Mend"
       orient="auto"
       refY="0"
       refX="0"
       id="Arrow1Mend"
       style="overflow:visible">
      <path
         id="path3604"
         d="M 0,0 5,-5 -12.5,0 5,5 0,0 z"
         style="fill-rule:evenodd;stroke:#000000;stroke-width:1pt;marker-start:none"
         transform="matrix(-0.4,0,0,-0.4,-4,0)"
         inkscape:connector-curvature="0" />
    </marker>
    <marker
       inkscape:stockid="Arrow1Mstart"
       orient="auto"
       refY="0"
       refX="0"
       id="Arrow1Mstart"
       style="overflow:visible">
      <path
         id="path3601"
         d="M 0,0 5,-5 -12.5,0 5,5 0,0 z"
         style="fill-rule:evenodd;stroke:#000000;stroke-width:1pt;marker-start:none"
         transform="matrix(0.4,0,0,0.4,4,0)"
         inkscape:connector-curvature="0" />
    </marker>
    <inkscape:perspective
       sodipodi:type="inkscape:persp3d"
       inkscape:vp_x="0 : 526.18109 : 1"
       inkscape:vp_y="0 : 1000 : 0"
       inkscape:vp_z="744.09448 : 526.18109 : 1"
       inkscape:persp3d-origin="372.04724 : 350.78739 : 1"
       id="perspective10" />
  </defs>
  <sodipodi:namedview
     id="base"
     pagecolor="#ffffff"
     bordercolor="#666666"
     borderopacity="1.0"
     inkscape:pageopacity="0.0"
     inkscape:pageshadow="2"
     inkscape:zoom="0.77678307"
     inkscape:cx="364.61732"
     inkscape:cy="372.04724"
     inkscape:document-units="px"
     inkscape:current-layer="layer1"
     showgrid="false"
     showguides="true"
     inkscape:guide-bbox="true"
     inkscape:window-width="1440"
     inkscape:window-height="796"
     inkscape:window-x="0"
     inkscape:window-y="0"
     inkscape:window-maximized="0" />
  <metadata
     id="metadata7">
    <rdf:RDF>
      <cc:Work
         rdf:about="">
        <dc:format>image/svg+xml</dc:format>
        <dc:type
           rdf:resource="http://purl.org/dc/dcmitype/StillImage" />
        <dc:title></dc:title>
      </cc:Work>
    </rdf:RDF>
  </metadata>
  <g
     inkscape:label="Layer 1"
     inkscape:groupmode="layer"
     id="layer1"
     transform="translate(0,-752.36227)">
    <path
       style="fill:none;stroke:#000000;stroke-width:3;stroke-linecap:butt;stroke-linejoin:miter;stroke-miterlimit:4;stroke-opacity:1;stroke-dasharray:none;marker-start:url(#Arrow1Sstart);marker-end:url(#Arrow1Send)"
       d="m 178.26793,801.99753 0,233.99997"
       id="path6454"
       inkscape:connector-curvature="0" />
    <path
       style="fill:none;stroke:#000000;stroke-width:3;stroke-linecap:butt;stroke-linejoin:miter;stroke-miterlimit:4;stroke-opacity:1;stroke-dasharray:none;marker-start:url(#Arrow1Sstart);marker-end:url(#Arrow1Send)"
       d="m 17.941026,915.99753 320.653804,0"
       id="path6456"
       inkscape:connector-curvature="0" />
    <path
       sodipodi:type="arc"
       style="fill:#0000ff;fill-opacity:1;stroke:none"
       id="path6470"
       sodipodi:cx="136.76633"
       sodipodi:cy="153.65343"
       sodipodi:rx="3.5408759"
       sodipodi:ry="3.5408759"
       d="m 140.3072,153.65343 a 3.5408759,3.5408759 0 1 1 -7.08175,0 3.5408759,3.5408759 0 1 1 7.08175,0 z"
       transform="matrix(1.2373555,0,0,1.2373555,-25.837724,724.60071)" />
    <path
       transform="matrix(1.2373555,0,0,1.2373555,-54.868114,729.12081)"
       d="m 140.3072,153.65343 a 3.5408759,3.5408759 0 1 1 -7.08175,0 3.5408759,3.5408759 0 1 1 7.08175,0 z"
       sodipodi:ry="3.5408759"
       sodipodi:rx="3.5408759"
       sodipodi:cy="153.65343"
       sodipodi:cx="136.76633"
       id="path6472"
       style="fill:#0000ff;fill-opacity:1;stroke:none"
       sodipodi:type="arc" />
    <path
       transform="matrix(1.2373555,0,0,1.2373555,-17.170434,706.11114)"
       d="m 140.3072,153.65343 a 3.5408759,3.5408759 0 1 1 -7.08175,0 3.5408759,3.5408759 0 1 1 7.08175,0 z"
       sodipodi:ry="3.5408759"
       sodipodi:rx="3.5408759"
       sodipodi:cy="153.65343"
       sodipodi:cx="136.76633"
       id="path6476"
       style="fill:#0000ff;fill-opacity:1;stroke:none"
       sodipodi:type="arc" />
    <path
       transform="matrix(1.2373555,0,0,1.2373555,-12.213844,709.32163)"
       d="m 140.3072,153.65343 a 3.5408759,3.5408759 0 1 1 -7.08175,0 3.5408759,3.5408759 0 1 1 7.08175,0 z"
       sodipodi:ry="3.5408759"
       sodipodi:rx="3.5408759"
       sodipodi:cy="153.65343"
       sodipodi:cx="136.76633"
       id="path6480"
       style="fill:#0000ff;fill-opacity:1;stroke:none"
       sodipodi:type="arc" />
    <path
       sodipodi:type="arc"
       style="fill:#0000ff;fill-opacity:1;stroke:none"
       id="path6482"
       sodipodi:cx="136.76633"
       sodipodi:cy="153.65343"
       sodipodi:rx="3.5408759"
       sodipodi:ry="3.5408759"
       d="m 140.3072,153.65343 a 3.5408759,3.5408759 0 1 1 -7.08175,0 3.5408759,3.5408759 0 1 1 7.08175,0 z"
       transform="matrix(1.2373555,0,0,1.2373555,-28.393354,669.92934)" />
    <path
       transform="matrix(1.2373555,0,0,1.2373555,-25.749894,690.48618)"
       d="m 140.3072,153.65343 a 3.5408759,3.5408759 0 1 1 -7.08175,0 3.5408759,3.5408759 0 1 1 7.08175,0 z"
       sodipodi:ry="3.5408759"
       sodipodi:rx="3.5408759"
       sodipodi:cy="153.65343"
       sodipodi:cx="136.76633"
       id="path6484"
       style="fill:#0000ff;fill-opacity:1;stroke:none"
       sodipodi:type="arc" />
    <path
       sodipodi:type="arc"
       style="fill:#0000ff;fill-opacity:1;stroke:none"
       id="path6486"
       sodipodi:cx="136.76633"
       sodipodi:cy="153.65343"
       sodipodi:rx="3.5408759"
       sodipodi:ry="3.5408759"
       d="m 140.3072,153.65343 a 3.5408759,3.5408759 0 1 1 -7.08175,0 3.5408759,3.5408759 0 1 1 7.08175,0 z"
       transform="matrix(1.2373555,0,0,1.2373555,-57.493454,707.49056)" />
    <path
       transform="matrix(1.2373555,0,0,1.2373555,46.093026,726.5644)"
       d="m 140.3072,153.65343 a 3.5408759,3.5408759 0 1 1 -7.08175,0 3.5408759,3.5408759 0 1 1 7.08175,0 z"
       sodipodi:ry="3.5408759"
       sodipodi:rx="3.5408759"
       sodipodi:cy="153.65343"
       sodipodi:cx="136.76633"
       id="path6488"
       style="fill:none;stroke:#0000ff;stroke-width:0.99971271;stroke-miterlimit:4;stroke-opacity:1;stroke-dasharray:none"
       sodipodi:type="arc" />
    <path
       style="fill:none;stroke:#ff0000;stroke-width:2;stroke-linecap:butt;stroke-linejoin:miter;stroke-miterlimit:4;stroke-opacity:1;stroke-dasharray:24, 2;stroke-dashoffset:0;marker-end:none"
       d="M 263.46362,866.1544 C 139.1889,842.60154 117.37186,952.40184 102.94429,990.37765"
       id="path6490"
       sodipodi:nodetypes="cc"
       inkscape:connector-curvature="0" />
    <text
       xml:space="preserve"
       style="font-size:40px;font-style:italic;font-variant:normal;font-weight:normal;font-stretch:normal;text-align:start;line-height:125%;writing-mode:lr-tb;text-anchor:start;fill:#000000;fill-opacity:1;stroke:none;font-family:Times New Roman;-inkscape-font-specification:'Times New Roman, Italic'"
       x="348.11356"
       y="924.73566"
       id="text6492"
       sodipodi:linespacing="125%"><tspan
         sodipodi:role="line"
         id="tspan6494"
         x="348.11356"
         y="924.73566">t</tspan></text>
    <text
       sodipodi:linespacing="125%"
       id="text6496"
       y="934.24353"
       x="357.8511"
       style="font-size:25px;font-style:normal;font-variant:normal;font-weight:normal;font-stretch:normal;text-align:start;line-height:125%;writing-mode:lr-tb;text-anchor:start;fill:#000000;fill-opacity:1;stroke:none;font-family:Times New Roman;-inkscape-font-specification:'Times New Roman,'"
       xml:space="preserve"><tspan
         sodipodi:role="line"
         id="tspan6498"
         x="357.8511"
         y="934.24353">1</tspan></text>
    <text
       sodipodi:linespacing="125%"
       id="text6500"
       y="784.42847"
       x="170.62723"
       style="font-size:40px;font-style:italic;font-variant:normal;font-weight:normal;font-stretch:normal;text-align:start;line-height:125%;writing-mode:lr-tb;text-anchor:start;fill:#000000;fill-opacity:1;stroke:none;font-family:Times New Roman;-inkscape-font-specification:'Times New Roman, Italic'"
       xml:space="preserve"><tspan
         y="784.42847"
         x="170.62723"
         id="tspan6502"
         sodipodi:role="line">t</tspan></text>
    <text
       xml:space="preserve"
       style="font-size:25px;font-style:normal;font-variant:normal;font-weight:normal;font-stretch:normal;text-align:start;line-height:125%;writing-mode:lr-tb;text-anchor:start;fill:#000000;fill-opacity:1;stroke:none;font-family:Times New Roman;-inkscape-font-specification:'Times New Roman,'"
       x="180.36465"
       y="793.93634"
       id="text6504"
       sodipodi:linespacing="125%"><tspan
         y="793.93634"
         x="180.36465"
         id="tspan6506"
         sodipodi:role="line">2</tspan></text>
    <path
       sodipodi:type="arc"
       style="fill:none;stroke:#0000ff;stroke-width:0.99971271;stroke-miterlimit:4;stroke-opacity:1;stroke-dasharray:none"
       id="path6510"
       sodipodi:cx="136.76633"
       sodipodi:cy="153.65343"
       sodipodi:rx="3.5408759"
       sodipodi:ry="3.5408759"
       d="m 140.3072,153.65343 a 3.5408759,3.5408759 0 1 1 -7.08175,0 3.5408759,3.5408759 0 1 1 7.08175,0 z"
       transform="matrix(1.2373555,0,0,1.2373555,-4.052004,702.53758)" />
    <path
       transform="matrix(1.2373555,0,0,1.2373555,9.311416,763.36251)"
       d="m 140.3072,153.65343 a 3.5408759,3.5408759 0 1 1 -7.08175,0 3.5408759,3.5408759 0 1 1 7.08175,0 z"
       sodipodi:ry="3.5408759"
       sodipodi:rx="3.5408759"
       sodipodi:cy="153.65343"
       sodipodi:cx="136.76633"
       id="path6512"
       style="fill:none;stroke:#0000ff;stroke-width:0.99971271;stroke-miterlimit:4;stroke-opacity:1;stroke-dasharray:none"
       sodipodi:type="arc" />
    <path
       sodipodi:type="arc"
       style="fill:none;stroke:#0000ff;stroke-width:0.99971271;stroke-miterlimit:4;stroke-opacity:1;stroke-dasharray:none"
       id="path6514"
       sodipodi:cx="136.76633"
       sodipodi:cy="153.65343"
       sodipodi:rx="3.5408759"
       sodipodi:ry="3.5408759"
       d="m 140.3072,153.65343 a 3.5408759,3.5408759 0 1 1 -7.08175,0 3.5408759,3.5408759 0 1 1 7.08175,0 z"
       transform="matrix(1.2373555,0,0,1.2373555,5.591306,723.45227)" />
    <path
       transform="matrix(1.2373555,0,0,1.2373555,12.926876,696.59099)"
       d="m 140.3072,153.65343 a 3.5408759,3.5408759 0 1 1 -7.08175,0 3.5408759,3.5408759 0 1 1 7.08175,0 z"
       sodipodi:ry="3.5408759"
       sodipodi:rx="3.5408759"
       sodipodi:cy="153.65343"
       sodipodi:cx="136.76633"
       id="path7290"
       style="fill:none;stroke:#0000ff;stroke-width:0.99971271;stroke-miterlimit:4;stroke-opacity:1;stroke-dasharray:none"
       sodipodi:type="arc" />
    <path
       sodipodi:type="arc"
       style="fill:#0000ff;fill-opacity:1;stroke:none"
       id="path7407"
       sodipodi:cx="136.76633"
       sodipodi:cy="153.65343"
       sodipodi:rx="3.5408759"
       sodipodi:ry="3.5408759"
       d="m 140.3072,153.65343 a 3.5408759,3.5408759 0 1 1 -7.08175,0 3.5408759,3.5408759 0 1 1 7.08175,0 z"
       transform="matrix(1.2373555,0,0,1.2373555,-3.181974,673.93363)" />
    <path
       transform="matrix(1.2373555,0,0,1.2373555,31.089856,693.31756)"
       d="m 140.3072,153.65343 a 3.5408759,3.5408759 0 1 1 -7.08175,0 3.5408759,3.5408759 0 1 1 7.08175,0 z"
       sodipodi:ry="3.5408759"
       sodipodi:rx="3.5408759"
       sodipodi:cy="153.65343"
       sodipodi:cx="136.76633"
       id="path7409"
       style="fill:#0000ff;fill-opacity:1;stroke:none"
       sodipodi:type="arc" />
    <path
       sodipodi:type="arc"
       style="fill:#0000ff;fill-opacity:1;stroke:none"
       id="path7411"
       sodipodi:cx="136.76633"
       sodipodi:cy="153.65343"
       sodipodi:rx="3.5408759"
       sodipodi:ry="3.5408759"
       d="m 140.3072,153.65343 a 3.5408759,3.5408759 0 1 1 -7.08175,0 3.5408759,3.5408759 0 1 1 7.08175,0 z"
       transform="matrix(1.2373555,0,0,1.2373555,-10.084924,732.59209)" />
    <path
       sodipodi:type="arc"
       style="fill:#0000ff;fill-opacity:1;stroke:none"
       id="path7413"
       sodipodi:cx="136.76633"
       sodipodi:cy="153.65343"
       sodipodi:rx="3.5408759"
       sodipodi:ry="3.5408759"
       d="m 140.3072,153.65343 a 3.5408759,3.5408759 0 1 1 -7.08175,0 3.5408759,3.5408759 0 1 1 7.08175,0 z"
       transform="matrix(1.2373555,0,0,1.2373555,46.145796,687.06305)" />
    <path
       transform="matrix(1.2373555,0,0,1.2373555,23.610276,659.86154)"
       d="m 140.3072,153.65343 a 3.5408759,3.5408759 0 1 1 -7.08175,0 3.5408759,3.5408759 0 1 1 7.08175,0 z"
       sodipodi:ry="3.5408759"
       sodipodi:rx="3.5408759"
       sodipodi:cy="153.65343"
       sodipodi:cx="136.76633"
       id="path7415"
       style="fill:#0000ff;fill-opacity:1;stroke:none"
       sodipodi:type="arc" />
    <path
       transform="matrix(1.2373555,0,0,1.2373555,8.568606,709.68524)"
       d="m 140.3072,153.65343 a 3.5408759,3.5408759 0 1 1 -7.08175,0 3.5408759,3.5408759 0 1 1 7.08175,0 z"
       sodipodi:ry="3.5408759"
       sodipodi:rx="3.5408759"
       sodipodi:cy="153.65343"
       sodipodi:cx="136.76633"
       id="path7417"
       style="fill:#0000ff;fill-opacity:1;stroke:none"
       sodipodi:type="arc" />
    <path
       sodipodi:type="arc"
       style="fill:none;stroke:#0000ff;stroke-width:0.99971271;stroke-miterlimit:4;stroke-opacity:1;stroke-dasharray:none"
       id="path2921"
       sodipodi:cx="136.76633"
       sodipodi:cy="153.65343"
       sodipodi:rx="3.5408759"
       sodipodi:ry="3.5408759"
       d="m 140.3072,153.65343 a 3.5408759,3.5408759 0 1 1 -7.08175,0 3.5408759,3.5408759 0 1 1 7.08175,0 z"
       transform="matrix(1.2373555,0,0,1.2373555,30.295496,711.93706)" />
    <path
       transform="matrix(1.2373555,0,0,1.2373555,-18.852374,738.85137)"
       d="m 140.3072,153.65343 a 3.5408759,3.5408759 0 1 1 -7.08175,0 3.5408759,3.5408759 0 1 1 7.08175,0 z"
       sodipodi:ry="3.5408759"
       sodipodi:rx="3.5408759"
       sodipodi:cy="153.65343"
       sodipodi:cx="136.76633"
       id="path2923"
       style="fill:none;stroke:#0000ff;stroke-width:0.99971271;stroke-miterlimit:4;stroke-opacity:1;stroke-dasharray:none"
       sodipodi:type="arc" />
    <path
       sodipodi:type="arc"
       style="fill:none;stroke:#0000ff;stroke-width:0.99971271;stroke-miterlimit:4;stroke-opacity:1;stroke-dasharray:none"
       id="path2925"
       sodipodi:cx="136.76633"
       sodipodi:cy="153.65343"
       sodipodi:rx="3.5408759"
       sodipodi:ry="3.5408759"
       d="m 140.3072,153.65343 a 3.5408759,3.5408759 0 1 1 -7.08175,0 3.5408759,3.5408759 0 1 1 7.08175,0 z"
       transform="matrix(1.2373555,0,0,1.2373555,8.061936,736.511)" />
    <path
       transform="matrix(1.2373555,0,0,1.2373555,20.933996,721.29856)"
       d="m 140.3072,153.65343 a 3.5408759,3.5408759 0 1 1 -7.08175,0 3.5408759,3.5408759 0 1 1 7.08175,0 z"
       sodipodi:ry="3.5408759"
       sodipodi:rx="3.5408759"
       sodipodi:cy="153.65343"
       sodipodi:cx="136.76633"
       id="path2927"
       style="fill:none;stroke:#0000ff;stroke-width:0.99971271;stroke-miterlimit:4;stroke-opacity:1;stroke-dasharray:none"
       sodipodi:type="arc" />
    <path
       sodipodi:type="arc"
       style="fill:none;stroke:#0000ff;stroke-width:0.99971271;stroke-miterlimit:4;stroke-opacity:1;stroke-dasharray:none"
       id="path2929"
       sodipodi:cx="136.76633"
       sodipodi:cy="153.65343"
       sodipodi:rx="3.5408759"
       sodipodi:ry="3.5408759"
       d="m 140.3072,153.65343 a 3.5408759,3.5408759 0 1 1 -7.08175,0 3.5408759,3.5408759 0 1 1 7.08175,0 z"
       transform="matrix(1.2373555,0,0,1.2373555,40.827186,696.72462)" />
    <path
       transform="matrix(1.2373555,0,0,1.2373555,-7.735594,760.49983)"
       d="m 140.3072,153.65343 a 3.5408759,3.5408759 0 1 1 -7.08175,0 3.5408759,3.5408759 0 1 1 7.08175,0 z"
       sodipodi:ry="3.5408759"
       sodipodi:rx="3.5408759"
       sodipodi:cy="153.65343"
       sodipodi:cx="136.76633"
       id="path2931"
       style="fill:none;stroke:#0000ff;stroke-width:0.99971271;stroke-miterlimit:4;stroke-opacity:1;stroke-dasharray:none"
       sodipodi:type="arc" />
    <path
       sodipodi:type="arc"
       style="fill:none;stroke:#0000ff;stroke-width:0.99971271;stroke-miterlimit:4;stroke-opacity:1;stroke-dasharray:none"
       id="path2933"
       sodipodi:cx="136.76633"
       sodipodi:cy="153.65343"
       sodipodi:rx="3.5408759"
       sodipodi:ry="3.5408759"
       d="m 140.3072,153.65343 a 3.5408759,3.5408759 0 1 1 -7.08175,0 3.5408759,3.5408759 0 1 1 7.08175,0 z"
       transform="matrix(1.2373555,0,0,1.2373555,15.083056,755.23399)" />
    <path
       transform="matrix(1.2373555,0,0,1.2373555,28.540216,735.3408)"
       d="m 140.3072,153.65343 a 3.5408759,3.5408759 0 1 1 -7.08175,0 3.5408759,3.5408759 0 1 1 7.08175,0 z"
       sodipodi:ry="3.5408759"
       sodipodi:rx="3.5408759"
       sodipodi:cy="153.65343"
       sodipodi:cx="136.76633"
       id="path2935"
       style="fill:none;stroke:#0000ff;stroke-width:0.99971271;stroke-miterlimit:4;stroke-opacity:1;stroke-dasharray:none"
       sodipodi:type="arc" />
    <path
       sodipodi:type="arc"
       style="fill:none;stroke:#0000ff;stroke-width:0.99971271;stroke-miterlimit:4;stroke-opacity:1;stroke-dasharray:none"
       id="path2937"
       sodipodi:cx="136.76633"
       sodipodi:cy="153.65343"
       sodipodi:rx="3.5408759"
       sodipodi:ry="3.5408759"
       d="m 140.3072,153.65343 a 3.5408759,3.5408759 0 1 1 -7.08175,0 3.5408759,3.5408759 0 1 1 7.08175,0 z"
       transform="matrix(1.2373555,0,0,1.2373555,40.242086,746.45758)" />
    <path
       transform="matrix(1.2373555,0,0,1.2373555,26.784926,738.85136)"
       d="m 140.3072,153.65343 a 3.5408759,3.5408759 0 1 1 -7.08175,0 3.5408759,3.5408759 0 1 1 7.08175,0 z"
       sodipodi:ry="3.5408759"
       sodipodi:rx="3.5408759"
       sodipodi:cy="153.65343"
       sodipodi:cx="136.76633"
       id="path2941"
       style="fill:none;stroke:#0000ff;stroke-width:0.99971271;stroke-miterlimit:4;stroke-opacity:1;stroke-dasharray:none"
       sodipodi:type="arc" />
    <path
       sodipodi:type="arc"
       style="fill:none;stroke:#0000ff;stroke-width:0.99971271;stroke-miterlimit:4;stroke-opacity:1;stroke-dasharray:none"
       id="path2943"
       sodipodi:cx="136.76633"
       sodipodi:cy="153.65343"
       sodipodi:rx="3.5408759"
       sodipodi:ry="3.5408759"
       d="m 140.3072,153.65343 a 3.5408759,3.5408759 0 1 1 -7.08175,0 3.5408759,3.5408759 0 1 1 7.08175,0 z"
       transform="matrix(1.2373555,0,0,1.2373555,23.938756,781.50041)" />
    <path
       transform="matrix(1.2373555,0,0,1.2373555,25.108946,764.53269)"
       d="m 140.3072,153.65343 a 3.5408759,3.5408759 0 1 1 -7.08175,0 3.5408759,3.5408759 0 1 1 7.08175,0 z"
       sodipodi:ry="3.5408759"
       sodipodi:rx="3.5408759"
       sodipodi:cy="153.65343"
       sodipodi:cx="136.76633"
       id="path2945"
       style="fill:none;stroke:#0000ff;stroke-width:0.99971271;stroke-miterlimit:4;stroke-opacity:1;stroke-dasharray:none"
       sodipodi:type="arc" />
    <path
       sodipodi:type="arc"
       style="fill:none;stroke:#0000ff;stroke-width:0.99971271;stroke-miterlimit:4;stroke-opacity:1;stroke-dasharray:none"
       id="path2947"
       sodipodi:cx="136.76633"
       sodipodi:cy="153.65343"
       sodipodi:rx="3.5408759"
       sodipodi:ry="3.5408759"
       d="m 140.3072,153.65343 a 3.5408759,3.5408759 0 1 1 -7.08175,0 3.5408759,3.5408759 0 1 1 7.08175,0 z"
       transform="matrix(1.2373555,0,0,1.2373555,67.235696,730.59726)" />
    <text
       sodipodi:linespacing="100%"
       id="text3937"
       y="849.77368"
       x="89.409821"
       style="font-size:40px;font-style:normal;font-variant:normal;font-weight:normal;font-stretch:normal;text-align:start;line-height:100%;writing-mode:lr-tb;text-anchor:start;fill:#000000;fill-opacity:1;stroke:none;font-family:Gill Sans;-inkscape-font-specification:Gill Sans"
       xml:space="preserve"><tspan
         sodipodi:role="line"
         id="tspan3041"
         x="89.409821"
         y="849.77368">B</tspan></text>
    <text
       xml:space="preserve"
       style="font-size:40px;font-style:normal;font-variant:normal;font-weight:normal;font-stretch:normal;text-align:start;line-height:100%;writing-mode:lr-tb;text-anchor:start;fill:#000000;fill-opacity:1;stroke:none;font-family:Gill Sans;-inkscape-font-specification:Gill Sans"
       x="225.15158"
       y="965.62225"
       id="text3943"
       sodipodi:linespacing="100%"><tspan
         sodipodi:role="line"
         id="tspan3043"
         x="225.15158"
         y="965.62225">A</tspan></text>
    <path
       transform="matrix(1.2373555,0,0,1.2373555,-44.036294,692.86322)"
       d="m 140.3072,153.65343 a 3.5408759,3.5408759 0 1 1 -7.08175,0 3.5408759,3.5408759 0 1 1 7.08175,0 z"
       sodipodi:ry="3.5408759"
       sodipodi:rx="3.5408759"
       sodipodi:cy="153.65343"
       sodipodi:cx="136.76633"
       id="path3949"
       style="fill:#0000ff;fill-opacity:1;stroke:none"
       sodipodi:type="arc" />
    <path
       sodipodi:type="arc"
       style="fill:#0000ff;fill-opacity:1;stroke:none"
       id="path3951"
       sodipodi:cx="136.76633"
       sodipodi:cy="153.65343"
       sodipodi:rx="3.5408759"
       sodipodi:ry="3.5408759"
       d="m 140.3072,153.65343 a 3.5408759,3.5408759 0 1 1 -7.08175,0 3.5408759,3.5408759 0 1 1 7.08175,0 z"
       transform="matrix(1.2373555,0,0,1.2373555,-31.749324,644.88554)" />
    <path
       transform="matrix(1.2373555,0,0,1.2373555,-21.802734,651.90666)"
       d="m 140.3072,153.65343 a 3.5408759,3.5408759 0 1 1 -7.08175,0 3.5408759,3.5408759 0 1 1 7.08175,0 z"
       sodipodi:ry="3.5408759"
       sodipodi:rx="3.5408759"
       sodipodi:cy="153.65343"
       sodipodi:cx="136.76633"
       id="path3953"
       style="fill:#0000ff;fill-opacity:1;stroke:none"
       sodipodi:type="arc" />
    <path
       sodipodi:type="arc"
       style="fill:#0000ff;fill-opacity:1;stroke:none"
       id="path3955"
       sodipodi:cx="136.76633"
       sodipodi:cy="153.65343"
       sodipodi:rx="3.5408759"
       sodipodi:ry="3.5408759"
       d="m 140.3072,153.65343 a 3.5408759,3.5408759 0 1 1 -7.08175,0 3.5408759,3.5408759 0 1 1 7.08175,0 z"
       transform="matrix(1.2373555,0,0,1.2373555,-38.770454,659.51288)" />
  </g>
</svg>
