<?xml version="1.0" encoding="UTF-8" standalone="no"?>
<!-- Created with Inkscape (http://www.inkscape.org/) -->

<svg
   xmlns:dc="http://purl.org/dc/elements/1.1/"
   xmlns:cc="http://creativecommons.org/ns#"
   xmlns:rdf="http://www.w3.org/1999/02/22-rdf-syntax-ns#"
   xmlns:svg="http://www.w3.org/2000/svg"
   xmlns="http://www.w3.org/2000/svg"
   xmlns:sodipodi="http://sodipodi.sourceforge.net/DTD/sodipodi-0.dtd"
   xmlns:inkscape="http://www.inkscape.org/namespaces/inkscape"
   width="1052.3622"
   height="744.09448"
   id="svg4163"
   version="1.1"
   inkscape:version="0.48.0 r9654"
   sodipodi:docname="Coomans-plot.svg"
   inkscape:export-filename="Coomans-plot.png"
   inkscape:export-xdpi="300"
   inkscape:export-ydpi="300">
  <defs
     id="defs4165">
    <marker
       inkscape:stockid="Arrow2Mend"
       orient="auto"
       refY="0.0"
       refX="0.0"
       id="Arrow2Mend"
       style="overflow:visible;">
      <path
         id="path4711"
         style="font-size:12.0;fill-rule:evenodd;stroke-width:0.62500000;stroke-linejoin:round;"
         d="M 8.7185878,4.0337352 L -2.2072895,0.016013256 L 8.7185884,-4.0017078 C 6.9730900,-1.6296469 6.9831476,1.6157441 8.7185878,4.0337352 z "
         transform="scale(0.6) rotate(180) translate(0,0)" />
    </marker>
  </defs>
  <sodipodi:namedview
     id="base"
     pagecolor="#ffffff"
     bordercolor="#666666"
     borderopacity="1.0"
     inkscape:pageopacity="0.0"
     inkscape:pageshadow="2"
     inkscape:zoom="0.76065609"
     inkscape:cx="526.18109"
     inkscape:cy="372.04724"
     inkscape:document-units="px"
     inkscape:current-layer="layer1"
     showgrid="false"
     showguides="true"
     inkscape:guide-bbox="true"
     inkscape:window-width="1440"
     inkscape:window-height="784"
     inkscape:window-x="0"
     inkscape:window-y="0"
     inkscape:window-maximized="0" />
  <metadata
     id="metadata4168">
    <rdf:RDF>
      <cc:Work
         rdf:about="">
        <dc:format>image/svg+xml</dc:format>
        <dc:type
           rdf:resource="http://purl.org/dc/dcmitype/StillImage" />
        <dc:title></dc:title>
      </cc:Work>
    </rdf:RDF>
  </metadata>
  <g
     inkscape:label="Layer 1"
     inkscape:groupmode="layer"
     id="layer1"
     transform="translate(0,-308.2677)">
    <path
       style="fill:none;stroke:#000000;stroke-width:4;stroke-linecap:butt;stroke-linejoin:miter;stroke-miterlimit:4;stroke-opacity:1;stroke-dasharray:none;marker-end:url(#Arrow2Mend)"
       d="m 54.285714,1003.7907 0,-601.42852"
       id="path4171"
       inkscape:connector-curvature="0" />
    <path
       style="fill:none;stroke:#000000;stroke-width:4;stroke-linecap:butt;stroke-linejoin:miter;stroke-miterlimit:4;stroke-opacity:1;stroke-dasharray:none;marker-end:url(#Arrow2Mend)"
       d="m 54.285714,1003.7907 899.999996,0"
       id="path5131"
       inkscape:connector-curvature="0" />
    <path
       style="fill:none;stroke:#141fcc;stroke-width:4;stroke-linecap:butt;stroke-linejoin:miter;stroke-miterlimit:4;stroke-opacity:1;stroke-dasharray:none"
       d="m 54.285714,779.50504 829.999996,0"
       id="path5319"
       inkscape:connector-curvature="0" />
    <path
       style="fill:none;stroke:#141fcc;stroke-width:4;stroke-linecap:butt;stroke-linejoin:miter;stroke-miterlimit:4;stroke-opacity:1;stroke-dasharray:none"
       d="m 372.85714,1003.7907 0,-578.57138"
       id="path5321"
       inkscape:connector-curvature="0" />
    <rect
       style="fill:#ff6600;fill-opacity:1;stroke:none"
       id="rect5346"
       width="23.604031"
       height="23.604031"
       x="86.769409"
       y="513.4173" />
    <rect
       y="683.4173"
       x="109.62656"
       height="23.604031"
       width="23.604031"
       id="rect5348"
       style="fill:#ff6600;fill-opacity:1;stroke:none" />
    <rect
       style="fill:#ff6600;fill-opacity:1;stroke:none"
       id="rect5350"
       width="23.604031"
       height="23.604031"
       x="201.05513"
       y="704.84589" />
    <rect
       y="657.703"
       x="276.76941"
       height="23.604031"
       width="23.604031"
       id="rect5352"
       style="fill:#ff6600;fill-opacity:1;stroke:none" />
    <rect
       style="fill:#ff6600;fill-opacity:1;stroke:none"
       id="rect5354"
       width="23.604031"
       height="23.604031"
       x="238.19797"
       y="596.27441" />
    <rect
       y="461.98874"
       x="236.76941"
       height="23.604031"
       width="23.604031"
       id="rect5356"
       style="fill:#ff6600;fill-opacity:1;stroke:none" />
    <path
       sodipodi:type="arc"
       style="fill:#008000;fill-opacity:1;stroke:none"
       id="path5358"
       sodipodi:cx="-101.42857"
       sodipodi:cy="244.09448"
       sodipodi:rx="12.857142"
       sodipodi:ry="12.857142"
       d="m -88.571431,244.09448 a 12.857142,12.857142 0 1 1 -25.714289,0 12.857142,12.857142 0 1 1 25.714289,0 z"
       transform="translate(811.42857,702.55342)" />
    <path
       transform="translate(608.57143,718.83913)"
       d="m -88.571431,244.09448 a 12.857142,12.857142 0 1 1 -25.714289,0 12.857142,12.857142 0 1 1 25.714289,0 z"
       sodipodi:ry="12.857142"
       sodipodi:rx="12.857142"
       sodipodi:cy="244.09448"
       sodipodi:cx="-101.42857"
       id="path5360"
       style="fill:#008000;fill-opacity:1;stroke:none"
       sodipodi:type="arc" />
    <path
       sodipodi:type="arc"
       style="fill:#008000;fill-opacity:1;stroke:none"
       id="path5362"
       sodipodi:cx="-101.42857"
       sodipodi:cy="244.09448"
       sodipodi:rx="12.857142"
       sodipodi:ry="12.857142"
       d="m -88.571431,244.09448 a 12.857142,12.857142 0 1 1 -25.714289,0 12.857142,12.857142 0 1 1 25.714289,0 z"
       transform="translate(692.85715,693.98199)" />
    <path
       transform="translate(868.57143,702.55342)"
       d="m -88.571431,244.09448 a 12.857142,12.857142 0 1 1 -25.714289,0 12.857142,12.857142 0 1 1 25.714289,0 z"
       sodipodi:ry="12.857142"
       sodipodi:rx="12.857142"
       sodipodi:cy="244.09448"
       sodipodi:cx="-101.42857"
       id="path5364"
       style="fill:#008000;fill-opacity:1;stroke:none"
       sodipodi:type="arc" />
    <path
       sodipodi:type="star"
       style="fill:#0000ff;fill-opacity:1;stroke:none"
       id="path5366"
       sodipodi:sides="3"
       sodipodi:cx="-105.71429"
       sodipodi:cy="218.3802"
       sodipodi:r1="17.899948"
       sodipodi:r2="8.9499741"
       sodipodi:arg1="0.52359878"
       sodipodi:arg2="1.5707963"
       inkscape:flatsided="false"
       inkscape:rounded="0"
       inkscape:randomized="0"
       d="m -90.212477,227.33018 -15.501813,0 -15.50181,0 7.75091,-13.42496 7.7509,-13.42496 7.750908,13.42496 z"
       transform="translate(835.71429,698.2677)"
       inkscape:transform-center-y="-4.4749872" />
    <path
       inkscape:transform-center-y="-4.4749872"
       transform="translate(745.71428,762.46058)"
       d="m -90.212477,227.33018 -15.501813,0 -15.50181,0 7.75091,-13.42496 7.7509,-13.42496 7.750908,13.42496 z"
       inkscape:randomized="0"
       inkscape:rounded="0"
       inkscape:flatsided="false"
       sodipodi:arg2="1.5707963"
       sodipodi:arg1="0.52359878"
       sodipodi:r2="8.9499741"
       sodipodi:r1="17.899948"
       sodipodi:cy="218.3802"
       sodipodi:cx="-105.71429"
       sodipodi:sides="3"
       id="path5368"
       style="fill:#0000ff;fill-opacity:1;stroke:none"
       sodipodi:type="star" />
    <path
       sodipodi:type="star"
       style="fill:#0000ff;fill-opacity:1;stroke:none"
       id="path5370"
       sodipodi:sides="3"
       sodipodi:cx="-105.71429"
       sodipodi:cy="218.3802"
       sodipodi:r1="17.899948"
       sodipodi:r2="8.9499741"
       sodipodi:arg1="0.52359878"
       sodipodi:arg2="1.5707963"
       inkscape:flatsided="false"
       inkscape:rounded="0"
       inkscape:randomized="0"
       d="m -90.212477,227.33018 -15.501813,0 -15.50181,0 7.75091,-13.42496 7.7509,-13.42496 7.750908,13.42496 z"
       transform="translate(897.14286,607.02479)"
       inkscape:transform-center-y="-4.4749872" />
    <path
       inkscape:transform-center-y="-4.4749872"
       transform="translate(542.85714,731.12484)"
       d="m -90.212477,227.33018 -15.501813,0 -15.50181,0 7.75091,-13.42496 7.7509,-13.42496 7.750908,13.42496 z"
       inkscape:randomized="0"
       inkscape:rounded="0"
       inkscape:flatsided="false"
       sodipodi:arg2="1.5707963"
       sodipodi:arg1="0.52359878"
       sodipodi:r2="8.9499741"
       sodipodi:r1="17.899948"
       sodipodi:cy="218.3802"
       sodipodi:cx="-105.71429"
       sodipodi:sides="3"
       id="path5372"
       style="fill:#0000ff;fill-opacity:1;stroke:none"
       sodipodi:type="star" />
    <path
       sodipodi:type="star"
       style="fill:#0000ff;fill-opacity:1;stroke:none"
       id="path5374"
       sodipodi:sides="3"
       sodipodi:cx="-105.71429"
       sodipodi:cy="218.3802"
       sodipodi:r1="17.899948"
       sodipodi:r2="8.9499741"
       sodipodi:arg1="0.52359878"
       sodipodi:arg2="1.5707963"
       inkscape:flatsided="false"
       inkscape:rounded="0"
       inkscape:randomized="0"
       d="m -90.212477,227.33018 -15.501813,0 -15.50181,0 7.75091,-13.42496 7.7509,-13.42496 7.750908,13.42496 z"
       transform="translate(881.42857,672.55342)"
       inkscape:transform-center-y="-4.4749872" />
    <path
       inkscape:transform-center-y="-4.4749872"
       transform="translate(738.57143,633.98199)"
       d="m -90.212477,227.33018 -15.501813,0 -15.50181,0 7.75091,-13.42496 7.7509,-13.42496 7.750908,13.42496 z"
       inkscape:randomized="0"
       inkscape:rounded="0"
       inkscape:flatsided="false"
       sodipodi:arg2="1.5707963"
       sodipodi:arg1="0.52359878"
       sodipodi:r2="8.9499741"
       sodipodi:r1="17.899948"
       sodipodi:cy="218.3802"
       sodipodi:cx="-105.71429"
       sodipodi:sides="3"
       id="path5376"
       style="fill:#0000ff;fill-opacity:1;stroke:none"
       sodipodi:type="star" />
    <path
       sodipodi:type="star"
       style="fill:#0000ff;fill-opacity:1;stroke:none"
       id="path5378"
       sodipodi:sides="3"
       sodipodi:cx="-105.71429"
       sodipodi:cy="218.3802"
       sodipodi:r1="17.899948"
       sodipodi:r2="8.9499741"
       sodipodi:arg1="0.52359878"
       sodipodi:arg2="1.5707963"
       inkscape:flatsided="false"
       inkscape:rounded="0"
       inkscape:randomized="0"
       d="m -90.212477,227.33018 -15.501813,0 -15.50181,0 7.75091,-13.42496 7.7509,-13.42496 7.750908,13.42496 z"
       transform="translate(621.42858,625.41056)"
       inkscape:transform-center-y="-4.4749872" />
    <path
       inkscape:transform-center-y="-4.4749872"
       transform="translate(692.85714,678.2677)"
       d="m -90.212477,227.33018 -15.501813,0 -15.50181,0 7.75091,-13.42496 7.7509,-13.42496 7.750908,13.42496 z"
       inkscape:randomized="0"
       inkscape:rounded="0"
       inkscape:flatsided="false"
       sodipodi:arg2="1.5707963"
       sodipodi:arg1="0.52359878"
       sodipodi:r2="8.9499741"
       sodipodi:r1="17.899948"
       sodipodi:cy="218.3802"
       sodipodi:cx="-105.71429"
       sodipodi:sides="3"
       id="path5380"
       style="fill:#0000ff;fill-opacity:1;stroke:none"
       sodipodi:type="star" />
    <path
       sodipodi:type="star"
       style="fill:#d533ca;fill-opacity:1;stroke:none"
       id="path5388"
       sodipodi:sides="4"
       sodipodi:cx="485.71429"
       sodipodi:cy="515.52307"
       sodipodi:r1="21.476137"
       sodipodi:r2="23.233509"
       sodipodi:arg1="1.5707963"
       sodipodi:arg2="2.3561945"
       inkscape:flatsided="true"
       inkscape:rounded="0"
       inkscape:randomized="0"
       d="m 485.7143,536.99921 -21.47614,-21.47614 21.47613,-21.47614 21.47614,21.47614 z"
       transform="matrix(0.63414543,0,0,1,-131.58492,-3.160872)" />
    <path
       transform="matrix(0.63414543,0,0,1,-171.58492,-68.87516)"
       d="m 485.7143,536.99921 -21.47614,-21.47614 21.47613,-21.47614 21.47614,21.47614 z"
       inkscape:randomized="0"
       inkscape:rounded="0"
       inkscape:flatsided="true"
       sodipodi:arg2="2.3561945"
       sodipodi:arg1="1.5707963"
       sodipodi:r2="23.233509"
       sodipodi:r1="21.476137"
       sodipodi:cy="515.52307"
       sodipodi:cx="485.71429"
       sodipodi:sides="4"
       id="path5390"
       style="fill:#d533ca;fill-opacity:1;stroke:none"
       sodipodi:type="star" />
    <path
       transform="matrix(0.63414543,0,0,1,-84.44206,139.69627)"
       d="m 485.7143,536.99921 -21.47614,-21.47614 21.47613,-21.47614 21.47614,21.47614 z"
       inkscape:randomized="0"
       inkscape:rounded="0"
       inkscape:flatsided="true"
       sodipodi:arg2="2.3561945"
       sodipodi:arg1="1.5707963"
       sodipodi:r2="23.233509"
       sodipodi:r1="21.476137"
       sodipodi:cy="515.52307"
       sodipodi:cx="485.71429"
       sodipodi:sides="4"
       id="path5394"
       style="fill:#d533ca;fill-opacity:1;stroke:none"
       sodipodi:type="star" />
    <path
       sodipodi:type="star"
       style="fill:#d533ca;fill-opacity:1;stroke:none"
       id="path5396"
       sodipodi:sides="4"
       sodipodi:cx="485.71429"
       sodipodi:cy="515.52307"
       sodipodi:r1="21.476137"
       sodipodi:r2="23.233509"
       sodipodi:arg1="1.5707963"
       sodipodi:arg2="2.3561945"
       inkscape:flatsided="true"
       inkscape:rounded="0"
       inkscape:randomized="0"
       d="m 485.7143,536.99921 -21.47614,-21.47614 21.47613,-21.47614 21.47614,21.47614 z"
       transform="matrix(0.63414543,0,0,1,-1.584919,29.696273)" />
    <path
       sodipodi:type="star"
       style="fill:#d533ca;fill-opacity:1;stroke:none"
       id="path5400"
       sodipodi:sides="4"
       sodipodi:cx="485.71429"
       sodipodi:cy="515.52307"
       sodipodi:r1="21.476137"
       sodipodi:r2="23.233509"
       sodipodi:arg1="1.5707963"
       sodipodi:arg2="2.3561945"
       inkscape:flatsided="true"
       inkscape:rounded="0"
       inkscape:randomized="0"
       d="m 485.7143,536.99921 -21.47614,-21.47614 21.47613,-21.47614 21.47614,21.47614 z"
       transform="matrix(0.63414543,0,0,1,-163.01349,105.41055)" />
    <rect
       y="551.98877"
       x="131.05513"
       height="23.604031"
       width="23.604031"
       id="rect5402"
       style="fill:#ff6600;fill-opacity:1;stroke:none" />
    <path
       transform="translate(544.28571,589.69628)"
       d="m -88.571431,244.09448 a 12.857142,12.857142 0 1 1 -25.714289,0 12.857142,12.857142 0 1 1 25.714289,0 z"
       sodipodi:ry="12.857142"
       sodipodi:rx="12.857142"
       sodipodi:cy="244.09448"
       sodipodi:cx="-101.42857"
       id="path5404"
       style="fill:#008000;fill-opacity:1;stroke:none"
       sodipodi:type="arc" />
    <path
       sodipodi:type="arc"
       style="fill:#008000;fill-opacity:1;stroke:none"
       id="path5406"
       sodipodi:cx="-101.42857"
       sodipodi:cy="244.09448"
       sodipodi:rx="12.857142"
       sodipodi:ry="12.857142"
       d="m -88.571431,244.09448 a 12.857142,12.857142 0 1 1 -25.714289,0 12.857142,12.857142 0 1 1 25.714289,0 z"
       transform="translate(784.28571,609.69628)" />
    <path
       transform="translate(671.42857,613.98199)"
       d="m -88.571431,244.09448 a 12.857142,12.857142 0 1 1 -25.714289,0 12.857142,12.857142 0 1 1 25.714289,0 z"
       sodipodi:ry="12.857142"
       sodipodi:rx="12.857142"
       sodipodi:cy="244.09448"
       sodipodi:cx="-101.42857"
       id="path5408"
       style="fill:#008000;fill-opacity:1;stroke:none"
       sodipodi:type="arc" />
    <path
       transform="translate(552.85714,661.12485)"
       d="m -88.571431,244.09448 a 12.857142,12.857142 0 1 1 -25.714289,0 12.857142,12.857142 0 1 1 25.714289,0 z"
       sodipodi:ry="12.857142"
       sodipodi:rx="12.857142"
       sodipodi:cy="244.09448"
       sodipodi:cx="-101.42857"
       id="path5410"
       style="fill:#008000;fill-opacity:1;stroke:none"
       sodipodi:type="arc" />
    <path
       transform="translate(841.42857,663.98199)"
       d="m -88.571431,244.09448 a 12.857142,12.857142 0 1 1 -25.714289,0 12.857142,12.857142 0 1 1 25.714289,0 z"
       sodipodi:ry="12.857142"
       sodipodi:rx="12.857142"
       sodipodi:cy="244.09448"
       sodipodi:cx="-101.42857"
       id="path5412"
       style="fill:#008000;fill-opacity:1;stroke:none"
       sodipodi:type="arc" />
    <path
       sodipodi:type="star"
       style="fill:#0000ff;fill-opacity:1;stroke:none"
       id="path5414"
       sodipodi:sides="3"
       sodipodi:cx="-105.71429"
       sodipodi:cy="218.3802"
       sodipodi:r1="17.899948"
       sodipodi:r2="8.9499741"
       sodipodi:arg1="0.52359878"
       sodipodi:arg2="1.5707963"
       inkscape:flatsided="false"
       inkscape:rounded="0"
       inkscape:randomized="0"
       d="m -90.212477,227.33018 -15.501813,0 -15.50181,0 7.75091,-13.42496 7.7509,-13.42496 7.750908,13.42496 z"
       transform="translate(617.14285,665.41056)"
       inkscape:transform-center-y="-4.4749872" />
    <path
       sodipodi:type="star"
       style="fill:#0000ff;fill-opacity:1;stroke:none"
       id="path5416"
       sodipodi:sides="3"
       sodipodi:cx="-105.71429"
       sodipodi:cy="218.3802"
       sodipodi:r1="17.899948"
       sodipodi:r2="8.9499741"
       sodipodi:arg1="0.52359878"
       sodipodi:arg2="1.5707963"
       inkscape:flatsided="false"
       inkscape:rounded="0"
       inkscape:randomized="0"
       d="m -90.212477,227.33018 -15.501813,0 -15.50181,0 7.75091,-13.42496 7.7509,-13.42496 7.750908,13.42496 z"
       transform="translate(784.28571,716.83913)"
       inkscape:transform-center-y="-4.4749872" />
    <path
       inkscape:transform-center-y="-4.4749872"
       transform="translate(907.14285,718.2677)"
       d="m -90.212477,227.33018 -15.501813,0 -15.50181,0 7.75091,-13.42496 7.7509,-13.42496 7.750908,13.42496 z"
       inkscape:randomized="0"
       inkscape:rounded="0"
       inkscape:flatsided="false"
       sodipodi:arg2="1.5707963"
       sodipodi:arg1="0.52359878"
       sodipodi:r2="8.9499741"
       sodipodi:r1="17.899948"
       sodipodi:cy="218.3802"
       sodipodi:cx="-105.71429"
       sodipodi:sides="3"
       id="path5420"
       style="fill:#0000ff;fill-opacity:1;stroke:none"
       sodipodi:type="star" />
    <path
       sodipodi:type="star"
       style="fill:#d5bc33;fill-opacity:1;stroke:none"
       id="path5424"
       sodipodi:sides="5"
       sodipodi:cx="-104.28571"
       sodipodi:cy="165.52306"
       sodipodi:r1="27.441961"
       sodipodi:r2="13.72098"
       sodipodi:arg1="0.89605538"
       sodipodi:arg2="1.5243739"
       inkscape:flatsided="false"
       inkscape:rounded="0"
       inkscape:randomized="0"
       d="m -87.142856,186.95163 -16.506124,-7.72238 -15.71908,9.21943 2.24374,-18.08461 -13.62565,-12.10077 17.89283,-3.45453 7.29796,-16.69811 8.81464,15.94959 18.136044,1.78077 -12.445087,13.31192 z"
       transform="matrix(0.66249675,0,0,0.58359658,653.37182,606.07732)"
       inkscape:transform-center-x="0.26070943"
       inkscape:transform-center-y="-1.3092419" />
    <path
       inkscape:transform-center-y="-1.3092377"
       inkscape:transform-center-x="0.26070829"
       transform="matrix(0.66249675,0,0,0.58359658,675.9274,393.52593)"
       d="m -87.142856,186.95163 -16.506124,-7.72238 -15.71908,9.21943 2.24374,-18.08461 -13.62565,-12.10077 17.89283,-3.45453 7.29796,-16.69811 8.81464,15.94959 18.136044,1.78077 -12.445087,13.31192 z"
       inkscape:randomized="0"
       inkscape:rounded="0"
       inkscape:flatsided="false"
       sodipodi:arg2="1.5243739"
       sodipodi:arg1="0.89605538"
       sodipodi:r2="13.72098"
       sodipodi:r1="27.441961"
       sodipodi:cy="165.52306"
       sodipodi:cx="-104.28571"
       sodipodi:sides="5"
       id="path5426"
       style="fill:#d5bc33;fill-opacity:1;stroke:none"
       sodipodi:type="star" />
    <path
       sodipodi:type="star"
       style="fill:#d5bc33;fill-opacity:1;stroke:none"
       id="path5428"
       sodipodi:sides="5"
       sodipodi:cx="-104.28571"
       sodipodi:cy="165.52306"
       sodipodi:r1="27.441961"
       sodipodi:r2="13.72098"
       sodipodi:arg1="0.89605538"
       sodipodi:arg2="1.5243739"
       inkscape:flatsided="false"
       inkscape:rounded="0"
       inkscape:randomized="0"
       d="m -87.142856,186.95163 -16.506124,-7.72238 -15.71908,9.21943 2.24374,-18.08461 -13.62565,-12.10077 17.89283,-3.45453 7.29796,-16.69811 8.81464,15.94959 18.136044,1.78077 -12.445087,13.31192 z"
       transform="matrix(0.66249675,0,0,0.58359658,679.56368,490.1912)"
       inkscape:transform-center-x="0.26071199"
       inkscape:transform-center-y="-1.3092366" />
    <path
       inkscape:transform-center-y="-1.3092329"
       inkscape:transform-center-x="0.26071079"
       transform="matrix(0.66249675,0,0,0.58359658,531.688,467.16139)"
       d="m -87.142856,186.95163 -16.506124,-7.72238 -15.71908,9.21943 2.24374,-18.08461 -13.62565,-12.10077 17.89283,-3.45453 7.29796,-16.69811 8.81464,15.94959 18.136044,1.78077 -12.445087,13.31192 z"
       inkscape:randomized="0"
       inkscape:rounded="0"
       inkscape:flatsided="false"
       sodipodi:arg2="1.5243739"
       sodipodi:arg1="0.89605538"
       sodipodi:r2="13.72098"
       sodipodi:r1="27.441961"
       sodipodi:cy="165.52306"
       sodipodi:cx="-104.28571"
       sodipodi:sides="5"
       id="path5430"
       style="fill:#d5bc33;fill-opacity:1;stroke:none"
       sodipodi:type="star" />
    <path
       sodipodi:type="star"
       style="fill:#d5bc33;fill-opacity:1;stroke:none"
       id="path5432"
       sodipodi:sides="5"
       sodipodi:cx="-104.28571"
       sodipodi:cy="165.52306"
       sodipodi:r1="27.441961"
       sodipodi:r2="13.72098"
       sodipodi:arg1="0.89605538"
       sodipodi:arg2="1.5243739"
       inkscape:flatsided="false"
       inkscape:rounded="0"
       inkscape:randomized="0"
       d="m -87.142856,186.95163 -16.506124,-7.72238 -15.71908,9.21943 2.24374,-18.08461 -13.62565,-12.10077 17.89283,-3.45453 7.29796,-16.69811 8.81464,15.94959 18.136044,1.78077 -12.445087,13.31192 z"
       transform="matrix(0.66249675,0,0,0.58359658,594.71698,402.92031)"
       inkscape:transform-center-x="0.26070757"
       inkscape:transform-center-y="-1.3092331" />
    <path
       inkscape:transform-center-y="-1.3092416"
       inkscape:transform-center-x="0.26071082"
       transform="matrix(0.66249675,0,0,0.58359658,557.61792,573.5672)"
       d="m -87.142856,186.95163 -16.506124,-7.72238 -15.71908,9.21943 2.24374,-18.08461 -13.62565,-12.10077 17.89283,-3.45453 7.29796,-16.69811 8.81464,15.94959 18.136044,1.78077 -12.445087,13.31192 z"
       inkscape:randomized="0"
       inkscape:rounded="0"
       inkscape:flatsided="false"
       sodipodi:arg2="1.5243739"
       sodipodi:arg1="0.89605538"
       sodipodi:r2="13.72098"
       sodipodi:r1="27.441961"
       sodipodi:cy="165.52306"
       sodipodi:cx="-104.28571"
       sodipodi:sides="5"
       id="path5434"
       style="fill:#d5bc33;fill-opacity:1;stroke:none"
       sodipodi:type="star" />
    <path
       sodipodi:type="star"
       style="fill:#d5bc33;fill-opacity:1;stroke:none"
       id="path5436"
       sodipodi:sides="5"
       sodipodi:cx="-104.28571"
       sodipodi:cy="165.52306"
       sodipodi:r1="27.441961"
       sodipodi:r2="13.72098"
       sodipodi:arg1="0.89605538"
       sodipodi:arg2="1.5243739"
       inkscape:flatsided="false"
       inkscape:rounded="0"
       inkscape:randomized="0"
       d="m -87.142856,186.95163 -16.506124,-7.72238 -15.71908,9.21943 2.24374,-18.08461 -13.62565,-12.10077 17.89283,-3.45453 7.29796,-16.69811 8.81464,15.94959 18.136044,1.78077 -12.445087,13.31192 z"
       transform="matrix(0.66249675,0,0,0.58359658,601.98956,478.07024)"
       inkscape:transform-center-x="0.26070345"
       inkscape:transform-center-y="-1.3092425" />
    <path
       inkscape:transform-center-y="-1.3092381"
       inkscape:transform-center-x="0.2607062"
       transform="matrix(0.66249675,0,0,0.58359658,491.68885,412.61707)"
       d="m -87.142856,186.95163 -16.506124,-7.72238 -15.71908,9.21943 2.24374,-18.08461 -13.62565,-12.10077 17.89283,-3.45453 7.29796,-16.69811 8.81464,15.94959 18.136044,1.78077 -12.445087,13.31192 z"
       inkscape:randomized="0"
       inkscape:rounded="0"
       inkscape:flatsided="false"
       sodipodi:arg2="1.5243739"
       sodipodi:arg1="0.89605538"
       sodipodi:r2="13.72098"
       sodipodi:r1="27.441961"
       sodipodi:cy="165.52306"
       sodipodi:cx="-104.28571"
       sodipodi:sides="5"
       id="path5438"
       style="fill:#d5bc33;fill-opacity:1;stroke:none"
       sodipodi:type="star" />
    <text
       xml:space="preserve"
       style="font-size:36px;font-style:normal;font-variant:normal;font-weight:normal;font-stretch:normal;line-height:125%;letter-spacing:0px;word-spacing:0px;fill:#000000;fill-opacity:1;stroke:none;font-family:arial;-inkscape-font-specification:arial"
       x="25.714283"
       y="380.93362"
       id="text5450"
       sodipodi:linespacing="125%"><tspan
         sodipodi:role="line"
         id="tspan5452"
         x="25.714283"
         y="380.93362">SPE <tspan
   style="font-size:24px"
   id="tspan5454">model B</tspan></tspan></text>
    <text
       sodipodi:linespacing="125%"
       id="text5456"
       y="1046.6479"
       x="827.14288"
       style="font-size:36px;font-style:normal;font-variant:normal;font-weight:normal;font-stretch:normal;line-height:125%;letter-spacing:0px;word-spacing:0px;fill:#000000;fill-opacity:1;stroke:none;font-family:arial;-inkscape-font-specification:arial"
       xml:space="preserve"><tspan
         y="1046.6479"
         x="827.14288"
         id="tspan5458"
         sodipodi:role="line">SPE <tspan
   id="tspan5460"
   style="font-size:24px">model A</tspan></tspan></text>
    <text
       xml:space="preserve"
       style="font-size:36px;font-style:normal;font-variant:normal;font-weight:normal;font-stretch:normal;line-height:125%;letter-spacing:0px;word-spacing:0px;fill:#000000;fill-opacity:1;stroke:none;font-family:arial;-inkscape-font-specification:arial"
       x="337.71429"
       y="412.36215"
       id="text5462"
       sodipodi:linespacing="125%"><tspan
         sodipodi:role="line"
         id="tspan5464"
         x="337.71429"
         y="412.36215">SPE <tspan
   style="font-size:24px"
   id="tspan5466">limit A</tspan></tspan></text>
    <text
       sodipodi:linespacing="125%"
       id="text5468"
       y="768.07642"
       x="793.42859"
       style="font-size:36px;font-style:normal;font-variant:normal;font-weight:normal;font-stretch:normal;line-height:125%;letter-spacing:0px;word-spacing:0px;fill:#000000;fill-opacity:1;stroke:none;font-family:arial;-inkscape-font-specification:arial"
       xml:space="preserve"><tspan
         y="768.07642"
         x="793.42859"
         id="tspan5470"
         sodipodi:role="line">SPE <tspan
   id="tspan5472"
   style="font-size:24px">limit B</tspan></tspan></text>
    <g
       id="g5497"
       transform="translate(-36,68)">
      <g
         id="g5490">
        <rect
           style="fill:#ff6600;fill-opacity:1;stroke:none"
           id="rect5440"
           width="23.604031"
           height="23.604031"
           x="722.79315"
           y="349.13162" />
        <path
           transform="matrix(0.63414543,0,0,1,426.58165,-96.018013)"
           d="m 485.7143,536.99921 -21.47614,-21.47614 21.47613,-21.47614 21.47614,21.47614 z"
           inkscape:randomized="0"
           inkscape:rounded="0"
           inkscape:flatsided="true"
           sodipodi:arg2="2.3561945"
           sodipodi:arg1="1.5707963"
           sodipodi:r2="23.233509"
           sodipodi:r1="21.476137"
           sodipodi:cy="515.52307"
           sodipodi:cx="485.71429"
           sodipodi:sides="4"
           id="path5442"
           style="fill:#d533ca;fill-opacity:1;stroke:none"
           sodipodi:type="star" />
        <path
           sodipodi:type="arc"
           style="fill:#008000;fill-opacity:1;stroke:none"
           id="path5444"
           sodipodi:cx="-101.42857"
           sodipodi:cy="244.09448"
           sodipodi:rx="12.857142"
           sodipodi:ry="12.857142"
           d="m -88.571431,244.09448 c 0,7.10081 -5.756339,12.85714 -12.857139,12.85714 -7.10081,0 -12.85715,-5.75633 -12.85715,-12.85714 0,-7.1008 5.75634,-12.85714 12.85715,-12.85714 7.1008,0 12.857139,5.75634 12.857139,12.85714 z"
           transform="translate(836.02373,285.41057)" />
        <path
           inkscape:transform-center-y="-4.4749872"
           transform="translate(840.30944,259.69628)"
           d="m -90.212477,227.33018 -15.501813,0 -15.50181,0 7.75091,-13.42496 7.7509,-13.42496 7.750908,13.42496 z"
           inkscape:randomized="0"
           inkscape:rounded="0"
           inkscape:flatsided="false"
           sodipodi:arg2="1.5707963"
           sodipodi:arg1="0.52359878"
           sodipodi:r2="8.9499741"
           sodipodi:r1="17.899948"
           sodipodi:cy="218.3802"
           sodipodi:cx="-105.71429"
           sodipodi:sides="3"
           id="path5446"
           style="fill:#0000ff;fill-opacity:1;stroke:none"
           sodipodi:type="star" />
        <path
           sodipodi:type="star"
           style="fill:#d5bc33;fill-opacity:1;stroke:none"
           id="path5474"
           sodipodi:sides="5"
           sodipodi:cx="-104.28571"
           sodipodi:cy="165.52306"
           sodipodi:r1="27.441961"
           sodipodi:r2="13.72098"
           sodipodi:arg1="0.89605538"
           sodipodi:arg2="1.5243739"
           inkscape:flatsided="false"
           inkscape:rounded="0"
           inkscape:randomized="0"
           d="m -87.142856,186.95163 -16.506124,-7.72238 -15.71908,9.21943 2.24374,-18.08461 -13.62565,-12.10077 17.89283,-3.45453 7.29796,-16.69811 8.81464,15.94959 18.136044,1.78077 -12.445087,13.31192 z"
           transform="matrix(0.66249675,0,0,0.58359658,803.94481,487.81165)"
           inkscape:transform-center-x="0.26070829"
           inkscape:transform-center-y="-1.3092377" />
      </g>
      <text
         xml:space="preserve"
         style="font-size:28px;font-style:normal;font-variant:normal;font-weight:normal;font-stretch:normal;text-align:start;line-height:200%;letter-spacing:0px;word-spacing:0px;writing-mode:lr;text-anchor:start;fill:#000000;fill-opacity:1;stroke:none;font-family:arial;-inkscape-font-specification:arial"
         x="763.42859"
         y="370.93359"
         id="text5476"
         sodipodi:linespacing="200%"><tspan
           sodipodi:role="line"
           id="tspan3054">Class A: training data</tspan><tspan
           sodipodi:role="line"
           id="tspan3056">Class A: testing data</tspan><tspan
           sodipodi:role="line"
           id="tspan3058">Class B: training data</tspan><tspan
           sodipodi:role="line"
           id="tspan3060">Class B: testing data</tspan><tspan
           sodipodi:role="line"
           id="tspan3062">Testing data: neither</tspan></text>
    </g>
    <rect
       style="fill:none;stroke:#000000;stroke-width:2;stroke-miterlimit:4;stroke-opacity:1;stroke-dasharray:none"
       id="rect5511"
       width="358.57144"
       height="295.71429"
       x="658.57141"
       y="393.79074" />
    <path
       sodipodi:type="star"
       style="fill:#000000;fill-opacity:1;stroke:none;stroke-width:1.87500000000000000;stroke-linecap:round;stroke-linejoin:round;stroke-miterlimit:4;stroke-opacity:1;stroke-dasharray:none;stroke-dashoffset:0"
       id="path3066"
       sodipodi:sides="11"
       sodipodi:cx="111.42857"
       sodipodi:cy="572.66589"
       sodipodi:r1="89.738853"
       sodipodi:r2="44.869427"
       sodipodi:arg1="0.24111768"
       sodipodi:arg2="0.52671701"
       inkscape:flatsided="false"
       inkscape:rounded="0"
       inkscape:randomized="0"
       d="m 198.57143,594.09447 -48.35494,1.1272 22.93616,42.58407 -41.28817,-25.19439 -3.72757,48.22423 -21.11271,-43.51695 -29.207809,38.55353 5.765899,-48.02317 -45.414788,16.64235 30.813872,-37.28238 -47.202889,-10.55265 46.078658,-14.7047 -34.004405,-34.39726 46.713796,12.54162 -10.009763,-47.32099 32.517629,35.80607 17.16291,-45.22063 7.99735,47.70234 38.88648,-28.76305 -19.06203,44.45346 48.26386,-3.1734 -40.06935,27.09092 z"
       transform="matrix(0.16791264,0,0,0.16726718,176.4854,799.63922)"
       inkscape:transform-center-x="-2.100065"
       inkscape:transform-center-y="-1.7921563" />
    <path
       inkscape:transform-center-y="-1.7921563"
       inkscape:transform-center-x="-2.100065"
       transform="matrix(0.16791264,0,0,0.16726718,291.47144,758.04852)"
       d="m 198.57143,594.09447 -48.35494,1.1272 22.93616,42.58407 -41.28817,-25.19439 -3.72757,48.22423 -21.11271,-43.51695 -29.207809,38.55353 5.765899,-48.02317 -45.414788,16.64235 30.813872,-37.28238 -47.202889,-10.55265 46.078658,-14.7047 -34.004405,-34.39726 46.713796,12.54162 -10.009763,-47.32099 32.517629,35.80607 17.16291,-45.22063 7.99735,47.70234 38.88648,-28.76305 -19.06203,44.45346 48.26386,-3.1734 -40.06935,27.09092 z"
       inkscape:randomized="0"
       inkscape:rounded="0"
       inkscape:flatsided="false"
       sodipodi:arg2="0.52671701"
       sodipodi:arg1="0.24111768"
       sodipodi:r2="44.869427"
       sodipodi:r1="89.738853"
       sodipodi:cy="572.66589"
       sodipodi:cx="111.42857"
       sodipodi:sides="11"
       id="path3844"
       style="fill:#000000;fill-opacity:1;stroke:none"
       sodipodi:type="star" />
    <path
       sodipodi:type="star"
       style="fill:#000000;fill-opacity:1;stroke:none"
       id="path3846"
       sodipodi:sides="11"
       sodipodi:cx="111.42857"
       sodipodi:cy="572.66589"
       sodipodi:r1="89.738853"
       sodipodi:r2="44.869427"
       sodipodi:arg1="0.24111768"
       sodipodi:arg2="0.52671701"
       inkscape:flatsided="false"
       inkscape:rounded="0"
       inkscape:randomized="0"
       d="m 198.57143,594.09447 -48.35494,1.1272 22.93616,42.58407 -41.28817,-25.19439 -3.72757,48.22423 -21.11271,-43.51695 -29.207809,38.55353 5.765899,-48.02317 -45.414788,16.64235 30.813872,-37.28238 -47.202889,-10.55265 46.078658,-14.7047 -34.004405,-34.39726 46.713796,12.54162 -10.009763,-47.32099 32.517629,35.80607 17.16291,-45.22063 7.99735,47.70234 38.88648,-28.76305 -19.06203,44.45346 48.26386,-3.1734 -40.06935,27.09092 z"
       transform="matrix(0.16791264,0,0,0.16726718,289.02493,841.22991)"
       inkscape:transform-center-x="-2.100065"
       inkscape:transform-center-y="-1.7921563" />
  </g>
</svg>
