<?xml version="1.0" encoding="UTF-8" standalone="no"?>
<!-- Created with Inkscape (http://www.inkscape.org/) -->

<svg
   xmlns:dc="http://purl.org/dc/elements/1.1/"
   xmlns:cc="http://creativecommons.org/ns#"
   xmlns:rdf="http://www.w3.org/1999/02/22-rdf-syntax-ns#"
   xmlns:svg="http://www.w3.org/2000/svg"
   xmlns="http://www.w3.org/2000/svg"
   xmlns:sodipodi="http://sodipodi.sourceforge.net/DTD/sodipodi-0.dtd"
   xmlns:inkscape="http://www.inkscape.org/namespaces/inkscape"
   id="svg2"
   sodipodi:version="0.32"
   inkscape:version="0.48.2 r9819"
   width="800"
   height="300"
   version="1.0"
   sodipodi:docname="cross-flow-wikipedia.svg"
   style="display:inline"
   inkscape:output_extension="org.inkscape.output.svg.inkscape"
   inkscape:export-filename="cross-flow-wikipedia.png"
   inkscape:export-xdpi="299.92499"
   inkscape:export-ydpi="299.92499">
  <metadata
     id="metadata7">
    <rdf:RDF>
      <cc:Work
         rdf:about="">
        <dc:format>image/svg+xml</dc:format>
        <dc:type
           rdf:resource="http://purl.org/dc/dcmitype/StillImage" />
        <dc:title></dc:title>
      </cc:Work>
    </rdf:RDF>
  </metadata>
  <defs
     id="defs5">
    <inkscape:perspective
       sodipodi:type="inkscape:persp3d"
       inkscape:vp_x="0 : 526.18109 : 1"
       inkscape:vp_y="0 : 1000 : 0"
       inkscape:vp_z="744.09448 : 526.18109 : 1"
       inkscape:persp3d-origin="372.04724 : 350.78739 : 1"
       id="perspective9" />
  </defs>
  <sodipodi:namedview
     inkscape:window-height="790"
     inkscape:window-width="1440"
     inkscape:pageshadow="2"
     inkscape:pageopacity="0.0"
     guidetolerance="10.0"
     gridtolerance="10.0"
     objecttolerance="10.0"
     borderopacity="1.0"
     bordercolor="#666666"
     pagecolor="#ffffff"
     id="base"
     showgrid="false"
     inkscape:zoom="1.285"
     inkscape:cx="399.22179"
     inkscape:cy="150"
     inkscape:window-x="0"
     inkscape:window-y="0"
     inkscape:current-layer="layer2"
     inkscape:window-maximized="1" />
  <g
     inkscape:groupmode="layer"
     id="layer2"
     inkscape:label="SVG"
     transform="translate(-0.553733,-76.977753)">
    <path
       style="fill:#fcdd5e;fill-opacity:1;fill-rule:evenodd;stroke:#000000;stroke-width:0.58115029px;stroke-linecap:butt;stroke-linejoin:miter;stroke-opacity:1;display:inline"
       d="m 18.007254,179.32714 74.062379,0 0,-10.16809 63.223987,17.28576 -62.92292,17.08239 0,-9.96473 -74.513979,0 0.150533,-14.23533 z"
       id="path2464"
       sodipodi:nodetypes="cccccccc"
       inkscape:connector-curvature="0" />
    <path
       style="fill:#9e8d85;fill-opacity:1;fill-rule:evenodd;stroke:#000000;stroke-width:1.5;stroke-linecap:round;stroke-linejoin:round;stroke-miterlimit:4;stroke-opacity:1;display:inline"
       d="m 378.64296,206.27784 c 0,4.08086 -3.312,7.39286 -7.39286,7.39286 -4.08086,0 -7.39286,-3.312 -7.39286,-7.39286 0,-4.08085 3.312,-7.39285 7.39286,-7.39285 4.08086,0 7.39286,3.312 7.39286,7.39285 z"
       id="path2386"
       inkscape:connector-curvature="0" />
    <path
       style="fill:#9e8d85;fill-opacity:1;fill-rule:evenodd;stroke:#000000;stroke-width:1.5;stroke-linecap:round;stroke-linejoin:round;stroke-miterlimit:4;stroke-opacity:1;display:inline"
       d="m 439.03099,219.47335 c 0,4.08086 -3.312,7.39286 -7.39286,7.39286 -4.08086,0 -7.39286,-3.312 -7.39286,-7.39286 0,-4.08085 3.312,-7.39285 7.39286,-7.39285 4.08086,0 7.39286,3.312 7.39286,7.39285 z"
       id="path2390"
       inkscape:connector-curvature="0" />
    <path
       style="fill:#9e8d85;fill-opacity:1;fill-rule:evenodd;stroke:#000000;stroke-width:1.5;stroke-linecap:round;stroke-linejoin:round;stroke-miterlimit:4;stroke-opacity:1;display:inline"
       d="m 403.41459,205.22801 c 0,4.08086 -3.312,7.39286 -7.39286,7.39286 -4.08085,0 -7.39285,-3.312 -7.39285,-7.39286 0,-4.08085 3.312,-7.39285 7.39285,-7.39285 4.08086,0 7.39286,3.312 7.39286,7.39285 z"
       id="path2392"
       inkscape:connector-curvature="0" />
    <path
       style="fill:#9e8d85;fill-opacity:1;fill-rule:evenodd;stroke:#000000;stroke-width:1.5;stroke-linecap:round;stroke-linejoin:round;stroke-miterlimit:4;stroke-opacity:1;display:inline"
       d="m 292.11049,125.70992 c 0,4.08086 -3.312,7.39286 -7.39286,7.39286 -4.08085,0 -7.39285,-3.312 -7.39285,-7.39286 0,-4.08085 3.312,-7.39285 7.39285,-7.39285 4.08086,0 7.39286,3.312 7.39286,7.39285 z"
       id="path2394"
       inkscape:connector-curvature="0" />
    <path
       style="fill:#9e8d85;fill-opacity:1;fill-rule:evenodd;stroke:#000000;stroke-width:1.5;stroke-linecap:round;stroke-linejoin:round;stroke-miterlimit:4;stroke-opacity:1;display:inline"
       d="m 521.72344,201.20405 c 0,4.08086 -3.312,7.39286 -7.39286,7.39286 -4.08086,0 -7.39286,-3.312 -7.39286,-7.39286 0,-4.08085 3.312,-7.39285 7.39286,-7.39285 4.08086,0 7.39286,3.312 7.39286,7.39285 z"
       id="path2396"
       inkscape:connector-curvature="0" />
    <path
       style="fill:#9e8d85;fill-opacity:1;fill-rule:evenodd;stroke:#000000;stroke-width:1.5;stroke-linecap:round;stroke-linejoin:round;stroke-miterlimit:4;stroke-opacity:1;display:inline"
       d="m 483.25673,203.20074 c 0,4.08086 -3.312,7.39286 -7.39286,7.39286 -4.08086,0 -7.39286,-3.312 -7.39286,-7.39286 0,-4.08085 3.312,-7.39285 7.39286,-7.39285 4.08086,0 7.39286,3.312 7.39286,7.39285 z"
       id="path2398"
       inkscape:connector-curvature="0" />
    <path
       style="fill:#9e8d85;fill-opacity:1;fill-rule:evenodd;stroke:#000000;stroke-width:1.5;stroke-linecap:round;stroke-linejoin:round;stroke-miterlimit:4;stroke-opacity:1;display:inline"
       d="m 387.73898,114.37034 c 0,4.08086 -3.312,7.39286 -7.39286,7.39286 -4.08086,0 -7.39286,-3.312 -7.39286,-7.39286 0,-4.08085 3.312,-7.39285 7.39286,-7.39285 4.08086,0 7.39286,3.312 7.39286,7.39285 z"
       id="path2400"
       inkscape:connector-curvature="0" />
    <path
       style="fill:#9e8d85;fill-opacity:1;fill-rule:evenodd;stroke:#000000;stroke-width:1.5;stroke-linecap:round;stroke-linejoin:round;stroke-miterlimit:4;stroke-opacity:1;display:inline"
       d="m 285.66632,151.33716 c 0,4.08086 -3.312,7.39286 -7.39286,7.39286 -4.08085,0 -7.39285,-3.312 -7.39285,-7.39286 0,-4.08085 3.312,-7.39285 7.39285,-7.39285 4.08086,0 7.39286,3.312 7.39286,7.39285 z"
       id="path2402"
       inkscape:connector-curvature="0" />
    <path
       style="fill:#9e8d85;fill-opacity:1;fill-rule:evenodd;stroke:#000000;stroke-width:1.5;stroke-linecap:round;stroke-linejoin:round;stroke-miterlimit:4;stroke-opacity:1;display:inline"
       d="m 198.95766,185.86737 c 0,4.08086 -3.312,7.39286 -7.39286,7.39286 -4.08086,0 -7.39286,-3.312 -7.39286,-7.39286 0,-4.08085 3.312,-7.39285 7.39286,-7.39285 4.08086,0 7.39286,3.312 7.39286,7.39285 z"
       id="path2404"
       inkscape:connector-curvature="0" />
    <path
       style="fill:#9e8d85;fill-opacity:1;fill-rule:evenodd;stroke:#000000;stroke-width:1.5;stroke-linecap:round;stroke-linejoin:round;stroke-miterlimit:4;stroke-opacity:1;display:inline"
       d="m 183.36823,230.30274 c 0,4.08086 -3.312,7.39286 -7.39286,7.39286 -4.08086,0 -7.39286,-3.312 -7.39286,-7.39286 0,-4.08085 3.312,-7.39285 7.39286,-7.39285 4.08086,0 7.39286,3.312 7.39286,7.39285 z"
       id="path2406"
       inkscape:connector-curvature="0" />
    <path
       style="fill:#9e8d85;fill-opacity:1;fill-rule:evenodd;stroke:#000000;stroke-width:1.5;stroke-linecap:round;stroke-linejoin:round;stroke-miterlimit:4;stroke-opacity:1;display:inline"
       d="m 556.90169,199.04373 c 0,4.08086 -3.312,7.39286 -7.39286,7.39286 -4.08086,0 -7.39286,-3.312 -7.39286,-7.39286 0,-4.08085 3.312,-7.39285 7.39286,-7.39285 4.08086,0 7.39286,3.312 7.39286,7.39285 z"
       id="path2408"
       inkscape:connector-curvature="0" />
    <path
       style="fill:#9e8d85;fill-opacity:1;fill-rule:evenodd;stroke:#000000;stroke-width:1.5;stroke-linecap:round;stroke-linejoin:round;stroke-miterlimit:4;stroke-opacity:1;display:inline"
       d="m 432.99392,199.88811 c 0,4.08086 -3.312,7.39286 -7.39286,7.39286 -4.08085,0 -7.39285,-3.312 -7.39285,-7.39286 0,-4.08085 3.312,-7.39285 7.39285,-7.39285 4.08086,0 7.39286,3.312 7.39286,7.39285 z"
       id="path2410"
       inkscape:connector-curvature="0" />
    <path
       style="fill:#9e8d85;fill-opacity:1;fill-rule:evenodd;stroke:#000000;stroke-width:1.5;stroke-linecap:round;stroke-linejoin:round;stroke-miterlimit:4;stroke-opacity:1;display:inline"
       d="m 252.38027,233.2685 c 0,4.08086 -3.312,7.39286 -7.39286,7.39286 -4.08086,0 -7.39286,-3.312 -7.39286,-7.39286 0,-4.08085 3.312,-7.39285 7.39286,-7.39285 4.08086,0 7.39286,3.312 7.39286,7.39285 z"
       id="path2412"
       inkscape:connector-curvature="0" />
    <path
       style="fill:#9e8d85;fill-opacity:1;fill-rule:evenodd;stroke:#000000;stroke-width:1.5;stroke-linecap:round;stroke-linejoin:round;stroke-miterlimit:4;stroke-opacity:1;display:inline"
       d="m 230.26841,231.28138 c 0,4.08086 -3.312,7.39286 -7.39286,7.39286 -4.08086,0 -7.39286,-3.312 -7.39286,-7.39286 0,-4.08085 3.312,-7.39285 7.39286,-7.39285 4.08086,0 7.39286,3.312 7.39286,7.39285 z"
       id="path2414"
       inkscape:connector-curvature="0" />
    <path
       style="fill:#9e8d85;fill-opacity:1;fill-rule:evenodd;stroke:#000000;stroke-width:1.5;stroke-linecap:round;stroke-linejoin:round;stroke-miterlimit:4;stroke-opacity:1;display:inline"
       d="m 351.51977,232.69469 c 0,4.08086 -3.312,7.39286 -7.39286,7.39286 -4.08086,0 -7.39286,-3.312 -7.39286,-7.39286 0,-4.08085 3.312,-7.39285 7.39286,-7.39285 4.08086,0 7.39286,3.312 7.39286,7.39285 z"
       id="path2416"
       inkscape:connector-curvature="0" />
    <path
       style="fill:#9e8d85;fill-opacity:1;fill-rule:evenodd;stroke:#000000;stroke-width:1.5;stroke-linecap:round;stroke-linejoin:round;stroke-miterlimit:4;stroke-opacity:1;display:inline"
       d="m 251.37837,166.52752 c 0,4.08086 -3.312,7.39286 -7.39286,7.39286 -4.08085,0 -7.39285,-3.312 -7.39285,-7.39286 0,-4.08085 3.312,-7.39285 7.39285,-7.39285 4.08086,0 7.39286,3.312 7.39286,7.39285 z"
       id="path2418"
       inkscape:connector-curvature="0" />
    <path
       style="fill:#9e8d85;fill-opacity:1;fill-rule:evenodd;stroke:#000000;stroke-width:1.5;stroke-linecap:round;stroke-linejoin:round;stroke-miterlimit:4;stroke-opacity:1;display:inline"
       d="m 314.67643,229.01021 c 0,4.08086 -3.312,7.39286 -7.39286,7.39286 -4.08086,0 -7.39286,-3.312 -7.39286,-7.39286 0,-4.08085 3.312,-7.39285 7.39286,-7.39285 4.08086,0 7.39286,3.312 7.39286,7.39285 z"
       id="path2420"
       inkscape:connector-curvature="0" />
    <path
       style="fill:#9e8d85;fill-opacity:1;fill-rule:evenodd;stroke:#000000;stroke-width:1.5;stroke-linecap:round;stroke-linejoin:round;stroke-miterlimit:4;stroke-opacity:1;display:inline"
       d="m 299.86017,229.04631 c 0,4.08086 -3.312,7.39286 -7.39286,7.39286 -4.08086,0 -7.39286,-3.312 -7.39286,-7.39286 0,-4.08085 3.312,-7.39285 7.39286,-7.39285 4.08086,0 7.39286,3.312 7.39286,7.39285 z"
       id="path2422"
       inkscape:connector-curvature="0" />
    <path
       style="fill:#9e8d85;fill-opacity:1;fill-rule:evenodd;stroke:#000000;stroke-width:1.5;stroke-linecap:round;stroke-linejoin:round;stroke-miterlimit:4;stroke-opacity:1;display:inline"
       d="m 374.15741,171.5284 c 0,4.08086 -3.312,7.39286 -7.39286,7.39286 -4.08086,0 -7.39286,-3.312 -7.39286,-7.39286 0,-4.08085 3.312,-7.39285 7.39286,-7.39285 4.08086,0 7.39286,3.312 7.39286,7.39285 z"
       id="path2424"
       inkscape:connector-curvature="0" />
    <path
       style="fill:#9e8d85;fill-opacity:1;fill-rule:evenodd;stroke:#000000;stroke-width:1.5;stroke-linecap:round;stroke-linejoin:round;stroke-miterlimit:4;stroke-opacity:1;display:inline"
       d="m 439.06398,129.67029 c 0,4.08086 -3.312,7.39286 -7.39286,7.39286 -4.08085,0 -7.39285,-3.312 -7.39285,-7.39286 0,-4.08085 3.312,-7.39285 7.39285,-7.39285 4.08086,0 7.39286,3.312 7.39286,7.39285 z"
       id="path2426"
       inkscape:connector-curvature="0" />
    <path
       style="fill:#9e8d85;fill-opacity:1;fill-rule:evenodd;stroke:#000000;stroke-width:1.5;stroke-linecap:round;stroke-linejoin:round;stroke-miterlimit:4;stroke-opacity:1;display:inline"
       d="m 406.82705,232.18734 c 0,4.08086 -3.312,7.39286 -7.39286,7.39286 -4.08086,0 -7.39286,-3.312 -7.39286,-7.39286 0,-4.08085 3.312,-7.39285 7.39286,-7.39285 4.08086,0 7.39286,3.312 7.39286,7.39285 z"
       id="path2428"
       inkscape:connector-curvature="0" />
    <path
       style="fill:#9e8d85;fill-opacity:1;fill-rule:evenodd;stroke:#000000;stroke-width:1.5;stroke-linecap:round;stroke-linejoin:round;stroke-miterlimit:4;stroke-opacity:1;display:inline"
       d="m 367.68268,222.09456 c 0,4.08086 -3.312,7.39286 -7.39286,7.39286 -4.08086,0 -7.39286,-3.312 -7.39286,-7.39286 0,-4.08085 3.312,-7.39285 7.39286,-7.39285 4.08086,0 7.39286,3.312 7.39286,7.39285 z"
       id="path2430"
       inkscape:connector-curvature="0" />
    <path
       style="fill:#9e8d85;fill-opacity:1;fill-rule:evenodd;stroke:#000000;stroke-width:1.5;stroke-linecap:round;stroke-linejoin:round;stroke-miterlimit:4;stroke-opacity:1;display:inline"
       d="m 384.87214,224.58306 c 0,4.08086 -3.312,7.39286 -7.39286,7.39286 -4.08086,0 -7.39286,-3.312 -7.39286,-7.39286 0,-4.08085 3.312,-7.39285 7.39286,-7.39285 4.08086,0 7.39286,3.312 7.39286,7.39285 z"
       id="path2432"
       inkscape:connector-curvature="0" />
    <path
       style="fill:#9e8d85;fill-opacity:1;fill-rule:evenodd;stroke:#000000;stroke-width:1.5;stroke-linecap:round;stroke-linejoin:round;stroke-miterlimit:4;stroke-opacity:1;display:inline"
       d="m 461.60077,197.39258 c 0,4.08086 -3.312,7.39286 -7.39286,7.39286 -4.08086,0 -7.39286,-3.312 -7.39286,-7.39286 0,-4.08085 3.312,-7.39285 7.39286,-7.39285 4.08086,0 7.39286,3.312 7.39286,7.39285 z"
       id="path2434"
       inkscape:connector-curvature="0" />
    <path
       style="fill:#9e8d85;fill-opacity:1;fill-rule:evenodd;stroke:#000000;stroke-width:1.5;stroke-linecap:round;stroke-linejoin:round;stroke-miterlimit:4;stroke-opacity:1;display:inline"
       d="m 554.75329,222.86095 c 0,4.08086 -3.312,7.39286 -7.39286,7.39286 -4.08085,0 -7.39285,-3.312 -7.39285,-7.39286 0,-4.08085 3.312,-7.39285 7.39285,-7.39285 4.08086,0 7.39286,3.312 7.39286,7.39285 z"
       id="path2436"
       inkscape:connector-curvature="0" />
    <path
       style="fill:#9e8d85;fill-opacity:1;fill-rule:evenodd;stroke:#000000;stroke-width:1.5;stroke-linecap:round;stroke-linejoin:round;stroke-miterlimit:4;stroke-opacity:1;display:inline"
       d="m 493.08967,163.40489 c 0,4.08086 -3.312,7.39286 -7.39286,7.39286 -4.08086,0 -7.39286,-3.312 -7.39286,-7.39286 0,-4.08085 3.312,-7.39285 7.39286,-7.39285 4.08086,0 7.39286,3.312 7.39286,7.39285 z"
       id="path2438"
       inkscape:connector-curvature="0" />
    <path
       style="fill:#9e8d85;fill-opacity:1;fill-rule:evenodd;stroke:#000000;stroke-width:1.5;stroke-linecap:round;stroke-linejoin:round;stroke-miterlimit:4;stroke-opacity:1;display:inline"
       d="m 339.21116,129.9499 c 0,4.08086 -3.312,7.39286 -7.39286,7.39286 -4.08086,0 -7.39286,-3.312 -7.39286,-7.39286 0,-4.08085 3.312,-7.39285 7.39286,-7.39285 4.08086,0 7.39286,3.312 7.39286,7.39285 z"
       id="path2440"
       inkscape:connector-curvature="0" />
    <path
       style="fill:#9e8d85;fill-opacity:1;fill-rule:evenodd;stroke:#000000;stroke-width:1.5;stroke-linecap:round;stroke-linejoin:round;stroke-miterlimit:4;stroke-opacity:1;display:inline"
       d="m 497.86131,232.15717 c 0,4.08086 -3.312,7.39286 -7.39286,7.39286 -4.08086,0 -7.39286,-3.312 -7.39286,-7.39286 0,-4.08085 3.312,-7.39285 7.39286,-7.39285 4.08086,0 7.39286,3.312 7.39286,7.39285 z"
       id="path2442"
       inkscape:connector-curvature="0" />
    <path
       style="fill:#9e8d85;fill-opacity:1;fill-rule:evenodd;stroke:#000000;stroke-width:1.5;stroke-linecap:round;stroke-linejoin:round;stroke-miterlimit:4;stroke-opacity:1;display:inline"
       d="m 449.2332,233.85433 c 0,4.08086 -3.312,7.39286 -7.39286,7.39286 -4.08085,0 -7.39285,-3.312 -7.39285,-7.39286 0,-4.08085 3.312,-7.39285 7.39285,-7.39285 4.08086,0 7.39286,3.312 7.39286,7.39285 z"
       id="path2444"
       inkscape:connector-curvature="0" />
    <path
       style="fill:#9e8d85;fill-opacity:1;fill-rule:evenodd;stroke:#000000;stroke-width:1.5;stroke-linecap:round;stroke-linejoin:round;stroke-miterlimit:4;stroke-opacity:1;display:inline"
       d="m 466.20577,219.64835 c 0,4.08086 -3.312,7.39286 -7.39286,7.39286 -4.08086,0 -7.39286,-3.312 -7.39286,-7.39286 0,-4.08085 3.312,-7.39285 7.39286,-7.39285 4.08086,0 7.39286,3.312 7.39286,7.39285 z"
       id="path2446"
       inkscape:connector-curvature="0" />
    <path
       style="fill:#9e8d85;fill-opacity:1;fill-rule:evenodd;stroke:#000000;stroke-width:1.5;stroke-linecap:round;stroke-linejoin:round;stroke-miterlimit:4;stroke-opacity:1;display:inline"
       d="m 599.14711,218.7989 c 0,4.08086 -3.312,7.39286 -7.39286,7.39286 -4.08086,0 -7.39286,-3.312 -7.39286,-7.39286 0,-4.08085 3.312,-7.39285 7.39286,-7.39285 4.08086,0 7.39286,3.312 7.39286,7.39285 z"
       id="path2448"
       inkscape:connector-curvature="0" />
    <path
       style="fill:#9e8d85;fill-opacity:1;fill-rule:evenodd;stroke:#000000;stroke-width:1.5;stroke-linecap:round;stroke-linejoin:round;stroke-miterlimit:4;stroke-opacity:1;display:inline"
       d="m 563.05586,121.17987 c 0,4.08086 -3.312,7.39286 -7.39286,7.39286 -4.08086,0 -7.39286,-3.312 -7.39286,-7.39286 0,-4.08085 3.312,-7.39285 7.39286,-7.39285 4.08086,0 7.39286,3.312 7.39286,7.39285 z"
       id="path2450"
       inkscape:connector-curvature="0" />
    <path
       style="fill:#9e8d85;fill-opacity:1;fill-rule:evenodd;stroke:#000000;stroke-width:1.5;stroke-linecap:round;stroke-linejoin:round;stroke-miterlimit:4;stroke-opacity:1;display:inline"
       d="m 497.99956,215.34621 c 0,4.08086 -3.312,7.39286 -7.39286,7.39286 -4.08086,0 -7.39286,-3.312 -7.39286,-7.39286 0,-4.08085 3.312,-7.39285 7.39286,-7.39285 4.08086,0 7.39286,3.312 7.39286,7.39285 z"
       id="path2452"
       inkscape:connector-curvature="0" />
    <path
       style="fill:#9e8d85;fill-opacity:1;fill-rule:evenodd;stroke:#000000;stroke-width:1.5;stroke-linecap:round;stroke-linejoin:round;stroke-miterlimit:4;stroke-opacity:1;display:inline"
       d="m 532.49962,225.15686 c 0,4.08086 -3.312,7.39286 -7.39286,7.39286 -4.08086,0 -7.39286,-3.312 -7.39286,-7.39286 0,-4.08085 3.312,-7.39285 7.39286,-7.39285 4.08086,0 7.39286,3.312 7.39286,7.39285 z"
       id="path2454"
       inkscape:connector-curvature="0" />
    <path
       style="fill:#9e8d85;fill-opacity:1;fill-rule:evenodd;stroke:#000000;stroke-width:1.5;stroke-linecap:round;stroke-linejoin:round;stroke-miterlimit:4;stroke-opacity:1;display:inline"
       d="m 419.43887,219.03253 c 0,4.08086 -3.312,7.39286 -7.39286,7.39286 -4.08086,0 -7.39286,-3.312 -7.39286,-7.39286 0,-4.08085 3.312,-7.39285 7.39286,-7.39285 4.08086,0 7.39286,3.312 7.39286,7.39285 z"
       id="path2456"
       inkscape:connector-curvature="0" />
    <path
       style="fill:#eb3d46;fill-opacity:1;fill-rule:evenodd;stroke:#000000;stroke-width:1;stroke-linecap:round;stroke-linejoin:miter;stroke-miterlimit:4;stroke-opacity:1;stroke-dasharray:none"
       d="m 153.42439,80.75 0,14.15625 453.26311,0 0,-14.15625 -453.26311,0 z"
       id="path2473"
       inkscape:connector-curvature="0" />
    <path
       id="path3429"
       d="m 193.96875,311.78125 -14.9375,-25.875 8.1875,0 0.125,-55.09375 12.5,0 0,54.8125 9.25,0 -15.125,26.15625 z m 93.625,0 -14.96875,-25.875 8.1875,0 0.15625,-55.09375 12.46875,0 0,54.8125 9.25,0 -15.09375,26.15625 z m 93.3125,0 -14.9375,-25.875 8.1875,0 0.125,-55.09375 12.5,0 0,54.8125 9.25,0 -15.125,26.15625 z m 93.1875,0 -14.9375,-25.875 8.1875,0 0.15625,-55.09375 12.46875,0 0,54.8125 9.25,0 -15.125,26.15625 z m 93.625,0 -14.96875,-25.875 8.21875,0 0.125,-55.09375 12.46875,0 0,54.8125 9.25,0 -15.09375,26.15625 z"
       style="fill:#003366;fill-rule:evenodd;stroke:#000000;stroke-width:1px;stroke-linecap:butt;stroke-linejoin:miter;stroke-opacity:1"
       inkscape:connector-curvature="0" />
    <path
       id="path3408"
       d="m 153.71875,239.80925 0,14.15625 12.03125,0 0,-14.15625 -12.03125,0 z m 24.6875,0 0,14.15625 12.03125,0 0,-14.15625 -12.03125,0 z m 24.75,0 0,14.15625 12.03125,0 0,-14.15625 -12.03125,0 z m 24.59375,0 0,14.15625 12.03125,0 0,-14.15625 -12.03125,0 z m 24.40625,0 0,14.15625 12.03125,0 0,-14.15625 -12.03125,0 z m 24.53125,0 0,14.15625 12.03125,0 0,-14.15625 -12.03125,0 z m 24.6875,0 0,14.15625 12,0 0,-14.15625 -12,0 z m 24.375,0 0,14.15625 12.03125,0 0,-14.15625 -12.03125,0 z m 23.78125,0 0,14.15625 12.03125,0 0,-14.15625 -12.03125,0 z m 24.8125,0 0,14.15625 12.03125,0 0,-14.15625 -12.03125,0 z m 24.25,0 0,14.15625 12.03125,0 0,-14.15625 -12.03125,0 z m 24.96875,0 0,14.15625 12,0 0,-14.15625 -12,0 z m 24.3125,0 0,14.15625 12.03125,0 0,-14.15625 -12.03125,0 z m 24.53125,0 0,14.15625 12.03125,0 0,-14.15625 -12.03125,0 z m 24.40625,0 0,14.15625 12.03125,0 0,-14.15625 -12.03125,0 z m 24.59375,0 0,14.15625 12.03125,0 0,-14.15625 -12.03125,0 z m 24.53125,0 0,14.15625 12.03125,0 0,-14.15625 -12.03125,0 z m 24.46875,0 0,14.15625 12.03125,0 0,-14.15625 -12.03125,0 z m 24.25,0 0,14.15625 12.03125,0 0,-14.15625 -12.03125,0 z"
       style="fill:#eb3d46;fill-opacity:1;fill-rule:evenodd;stroke:#000000;stroke-width:1;stroke-linecap:round;stroke-linejoin:miter;stroke-miterlimit:4;stroke-opacity:1;stroke-dasharray:none"
       inkscape:connector-curvature="0" />
    <path
       style="fill:#9e8d85;fill-opacity:1;fill-rule:evenodd;stroke:#000000;stroke-width:1.5;stroke-linecap:round;stroke-linejoin:round;stroke-miterlimit:4;stroke-opacity:1;display:inline"
       d="m 575.96533,223.05638 c 0,4.08086 -3.312,7.39286 -7.39286,7.39286 -4.08086,0 -7.39286,-3.312 -7.39286,-7.39286 0,-4.08085 3.312,-7.39285 7.39286,-7.39285 4.08086,0 7.39286,3.312 7.39286,7.39285 z"
       id="path3433"
       inkscape:connector-curvature="0" />
    <path
       style="fill:#9e8d85;fill-opacity:1;fill-rule:evenodd;stroke:#000000;stroke-width:1.5;stroke-linecap:round;stroke-linejoin:round;stroke-miterlimit:4;stroke-opacity:1;display:inline"
       d="m 580.13926,201.42413 c 0,4.08086 -3.312,7.39286 -7.39286,7.39286 -4.08086,0 -7.39286,-3.312 -7.39286,-7.39286 0,-4.08085 3.312,-7.39285 7.39286,-7.39285 4.08086,0 7.39286,3.312 7.39286,7.39285 z"
       id="path3435"
       inkscape:connector-curvature="0" />
    <path
       style="fill:#9e8d85;fill-opacity:1;fill-rule:evenodd;stroke:#000000;stroke-width:1.5;stroke-linecap:round;stroke-linejoin:round;stroke-miterlimit:4;stroke-opacity:1;display:inline"
       d="m 515.70961,218.00557 c 0,4.08086 -3.312,7.39286 -7.39286,7.39286 -4.08086,0 -7.39286,-3.312 -7.39286,-7.39286 0,-4.08085 3.312,-7.39285 7.39286,-7.39285 4.08086,0 7.39286,3.312 7.39286,7.39285 z"
       id="path3437"
       inkscape:connector-curvature="0" />
    <path
       style="fill:#9e8d85;fill-opacity:1;fill-rule:evenodd;stroke:#000000;stroke-width:1.5;stroke-linecap:round;stroke-linejoin:round;stroke-miterlimit:4;stroke-opacity:1;display:inline"
       d="m 278.47189,226.92367 c 0,4.08086 -3.312,7.39286 -7.39286,7.39286 -4.08086,0 -7.39286,-3.312 -7.39286,-7.39286 0,-4.08085 3.312,-7.39285 7.39286,-7.39285 4.08086,0 7.39286,3.312 7.39286,7.39285 z"
       id="path3439"
       inkscape:connector-curvature="0" />
    <path
       style="fill:#9e8d85;fill-opacity:1;fill-rule:evenodd;stroke:#000000;stroke-width:1.5;stroke-linecap:round;stroke-linejoin:round;stroke-miterlimit:4;stroke-opacity:1;display:inline"
       d="m 334.22479,216.26005 c 0,4.08086 -3.312,7.39286 -7.39286,7.39286 -4.08086,0 -7.39286,-3.312 -7.39286,-7.39286 0,-4.08085 3.312,-7.39285 7.39286,-7.39285 4.08086,0 7.39286,3.312 7.39286,7.39285 z"
       id="path3441"
       inkscape:connector-curvature="0" />
    <path
       style="fill:#9e8d85;fill-opacity:1;fill-rule:evenodd;stroke:#000000;stroke-width:1.5;stroke-linecap:round;stroke-linejoin:round;stroke-miterlimit:4;stroke-opacity:1;display:inline"
       d="m 540.95803,210.8619 c 0,4.08086 -3.312,7.39286 -7.39286,7.39286 -4.08086,0 -7.39286,-3.312 -7.39286,-7.39286 0,-4.08085 3.312,-7.39285 7.39286,-7.39285 4.08086,0 7.39286,3.312 7.39286,7.39285 z"
       id="path3443"
       inkscape:connector-curvature="0" />
    <path
       style="font-size:25px;font-style:normal;font-variant:normal;font-weight:normal;font-stretch:normal;text-align:start;line-height:100%;text-anchor:start;fill:#000000;fill-opacity:1;stroke:none;font-family:Bitstream Vera Sans"
       d="m 29.835628,134.5719 10.473633,0 0,2.0752 -8.007813,0 0,5.37109 7.226563,0 0,2.0752 -7.226563,0 0,8.70361 -2.46582,0 0,-18.2251 z m 26.000976,10.82764 0,1.09863 -10.327148,0 c 0.09765,1.54623 0.563554,2.72421 1.397705,3.53394 0.834141,0.80973 1.995842,1.2146 3.485107,1.2146 0.862621,0 1.698802,-0.10579 2.508545,-0.31738 0.809721,-0.21159 1.61335,-0.52897 2.410889,-0.95215 l 0,2.12402 c -0.805677,0.3418 -1.631685,0.60221 -2.478027,0.78125 -0.846365,0.17904 -1.704925,0.26856 -2.575684,0.26856 -2.180996,0 -3.908289,-0.63477 -5.181885,-1.9043 -1.273602,-1.26953 -1.910401,-2.98665 -1.9104,-5.15137 -10e-7,-2.23795 0.604246,-4.01407 1.812744,-5.32837 1.208492,-1.31427 2.838129,-1.97142 4.888916,-1.97143 1.839183,1e-5 3.293853,0.59205 4.364014,1.77612 1.070136,1.18409 1.60521,2.79338 1.605224,4.82788 l 0,0 z m -2.246093,-0.65918 c -0.01629,-1.22883 -0.360119,-2.20946 -1.031495,-2.94189 -0.671396,-0.73241 -1.560474,-1.09862 -2.667236,-1.09864 -1.253262,2e-5 -2.256272,0.35402 -3.009033,1.06202 -0.752771,0.70801 -1.186121,1.70492 -1.300049,2.99072 l 8.007813,-0.0122 z m 17.626953,0.65918 0,1.09863 -10.327149,0 c 0.09765,1.54623 0.563554,2.72421 1.397705,3.53394 0.834142,0.80973 1.995843,1.2146 3.485108,1.2146 0.862621,0 1.698801,-0.10579 2.508545,-0.31738 0.809721,-0.21159 1.61335,-0.52897 2.410888,-0.95215 l 0,2.12402 c -0.805676,0.3418 -1.631685,0.60221 -2.478027,0.78125 -0.846364,0.17904 -1.704925,0.26856 -2.575684,0.26856 -2.180995,0 -3.908289,-0.63477 -5.181884,-1.9043 -1.273603,-1.26953 -1.910402,-2.98665 -1.910401,-5.15137 -1e-6,-2.23795 0.604246,-4.01407 1.812744,-5.32837 1.208492,-1.31427 2.838129,-1.97142 4.888916,-1.97143 1.839183,1e-5 3.293853,0.59205 4.364014,1.77612 1.070136,1.18409 1.605211,2.79338 1.605225,4.82788 l 0,0 z m -2.246094,-0.65918 c -0.01629,-1.22883 -0.360119,-2.20946 -1.031494,-2.94189 -0.671397,-0.73241 -1.560475,-1.09862 -2.667236,-1.09864 -1.253263,2e-5 -2.256273,0.35402 -3.009034,1.06202 -0.752771,0.70801 -1.18612,1.70492 -1.300049,2.99072 l 8.007813,-0.0122 z m 14.929199,-3.54004 0,-7.39746 2.246094,0 0,18.99414 -2.246094,0 0,-2.05078 c -0.472016,0.8138 -1.068125,1.41805 -1.78833,1.81274 -0.720224,0.3947 -1.584887,0.59205 -2.593994,0.59205 -1.652024,0 -2.99683,-0.65918 -4.034424,-1.97754 -1.037599,-1.31836 -1.556398,-3.05176 -1.556396,-5.2002 -2e-6,-2.14843 0.518797,-3.88182 1.556396,-5.20019 1.037594,-1.31835 2.3824,-1.97753 4.034424,-1.97754 1.009107,1e-5 1.87377,0.19736 2.593994,0.59204 0.720205,0.3947 1.316314,0.99895 1.78833,1.81274 l 0,0 z m -7.653808,4.77295 c -4e-6,1.65202 0.339758,2.948 1.019287,3.88794 0.679519,0.93994 1.613356,1.40991 2.801513,1.40991 1.188143,0 2.124014,-0.46997 2.807618,-1.40991 0.683582,-0.93994 1.025379,-2.23592 1.02539,-3.88794 -1.1e-5,-1.65201 -0.341808,-2.94799 -1.02539,-3.88794 -0.683604,-0.93993 -1.619475,-1.4099 -2.807618,-1.40991 -1.188157,1e-5 -2.121994,0.46998 -2.801513,1.40991 -0.679529,0.93995 -1.019291,2.23593 -1.019287,3.88794 l 0,0 z"
       id="text3445"
       inkscape:connector-curvature="0" />
    <path
       style="font-size:25px;font-style:normal;font-variant:normal;font-weight:normal;font-stretch:normal;text-align:start;line-height:100%;text-anchor:start;fill:#000000;fill-opacity:1;stroke:none;font-family:Bitstream Vera Sans"
       d="m 54.325104,216.03685 0,6.84814 3.100586,0 c 1.147452,1e-5 2.034495,-0.29703 2.661133,-0.89111 0.626616,-0.59407 0.93993,-1.44042 0.939941,-2.53906 -1.1e-5,-1.09048 -0.313325,-1.93277 -0.939941,-2.52686 -0.626638,-0.59406 -1.513681,-0.8911 -2.661133,-0.89111 l -3.100586,0 z m -2.46582,-2.02637 5.566406,0 c 2.042633,2e-5 3.586821,0.46185 4.632568,1.3855 1.045722,0.92368 1.56859,2.27662 1.568604,4.05884 -1.4e-5,1.79851 -0.522882,3.15756 -1.568604,4.07714 -1.045747,0.91961 -2.589935,1.37941 -4.632568,1.3794 l -3.100586,0 0,7.32421 -2.46582,0 0,-18.22509 z"
       id="text3449"
       inkscape:connector-curvature="0" />
    <path
       style="font-size:25px;font-style:normal;font-variant:normal;font-weight:normal;font-stretch:normal;text-align:start;line-height:100%;text-anchor:start;fill:#000000;fill-opacity:1;stroke:none;font-family:Bitstream Vera Sans"
       d="m 65.113398,225.99636 2.246094,0 0,13.67188 -2.246094,0 0,-13.67188 z m 0,-5.32226 2.246094,0 0,2.84424 -2.246094,0 0,-2.84424 z m 18.29834,10.74218 0,8.25196 -2.246094,0 0,-8.17871 c -1.1e-5,-1.29394 -0.25229,-2.26236 -0.756836,-2.90528 -0.504567,-0.64289 -1.261403,-0.96434 -2.270508,-0.96435 -1.212572,1e-5 -2.168789,0.38656 -2.868652,1.15966 -0.699875,0.77313 -1.049809,1.827 -1.049805,3.16163 l 0,7.72705 -2.258301,0 0,-13.67188 2.258301,0 0,2.12403 c 0.537105,-0.82193 1.169835,-1.43635 1.898194,-1.84327 0.728345,-0.40688 1.568595,-0.61033 2.520752,-0.61034 1.570627,1e-5 2.758777,0.48625 3.564453,1.45873 0.80565,0.97251 1.208482,2.40276 1.208496,4.29077 l 0,0 z"
       id="text3457"
       inkscape:connector-curvature="0" />
    <path
       style="font-size:25px;font-style:normal;font-variant:normal;font-weight:normal;font-stretch:normal;text-align:start;line-height:100%;text-anchor:start;fill:#000000;fill-opacity:1;stroke:none;font-family:Bitstream Vera Sans"
       d="m 331.63168,316.41547 0,6.84814 3.10059,0 c 1.14745,10e-6 2.03449,-0.29703 2.66113,-0.89111 0.62662,-0.59407 0.93993,-1.44042 0.93994,-2.53906 -1e-5,-1.09049 -0.31332,-1.93277 -0.93994,-2.52686 -0.62664,-0.59406 -1.51368,-0.8911 -2.66113,-0.89111 l -3.10059,0 z m -2.46582,-2.02637 5.56641,0 c 2.04263,2e-5 3.58682,0.46185 4.63257,1.3855 1.04572,0.92368 1.56859,2.27662 1.5686,4.05884 -1e-5,1.79851 -0.52288,3.15756 -1.5686,4.07714 -1.04575,0.91961 -2.58994,1.37941 -4.63257,1.3794 l -3.10059,0 0,7.32422 -2.46582,0 0,-18.2251 z m 26.68457,10.82764 0,1.09863 -10.32715,0 c 0.0977,1.54623 0.56356,2.7242 1.39771,3.53393 0.83414,0.80974 1.99584,1.21461 3.48511,1.2146 0.86262,1e-5 1.6988,-0.10579 2.50854,-0.31738 0.80972,-0.21159 1.61335,-0.52897 2.41089,-0.95215 l 0,2.12403 c -0.80568,0.34179 -1.63168,0.60221 -2.47803,0.78125 -0.84636,0.17903 -1.70492,0.26855 -2.57568,0.26855 -2.181,0 -3.90829,-0.63476 -5.18188,-1.9043 -1.27361,-1.26952 -1.91041,-2.98665 -1.91041,-5.15136 0,-2.23795 0.60425,-4.01407 1.81275,-5.32837 1.20849,-1.31428 2.83813,-1.97142 4.88892,-1.97144 1.83918,2e-5 3.29385,0.59206 4.36401,1.77612 1.07013,1.1841 1.60521,2.79339 1.60522,4.82789 l 0,0 z m -2.24609,-0.65918 c -0.0163,-1.22884 -0.36012,-2.20947 -1.03149,-2.9419 -0.6714,-0.73241 -1.56048,-1.09862 -2.66724,-1.09863 -1.25326,1e-5 -2.25627,0.35401 -3.00903,1.06201 -0.75278,0.70802 -1.18612,1.70493 -1.30005,2.99072 l 8.00781,-0.0122 z m 13.85498,-3.51563 c -0.25229,-0.14647 -0.52695,-0.2543 -0.82397,-0.32349 -0.29705,-0.0692 -0.62461,-0.10374 -0.98267,-0.10375 -1.26954,1e-5 -2.24407,0.41301 -2.92358,1.23901 -0.67953,0.82602 -1.0193,2.01213 -1.01929,3.55835 l 0,7.20215 -2.2583,0 0,-13.67188 2.2583,0 0,2.12403 c 0.472,-0.83007 1.08642,-1.44652 1.84326,-1.84937 0.75683,-0.40282 1.67642,-0.60423 2.75879,-0.60425 0.15461,2e-5 0.32551,0.0102 0.51269,0.0305 0.18717,0.0204 0.39469,0.0509 0.62256,0.0915 l 0.0122,2.30713 z m 13.0249,0.5249 c 0.56151,-1.0091 1.2329,-1.75373 2.01416,-2.23388 0.78124,-0.48013 1.70083,-0.7202 2.75879,-0.72022 1.42414,2e-5 2.52277,0.49847 3.2959,1.49536 0.77309,0.99692 1.15965,2.41497 1.15967,4.25415 l 0,8.25196 -2.2583,0 0,-8.17871 c -2e-5,-1.31022 -0.23196,-2.28271 -0.6958,-2.91748 -0.46389,-0.63476 -1.1719,-0.95214 -2.12403,-0.95215 -1.16375,1e-5 -2.08335,0.38656 -2.75879,1.15966 -0.67547,0.77313 -1.01319,1.827 -1.01318,3.16163 l 0,7.72705 -2.2583,0 0,-8.17871 c -10e-6,-1.31835 -0.23194,-2.29288 -0.6958,-2.92359 -0.46388,-0.63068 -1.18002,-0.94603 -2.14844,-0.94604 -1.14747,1e-5 -2.05892,0.3886 -2.73437,1.16577 -0.67546,0.77719 -1.01319,1.82903 -1.01319,3.15552 l 0,7.72705 -2.2583,0 0,-13.67188 2.2583,0 0,2.12403 c 0.51269,-0.83821 1.12711,-1.4567 1.84326,-1.85547 0.71614,-0.39875 1.56657,-0.59813 2.55127,-0.59815 0.99283,2e-5 1.83715,0.25229 2.53296,0.75684 0.69579,0.50457 1.21052,1.23699 1.54419,2.19726 l 0,0 z m 25.41504,3.64991 0,1.09863 -10.32715,0 c 0.0977,1.54623 0.56356,2.7242 1.39771,3.53393 0.83414,0.80974 1.99584,1.21461 3.48511,1.2146 0.86262,1e-5 1.6988,-0.10579 2.50854,-0.31738 0.80972,-0.21159 1.61335,-0.52897 2.41089,-0.95215 l 0,2.12403 c -0.80568,0.34179 -1.63169,0.60221 -2.47803,0.78125 -0.84636,0.17903 -1.70492,0.26855 -2.57568,0.26855 -2.181,0 -3.90829,-0.63476 -5.18189,-1.9043 -1.2736,-1.26952 -1.9104,-2.98665 -1.9104,-5.15136 0,-2.23795 0.60425,-4.01407 1.81275,-5.32837 1.20849,-1.31428 2.83813,-1.97142 4.88891,-1.97144 1.83919,2e-5 3.29386,0.59206 4.36402,1.77612 1.07013,1.1841 1.60521,2.79339 1.60522,4.82789 l 0,0 z m -2.24609,-0.65918 c -0.0163,-1.22884 -0.36012,-2.20947 -1.0315,-2.9419 -0.67139,-0.73241 -1.56047,-1.09862 -2.66723,-1.09863 -1.25326,1e-5 -2.25627,0.35401 -3.00904,1.06201 -0.75277,0.70802 -1.18612,1.70493 -1.30004,2.99072 l 8.00781,-0.0122 z m 12.14599,1.18408 c -1.81478,10e-6 -3.0721,0.20752 -3.77197,0.62256 -0.69987,0.41504 -1.04981,1.12305 -1.0498,2.12402 -1e-5,0.79753 0.26244,1.43026 0.78735,1.89819 0.5249,0.46794 1.23901,0.70191 2.14233,0.70191 1.24511,0 2.24405,-0.44149 2.99683,-1.32447 0.75276,-0.88297 1.12914,-2.05687 1.12915,-3.52172 l 0,-0.50049 -2.23389,0 z m 4.47998,-0.92774 0,7.8003 -2.24609,0 0,-2.0752 c -0.51271,0.83008 -1.15154,1.44247 -1.9165,1.83716 -0.76499,0.39469 -1.70086,0.59204 -2.80762,0.59204 -1.39974,0 -2.51262,-0.39266 -3.33862,-1.17798 -0.82601,-0.78532 -1.23902,-1.83715 -1.23902,-3.15552 0,-1.53808 0.51473,-2.69774 1.54419,-3.479 1.02946,-0.78124 2.56551,-1.17187 4.60816,-1.17187 l 3.14941,0 0,-0.21973 c -10e-6,-1.03352 -0.33977,-1.83308 -1.01929,-2.39868 -0.67953,-0.56558 -1.63371,-0.84838 -2.86255,-0.84839 -0.78125,1e-5 -1.54216,0.0936 -2.28271,0.28076 -0.74056,0.18719 -1.45264,0.46795 -2.13623,0.84229 l 0,-2.0752 c 0.82194,-0.31737 1.61946,-0.55541 2.39258,-0.71411 0.7731,-0.15868 1.52587,-0.23802 2.2583,-0.23804 1.97753,2e-5 3.45458,0.51271 4.43115,1.53809 0.97655,1.0254 1.46483,2.57976 1.46484,4.66308 l 0,0 z m 6.86036,-9.75341 0,3.88183 4.62646,0 0,1.74561 -4.62646,0 0,7.42187 c -10e-6,1.11491 0.15258,1.83106 0.45776,2.14844 0.30517,0.31738 0.92569,0.47608 1.86157,0.47607 l 2.30713,0 0,1.87989 -2.30713,0 c -1.7334,0 -2.92969,-0.32349 -3.58887,-0.97046 -0.65918,-0.64697 -0.98877,-1.82495 -0.98876,-3.53394 l 0,-7.42187 -1.64795,0 0,-1.74561 1.64795,0 0,-3.88183 2.2583,0 z m 19.28711,10.15625 0,1.09863 -10.32715,0 c 0.0976,1.54623 0.56355,2.7242 1.3977,3.53393 0.83414,0.80974 1.99584,1.21461 3.48511,1.2146 0.86262,1e-5 1.6988,-0.10579 2.50854,-0.31738 0.80973,-0.21159 1.61335,-0.52897 2.41089,-0.95215 l 0,2.12403 c -0.80567,0.34179 -1.63168,0.60221 -2.47802,0.78125 -0.84637,0.17903 -1.70493,0.26855 -2.57569,0.26855 -2.18099,0 -3.90829,-0.63476 -5.18188,-1.9043 -1.27361,-1.26952 -1.9104,-2.98665 -1.9104,-5.15136 0,-2.23795 0.60424,-4.01407 1.81274,-5.32837 1.20849,-1.31428 2.83813,-1.97142 4.88892,-1.97144 1.83918,2e-5 3.29385,0.59206 4.36401,1.77612 1.07014,1.1841 1.60521,2.79339 1.60523,4.82789 l 0,0 z m -2.2461,-0.65918 c -0.0163,-1.22884 -0.36012,-2.20947 -1.03149,-2.9419 -0.6714,-0.73241 -1.56048,-1.09862 -2.66724,-1.09863 -1.25326,1e-5 -2.25627,0.35401 -3.00903,1.06201 -0.75277,0.70802 -1.18612,1.70493 -1.30005,2.99072 l 8.00781,-0.0122 z"
       id="text3461"
       inkscape:connector-curvature="0" />
    <path
       style="font-size:25px;font-style:normal;font-variant:normal;font-weight:normal;font-stretch:normal;text-align:start;line-height:100%;text-anchor:start;fill:#000000;fill-opacity:1;stroke:none;font-family:Bitstream Vera Sans"
       d="m 661.25329,140.66091 c 0.52896,0.17904 1.04368,0.56153 1.54419,1.14746 0.50047,0.58594 1.00299,1.39161 1.50756,2.41699 l 2.50244,4.98047 -2.64892,0 -2.33154,-4.67529 c -0.60223,-1.2207 -1.18613,-2.03043 -1.75171,-2.4292 -0.5656,-0.39876 -1.33668,-0.59814 -2.31324,-0.59815 l -2.68554,0 0,7.70264 -2.46582,0 0,-18.2251 5.5664,0 c 2.08333,2e-5 3.63769,0.4354 4.66309,1.30615 1.02538,0.87079 1.53807,2.18508 1.53809,3.94287 -2e-5,1.14748 -0.26654,2.09962 -0.79956,2.85645 -0.53306,0.75685 -1.3082,1.28175 -2.32544,1.57471 l 0,0 z m -6.17676,-7.65381 0,6.46973 3.10058,0 c 1.18815,0 2.08536,-0.27465 2.69165,-0.82398 0.60628,-0.5493 0.90942,-1.357 0.90943,-2.4231 -10e-6,-1.06606 -0.30315,-1.86969 -0.90943,-2.41088 -0.60629,-0.54117 -1.5035,-0.81176 -2.69165,-0.81177 l -3.10058,0 z m 26.51367,8.80127 0,1.09863 -10.32715,0 c 0.0976,1.54623 0.56355,2.72421 1.39771,3.53394 0.83414,0.80973 1.99584,1.2146 3.4851,1.2146 0.86262,0 1.69881,-0.1058 2.50855,-0.31739 0.80972,-0.21158 1.61335,-0.52897 2.41089,-0.95215 l 0,2.12403 c -0.80568,0.3418 -1.63169,0.60221 -2.47803,0.78125 -0.84636,0.17903 -1.70492,0.26855 -2.57568,0.26855 -2.181,0 -3.90829,-0.63476 -5.18189,-1.90429 -1.2736,-1.26953 -1.9104,-2.98665 -1.9104,-5.15137 0,-2.23795 0.60425,-4.01407 1.81275,-5.32837 1.20849,-1.31428 2.83812,-1.97142 4.88891,-1.97144 1.83918,2e-5 3.29385,0.59206 4.36402,1.77613 1.07013,1.18409 1.60521,2.79338 1.60522,4.82788 l 0,0 z m -2.24609,-0.65918 c -0.0163,-1.22883 -0.36012,-2.20946 -1.0315,-2.9419 -0.67139,-0.73241 -1.56047,-1.09862 -2.66723,-1.09863 -1.25327,1e-5 -2.25628,0.35402 -3.00904,1.06201 -0.75277,0.70802 -1.18612,1.70493 -1.30005,2.99073 l 8.00782,-0.0122 z m 8.15429,-9.49707 0,3.88183 4.62647,0 0,1.74561 -4.62647,0 0,7.42187 c 0,1.11492 0.15259,1.83106 0.45777,2.14844 0.30517,0.31739 0.92569,0.47608 1.86157,0.47608 l 2.30713,0 0,1.87988 -2.30713,0 c -1.7334,0 -2.92969,-0.32349 -3.58887,-0.97046 -0.65918,-0.64697 -0.98877,-1.82495 -0.98877,-3.53394 l 0,-7.42187 -1.64795,0 0,-1.74561 1.64795,0 0,-3.88183 2.2583,0 z m 19.28711,10.15625 0,1.09863 -10.32715,0 c 0.0977,1.54623 0.56356,2.72421 1.39771,3.53394 0.83414,0.80973 1.99584,1.2146 3.48511,1.2146 0.86262,0 1.6988,-0.1058 2.50854,-0.31739 0.80972,-0.21158 1.61335,-0.52897 2.41089,-0.95215 l 0,2.12403 c -0.80568,0.3418 -1.63169,0.60221 -2.47803,0.78125 -0.84636,0.17903 -1.70492,0.26855 -2.57568,0.26855 -2.181,0 -3.90829,-0.63476 -5.18189,-1.90429 -1.2736,-1.26953 -1.9104,-2.98665 -1.9104,-5.15137 0,-2.23795 0.60425,-4.01407 1.81275,-5.32837 1.20849,-1.31428 2.83813,-1.97142 4.88891,-1.97144 1.83919,2e-5 3.29386,0.59206 4.36402,1.77613 1.07013,1.18409 1.60521,2.79338 1.60522,4.82788 l 0,0 z m -2.24609,-0.65918 c -0.0163,-1.22883 -0.36012,-2.20946 -1.0315,-2.9419 -0.67139,-0.73241 -1.56047,-1.09862 -2.66723,-1.09863 -1.25326,1e-5 -2.25627,0.35402 -3.00904,1.06201 -0.75277,0.70802 -1.18612,1.70493 -1.30004,2.99073 l 8.00781,-0.0122 z m 17.29736,-0.19531 0,8.25195 -2.24609,0 0,-8.17871 c -10e-6,-1.29394 -0.25229,-2.26236 -0.75684,-2.90528 -0.50457,-0.64289 -1.2614,-0.96434 -2.27051,-0.96435 -1.21257,1e-5 -2.16878,0.38657 -2.86865,1.15967 -0.69987,0.77312 -1.04981,1.82699 -1.0498,3.16162 l 0,7.72705 -2.2583,0 0,-13.67188 2.2583,0 0,2.12403 c 0.5371,-0.82193 1.16983,-1.43635 1.89819,-1.84326 0.72835,-0.40689 1.5686,-0.61034 2.52075,-0.61036 1.57063,2e-5 2.75878,0.48626 3.56446,1.45874 0.80565,0.97251 1.20848,2.40277 1.20849,4.29078 l 0,0 z m 6.72608,-9.30176 0,3.88183 4.62646,0 0,1.74561 -4.62646,0 0,7.42187 c -10e-6,1.11492 0.15258,1.83106 0.45776,2.14844 0.30517,0.31739 0.92569,0.47608 1.86157,0.47608 l 2.30713,0 0,1.87988 -2.30713,0 c -1.7334,0 -2.92969,-0.32349 -3.58887,-0.97046 -0.65918,-0.64697 -0.98877,-1.82495 -0.98876,-3.53394 l 0,-7.42187 -1.64795,0 0,-1.74561 1.64795,0 0,-3.88183 2.2583,0 z m 13.80615,10.68115 c -1.81479,1e-5 -3.07211,0.20753 -3.77197,0.62256 -0.69988,0.41504 -1.04981,1.12305 -1.04981,2.12402 0,0.79753 0.26245,1.43026 0.78735,1.8982 0.5249,0.46793 1.23901,0.7019 2.14234,0.7019 1.24511,0 2.24405,-0.44149 2.99682,-1.32446 0.75276,-0.88297 1.12914,-2.05688 1.12916,-3.52173 l 0,-0.50049 -2.23389,0 z m 4.47998,-0.92773 0,7.80029 -2.24609,0 0,-2.0752 c -0.51271,0.83008 -1.15154,1.44247 -1.91651,1.83716 -0.76498,0.3947 -1.70085,0.59204 -2.80762,0.59204 -1.39974,0 -2.51261,-0.39266 -3.33862,-1.17798 -0.82601,-0.78531 -1.23901,-1.83715 -1.23901,-3.15551 0,-1.53808 0.51473,-2.69775 1.54419,-3.47901 1.02945,-0.78124 2.5655,-1.17186 4.60815,-1.17187 l 3.14942,0 0,-0.21973 c -2e-5,-1.03352 -0.33978,-1.83308 -1.01929,-2.39868 -0.67954,-0.56558 -1.63372,-0.84838 -2.86255,-0.84839 -0.78126,1e-5 -1.54216,0.0936 -2.28272,0.28076 -0.74056,0.18719 -1.45264,0.46795 -2.13623,0.84229 l 0,-2.0752 c 0.82194,-0.31737 1.61947,-0.5554 2.39258,-0.71411 0.77311,-0.15868 1.52587,-0.23802 2.2583,-0.23804 1.97753,2e-5 3.45458,0.51271 4.43116,1.53809 0.97654,1.0254 1.46483,2.57976 1.46484,4.66309 l 0,0 z m 6.86035,-9.75342 0,3.88183 4.62647,0 0,1.74561 -4.62647,0 0,7.42187 c 0,1.11492 0.15258,1.83106 0.45776,2.14844 0.30517,0.31739 0.9257,0.47608 1.86158,0.47608 l 2.30713,0 0,1.87988 -2.30713,0 c -1.73341,0 -2.9297,-0.32349 -3.58887,-0.97046 -0.65918,-0.64697 -0.98877,-1.82495 -0.98877,-3.53394 l 0,-7.42187 -1.64795,0 0,-1.74561 1.64795,0 0,-3.88183 2.2583,0 z m 19.28711,10.15625 0,1.09863 -10.32715,0 c 0.0976,1.54623 0.56355,2.72421 1.39771,3.53394 0.83414,0.80973 1.99584,1.2146 3.4851,1.2146 0.86262,0 1.69881,-0.1058 2.50855,-0.31739 0.80972,-0.21158 1.61335,-0.52897 2.41089,-0.95215 l 0,2.12403 c -0.80568,0.3418 -1.63169,0.60221 -2.47803,0.78125 -0.84636,0.17903 -1.70492,0.26855 -2.57568,0.26855 -2.181,0 -3.90829,-0.63476 -5.18189,-1.90429 -1.2736,-1.26953 -1.9104,-2.98665 -1.9104,-5.15137 0,-2.23795 0.60425,-4.01407 1.81275,-5.32837 1.20849,-1.31428 2.83812,-1.97142 4.88891,-1.97144 1.83918,2e-5 3.29385,0.59206 4.36402,1.77613 1.07013,1.18409 1.60521,2.79338 1.60522,4.82788 l 0,0 z m -2.24609,-0.65918 c -0.0163,-1.22883 -0.36012,-2.20946 -1.0315,-2.9419 -0.67139,-0.73241 -1.56047,-1.09862 -2.66723,-1.09863 -1.25327,1e-5 -2.25628,0.35402 -3.00904,1.06201 -0.75277,0.70802 -1.18612,1.70493 -1.30005,2.99073 l 8.00782,-0.0122 z"
       id="text3473"
       inkscape:connector-curvature="0" />
    <path
       style="font-size:25px;font-style:normal;font-variant:normal;font-weight:normal;font-stretch:normal;text-align:start;line-height:100%;text-anchor:start;fill:#000000;fill-opacity:1;stroke:none;font-family:Bitstream Vera Sans"
       d="m 683.59928,213.82776 0,6.84814 3.10058,0 c 1.14746,10e-6 2.0345,-0.29703 2.66114,-0.89111 0.62661,-0.59407 0.93993,-1.44042 0.93994,-2.53906 -10e-6,-1.09048 -0.31333,-1.93277 -0.93994,-2.52686 -0.62664,-0.59406 -1.51368,-0.8911 -2.66114,-0.89111 l -3.10058,0 z m -2.46582,-2.02637 5.5664,0 c 2.04264,2e-5 3.58682,0.46185 4.63257,1.3855 1.04572,0.92368 1.56859,2.27662 1.56861,4.05884 -2e-5,1.79851 -0.52289,3.15756 -1.56861,4.07715 -1.04575,0.9196 -2.58993,1.3794 -4.63257,1.37939 l -3.10058,0 0,7.32422 -2.46582,0 0,-18.2251 z"
       id="text3477"
       inkscape:connector-curvature="0" />
    <path
       style="font-size:25px;font-style:normal;font-variant:normal;font-weight:normal;font-stretch:normal;text-align:start;line-height:100%;text-anchor:start;fill:#000000;fill-opacity:1;stroke:none;font-family:Bitstream Vera Sans"
       d="m 699.17545,223.87546 c -1.20443,2e-5 -2.15658,0.46999 -2.85645,1.40992 -0.69987,0.93995 -1.0498,2.22779 -1.0498,3.86352 0,1.63575 0.3479,2.92359 1.0437,3.86353 0.6958,0.93994 1.64998,1.40991 2.86255,1.40991 1.19628,0 2.14436,-0.47201 2.84424,-1.41602 0.69986,-0.944 1.04979,-2.22981 1.0498,-3.85742 -10e-6,-1.61946 -0.34994,-2.90323 -1.0498,-3.85132 -0.69988,-0.94807 -1.64796,-1.4221 -2.84424,-1.42212 l 0,0 z m 0,-1.90429 c 1.95312,1e-5 3.48713,0.63478 4.60205,1.90429 1.1149,1.26955 1.67235,3.02736 1.67236,5.27344 -10e-6,2.23796 -0.55746,3.99374 -1.67236,5.26733 -1.11492,1.27361 -2.64893,1.9104 -4.60205,1.9104 -1.96127,0 -3.49732,-0.63679 -4.60815,-1.9104 -1.11085,-1.27359 -1.66627,-3.02937 -1.66626,-5.26733 -10e-6,-2.24608 0.55541,-4.00389 1.66626,-5.27344 1.11083,-1.26951 2.64688,-1.90428 4.60815,-1.90429 l 0,0 z m 9.75342,8.60595 0,-8.27636 2.24609,0 0,8.19091 c 0,1.29395 0.25228,2.26441 0.75684,2.91138 0.50455,0.64698 1.26138,0.97046 2.27051,0.97046 1.21255,0 2.1708,-0.38655 2.87475,-1.15967 0.70393,-0.77311 1.0559,-1.82698 1.05591,-3.16162 l 0,-7.75146 2.24609,0 0,13.67187 -2.24609,0 0,-2.09961 c -0.54526,0.83008 -1.17799,1.44654 -1.89819,1.84937 -0.72023,0.40283 -1.55641,0.60424 -2.50855,0.60424 -1.57064,0 -2.76286,-0.48828 -3.57666,-1.46484 -0.8138,-0.97656 -1.2207,-2.40478 -1.2207,-4.28467 l 0,0 z m 18.32275,-12.1582 0,3.88184 4.62647,0 0,1.7456 -4.62647,0 0,7.42188 c 0,1.11491 0.15258,1.83105 0.45777,2.14843 0.30517,0.31739 0.92569,0.47608 1.86157,0.47608 l 2.30713,0 0,1.87988 -2.30713,0 c -1.73341,0 -2.92969,-0.32348 -3.58887,-0.97046 -0.65918,-0.64697 -0.98877,-1.82495 -0.98877,-3.53393 l 0,-7.42188 -1.64795,0 0,-1.7456 1.64795,0 0,-3.88184 2.2583,0 z"
       id="text3481"
       inkscape:connector-curvature="0" />
    <path
       inkscape:connector-curvature="0"
       sodipodi:nodetypes="cccccccc"
       id="path3039"
       d="m 631.96257,179.32714 74.06238,0 0,-10.16809 63.22399,17.28576 -62.92292,17.08239 0,-9.96473 -74.51398,0 0.15053,-14.23533 z"
       style="fill:#fcdd5e;fill-opacity:1;fill-rule:evenodd;stroke:#000000;stroke-width:0.58115029px;stroke-linecap:butt;stroke-linejoin:miter;stroke-opacity:1;display:inline" />
    <g
       id="g3046"
       transform="translate(-20.538918,-6)">
      <text
         sodipodi:linespacing="125%"
         id="text3038"
         y="369.80826"
         x="388.54788"
         style="font-size:36px;font-style:normal;font-variant:normal;font-weight:normal;font-stretch:normal;text-align:start;line-height:125%;letter-spacing:0px;word-spacing:0px;writing-mode:lr-tb;text-anchor:start;fill:#000000;fill-opacity:1;stroke:none;font-family:Sans;-inkscape-font-specification:Sans"
         xml:space="preserve"><tspan
           y="369.80826"
           x="388.54788"
           id="tspan3040"
           sodipodi:role="line">P</tspan></text>
      <text
         xml:space="preserve"
         style="font-size:24px;font-style:normal;font-variant:normal;font-weight:normal;font-stretch:normal;text-align:start;line-height:125%;letter-spacing:0px;word-spacing:0px;writing-mode:lr-tb;text-anchor:start;fill:#000000;fill-opacity:1;stroke:none;font-family:Sans;-inkscape-font-specification:Sans"
         x="404.45187"
         y="380.81216"
         id="text3042"
         sodipodi:linespacing="125%"><tspan
           sodipodi:role="line"
           id="tspan3044"
           x="404.45187"
           y="380.81216">P</tspan></text>
    </g>
  </g>
</svg>
