<?xml version="1.0" encoding="UTF-8" standalone="no"?>
<!-- Created with Inkscape (http://www.inkscape.org/) -->

<svg
   xmlns:dc="http://purl.org/dc/elements/1.1/"
   xmlns:cc="http://creativecommons.org/ns#"
   xmlns:rdf="http://www.w3.org/1999/02/22-rdf-syntax-ns#"
   xmlns:svg="http://www.w3.org/2000/svg"
   xmlns="http://www.w3.org/2000/svg"
   xmlns:sodipodi="http://sodipodi.sourceforge.net/DTD/sodipodi-0.dtd"
   xmlns:inkscape="http://www.inkscape.org/namespaces/inkscape"
   width="100"
   height="100"
   id="svg2"
   version="1.1"
   inkscape:version="0.48.2 r9819"
   sodipodi:docname="flux-concept.svg"
   inkscape:export-filename="flux-concept.png"
   inkscape:export-xdpi="299.92499"
   inkscape:export-ydpi="299.92499">
  <defs
     id="defs4">
    <marker
       inkscape:stockid="Arrow1Mend"
       orient="auto"
       refY="0.0"
       refX="0.0"
       id="Arrow1Mend"
       style="overflow:visible;">
      <path
         id="path3791"
         d="M 0.0,0.0 L 5.0,-5.0 L -12.5,0.0 L 5.0,5.0 L 0.0,0.0 z "
         style="fill-rule:evenodd;stroke:#000000;stroke-width:1.0pt;marker-start:none;"
         transform="scale(0.4) rotate(180) translate(10,0)" />
    </marker>
  </defs>
  <sodipodi:namedview
     id="base"
     pagecolor="#ffffff"
     bordercolor="#666666"
     borderopacity="1.0"
     inkscape:pageopacity="0.0"
     inkscape:pageshadow="2"
     inkscape:zoom="5.4"
     inkscape:cx="-9.2592593"
     inkscape:cy="50"
     inkscape:document-units="px"
     inkscape:current-layer="layer1"
     showgrid="false"
     inkscape:window-width="1920"
     inkscape:window-height="1058"
     inkscape:window-x="1440"
     inkscape:window-y="0"
     inkscape:window-maximized="1" />
  <metadata
     id="metadata7">
    <rdf:RDF>
      <cc:Work
         rdf:about="">
        <dc:format>image/svg+xml</dc:format>
        <dc:type
           rdf:resource="http://purl.org/dc/dcmitype/StillImage" />
        <dc:title></dc:title>
      </cc:Work>
    </rdf:RDF>
  </metadata>
  <g
     inkscape:label="Layer 1"
     inkscape:groupmode="layer"
     id="layer1"
     transform="translate(0,-952.36218)">
    <rect
       style="fill:none;stroke:#000000;stroke-width:3.22370791;stroke-linecap:round;stroke-linejoin:round;stroke-miterlimit:4;stroke-opacity:1;stroke-dasharray:none;stroke-dashoffset:3.25"
       id="rect2985"
       width="55.370369"
       height="69.709618"
       x="598.59589"
       y="1118.6373"
       transform="matrix(1,0,-0.49999826,0.86602641,0,0)" />
    <path
       style="fill:none;stroke:#000000;stroke-width:1px;stroke-linecap:butt;stroke-linejoin:miter;stroke-opacity:1;marker-end:url(#Arrow1Mend)"
       d="m 26.851852,954.32514 c 3.019333,4.07285 5.831807,8.29386 8.518519,12.5926 2.850996,4.56159 4.801799,7.68857 7.037037,12.4074 0.804989,1.69943 1.470151,3.46169 2.222222,5.18519 2.553849,5.85257 1.852887,3.70681 3.703704,9.25926 0.265504,0.79651 0.487911,1.60681 0.74074,2.40741 0.176345,0.5584 0.413525,1.0985 0.555556,1.6667 0.01497,0.06 -3.703704,-11.54325 0,0.1851"
       id="path3777"
       inkscape:connector-curvature="0"
       sodipodi:nodetypes="cssssscc" />
    <path
       sodipodi:nodetypes="cssssscc"
       inkscape:connector-curvature="0"
       id="path4223"
       d="m 52.794798,1002.6041 c 2.42314,4.4533 4.620801,9.0246 6.683086,13.6555 2.188394,4.914 3.685012,8.2821 5.24176,13.2661 0.560656,1.7948 0.974068,3.6326 1.478953,5.444 1.714483,6.151 1.318984,3.9285 2.379033,9.6845 0.152082,0.8256 0.259534,1.6591 0.398496,2.487 0.0969,0.5776 0.256617,1.1454 0.318191,1.7278 0.0065,0.061 -2.061163,-11.9462 -0.02569,0.1833"
       style="fill:none;stroke:#000000;stroke-width:1px;stroke-linecap:butt;stroke-linejoin:miter;stroke-opacity:1;marker-end:url(#Arrow1Mend)" />
    <text
       xml:space="preserve"
       style="font-size:12px;font-style:normal;font-variant:normal;font-weight:normal;font-stretch:normal;text-align:start;line-height:125%;letter-spacing:0px;word-spacing:0px;writing-mode:lr-tb;text-anchor:start;fill:#000000;fill-opacity:1;stroke:none;font-family:Arial;-inkscape-font-specification:Arial"
       x="58.148148"
       y="963.91772"
       id="text4225"
       sodipodi:linespacing="125%"><tspan
         sodipodi:role="line"
         id="tspan4237"
         x="58.148148"
         y="963.91772">1.0 m</tspan></text>
    <text
       sodipodi:linespacing="125%"
       id="text4231"
       y="959.91772"
       x="88.148148"
       style="font-size:8px;font-style:normal;font-variant:normal;font-weight:normal;font-stretch:normal;text-align:start;line-height:125%;letter-spacing:0px;word-spacing:0px;writing-mode:lr-tb;text-anchor:start;fill:#000000;fill-opacity:1;stroke:none;font-family:Arial;-inkscape-font-specification:Arial"
       xml:space="preserve"><tspan
         sodipodi:role="line"
         id="tspan4235"
         x="88.148148"
         y="959.91772">2</tspan></text>
  </g>
</svg>
