<?xml version="1.0" encoding="UTF-8" standalone="no"?>
<!-- Created with Inkscape (http://www.inkscape.org/) -->

<svg
   xmlns:dc="http://purl.org/dc/elements/1.1/"
   xmlns:cc="http://creativecommons.org/ns#"
   xmlns:rdf="http://www.w3.org/1999/02/22-rdf-syntax-ns#"
   xmlns:svg="http://www.w3.org/2000/svg"
   xmlns="http://www.w3.org/2000/svg"
   xmlns:sodipodi="http://sodipodi.sourceforge.net/DTD/sodipodi-0.dtd"
   xmlns:inkscape="http://www.inkscape.org/namespaces/inkscape"
   id="svg2"
   sodipodi:version="0.32"
   inkscape:version="0.48.2 r9819"
   width="800"
   height="300"
   version="1.0"
   sodipodi:docname="solute-build-up.svg"
   style="display:inline"
   inkscape:output_extension="org.inkscape.output.svg.inkscape"
   inkscape:export-filename="solute-build-up.png"
   inkscape:export-xdpi="299.92499"
   inkscape:export-ydpi="299.92499">
  <metadata
     id="metadata7">
    <rdf:RDF>
      <cc:Work
         rdf:about="">
        <dc:format>image/svg+xml</dc:format>
        <dc:type
           rdf:resource="http://purl.org/dc/dcmitype/StillImage" />
        <dc:title></dc:title>
      </cc:Work>
    </rdf:RDF>
  </metadata>
  <defs
     id="defs5">
    <marker
       inkscape:stockid="Arrow1Mstart"
       orient="auto"
       refY="0.0"
       refX="0.0"
       id="Arrow1Mstart"
       style="overflow:visible">
      <path
         id="path3852"
         d="M 0.0,0.0 L 5.0,-5.0 L -12.5,0.0 L 5.0,5.0 L 0.0,0.0 z "
         style="fill-rule:evenodd;stroke:#000000;stroke-width:1.0pt;marker-start:none"
         transform="scale(0.4) translate(10,0)" />
    </marker>
    <marker
       inkscape:stockid="Arrow2Mstart"
       orient="auto"
       refY="0.0"
       refX="0.0"
       id="Arrow2Mstart"
       style="overflow:visible">
      <path
         id="path3870"
         style="font-size:12.0;fill-rule:evenodd;stroke-width:0.62500000;stroke-linejoin:round"
         d="M 8.7185878,4.0337352 L -2.2072895,0.016013256 L 8.7185884,-4.0017078 C 6.9730900,-1.6296469 6.9831476,1.6157441 8.7185878,4.0337352 z "
         transform="scale(0.6) translate(0,0)" />
    </marker>
    <marker
       inkscape:stockid="Arrow1Mend"
       orient="auto"
       refY="0.0"
       refX="0.0"
       id="Arrow1Mend"
       style="overflow:visible;">
      <path
         id="path3855"
         d="M 0.0,0.0 L 5.0,-5.0 L -12.5,0.0 L 5.0,5.0 L 0.0,0.0 z "
         style="fill-rule:evenodd;stroke:#000000;stroke-width:1.0pt;marker-start:none;"
         transform="scale(0.4) rotate(180) translate(10,0)" />
    </marker>
    <inkscape:perspective
       sodipodi:type="inkscape:persp3d"
       inkscape:vp_x="0 : 526.18109 : 1"
       inkscape:vp_y="0 : 1000 : 0"
       inkscape:vp_z="744.09448 : 526.18109 : 1"
       inkscape:persp3d-origin="372.04724 : 350.78739 : 1"
       id="perspective9" />
  </defs>
  <sodipodi:namedview
     inkscape:window-height="1330"
     inkscape:window-width="2560"
     inkscape:pageshadow="2"
     inkscape:pageopacity="0.0"
     guidetolerance="10.0"
     gridtolerance="10.0"
     objecttolerance="10.0"
     borderopacity="1.0"
     bordercolor="#666666"
     pagecolor="#ffffff"
     id="base"
     showgrid="false"
     inkscape:zoom="1.6384979"
     inkscape:cx="328.32504"
     inkscape:cy="151.58919"
     inkscape:window-x="0"
     inkscape:window-y="0"
     inkscape:current-layer="layer2"
     inkscape:window-maximized="1" />
  <g
     inkscape:groupmode="layer"
     id="layer1"
     inkscape:label="Boundary layer"
     style="display:none">
    <path
       transform="translate(-0.553733,-76.977753)"
       inkscape:connector-curvature="0"
       id="path3896"
       d="m 569.29857,104.03631 147.09556,0"
       style="fill:none;stroke:#000000;stroke-width:0.875;stroke-linecap:butt;stroke-linejoin:miter;stroke-miterlimit:4;stroke-opacity:1;stroke-dasharray:none;marker-start:url(#Arrow1Mstart);marker-end:url(#Arrow1Mend);display:inline" />
    <text
       transform="translate(-0.553733,-76.977753)"
       sodipodi:linespacing="125%"
       id="text3898"
       y="100.16211"
       x="642.95013"
       style="font-size:14px;font-style:normal;font-variant:normal;font-weight:normal;font-stretch:normal;text-align:center;line-height:125%;letter-spacing:0px;word-spacing:0px;writing-mode:lr-tb;text-anchor:middle;fill:#000000;fill-opacity:1;stroke:none;display:inline;font-family:Sans;-inkscape-font-specification:Sans"
       xml:space="preserve"><tspan
         sodipodi:role="line"
         id="tspan3906"
         x="642.95013"
         y="100.16211">Boundary layer</tspan></text>
    <text
       transform="translate(-0.553733,-76.977753)"
       xml:space="preserve"
       style="font-size:26px;font-style:normal;font-variant:normal;font-weight:normal;font-stretch:normal;text-align:start;line-height:125%;letter-spacing:0px;word-spacing:0px;writing-mode:lr-tb;text-anchor:start;fill:#000000;fill-opacity:1;stroke:none;display:inline;font-family:Sans;-inkscape-font-specification:Sans"
       x="630.93695"
       y="128.38083"
       id="text3097"
       sodipodi:linespacing="125%"><tspan
         sodipodi:role="line"
         id="tspan3105"
         x="630.93695"
         y="128.38083">L</tspan></text>
    <text
       transform="translate(-0.553733,-76.977753)"
       sodipodi:linespacing="125%"
       id="text3101"
       y="136.74808"
       x="647.12915"
       style="display:inline;font-size:18px;font-style:normal;font-variant:normal;font-weight:normal;font-stretch:normal;text-align:start;line-height:125%;letter-spacing:0px;word-spacing:0px;writing-mode:lr-tb;text-anchor:start;fill:#000000;fill-opacity:1;stroke:none;font-family:Sans;-inkscape-font-specification:Sans"
       xml:space="preserve"><tspan
         sodipodi:role="line"
         id="tspan3107"
         x="647.12915"
         y="136.74808">c</tspan></text>
    <path
       transform="translate(-0.553733,-76.977753)"
       inkscape:connector-curvature="0"
       id="path5059"
       d="m 718.03095,93.471013 0,184.224307"
       style="display:inline;fill:none;stroke:#000000;stroke-width:1.25000000000000000;stroke-linecap:butt;stroke-linejoin:miter;stroke-miterlimit:4;stroke-opacity:1;stroke-dasharray:2.50000000000000000, 2.50000000000000000;stroke-dashoffset:0" />
  </g>
  <g
     inkscape:groupmode="layer"
     id="layer2"
     inkscape:label="SVG"
     transform="translate(-0.553733,-76.977753)">
    <path
       style="fill:#9e8d85;fill-opacity:1;fill-rule:evenodd;stroke:#000000;stroke-width:1.5;stroke-linecap:round;stroke-linejoin:round;stroke-miterlimit:4;stroke-opacity:1;display:inline"
       d="m 238.64296,246.27784 c 0,4.08086 -3.312,7.39286 -7.39286,7.39286 -4.08086,0 -7.39286,-3.312 -7.39286,-7.39286 0,-4.08085 3.312,-7.39285 7.39286,-7.39285 4.08086,0 7.39286,3.312 7.39286,7.39285 z"
       id="path2386"
       inkscape:connector-curvature="0" />
    <path
       style="fill:#9e8d85;fill-opacity:1;fill-rule:evenodd;stroke:#000000;stroke-width:1.5;stroke-linecap:round;stroke-linejoin:round;stroke-miterlimit:4;stroke-opacity:1;display:inline"
       d="m 299.03099,259.47335 c 0,4.08086 -3.312,7.39286 -7.39286,7.39286 -4.08086,0 -7.39286,-3.312 -7.39286,-7.39286 0,-4.08085 3.312,-7.39285 7.39286,-7.39285 4.08086,0 7.39286,3.312 7.39286,7.39285 z"
       id="path2390"
       inkscape:connector-curvature="0" />
    <path
       style="fill:#9e8d85;fill-opacity:1;fill-rule:evenodd;stroke:#000000;stroke-width:1.5;stroke-linecap:round;stroke-linejoin:round;stroke-miterlimit:4;stroke-opacity:1;display:inline"
       d="m 263.41459,245.22801 c 0,4.08086 -3.312,7.39286 -7.39286,7.39286 -4.08085,0 -7.39285,-3.312 -7.39285,-7.39286 0,-4.08085 3.312,-7.39285 7.39285,-7.39285 4.08086,0 7.39286,3.312 7.39286,7.39285 z"
       id="path2392"
       inkscape:connector-curvature="0" />
    <path
       style="fill:#9e8d85;fill-opacity:1;fill-rule:evenodd;stroke:#000000;stroke-width:1.5;stroke-linecap:round;stroke-linejoin:round;stroke-miterlimit:4;stroke-opacity:1;display:inline"
       d="m 40.04823,160.26245 c 0,4.08086 -3.312,7.39286 -7.39286,7.39286 -4.08085,0 -7.39285,-3.312 -7.39285,-7.39286 0,-4.08085 3.312,-7.39285 7.39285,-7.39285 4.08086,0 7.39286,3.312 7.39286,7.39285 z"
       id="path2394"
       inkscape:connector-curvature="0" />
    <path
       style="fill:#9e8d85;fill-opacity:1;fill-rule:evenodd;stroke:#000000;stroke-width:1.5;stroke-linecap:round;stroke-linejoin:round;stroke-miterlimit:4;stroke-opacity:1;display:inline"
       d="m 381.72344,241.20405 c 0,4.08086 -3.312,7.39286 -7.39286,7.39286 -4.08086,0 -7.39286,-3.312 -7.39286,-7.39286 0,-4.08085 3.312,-7.39285 7.39286,-7.39285 4.08086,0 7.39286,3.312 7.39286,7.39285 z"
       id="path2396"
       inkscape:connector-curvature="0" />
    <path
       style="fill:#9e8d85;fill-opacity:1;fill-rule:evenodd;stroke:#000000;stroke-width:1.5;stroke-linecap:round;stroke-linejoin:round;stroke-miterlimit:4;stroke-opacity:1;display:inline"
       d="m 343.25673,243.20074 c 0,4.08086 -3.312,7.39286 -7.39286,7.39286 -4.08086,0 -7.39286,-3.312 -7.39286,-7.39286 0,-4.08085 3.312,-7.39285 7.39286,-7.39285 4.08086,0 7.39286,3.312 7.39286,7.39285 z"
       id="path2398"
       inkscape:connector-curvature="0" />
    <path
       style="fill:#9e8d85;fill-opacity:1;fill-rule:evenodd;stroke:#000000;stroke-width:1.5;stroke-linecap:round;stroke-linejoin:round;stroke-miterlimit:4;stroke-opacity:1;display:inline"
       d="m 247.73898,154.37034 c 0,4.08086 -3.312,7.39286 -7.39286,7.39286 -4.08086,0 -7.39286,-3.312 -7.39286,-7.39286 0,-4.08085 3.312,-7.39285 7.39286,-7.39285 4.08086,0 7.39286,3.312 7.39286,7.39285 z"
       id="path2400"
       inkscape:connector-curvature="0" />
    <path
       style="fill:#9e8d85;fill-opacity:1;fill-rule:evenodd;stroke:#000000;stroke-width:1.5;stroke-linecap:round;stroke-linejoin:round;stroke-miterlimit:4;stroke-opacity:1;display:inline"
       d="m 147.22274,178.88579 c 0,4.08086 -3.312,7.39286 -7.39286,7.39286 -4.08085,0 -7.39285,-3.312 -7.39285,-7.39286 0,-4.08085 3.312,-7.39285 7.39285,-7.39285 4.08086,0 7.39286,3.312 7.39286,7.39285 z"
       id="path2402"
       inkscape:connector-curvature="0" />
    <path
       style="fill:#9e8d85;fill-opacity:1;fill-rule:evenodd;stroke:#000000;stroke-width:1.5;stroke-linecap:round;stroke-linejoin:round;stroke-miterlimit:4;stroke-opacity:1;display:inline"
       d="m 318.10163,172.94908 c 0,4.08086 -3.312,7.39286 -7.39286,7.39286 -4.08086,0 -7.39286,-3.312 -7.39286,-7.39286 0,-4.08085 3.312,-7.39285 7.39286,-7.39285 4.08086,0 7.39286,3.312 7.39286,7.39285 z"
       id="path2404"
       inkscape:connector-curvature="0" />
    <path
       style="fill:#9e8d85;fill-opacity:1;fill-rule:evenodd;stroke:#000000;stroke-width:1.5;stroke-linecap:round;stroke-linejoin:round;stroke-miterlimit:4;stroke-opacity:1;display:inline"
       d="m 43.36823,270.30274 c 0,4.08086 -3.312,7.39286 -7.39286,7.39286 -4.08086,0 -7.39286,-3.312 -7.39286,-7.39286 0,-4.08085 3.312,-7.39285 7.39286,-7.39285 4.08086,0 7.39286,3.312 7.39286,7.39285 z"
       id="path2406"
       inkscape:connector-curvature="0" />
    <path
       style="fill:#9e8d85;fill-opacity:1;fill-rule:evenodd;stroke:#000000;stroke-width:1.5;stroke-linecap:round;stroke-linejoin:round;stroke-miterlimit:4;stroke-opacity:1;display:inline"
       d="m 416.90169,239.04373 c 0,4.08086 -3.312,7.39286 -7.39286,7.39286 -4.08086,0 -7.39286,-3.312 -7.39286,-7.39286 0,-4.08085 3.312,-7.39285 7.39286,-7.39285 4.08086,0 7.39286,3.312 7.39286,7.39285 z"
       id="path2408"
       inkscape:connector-curvature="0" />
    <path
       style="fill:#9e8d85;fill-opacity:1;fill-rule:evenodd;stroke:#000000;stroke-width:1.5;stroke-linecap:round;stroke-linejoin:round;stroke-miterlimit:4;stroke-opacity:1;display:inline"
       d="m 292.99392,239.88811 c 0,4.08086 -3.312,7.39286 -7.39286,7.39286 -4.08085,0 -7.39285,-3.312 -7.39285,-7.39286 0,-4.08085 3.312,-7.39285 7.39285,-7.39285 4.08086,0 7.39286,3.312 7.39286,7.39285 z"
       id="path2410"
       inkscape:connector-curvature="0" />
    <path
       style="fill:#9e8d85;fill-opacity:1;fill-rule:evenodd;stroke:#000000;stroke-width:1.5;stroke-linecap:round;stroke-linejoin:round;stroke-miterlimit:4;stroke-opacity:1;display:inline"
       d="m 112.38027,273.2685 c 0,4.08086 -3.312,7.39286 -7.39286,7.39286 -4.08086,0 -7.39286,-3.312 -7.39286,-7.39286 0,-4.08085 3.312,-7.39285 7.39286,-7.39285 4.08086,0 7.39286,3.312 7.39286,7.39285 z"
       id="path2412"
       inkscape:connector-curvature="0" />
    <path
       style="fill:#9e8d85;fill-opacity:1;fill-rule:evenodd;stroke:#000000;stroke-width:1.5;stroke-linecap:round;stroke-linejoin:round;stroke-miterlimit:4;stroke-opacity:1;display:inline"
       d="m 90.26841,271.28138 c 0,4.08086 -3.312,7.39286 -7.39286,7.39286 -4.08086,0 -7.39286,-3.312 -7.39286,-7.39286 0,-4.08085 3.312,-7.39285 7.39286,-7.39285 4.08086,0 7.39286,3.312 7.39286,7.39285 z"
       id="path2414"
       inkscape:connector-curvature="0" />
    <path
       style="fill:#9e8d85;fill-opacity:1;fill-rule:evenodd;stroke:#000000;stroke-width:1.5;stroke-linecap:round;stroke-linejoin:round;stroke-miterlimit:4;stroke-opacity:1;display:inline"
       d="m 211.51977,272.69469 c 0,4.08086 -3.312,7.39286 -7.39286,7.39286 -4.08086,0 -7.39286,-3.312 -7.39286,-7.39286 0,-4.08085 3.312,-7.39285 7.39286,-7.39285 4.08086,0 7.39286,3.312 7.39286,7.39285 z"
       id="path2416"
       inkscape:connector-curvature="0" />
    <path
       style="fill:#9e8d85;fill-opacity:1;fill-rule:evenodd;stroke:#000000;stroke-width:1.5;stroke-linecap:round;stroke-linejoin:round;stroke-miterlimit:4;stroke-opacity:1;display:inline"
       d="m 100.48343,201.08005 c 0,4.08086 -3.312,7.39286 -7.39286,7.39286 -4.08085,0 -7.39285,-3.312 -7.39285,-7.39286 0,-4.08085 3.312,-7.39285 7.39285,-7.39285 4.08086,0 7.39286,3.312 7.39286,7.39285 z"
       id="path2418"
       inkscape:connector-curvature="0" />
    <path
       style="fill:#9e8d85;fill-opacity:1;fill-rule:evenodd;stroke:#000000;stroke-width:1.5;stroke-linecap:round;stroke-linejoin:round;stroke-miterlimit:4;stroke-opacity:1;display:inline"
       d="m 174.67643,269.01021 c 0,4.08086 -3.312,7.39286 -7.39286,7.39286 -4.08086,0 -7.39286,-3.312 -7.39286,-7.39286 0,-4.08085 3.312,-7.39285 7.39286,-7.39285 4.08086,0 7.39286,3.312 7.39286,7.39285 z"
       id="path2420"
       inkscape:connector-curvature="0" />
    <path
       style="fill:#9e8d85;fill-opacity:1;fill-rule:evenodd;stroke:#000000;stroke-width:1.5;stroke-linecap:round;stroke-linejoin:round;stroke-miterlimit:4;stroke-opacity:1;display:inline"
       d="m 159.86017,269.04631 c 0,4.08086 -3.312,7.39286 -7.39286,7.39286 -4.08086,0 -7.39286,-3.312 -7.39286,-7.39286 0,-4.08085 3.312,-7.39285 7.39286,-7.39285 4.08086,0 7.39286,3.312 7.39286,7.39285 z"
       id="path2422"
       inkscape:connector-curvature="0" />
    <path
       style="fill:#9e8d85;fill-opacity:1;fill-rule:evenodd;stroke:#000000;stroke-width:1.5;stroke-linecap:round;stroke-linejoin:round;stroke-miterlimit:4;stroke-opacity:1;display:inline"
       d="m 234.15741,211.5284 c 0,4.08086 -3.312,7.39286 -7.39286,7.39286 -4.08086,0 -7.39286,-3.312 -7.39286,-7.39286 0,-4.08085 3.312,-7.39285 7.39286,-7.39285 4.08086,0 7.39286,3.312 7.39286,7.39285 z"
       id="path2424"
       inkscape:connector-curvature="0" />
    <path
       style="fill:#9e8d85;fill-opacity:1;fill-rule:evenodd;stroke:#000000;stroke-width:1.5;stroke-linecap:round;stroke-linejoin:round;stroke-miterlimit:4;stroke-opacity:1;display:inline"
       d="m 104.51145,251.38235 c 0,4.08086 -3.312,7.39286 -7.39286,7.39286 -4.08085,0 -7.39285,-3.312 -7.39285,-7.39286 0,-4.08085 3.312,-7.39285 7.39285,-7.39285 4.08086,0 7.39286,3.312 7.39286,7.39285 z"
       id="path2426"
       inkscape:connector-curvature="0" />
    <path
       style="fill:#9e8d85;fill-opacity:1;fill-rule:evenodd;stroke:#000000;stroke-width:1.5;stroke-linecap:round;stroke-linejoin:round;stroke-miterlimit:4;stroke-opacity:1;display:inline"
       d="m 266.82705,272.18734 c 0,4.08086 -3.312,7.39286 -7.39286,7.39286 -4.08086,0 -7.39286,-3.312 -7.39286,-7.39286 0,-4.08085 3.312,-7.39285 7.39286,-7.39285 4.08086,0 7.39286,3.312 7.39286,7.39285 z"
       id="path2428"
       inkscape:connector-curvature="0" />
    <path
       style="fill:#9e8d85;fill-opacity:1;fill-rule:evenodd;stroke:#000000;stroke-width:1.5;stroke-linecap:round;stroke-linejoin:round;stroke-miterlimit:4;stroke-opacity:1;display:inline"
       d="m 227.68268,262.09456 c 0,4.08086 -3.312,7.39286 -7.39286,7.39286 -4.08086,0 -7.39286,-3.312 -7.39286,-7.39286 0,-4.08085 3.312,-7.39285 7.39286,-7.39285 4.08086,0 7.39286,3.312 7.39286,7.39285 z"
       id="path2430"
       inkscape:connector-curvature="0" />
    <path
       style="fill:#9e8d85;fill-opacity:1;fill-rule:evenodd;stroke:#000000;stroke-width:1.5;stroke-linecap:round;stroke-linejoin:round;stroke-miterlimit:4;stroke-opacity:1;display:inline"
       d="m 244.87214,264.58306 c 0,4.08086 -3.312,7.39286 -7.39286,7.39286 -4.08086,0 -7.39286,-3.312 -7.39286,-7.39286 0,-4.08085 3.312,-7.39285 7.39286,-7.39285 4.08086,0 7.39286,3.312 7.39286,7.39285 z"
       id="path2432"
       inkscape:connector-curvature="0" />
    <path
       style="fill:#9e8d85;fill-opacity:1;fill-rule:evenodd;stroke:#000000;stroke-width:1.5;stroke-linecap:round;stroke-linejoin:round;stroke-miterlimit:4;stroke-opacity:1;display:inline"
       d="m 321.60077,237.39258 c 0,4.08086 -3.312,7.39286 -7.39286,7.39286 -4.08086,0 -7.39286,-3.312 -7.39286,-7.39286 0,-4.08085 3.312,-7.39285 7.39286,-7.39285 4.08086,0 7.39286,3.312 7.39286,7.39285 z"
       id="path2434"
       inkscape:connector-curvature="0" />
    <path
       style="fill:#9e8d85;fill-opacity:1;fill-rule:evenodd;stroke:#000000;stroke-width:1.5;stroke-linecap:round;stroke-linejoin:round;stroke-miterlimit:4;stroke-opacity:1;display:inline"
       d="m 414.75329,262.86095 c 0,4.08086 -3.312,7.39286 -7.39286,7.39286 -4.08085,0 -7.39285,-3.312 -7.39285,-7.39286 0,-4.08085 3.312,-7.39285 7.39285,-7.39285 4.08086,0 7.39286,3.312 7.39286,7.39285 z"
       id="path2436"
       inkscape:connector-curvature="0" />
    <path
       style="fill:#9e8d85;fill-opacity:1;fill-rule:evenodd;stroke:#000000;stroke-width:1.5;stroke-linecap:round;stroke-linejoin:round;stroke-miterlimit:4;stroke-opacity:1;display:inline"
       d="m 353.08967,203.40489 c 0,4.08086 -3.312,7.39286 -7.39286,7.39286 -4.08086,0 -7.39286,-3.312 -7.39286,-7.39286 0,-4.08085 3.312,-7.39285 7.39286,-7.39285 4.08086,0 7.39286,3.312 7.39286,7.39285 z"
       id="path2438"
       inkscape:connector-curvature="0" />
    <path
       style="fill:#9e8d85;fill-opacity:1;fill-rule:evenodd;stroke:#000000;stroke-width:1.5;stroke-linecap:round;stroke-linejoin:round;stroke-miterlimit:4;stroke-opacity:1;display:inline"
       d="m 103.49132,151.27286 c 0,4.08086 -3.312,7.39286 -7.39286,7.39286 -4.08086,0 -7.39286,-3.312 -7.39286,-7.39286 0,-4.08085 3.312,-7.39285 7.39286,-7.39285 4.08086,0 7.39286,3.312 7.39286,7.39285 z"
       id="path2440"
       inkscape:connector-curvature="0" />
    <path
       style="fill:#9e8d85;fill-opacity:1;fill-rule:evenodd;stroke:#000000;stroke-width:1.5;stroke-linecap:round;stroke-linejoin:round;stroke-miterlimit:4;stroke-opacity:1;display:inline"
       d="m 357.86131,272.15717 c 0,4.08086 -3.312,7.39286 -7.39286,7.39286 -4.08086,0 -7.39286,-3.312 -7.39286,-7.39286 0,-4.08085 3.312,-7.39285 7.39286,-7.39285 4.08086,0 7.39286,3.312 7.39286,7.39285 z"
       id="path2442"
       inkscape:connector-curvature="0" />
    <path
       style="fill:#9e8d85;fill-opacity:1;fill-rule:evenodd;stroke:#000000;stroke-width:1.5;stroke-linecap:round;stroke-linejoin:round;stroke-miterlimit:4;stroke-opacity:1;display:inline"
       d="m 309.2332,273.85433 c 0,4.08086 -3.312,7.39286 -7.39286,7.39286 -4.08085,0 -7.39285,-3.312 -7.39285,-7.39286 0,-4.08085 3.312,-7.39285 7.39285,-7.39285 4.08086,0 7.39286,3.312 7.39286,7.39285 z"
       id="path2444"
       inkscape:connector-curvature="0" />
    <path
       style="fill:#9e8d85;fill-opacity:1;fill-rule:evenodd;stroke:#000000;stroke-width:1.5;stroke-linecap:round;stroke-linejoin:round;stroke-miterlimit:4;stroke-opacity:1;display:inline"
       d="m 326.20577,259.64835 c 0,4.08086 -3.312,7.39286 -7.39286,7.39286 -4.08086,0 -7.39286,-3.312 -7.39286,-7.39286 0,-4.08085 3.312,-7.39285 7.39286,-7.39285 4.08086,0 7.39286,3.312 7.39286,7.39285 z"
       id="path2446"
       inkscape:connector-curvature="0" />
    <path
       style="fill:#9e8d85;fill-opacity:1;fill-rule:evenodd;stroke:#000000;stroke-width:1.5;stroke-linecap:round;stroke-linejoin:round;stroke-miterlimit:4;stroke-opacity:1;display:inline"
       d="m 459.14711,258.7989 c 0,4.08086 -3.312,7.39286 -7.39286,7.39286 -4.08086,0 -7.39286,-3.312 -7.39286,-7.39286 0,-4.08085 3.312,-7.39285 7.39286,-7.39285 4.08086,0 7.39286,3.312 7.39286,7.39285 z"
       id="path2448"
       inkscape:connector-curvature="0" />
    <path
       style="fill:#9e8d85;fill-opacity:1;fill-rule:evenodd;stroke:#000000;stroke-width:1.5;stroke-linecap:round;stroke-linejoin:round;stroke-miterlimit:4;stroke-opacity:1;display:inline"
       d="m 448.73679,148.72851 c 0,4.08086 -3.312,7.39286 -7.39286,7.39286 -4.08086,0 -7.39286,-3.312 -7.39286,-7.39286 0,-4.08085 3.312,-7.39285 7.39286,-7.39285 4.08086,0 7.39286,3.312 7.39286,7.39285 z"
       id="path2450"
       inkscape:connector-curvature="0" />
    <path
       style="fill:#9e8d85;fill-opacity:1;fill-rule:evenodd;stroke:#000000;stroke-width:1.5;stroke-linecap:round;stroke-linejoin:round;stroke-miterlimit:4;stroke-opacity:1;display:inline"
       d="m 357.99956,255.34621 c 0,4.08086 -3.312,7.39286 -7.39286,7.39286 -4.08086,0 -7.39286,-3.312 -7.39286,-7.39286 0,-4.08085 3.312,-7.39285 7.39286,-7.39285 4.08086,0 7.39286,3.312 7.39286,7.39285 z"
       id="path2452"
       inkscape:connector-curvature="0" />
    <path
       style="fill:#9e8d85;fill-opacity:1;fill-rule:evenodd;stroke:#000000;stroke-width:1.5;stroke-linecap:round;stroke-linejoin:round;stroke-miterlimit:4;stroke-opacity:1;display:inline"
       d="m 392.49962,265.15686 c 0,4.08086 -3.312,7.39286 -7.39286,7.39286 -4.08086,0 -7.39286,-3.312 -7.39286,-7.39286 0,-4.08085 3.312,-7.39285 7.39286,-7.39285 4.08086,0 7.39286,3.312 7.39286,7.39285 z"
       id="path2454"
       inkscape:connector-curvature="0" />
    <path
       style="fill:#9e8d85;fill-opacity:1;fill-rule:evenodd;stroke:#000000;stroke-width:1.5;stroke-linecap:round;stroke-linejoin:round;stroke-miterlimit:4;stroke-opacity:1;display:inline"
       d="m 279.43887,259.03253 c 0,4.08086 -3.312,7.39286 -7.39286,7.39286 -4.08086,0 -7.39286,-3.312 -7.39286,-7.39286 0,-4.08085 3.312,-7.39285 7.39286,-7.39285 4.08086,0 7.39286,3.312 7.39286,7.39285 z"
       id="path2456"
       inkscape:connector-curvature="0" />
    <path
       style="fill:#eb3d46;fill-opacity:1;fill-rule:evenodd;stroke:#000000;stroke-width:1;stroke-linecap:round;stroke-linejoin:miter;stroke-miterlimit:4;stroke-opacity:1;stroke-dasharray:none"
       d="m 13.42439,120.75 0,14.15625 453.26311,0 0,-14.15625 -453.26311,0 z"
       id="path2473"
       inkscape:connector-curvature="0" />
    <path
       id="path3429"
       d="m 53.96875,351.78125 -14.9375,-25.875 8.1875,0 0.125,-55.09375 12.5,0 0,54.8125 9.25,0 -15.125,26.15625 z m 93.625,0 -14.96875,-25.875 8.1875,0 0.15625,-55.09375 12.46875,0 0,54.8125 9.25,0 -15.09375,26.15625 z m 93.3125,0 -14.9375,-25.875 8.1875,0 0.125,-55.09375 12.5,0 0,54.8125 9.25,0 -15.125,26.15625 z m 93.1875,0 -14.9375,-25.875 8.1875,0 0.15625,-55.09375 12.46875,0 0,54.8125 9.25,0 -15.125,26.15625 z m 93.625,0 -14.96875,-25.875 8.21875,0 0.125,-55.09375 12.46875,0 0,54.8125 9.25,0 -15.09375,26.15625 z"
       style="fill:#003366;fill-rule:evenodd;stroke:#000000;stroke-width:1px;stroke-linecap:butt;stroke-linejoin:miter;stroke-opacity:1"
       inkscape:connector-curvature="0" />
    <path
       id="path3408"
       d="m 13.71875,279.80925 0,14.15625 12.03125,0 0,-14.15625 -12.03125,0 z m 24.6875,0 0,14.15625 12.03125,0 0,-14.15625 -12.03125,0 z m 24.75,0 0,14.15625 12.03125,0 0,-14.15625 -12.03125,0 z m 24.59375,0 0,14.15625 12.03125,0 0,-14.15625 -12.03125,0 z m 24.40625,0 0,14.15625 12.03125,0 0,-14.15625 -12.03125,0 z m 24.53125,0 0,14.15625 12.03125,0 0,-14.15625 -12.03125,0 z m 24.6875,0 0,14.15625 12,0 0,-14.15625 -12,0 z m 24.375,0 0,14.15625 12.03125,0 0,-14.15625 -12.03125,0 z m 23.78125,0 0,14.15625 12.03125,0 0,-14.15625 -12.03125,0 z m 24.8125,0 0,14.15625 12.03125,0 0,-14.15625 -12.03125,0 z m 24.25,0 0,14.15625 12.03125,0 0,-14.15625 -12.03125,0 z m 24.96875,0 0,14.15625 12,0 0,-14.15625 -12,0 z m 24.3125,0 0,14.15625 12.03125,0 0,-14.15625 -12.03125,0 z m 24.53125,0 0,14.15625 12.03125,0 0,-14.15625 -12.03125,0 z m 24.40625,0 0,14.15625 12.03125,0 0,-14.15625 -12.03125,0 z m 24.59375,0 0,14.15625 12.03125,0 0,-14.15625 -12.03125,0 z m 24.53125,0 0,14.15625 12.03125,0 0,-14.15625 -12.03125,0 z m 24.46875,0 0,14.15625 12.03125,0 0,-14.15625 -12.03125,0 z m 24.25,0 0,14.15625 12.03125,0 0,-14.15625 -12.03125,0 z"
       style="fill:#eb3d46;fill-opacity:1;fill-rule:evenodd;stroke:#000000;stroke-width:1;stroke-linecap:round;stroke-linejoin:miter;stroke-miterlimit:4;stroke-opacity:1;stroke-dasharray:none"
       inkscape:connector-curvature="0" />
    <path
       style="fill:#9e8d85;fill-opacity:1;fill-rule:evenodd;stroke:#000000;stroke-width:1.5;stroke-linecap:round;stroke-linejoin:round;stroke-miterlimit:4;stroke-opacity:1;display:inline"
       d="m 435.96533,263.05638 c 0,4.08086 -3.312,7.39286 -7.39286,7.39286 -4.08086,0 -7.39286,-3.312 -7.39286,-7.39286 0,-4.08085 3.312,-7.39285 7.39286,-7.39285 4.08086,0 7.39286,3.312 7.39286,7.39285 z"
       id="path3433"
       inkscape:connector-curvature="0" />
    <path
       style="fill:#9e8d85;fill-opacity:1;fill-rule:evenodd;stroke:#000000;stroke-width:1.5;stroke-linecap:round;stroke-linejoin:round;stroke-miterlimit:4;stroke-opacity:1;display:inline"
       d="m 440.13926,241.42413 c 0,4.08086 -3.312,7.39286 -7.39286,7.39286 -4.08086,0 -7.39286,-3.312 -7.39286,-7.39286 0,-4.08085 3.312,-7.39285 7.39286,-7.39285 4.08086,0 7.39286,3.312 7.39286,7.39285 z"
       id="path3435"
       inkscape:connector-curvature="0" />
    <path
       style="fill:#9e8d85;fill-opacity:1;fill-rule:evenodd;stroke:#000000;stroke-width:1.5;stroke-linecap:round;stroke-linejoin:round;stroke-miterlimit:4;stroke-opacity:1;display:inline"
       d="m 375.70961,258.00557 c 0,4.08086 -3.312,7.39286 -7.39286,7.39286 -4.08086,0 -7.39286,-3.312 -7.39286,-7.39286 0,-4.08085 3.312,-7.39285 7.39286,-7.39285 4.08086,0 7.39286,3.312 7.39286,7.39285 z"
       id="path3437"
       inkscape:connector-curvature="0" />
    <path
       style="fill:#9e8d85;fill-opacity:1;fill-rule:evenodd;stroke:#000000;stroke-width:1.5;stroke-linecap:round;stroke-linejoin:round;stroke-miterlimit:4;stroke-opacity:1;display:inline"
       d="m 138.47189,266.92367 c 0,4.08086 -3.312,7.39286 -7.39286,7.39286 -4.08086,0 -7.39286,-3.312 -7.39286,-7.39286 0,-4.08085 3.312,-7.39285 7.39286,-7.39285 4.08086,0 7.39286,3.312 7.39286,7.39285 z"
       id="path3439"
       inkscape:connector-curvature="0" />
    <path
       style="fill:#9e8d85;fill-opacity:1;fill-rule:evenodd;stroke:#000000;stroke-width:1.5;stroke-linecap:round;stroke-linejoin:round;stroke-miterlimit:4;stroke-opacity:1;display:inline"
       d="m 194.22479,256.26005 c 0,4.08086 -3.312,7.39286 -7.39286,7.39286 -4.08086,0 -7.39286,-3.312 -7.39286,-7.39286 0,-4.08085 3.312,-7.39285 7.39286,-7.39285 4.08086,0 7.39286,3.312 7.39286,7.39285 z"
       id="path3441"
       inkscape:connector-curvature="0" />
    <path
       style="fill:#9e8d85;fill-opacity:1;fill-rule:evenodd;stroke:#000000;stroke-width:1.5;stroke-linecap:round;stroke-linejoin:round;stroke-miterlimit:4;stroke-opacity:1;display:inline"
       d="m 400.95803,250.8619 c 0,4.08086 -3.312,7.39286 -7.39286,7.39286 -4.08086,0 -7.39286,-3.312 -7.39286,-7.39286 0,-4.08085 3.312,-7.39285 7.39286,-7.39285 4.08086,0 7.39286,3.312 7.39286,7.39285 z"
       id="path3443"
       inkscape:connector-curvature="0" />
    <path
       style="font-size:25px;font-style:normal;font-variant:normal;font-weight:normal;font-stretch:normal;text-align:start;line-height:100%;text-anchor:start;fill:#000000;fill-opacity:1;stroke:none;font-family:Bitstream Vera Sans"
       d="m 191.63168,356.41547 0,6.84814 3.10059,0 c 1.14745,10e-6 2.03449,-0.29703 2.66113,-0.89111 0.62662,-0.59407 0.93993,-1.44042 0.93994,-2.53906 -1e-5,-1.09049 -0.31332,-1.93277 -0.93994,-2.52686 -0.62664,-0.59406 -1.51368,-0.8911 -2.66113,-0.89111 l -3.10059,0 z m -2.46582,-2.02637 5.56641,0 c 2.04263,2e-5 3.58682,0.46185 4.63257,1.3855 1.04572,0.92368 1.56859,2.27662 1.5686,4.05884 -1e-5,1.79851 -0.52288,3.15756 -1.5686,4.07714 -1.04575,0.91961 -2.58994,1.37941 -4.63257,1.3794 l -3.10059,0 0,7.32422 -2.46582,0 0,-18.2251 z m 26.68457,10.82764 0,1.09863 -10.32715,0 c 0.0977,1.54623 0.56356,2.7242 1.39771,3.53393 0.83414,0.80974 1.99584,1.21461 3.48511,1.2146 0.86262,1e-5 1.6988,-0.10579 2.50854,-0.31738 0.80972,-0.21159 1.61335,-0.52897 2.41089,-0.95215 l 0,2.12403 c -0.80568,0.34179 -1.63168,0.60221 -2.47803,0.78125 -0.84636,0.17903 -1.70492,0.26855 -2.57568,0.26855 -2.181,0 -3.90829,-0.63476 -5.18188,-1.9043 -1.27361,-1.26952 -1.91041,-2.98665 -1.91041,-5.15136 0,-2.23795 0.60425,-4.01407 1.81275,-5.32837 1.20849,-1.31428 2.83813,-1.97142 4.88892,-1.97144 1.83918,2e-5 3.29385,0.59206 4.36401,1.77612 1.07013,1.1841 1.60521,2.79339 1.60522,4.82789 l 0,0 z m -2.24609,-0.65918 c -0.0163,-1.22884 -0.36012,-2.20947 -1.03149,-2.9419 -0.6714,-0.73241 -1.56048,-1.09862 -2.66724,-1.09863 -1.25326,1e-5 -2.25627,0.35401 -3.00903,1.06201 -0.75278,0.70802 -1.18612,1.70493 -1.30005,2.99072 l 8.00781,-0.0122 z m 13.85498,-3.51563 c -0.25229,-0.14647 -0.52695,-0.2543 -0.82397,-0.32349 -0.29705,-0.0692 -0.62461,-0.10374 -0.98267,-0.10375 -1.26954,1e-5 -2.24407,0.41301 -2.92358,1.23901 -0.67953,0.82602 -1.0193,2.01213 -1.01929,3.55835 l 0,7.20215 -2.2583,0 0,-13.67188 2.2583,0 0,2.12403 c 0.472,-0.83007 1.08642,-1.44652 1.84326,-1.84937 0.75683,-0.40282 1.67642,-0.60423 2.75879,-0.60425 0.15461,2e-5 0.32551,0.0102 0.51269,0.0305 0.18717,0.0204 0.39469,0.0509 0.62256,0.0915 l 0.0122,2.30713 z m 13.0249,0.5249 c 0.56151,-1.0091 1.2329,-1.75373 2.01416,-2.23388 0.78124,-0.48013 1.70083,-0.7202 2.75879,-0.72022 1.42414,2e-5 2.52277,0.49847 3.2959,1.49536 0.77309,0.99692 1.15965,2.41497 1.15967,4.25415 l 0,8.25196 -2.2583,0 0,-8.17871 c -2e-5,-1.31022 -0.23196,-2.28271 -0.6958,-2.91748 -0.46389,-0.63476 -1.1719,-0.95214 -2.12403,-0.95215 -1.16375,1e-5 -2.08335,0.38656 -2.75879,1.15966 -0.67547,0.77313 -1.01319,1.827 -1.01318,3.16163 l 0,7.72705 -2.2583,0 0,-8.17871 c -1e-5,-1.31835 -0.23194,-2.29288 -0.6958,-2.92359 -0.46388,-0.63068 -1.18002,-0.94603 -2.14844,-0.94604 -1.14747,1e-5 -2.05892,0.3886 -2.73437,1.16577 -0.67546,0.77719 -1.01319,1.82903 -1.01319,3.15552 l 0,7.72705 -2.2583,0 0,-13.67188 2.2583,0 0,2.12403 c 0.51269,-0.83821 1.12711,-1.4567 1.84326,-1.85547 0.71614,-0.39875 1.56657,-0.59813 2.55127,-0.59815 0.99283,2e-5 1.83715,0.25229 2.53296,0.75684 0.69579,0.50457 1.21052,1.23699 1.54419,2.19726 l 0,0 z m 25.41504,3.64991 0,1.09863 -10.32715,0 c 0.0977,1.54623 0.56356,2.7242 1.39771,3.53393 0.83414,0.80974 1.99584,1.21461 3.48511,1.2146 0.86262,1e-5 1.6988,-0.10579 2.50854,-0.31738 0.80972,-0.21159 1.61335,-0.52897 2.41089,-0.95215 l 0,2.12403 c -0.80568,0.34179 -1.63169,0.60221 -2.47803,0.78125 -0.84636,0.17903 -1.70492,0.26855 -2.57568,0.26855 -2.181,0 -3.90829,-0.63476 -5.18189,-1.9043 -1.2736,-1.26952 -1.9104,-2.98665 -1.9104,-5.15136 0,-2.23795 0.60425,-4.01407 1.81275,-5.32837 1.20849,-1.31428 2.83813,-1.97142 4.88891,-1.97144 1.83919,2e-5 3.29386,0.59206 4.36402,1.77612 1.07013,1.1841 1.60521,2.79339 1.60522,4.82789 l 0,0 z m -2.24609,-0.65918 c -0.0163,-1.22884 -0.36012,-2.20947 -1.0315,-2.9419 -0.67139,-0.73241 -1.56047,-1.09862 -2.66723,-1.09863 -1.25326,1e-5 -2.25627,0.35401 -3.00904,1.06201 -0.75277,0.70802 -1.18612,1.70493 -1.30004,2.99072 l 8.00781,-0.0122 z m 12.14599,1.18408 c -1.81478,10e-6 -3.0721,0.20752 -3.77197,0.62256 -0.69987,0.41504 -1.04981,1.12305 -1.0498,2.12402 -1e-5,0.79753 0.26244,1.43026 0.78735,1.89819 0.5249,0.46794 1.23901,0.70191 2.14233,0.70191 1.24511,0 2.24405,-0.44149 2.99683,-1.32447 0.75276,-0.88297 1.12914,-2.05687 1.12915,-3.52172 l 0,-0.50049 -2.23389,0 z m 4.47998,-0.92774 0,7.8003 -2.24609,0 0,-2.0752 c -0.51271,0.83008 -1.15154,1.44247 -1.9165,1.83716 -0.76499,0.39469 -1.70086,0.59204 -2.80762,0.59204 -1.39974,0 -2.51262,-0.39266 -3.33862,-1.17798 -0.82601,-0.78532 -1.23902,-1.83715 -1.23902,-3.15552 0,-1.53808 0.51473,-2.69774 1.54419,-3.479 1.02946,-0.78124 2.56551,-1.17187 4.60816,-1.17187 l 3.14941,0 0,-0.21973 c -10e-6,-1.03352 -0.33977,-1.83308 -1.01929,-2.39868 -0.67953,-0.56558 -1.63371,-0.84838 -2.86255,-0.84839 -0.78125,1e-5 -1.54216,0.0936 -2.28271,0.28076 -0.74056,0.18719 -1.45264,0.46795 -2.13623,0.84229 l 0,-2.0752 c 0.82194,-0.31737 1.61946,-0.55541 2.39258,-0.71411 0.7731,-0.15868 1.52587,-0.23802 2.2583,-0.23804 1.97753,2e-5 3.45458,0.51271 4.43115,1.53809 0.97655,1.0254 1.46483,2.57976 1.46484,4.66308 l 0,0 z m 6.86036,-9.75341 0,3.88183 4.62646,0 0,1.74561 -4.62646,0 0,7.42187 c -10e-6,1.11491 0.15258,1.83106 0.45776,2.14844 0.30517,0.31738 0.92569,0.47608 1.86157,0.47607 l 2.30713,0 0,1.87989 -2.30713,0 c -1.7334,0 -2.92969,-0.32349 -3.58887,-0.97046 -0.65918,-0.64697 -0.98877,-1.82495 -0.98876,-3.53394 l 0,-7.42187 -1.64795,0 0,-1.74561 1.64795,0 0,-3.88183 2.2583,0 z m 19.28711,10.15625 0,1.09863 -10.32715,0 c 0.0976,1.54623 0.56355,2.7242 1.3977,3.53393 0.83414,0.80974 1.99584,1.21461 3.48511,1.2146 0.86262,1e-5 1.6988,-0.10579 2.50854,-0.31738 0.80973,-0.21159 1.61335,-0.52897 2.41089,-0.95215 l 0,2.12403 c -0.80567,0.34179 -1.63168,0.60221 -2.47802,0.78125 -0.84637,0.17903 -1.70493,0.26855 -2.57569,0.26855 -2.18099,0 -3.90829,-0.63476 -5.18188,-1.9043 -1.27361,-1.26952 -1.9104,-2.98665 -1.9104,-5.15136 0,-2.23795 0.60424,-4.01407 1.81274,-5.32837 1.20849,-1.31428 2.83813,-1.97142 4.88892,-1.97144 1.83918,2e-5 3.29385,0.59206 4.36401,1.77612 1.07014,1.1841 1.60521,2.79339 1.60523,4.82789 l 0,0 z m -2.2461,-0.65918 c -0.0163,-1.22884 -0.36012,-2.20947 -1.03149,-2.9419 -0.6714,-0.73241 -1.56048,-1.09862 -2.66724,-1.09863 -1.25326,1e-5 -2.25627,0.35401 -3.00903,1.06201 -0.75277,0.70802 -1.18612,1.70493 -1.30005,2.99072 l 8.00781,-0.0122 z"
       id="text3461"
       inkscape:connector-curvature="0" />
    <path
       inkscape:connector-curvature="0"
       id="path3041"
       d="m 124.74491,250.60414 c 0,4.08086 -3.312,7.39286 -7.39286,7.39286 -4.08085,0 -7.39285,-3.312 -7.39285,-7.39286 0,-4.08085 3.312,-7.39285 7.39285,-7.39285 4.08086,0 7.39286,3.312 7.39286,7.39285 z"
       style="fill:#9e8d85;fill-opacity:1;fill-rule:evenodd;stroke:#000000;stroke-width:1.5;stroke-linecap:round;stroke-linejoin:round;stroke-miterlimit:4;stroke-opacity:1;display:inline" />
    <path
       style="fill:#9e8d85;fill-opacity:1;fill-rule:evenodd;stroke:#000000;stroke-width:1.5;stroke-linecap:round;stroke-linejoin:round;stroke-miterlimit:4;stroke-opacity:1;display:inline"
       d="m 77.27409,263.83371 c 0,4.08086 -3.312,7.39286 -7.39286,7.39286 -4.08085,0 -7.39285,-3.312 -7.39285,-7.39286 0,-4.08085 3.312,-7.39285 7.39285,-7.39285 4.08086,0 7.39286,3.312 7.39286,7.39285 z"
       id="path3043"
       inkscape:connector-curvature="0" />
    <path
       inkscape:connector-curvature="0"
       id="path3045"
       d="m 59.37526,259.94266 c 0,4.08086 -3.312,7.39286 -7.39286,7.39286 -4.08085,0 -7.39285,-3.312 -7.39285,-7.39286 0,-4.08085 3.312,-7.39285 7.39285,-7.39285 4.08086,0 7.39286,3.312 7.39286,7.39285 z"
       style="fill:#9e8d85;fill-opacity:1;fill-rule:evenodd;stroke:#000000;stroke-width:1.5;stroke-linecap:round;stroke-linejoin:round;stroke-miterlimit:4;stroke-opacity:1;display:inline" />
    <path
       style="fill:#9e8d85;fill-opacity:1;fill-rule:evenodd;stroke:#000000;stroke-width:1.5;stroke-linecap:round;stroke-linejoin:round;stroke-miterlimit:4;stroke-opacity:1;display:inline"
       d="m 41.47643,248.26951 c 0,4.08086 -3.312,7.39286 -7.39286,7.39286 -4.08085,0 -7.39285,-3.312 -7.39285,-7.39286 0,-4.08085 3.312,-7.39285 7.39285,-7.39285 4.08086,0 7.39286,3.312 7.39286,7.39285 z"
       id="path3047"
       inkscape:connector-curvature="0" />
    <path
       inkscape:connector-curvature="0"
       id="path3049"
       d="m 79.60873,243.60025 c 0,4.08086 -3.312,7.39286 -7.39286,7.39286 -4.08085,0 -7.39285,-3.312 -7.39285,-7.39286 0,-4.08085 3.312,-7.39285 7.39285,-7.39285 4.08086,0 7.39286,3.312 7.39286,7.39285 z"
       style="fill:#9e8d85;fill-opacity:1;fill-rule:evenodd;stroke:#000000;stroke-width:1.5;stroke-linecap:round;stroke-linejoin:round;stroke-miterlimit:4;stroke-opacity:1;display:inline" />
    <path
       style="fill:#9e8d85;fill-opacity:1;fill-rule:evenodd;stroke:#000000;stroke-width:1.5;stroke-linecap:round;stroke-linejoin:round;stroke-miterlimit:4;stroke-opacity:1;display:inline"
       d="m 162.87721,245.15667 c 0,4.08086 -3.312,7.39286 -7.39286,7.39286 -4.08085,0 -7.39285,-3.312 -7.39285,-7.39286 0,-4.08085 3.312,-7.39285 7.39285,-7.39285 4.08086,0 7.39286,3.312 7.39286,7.39285 z"
       id="path3051"
       inkscape:connector-curvature="0" />
    <path
       inkscape:connector-curvature="0"
       id="path3053"
       d="m 205.67877,241.26562 c 0,4.08086 -3.312,7.39286 -7.39286,7.39286 -4.08085,0 -7.39285,-3.312 -7.39285,-7.39286 0,-4.08085 3.312,-7.39285 7.39285,-7.39285 4.08086,0 7.39286,3.312 7.39286,7.39285 z"
       style="fill:#9e8d85;fill-opacity:1;fill-rule:evenodd;stroke:#000000;stroke-width:1.5;stroke-linecap:round;stroke-linejoin:round;stroke-miterlimit:4;stroke-opacity:1;display:inline" />
    <path
       style="fill:#9e8d85;fill-opacity:1;fill-rule:evenodd;stroke:#000000;stroke-width:1.5;stroke-linecap:round;stroke-linejoin:round;stroke-miterlimit:4;stroke-opacity:1;display:inline"
       d="m 144.97838,240.48741 c 0,4.08086 -3.312,7.39286 -7.39286,7.39286 -4.08085,0 -7.39285,-3.312 -7.39285,-7.39286 0,-4.08085 3.312,-7.39285 7.39285,-7.39285 4.08086,0 7.39286,3.312 7.39286,7.39285 z"
       id="path3055"
       inkscape:connector-curvature="0" />
    <path
       inkscape:connector-curvature="0"
       id="path3057"
       d="m 184.6671,241.26562 c 0,4.08086 -3.312,7.39286 -7.39286,7.39286 -4.08085,0 -7.39285,-3.312 -7.39285,-7.39286 0,-4.08085 3.312,-7.39285 7.39285,-7.39285 4.08086,0 7.39286,3.312 7.39286,7.39285 z"
       style="fill:#9e8d85;fill-opacity:1;fill-rule:evenodd;stroke:#000000;stroke-width:1.5;stroke-linecap:round;stroke-linejoin:round;stroke-miterlimit:4;stroke-opacity:1;display:inline" />
    <path
       inkscape:connector-curvature="0"
       id="path3059"
       d="m 59.23829,217.42246 c 0,4.08086 -3.312,7.39286 -7.39286,7.39286 -4.08085,0 -7.39285,-3.312 -7.39285,-7.39286 0,-4.08085 3.312,-7.39285 7.39285,-7.39285 4.08086,0 7.39286,3.312 7.39286,7.39285 z"
       style="fill:#9e8d85;fill-opacity:1;fill-rule:evenodd;stroke:#000000;stroke-width:1.5;stroke-linecap:round;stroke-linejoin:round;stroke-miterlimit:4;stroke-opacity:1;display:inline" />
    <path
       style="fill:#9e8d85;fill-opacity:1;fill-rule:evenodd;stroke:#000000;stroke-width:1.5;stroke-linecap:round;stroke-linejoin:round;stroke-miterlimit:4;stroke-opacity:1;display:inline"
       d="m 171.30055,216.64425 c 0,4.08086 -3.312,7.39286 -7.39286,7.39286 -4.08085,0 -7.39285,-3.312 -7.39285,-7.39286 0,-4.08085 3.312,-7.39285 7.39285,-7.39285 4.08086,0 7.39286,3.312 7.39286,7.39285 z"
       id="path3061"
       inkscape:connector-curvature="0" />
    <path
       style="fill:#9e8d85;fill-opacity:1;fill-rule:evenodd;stroke:#000000;stroke-width:1.5;stroke-linecap:round;stroke-linejoin:round;stroke-miterlimit:4;stroke-opacity:1;display:inline"
       d="m 286.47564,206.52752 c 0,4.08086 -3.312,7.39286 -7.39286,7.39286 -4.08085,0 -7.39285,-3.312 -7.39285,-7.39286 0,-4.08085 3.312,-7.39285 7.39285,-7.39285 4.08086,0 7.39286,3.312 7.39286,7.39285 z"
       id="path3063"
       inkscape:connector-curvature="0" />
    <path
       inkscape:connector-curvature="0"
       id="path3065"
       d="m 457.68187,222.09172 c 0,4.08086 -3.312,7.39286 -7.39286,7.39286 -4.08085,0 -7.39285,-3.312 -7.39285,-7.39286 0,-4.08085 3.312,-7.39285 7.39285,-7.39285 4.08086,0 7.39286,3.312 7.39286,7.39285 z"
       style="fill:#9e8d85;fill-opacity:1;fill-rule:evenodd;stroke:#000000;stroke-width:1.5;stroke-linecap:round;stroke-linejoin:round;stroke-miterlimit:4;stroke-opacity:1;display:inline" />
    <path
       style="fill:#9e8d85;fill-opacity:1;fill-rule:evenodd;stroke:#000000;stroke-width:1.5;stroke-linecap:round;stroke-linejoin:round;stroke-miterlimit:4;stroke-opacity:1;display:inline"
       d="m 388.42117,172.28628 c 0,4.08086 -3.312,7.39286 -7.39286,7.39286 -4.08085,0 -7.39285,-3.312 -7.39285,-7.39286 0,-4.08085 3.312,-7.39285 7.39285,-7.39285 4.08086,0 7.39286,3.312 7.39286,7.39285 z"
       id="path3067"
       inkscape:connector-curvature="0" />
    <path
       style="fill:#9e8d85;fill-opacity:1;fill-rule:evenodd;stroke:#000000;stroke-width:1.5;stroke-linecap:round;stroke-linejoin:round;stroke-miterlimit:4;stroke-opacity:1;display:inline"
       d="m 428.10989,206.52752 c 0,4.08086 -3.312,7.39286 -7.39286,7.39286 -4.08085,0 -7.39285,-3.312 -7.39285,-7.39286 0,-4.08085 3.312,-7.39285 7.39285,-7.39285 4.08086,0 7.39286,3.312 7.39286,7.39285 z"
       id="path3069"
       inkscape:connector-curvature="0" />
    <path
       inkscape:connector-curvature="0"
       id="path3071"
       d="m 209.43284,188.62869 c 0,4.08086 -3.312,7.39286 -7.39286,7.39286 -4.08085,0 -7.39285,-3.312 -7.39285,-7.39286 0,-4.08085 3.312,-7.39285 7.39285,-7.39285 4.08086,0 7.39286,3.312 7.39286,7.39285 z"
       style="fill:#9e8d85;fill-opacity:1;fill-rule:evenodd;stroke:#000000;stroke-width:1.5;stroke-linecap:round;stroke-linejoin:round;stroke-miterlimit:4;stroke-opacity:1;display:inline" />
    <path
       style="fill:none;stroke:#000000;stroke-width:3;stroke-linecap:butt;stroke-linejoin:miter;stroke-miterlimit:4;stroke-opacity:1;stroke-dasharray:none;marker-start:url(#Arrow1Mstart);marker-mid:none;marker-end:url(#Arrow1Mend)"
       d="m 511.9156,106.81433 0,171.98443 277.35781,0"
       id="path3073"
       inkscape:connector-curvature="0"
       sodipodi:nodetypes="ccc" />
    <text
       xml:space="preserve"
       style="font-size:20px;font-style:normal;font-variant:normal;font-weight:normal;font-stretch:normal;text-align:end;line-height:125%;letter-spacing:0px;word-spacing:0px;writing-mode:lr;text-anchor:end;fill:#000000;fill-opacity:1;stroke:none;font-family:Arial;-inkscape-font-specification:Arial"
       x="736.0329"
       y="361.58481"
       id="text5033"
       sodipodi:linespacing="125%"><tspan
         sodipodi:role="line"
         id="tspan3123">Solute concentration = </tspan></text>
    <text
       sodipodi:linespacing="125%"
       id="text5041"
       y="92.369476"
       x="519.20526"
       style="font-size:20px;font-style:normal;font-variant:normal;font-weight:normal;font-stretch:normal;text-align:end;line-height:125%;letter-spacing:0px;word-spacing:0px;writing-mode:lr-tb;text-anchor:end;fill:#000000;fill-opacity:1;stroke:none;font-family:Arial;-inkscape-font-specification:Arial"
       xml:space="preserve"><tspan
         sodipodi:role="line"
         id="tspan5047"
         x="519.20526"
         y="92.369476">Distance from membrane = y</tspan></text>
    <path
       style="fill:none;stroke:#0000ff;stroke-width:3;stroke-linecap:butt;stroke-linejoin:miter;stroke-miterlimit:4;stroke-opacity:0.87922704;stroke-dasharray:none"
       d="m 569.06993,125.84415 c 2.91407,102.33207 41.79195,144.05038 150.08528,151.90449"
       id="path5049"
       inkscape:connector-curvature="0"
       sodipodi:nodetypes="cc" />
    <text
       xml:space="preserve"
       style="font-size:14px;font-style:normal;font-variant:normal;font-weight:normal;font-stretch:normal;text-align:center;line-height:125%;letter-spacing:0px;word-spacing:0px;writing-mode:lr-tb;text-anchor:middle;fill:#000000;fill-opacity:1;stroke:none;font-family:Sans;-inkscape-font-specification:Sans"
       x="732.46619"
       y="143.49254"
       id="text5435"
       sodipodi:linespacing="125%"><tspan
         sodipodi:role="line"
         id="tspan5441"
         style="font-style:normal;font-variant:normal;font-weight:normal;font-stretch:normal;font-family:Arial;-inkscape-font-specification:Arial"
         x="734.40759"
         y="143.49254">Concentration </tspan><tspan
         sodipodi:role="line"
         id="tspan5445"
         style="font-style:normal;font-variant:normal;font-weight:normal;font-stretch:normal;font-family:Arial;-inkscape-font-specification:Arial"
         x="732.46619"
         y="160.99254">polarization</tspan></text>
    <path
       style="fill:#9e8d85;fill-opacity:1;fill-rule:evenodd;stroke:#000000;stroke-width:1.5;stroke-linecap:round;stroke-linejoin:round;stroke-miterlimit:4;stroke-opacity:1;display:inline"
       d="m 360.88253,231.38025 c 0,4.08086 -3.312,7.39286 -7.39286,7.39286 -4.08085,0 -7.39285,-3.312 -7.39285,-7.39286 0,-4.08085 3.312,-7.39285 7.39285,-7.39285 4.08086,0 7.39286,3.312 7.39286,7.39285 z"
       id="path5447"
       inkscape:connector-curvature="0" />
    <path
       inkscape:connector-curvature="0"
       id="path5449"
       d="m 235.81147,229.56103 c 0,4.08086 -3.312,7.39286 -7.39286,7.39286 -4.08085,0 -7.39285,-3.312 -7.39285,-7.39286 0,-4.08085 3.312,-7.39285 7.39285,-7.39285 4.08086,0 7.39286,3.312 7.39286,7.39285 z"
       style="fill:#9e8d85;fill-opacity:1;fill-rule:evenodd;stroke:#000000;stroke-width:1.5;stroke-linecap:round;stroke-linejoin:round;stroke-miterlimit:4;stroke-opacity:1;display:inline" />
    <path
       style="fill:#9e8d85;fill-opacity:1;fill-rule:evenodd;stroke:#000000;stroke-width:1.5;stroke-linecap:round;stroke-linejoin:round;stroke-miterlimit:4;stroke-opacity:1;display:inline"
       d="m 109.376,232.74466 c 0,4.08086 -3.312,7.39286 -7.39286,7.39286 -4.08085,0 -7.39285,-3.312 -7.39285,-7.39286 0,-4.08085 3.312,-7.39285 7.39285,-7.39285 4.08086,0 7.39286,3.312 7.39286,7.39285 z"
       id="path5451"
       inkscape:connector-curvature="0" />
    <path
       inkscape:connector-curvature="0"
       id="path5453"
       d="m 27.966108,234.10907 c 0,4.08086 -3.312,7.39286 -7.39286,7.39286 -4.08085,0 -7.39285,-3.312 -7.39285,-7.39286 0,-4.08085 3.312,-7.39285 7.39285,-7.39285 4.08086,0 7.39286,3.312 7.39286,7.39285 z"
       style="fill:#9e8d85;fill-opacity:1;fill-rule:evenodd;stroke:#000000;stroke-width:1.5;stroke-linecap:round;stroke-linejoin:round;stroke-miterlimit:4;stroke-opacity:1;display:inline" />
    <path
       style="fill:#9e8d85;fill-opacity:1;fill-rule:evenodd;stroke:#000000;stroke-width:1.5;stroke-linecap:round;stroke-linejoin:round;stroke-miterlimit:4;stroke-opacity:1;display:inline"
       d="m 62.986006,241.84074 c 0,4.08086 -3.312,7.39286 -7.39286,7.39286 -4.08085,0 -7.39285,-3.312 -7.39285,-7.39286 0,-4.08085 3.312,-7.39285 7.39285,-7.39285 4.08086,0 7.39286,3.312 7.39286,7.39285 z"
       id="path5455"
       inkscape:connector-curvature="0" />
    <path
       inkscape:connector-curvature="0"
       id="path5457"
       d="m 274.92461,230.92545 c 0,4.08086 -3.312,7.39286 -7.39286,7.39286 -4.08085,0 -7.39285,-3.312 -7.39285,-7.39286 0,-4.08085 3.312,-7.39285 7.39285,-7.39285 4.08086,0 7.39286,3.312 7.39286,7.39285 z"
       style="fill:#9e8d85;fill-opacity:1;fill-rule:evenodd;stroke:#000000;stroke-width:1.5;stroke-linecap:round;stroke-linejoin:round;stroke-miterlimit:4;stroke-opacity:1;display:inline" />
    <path
       sodipodi:nodetypes="cc"
       inkscape:connector-curvature="0"
       id="path3072"
       d="m 569.06993,125.84415 c 2.93679,102.33207 69.08607,122.74317 178.22378,130.59728 l 0,21.84388"
       style="fill:none;stroke:#e85e00;stroke-width:3.01167297;stroke-linecap:butt;stroke-linejoin:miter;stroke-miterlimit:4;stroke-opacity:0.87922704;stroke-dasharray:none" />
    <text
       xml:space="preserve"
       style="font-size:26px;font-style:normal;font-variant:normal;font-weight:normal;font-stretch:normal;text-align:start;line-height:125%;letter-spacing:0px;word-spacing:0px;writing-mode:lr-tb;text-anchor:start;fill:#000000;fill-opacity:1;stroke:none;font-family:Sans;-inkscape-font-specification:Sans"
       x="700.86414"
       y="304.93796"
       id="text3074"
       sodipodi:linespacing="125%"><tspan
         sodipodi:role="line"
         id="tspan3076"
         x="700.86414"
         y="304.93796">C</tspan></text>
    <text
       sodipodi:linespacing="125%"
       id="text3078"
       y="311.30521"
       x="719.05634"
       style="font-size:18px;font-style:normal;font-variant:normal;font-weight:normal;font-stretch:normal;text-align:start;line-height:125%;letter-spacing:0px;word-spacing:0px;writing-mode:lr-tb;text-anchor:start;fill:#000000;fill-opacity:1;stroke:none;font-family:Sans;-inkscape-font-specification:Sans"
       xml:space="preserve"><tspan
         sodipodi:role="line"
         id="tspan3082"
         x="719.05634"
         y="311.30521">w</tspan></text>
    <text
       sodipodi:linespacing="125%"
       id="text3084"
       y="304.38083"
       x="558.93695"
       style="font-size:26px;font-style:normal;font-variant:normal;font-weight:normal;font-stretch:normal;text-align:start;line-height:125%;letter-spacing:0px;word-spacing:0px;writing-mode:lr-tb;text-anchor:start;fill:#000000;fill-opacity:1;stroke:none;font-family:Sans;-inkscape-font-specification:Sans"
       xml:space="preserve"><tspan
         y="304.38083"
         x="558.93695"
         id="tspan3086"
         sodipodi:role="line">C</tspan></text>
    <text
       xml:space="preserve"
       style="font-size:18px;font-style:normal;font-variant:normal;font-weight:normal;font-stretch:normal;text-align:start;line-height:125%;letter-spacing:0px;word-spacing:0px;writing-mode:lr;text-anchor:start;fill:#000000;fill-opacity:1;stroke:none;font-family:Sans;-inkscape-font-specification:Sans"
       x="577.12915"
       y="310.74808"
       id="text3088"
       sodipodi:linespacing="125%"><tspan
         sodipodi:role="line"
         id="tspan3083">b</tspan></text>
    <text
       xml:space="preserve"
       style="font-size:26px;font-style:normal;font-variant:normal;font-weight:normal;font-stretch:normal;text-align:start;line-height:125%;letter-spacing:0px;word-spacing:0px;writing-mode:lr-tb;text-anchor:start;fill:#000000;fill-opacity:1;stroke:none;font-family:Sans;-inkscape-font-specification:Sans"
       x="740.14673"
       y="305.4519"
       id="text3094"
       sodipodi:linespacing="125%"><tspan
         sodipodi:role="line"
         id="tspan3096"
         x="740.14673"
         y="305.4519">C</tspan></text>
    <text
       sodipodi:linespacing="125%"
       id="text3098"
       y="311.81915"
       x="758.33893"
       style="font-size:18px;font-style:normal;font-variant:normal;font-weight:normal;font-stretch:normal;text-align:start;line-height:125%;letter-spacing:0px;word-spacing:0px;writing-mode:lr-tb;text-anchor:start;fill:#000000;fill-opacity:1;stroke:none;font-family:Sans;-inkscape-font-specification:Sans"
       xml:space="preserve"><tspan
         sodipodi:role="line"
         id="tspan3102"
         x="758.33893"
         y="311.81915">g</tspan></text>
    <path
       inkscape:connector-curvature="0"
       id="path3108"
       d="m 568.03095,88.483559 0,189.211761"
       style="fill:none;stroke:#000000;stroke-width:1.25;stroke-linecap:butt;stroke-linejoin:miter;stroke-miterlimit:4;stroke-opacity:1;stroke-dasharray:2.5,2.5;stroke-dashoffset:0" />
    <text
       xml:space="preserve"
       style="font-size:26px;font-style:normal;font-variant:normal;font-weight:normal;font-stretch:normal;text-align:start;line-height:125%;letter-spacing:0px;word-spacing:0px;writing-mode:lr-tb;text-anchor:start;fill:#000000;fill-opacity:1;stroke:none;font-family:Sans;-inkscape-font-specification:Sans"
       x="740.20056"
       y="363.58139"
       id="text3119"
       sodipodi:linespacing="125%"><tspan
         sodipodi:role="line"
         id="tspan3121"
         x="740.20056"
         y="363.58139">C</tspan></text>
  </g>
</svg>
