<?xml version="1.0" encoding="UTF-8" standalone="no"?>
<!-- Created with Inkscape (http://www.inkscape.org/) -->

<svg
   xmlns:dc="http://purl.org/dc/elements/1.1/"
   xmlns:cc="http://creativecommons.org/ns#"
   xmlns:rdf="http://www.w3.org/1999/02/22-rdf-syntax-ns#"
   xmlns:svg="http://www.w3.org/2000/svg"
   xmlns="http://www.w3.org/2000/svg"
   xmlns:sodipodi="http://sodipodi.sourceforge.net/DTD/sodipodi-0.dtd"
   xmlns:inkscape="http://www.inkscape.org/namespaces/inkscape"
   width="850"
   height="350"
   id="svg2"
   version="1.1"
   inkscape:version="0.48.0 r9654"
   sodipodi:docname="concrete-slump.svg"
   inkscape:export-filename="concrete-slump.png"
   inkscape:export-xdpi="300"
   inkscape:export-ydpi="300">
  <defs
     id="defs4">
    <marker
       inkscape:stockid="Arrow2Mend"
       orient="auto"
       refY="0"
       refX="0"
       id="Arrow2Mend"
       style="overflow:visible">
      <path
         id="path6429"
         style="font-size:12px;fill-rule:evenodd;stroke-width:0.625;stroke-linejoin:round"
         d="M 8.7185878,4.0337352 -2.2072895,0.01601326 8.7185884,-4.0017078 c -1.7454984,2.3720609 -1.7354408,5.6174519 -6e-7,8.035443 z"
         transform="scale(-0.6,-0.6)"
         inkscape:connector-curvature="0" />
    </marker>
    <marker
       inkscape:stockid="Arrow2Mstart"
       orient="auto"
       refY="0"
       refX="0"
       id="Arrow2Mstart"
       style="overflow:visible">
      <path
         id="path6426"
         style="font-size:12px;fill-rule:evenodd;stroke-width:0.625;stroke-linejoin:round"
         d="M 8.7185878,4.0337352 -2.2072895,0.01601326 8.7185884,-4.0017078 c -1.7454984,2.3720609 -1.7354408,5.6174519 -6e-7,8.035443 z"
         transform="scale(0.6,0.6)"
         inkscape:connector-curvature="0" />
    </marker>
  </defs>
  <sodipodi:namedview
     id="base"
     pagecolor="#ffffff"
     bordercolor="#666666"
     borderopacity="1.0"
     inkscape:pageopacity="0.0"
     inkscape:pageshadow="2"
     inkscape:zoom="1.2447059"
     inkscape:cx="425"
     inkscape:cy="200"
     inkscape:document-units="px"
     inkscape:current-layer="layer1"
     showgrid="false"
     inkscape:window-width="1440"
     inkscape:window-height="784"
     inkscape:window-x="0"
     inkscape:window-y="0"
     inkscape:window-maximized="0"
     showguides="true"
     inkscape:guide-bbox="true"
     inkscape:snap-to-guides="false"
     fit-margin-top="0"
     fit-margin-left="0"
     fit-margin-right="0"
     fit-margin-bottom="0" />
  <metadata
     id="metadata7">
    <rdf:RDF>
      <cc:Work
         rdf:about="">
        <dc:format>image/svg+xml</dc:format>
        <dc:type
           rdf:resource="http://purl.org/dc/dcmitype/StillImage" />
        <dc:title></dc:title>
      </cc:Work>
    </rdf:RDF>
  </metadata>
  <g
     inkscape:label="Layer 1"
     inkscape:groupmode="layer"
     id="layer1"
     transform="translate(-78.925174,-294.55421)">
    <path
       style="fill:none;stroke:#000000;stroke-width:2;stroke-miterlimit:4;stroke-opacity:1;stroke-dasharray:4, 4;stroke-dashoffset:0"
       d="m 159.23071,347.90659 85.81274,0 16,247.81273 -117.81274,0 z"
       id="rect2985"
       inkscape:connector-curvature="0"
       sodipodi:nodetypes="ccccc" />
    <path
       style="fill:none;stroke:#000000;stroke-width:2;stroke-linecap:butt;stroke-linejoin:miter;stroke-miterlimit:4;stroke-opacity:1;stroke-dasharray:none"
       d="m 110,595.76341 182.85714,0 c -3.90814,-4.71425 -3.57143,-6.33892 -3.57143,-2.58484 0,0.2872 0,-0.57441 0,-0.86162 0,-0.2872 0,-0.57441 0,-0.86161 0,-0.28721 0.10648,-0.60474 0,-0.86162 -0.15058,-0.36329 -0.5637,-0.49834 -0.71428,-0.86163 -0.0532,-0.12827 0.0513,-1.53772 0,-1.72323 -0.16836,-0.60924 -0.54593,-1.11397 -0.71429,-1.72323 -0.15058,-0.54493 0.1155,-1.16597 0,-1.72323 -0.18261,-0.8811 -0.71428,-1.67662 -0.71428,-2.58485 0,-0.64221 0.71428,1.08103 0.71428,1.72323 0,0.40617 -0.5637,-0.49832 -0.71428,-0.86161 -0.10648,-0.25689 0.10648,-0.60474 0,-0.86162 -0.15059,-0.36329 -0.5637,-0.49832 -0.71429,-0.86161 -1.051,-2.53558 1.6547,1.13438 -0.71428,-1.72323 -1.05101,-2.53558 1.6547,1.13438 -0.71429,-1.72325 -0.10648,-0.25687 0.16836,-0.65852 0,-0.86161 -0.16836,-0.20308 -0.54593,0.20309 -0.71429,0 -0.16835,-0.20308 0.10648,-0.60473 0,-0.86162 -0.78966,-1.90507 -0.44331,-0.26737 -1.42857,-0.86161 -2.97268,-1.79293 0.7636,0.0595 -0.71428,-1.72323 -0.16836,-0.20309 -0.54593,0.20309 -0.71429,0 -0.16836,-0.20309 0.16836,-0.65854 0,-0.86162 -0.16836,-0.20309 -0.54593,0.20308 -0.71428,0 -0.16836,-0.20309 0.13207,-0.62265 0,-0.86162 -0.37356,-0.67591 -0.95238,-1.14882 -1.42858,-1.72323 -0.47619,-0.57442 -0.95238,-1.14883 -1.42857,-1.72324 -2.74245,-3.30811 -0.15395,0.0396 -2.85714,-4.30808 -0.20203,-0.32493 -0.52751,-0.52366 -0.71429,-0.86161 -0.29532,-0.53435 -0.41896,-1.18888 -0.71428,-1.72323 -0.18678,-0.33796 -0.5637,-0.49833 -0.71429,-0.86162 -0.10648,-0.25689 0,-0.57441 0,-0.86162 0,-0.2872 0,-0.57442 0,-0.86161 0,-0.57442 0.15059,-1.17831 0,-1.72324 -0.10648,-0.38532 -0.5637,-0.49833 -0.71428,-0.86162 -0.21296,-0.51377 0.21296,-1.20946 0,-1.72323 -0.30117,-0.72658 -1.1274,-0.99665 -1.42857,-1.72323 -0.10648,-0.25689 0.16835,-0.65854 0,-0.86162 -0.37647,-0.45411 -1.05211,-0.4075 -1.42858,-0.86161 -1.47788,-1.78271 2.2584,0.0697 -0.71428,-1.72323 -0.21296,-0.12845 -0.47619,0 -0.71429,0 -0.47619,0 -0.95238,0 -1.42857,0 -0.23809,0 -0.54593,0.20308 -0.71428,0 -0.16836,-0.20309 0.16835,-0.65854 0,-0.86162 -0.16836,-0.20309 -0.54593,0.20308 -0.71429,0 -0.95238,-1.14883 1.51523,-0.82678 -0.71429,-1.72324 -0.45175,-0.18165 -1.00265,0.25689 -1.42857,0 -0.21296,-0.12844 0.10648,-0.60473 0,-0.86162 -0.15058,-0.36329 -0.5637,-0.49832 -0.71428,-0.86161 -0.33672,-0.81234 0.8594,-2.15095 -0.71429,-2.58485 -0.23809,-0.57441 -0.47619,-1.14882 -0.71428,-1.72323 -0.47619,-1.14882 -1.00913,-2.2659 -1.42858,-3.44646 -0.29659,-0.8348 -0.34073,-1.7963 -0.71428,-2.58486 -0.59064,-1.24682 -1.53036,-2.21508 -2.14286,-3.44646 -0.1225,-0.24628 0.10648,-0.60474 0,-0.86162 -0.15058,-0.36329 -0.5637,-0.49833 -0.71428,-0.86162 -0.10648,-0.25688 0.16835,-0.65853 0,-0.86161 -0.16836,-0.20309 -0.47619,0 -0.71429,0 -0.47619,0 -1.00265,0.25688 -1.42857,0 -0.21296,-0.12845 0.16836,-0.65854 0,-0.86163 -0.16629,-0.20058 -1.13061,0.17973 -1.42857,0 -0.30117,-0.18163 -0.41312,-0.67997 -0.71429,-0.86161 -0.21296,-0.12844 -0.50133,0.12845 -0.71428,0 -0.20506,-0.12367 -1.26906,-1.65909 -1.42858,-1.72323 -0.45175,-0.18165 -0.95238,0 -1.42857,0 0,-0.28721 0.16836,-0.65853 0,-0.86162 -0.16836,-0.20308 -0.48841,0.0908 -0.71428,0 -0.50508,-0.20308 -1.05211,-0.4075 -1.42857,-0.86162 -0.95239,-1.14882 1.19047,-0.86161 -0.71429,-0.86161 -0.16836,-0.20309 0.21296,-0.73318 0,-0.86162 -0.42592,-0.25689 -1.00265,0.25688 -1.42857,0 -0.21296,-0.12844 0,-0.57441 0,-0.86161 0,-2.30451 0,-1.14197 0,-3.44648 0,-0.57441 0.15058,-1.17829 0,-1.72323 -0.88265,-3.1941 -0.71429,1.05027 -0.71429,-1.72323 0,-0.2872 0.21296,-0.73317 0,-0.86161 -0.42591,-0.25688 -1.00265,0.25689 -1.42857,0 -0.21296,-0.12844 0,-0.57441 0,-0.86162 0,-0.2872 0.10648,-0.60474 0,-0.86162 -0.15058,-0.36328 -0.5637,-0.49832 -0.71428,-0.86161 -0.10648,-0.25689 0,-0.57441 0,-0.86162 0,-0.2872 0,-0.57441 0,-0.86161 0,-0.28721 0.16835,-0.65854 0,-0.86162 -0.16836,-0.20309 -0.54593,0.20308 -0.71429,0 -0.16836,-0.20309 0.16836,-0.65853 0,-0.86161 -0.16836,-0.20309 0.49827,0.64964 -0.71429,0 -0.41974,-0.22488 -0.95238,0 -1.42857,0 -0.23809,0 -0.6078,-0.25689 -0.71428,0 -0.21296,0.51376 0.21296,1.20946 0,1.72323 -0.10648,0.25688 -0.54593,-0.20309 -0.71429,0 -0.16836,0.20308 0.16836,0.65852 0,0.86161 -0.16836,0.20308 -0.50133,-0.12845 -0.71428,0 -0.30117,0.18165 -0.47619,0.57441 -0.71429,0.86162 -0.2381,0.2872 -0.47619,0.57441 -0.71429,0.86161 -0.23809,0.28721 -0.41311,0.67998 -0.71428,0.86162 -0.21296,0.12844 -0.47619,0 -0.71429,0 -0.23809,0 -0.47619,0 -0.71428,0 -1.19048,0 -2.38096,0 -3.57143,0 -1.19048,0 -2.38095,0 -3.57143,0 -0.47619,0 -1.00265,0.25689 -1.42857,0 -0.21296,-0.12844 0.16836,-0.65854 0,-0.86162 -0.16836,-0.20308 -0.47619,0 -0.71429,0 -0.23809,0 -0.47619,0 -0.71428,0 -1.42857,0 -2.85715,0 -4.28572,0 -0.23809,0 -0.54592,-0.20308 -0.71428,0 -0.16836,0.20308 0.16836,0.65853 0,0.86162 -0.16836,0.20309 -0.50133,-0.12844 -0.71429,0 -0.30117,0.18165 -0.39485,0.73318 -0.71428,0.86162 -0.45176,0.18164 -0.95239,0 -1.42858,0 -0.23809,0 -0.47619,0 -0.71428,0 -1.66667,0 -3.33333,0 -5,0 -0.2381,0 -0.47619,0 -0.71429,0 -0.23809,0 -0.54592,0.20309 -0.71428,0 -0.16836,-0.20308 0.21296,-0.73318 0,-0.86162 -0.42592,-0.25689 -1.00266,0.25689 -1.42857,0 -0.21296,-0.12844 0,-0.57441 0,-0.86162 0,-0.57441 0.21295,-1.20946 0,-1.72323 -0.10648,-0.25689 -0.54593,0.20308 -0.71429,0 -0.16836,-0.20309 0.16836,-0.65853 0,-0.86161 -0.16836,-0.20309 -0.50133,0.12844 -0.71429,0 -0.30116,-0.18165 -0.41311,-0.67997 -0.71428,-0.86162 -0.21296,-0.12845 -0.50133,0.12844 -0.71429,0 -0.30117,-0.18164 -0.41311,-0.67997 -0.71428,-0.86161 -0.21296,-0.12845 -0.47619,0 -0.71429,0 -0.23809,0 -0.47619,0 -0.71428,0 -0.71429,0 -1.42858,0 -2.14286,0 -0.71429,0 -1.42857,0 -2.14286,0 -0.23809,0 -0.47619,0 -0.71428,0 -0.2381,0 -0.50133,-0.12845 -0.71429,0 -0.30117,0.18164 -0.41312,0.67997 -0.71429,0.86161 -0.21295,0.12844 -0.47619,0 -0.71428,0 -0.47619,0 -0.95238,0 -1.42857,0 -1.66667,0 -3.33334,0 -5,0 -0.2381,0 -0.47619,0 -0.71429,0 -0.23809,0 -0.54593,-0.20309 -0.71428,0 -0.16836,0.20308 0.16835,0.65853 0,0.86162 -0.16836,0.20308 -0.47619,0 -0.71429,0 -0.2381,0 -0.47619,0 -0.71429,0 -1.90476,0 -3.80952,0 -5.71428,0 -1.90476,0 -3.80953,0 -5.71429,0 -0.71428,0 -1.42857,0 -2.14285,0 -0.2381,0 -0.50133,-0.12845 -0.71429,0 -0.30117,0.18164 -0.41312,0.67997 -0.71429,0.86161 -0.21295,0.12844 -0.47619,0 -0.71428,0 -0.2381,0 -0.47619,0 -0.71429,0 -0.23809,0 -0.54592,-0.20309 -0.71428,0 -0.16836,0.20308 0.16836,0.65853 0,0.86162 -0.326,0.39324 -1.24464,-0.44376 -1.42857,0 -0.21296,0.51377 0.21295,1.20946 0,1.72323 -0.18394,0.44376 -1.10257,-0.39324 -1.42858,0 -0.16835,0.20309 0.16836,0.65854 0,0.86162 -0.16835,0.20309 -0.54592,-0.20308 -0.71428,0 -0.16836,0.20309 0.16836,0.65853 0,0.86161 -0.16836,0.20309 -0.54593,-0.20308 -0.71429,0 -0.16836,0.20309 0.16836,0.65854 0,0.86162 -0.16836,0.20309 -0.54592,-0.20308 -0.71428,0 -0.16836,0.20309 0,0.57441 0,0.86161 0,0.57441 0,1.14882 0,1.72323 0,0.57443 0.21296,1.20948 0,1.72325 -0.10648,0.25688 -0.54593,-0.20309 -0.71429,0 -0.326,0.39324 0.36788,1.50135 0,1.72323 -0.42592,0.25688 -1.00265,-0.25689 -1.42857,0 -0.38114,0.22988 0.38114,1.49335 0,1.72323 -0.42592,0.25689 -1.00265,-0.25689 -1.42857,0 -0.36788,0.22188 0.326,1.32999 0,1.72323 -0.16836,0.20309 -0.54593,-0.20308 -0.71429,0 -0.16836,0.20309 0.16836,0.65854 0,0.86162 -0.16836,0.20309 -0.54592,-0.20308 -0.71428,0 -0.16836,0.20309 0.16836,0.65853 0,0.86161 -0.16836,0.20309 -0.54593,-0.20308 -0.71429,0 -0.16836,0.20309 0.16836,0.65854 0,0.86162 -0.16836,0.20309 -0.54593,-0.20308 -0.71428,0 -0.43756,0.52781 -0.60809,2.25495 -1.42858,2.58485 -0.45175,0.18165 -1.09185,-0.40616 -1.42857,0 -0.33671,0.40617 0.33672,1.31707 0,1.72324 -0.33671,0.40616 -1.00265,-0.25689 -1.42857,0 -0.21296,0.12844 0,0.57441 0,0.86161 0,0.28721 0,0.57441 0,0.86162 0,0.2872 0.10648,0.60472 0,0.86161 -0.2388,0.57614 -1.18976,1.14711 -1.42857,1.72323 -0.10648,0.25689 0.10648,0.60474 0,0.86162 -0.28657,0.69135 -1.142,1.03189 -1.42857,1.72323 -0.10648,0.25689 0.10648,0.60474 0,0.86163 -0.30117,0.72658 -1.1274,0.99665 -1.42857,1.72323 -0.10648,0.25688 0,0.57441 0,0.86161 0,0.28721 0.21296,0.73318 0,0.86162 -0.42592,0.25689 -1.00266,-0.25689 -1.42857,0 -0.42592,0.25689 0.42591,1.46634 0,1.72323 -0.42592,0.25689 -1.00266,-0.25689 -1.42858,0 -0.21295,0.12844 0,0.57441 0,0.86162 0,2.29764 0.2381,-0.28721 -0.71428,0.86161 -0.47702,0.57541 0.47702,1.14783 0,1.72323 -0.16836,0.20309 -0.54593,-0.20307 -0.71429,0 -0.16836,0.20309 0,0.57443 0,0.86163 -0.23809,0 -0.54592,-0.20309 -0.71428,0 -0.16836,0.20308 0,0.57441 0,0.86162 0,0.57441 0.21296,1.20946 0,1.72323 -0.10648,0.25688 -0.54593,-0.20309 -0.71429,0 -0.326,0.39324 0.36788,1.50135 0,1.72323 -0.42592,0.25689 -1.00265,-0.25689 -1.42857,0 -0.21296,0.12844 0.10648,0.60474 0,0.86161 -0.15058,0.36329 -0.5637,0.49833 -0.71429,0.86162 -0.10648,0.25689 0.16836,0.65854 0,0.86162 -0.33671,0.40616 -1.09185,-0.40617 -1.42857,0 -0.16836,0.20309 0.16836,0.65853 0,0.86161 -0.16836,0.20309 -0.54592,-0.20308 -0.71428,0 -0.16836,0.20309 0.16836,0.65854 0,0.86162 -0.16836,0.20309 -0.54593,-0.20308 -0.71429,0 -1.47788,1.78272 2.2584,-0.0697 -0.71428,1.72324 -0.29797,0.1797 -1.26229,-0.20059 -1.42858,0 -0.16835,0.20308 0.16836,0.65853 0,0.86161 -0.37646,0.45412 -1.05211,0.40751 -1.42857,0.86162 -0.16836,0.20308 0.71429,0.28721 0.71429,0 0,-0.2872 -0.47619,0 -0.71429,0 -1.06315,0 -0.91171,-0.12845 -2.14285,0.86162 -0.28017,0.22529 -0.71429,0.45544 -0.71429,0.86161 0,0.28721 0.71429,0.28721 0.71429,0 0,-0.2872 -0.54593,-0.20309 -0.71429,0 -0.16836,0.20308 0.16836,0.65853 0,0.86162 -0.16836,0.20309 -0.54593,-0.20309 -0.71429,0 -0.16835,0.20309 0.16836,0.65852 0,0.86161 -0.16835,0.20309 -0.54592,-0.20309 -0.71428,0 -0.87963,1.06106 2.17986,1.72323 -1.42857,1.72323 -1.48635,0 2.38941,-2.02063 0.71428,0 -0.33672,0.40617 -1.09185,-0.40616 -1.42857,0 -0.16836,0.20309 0.16836,0.65854 0,0.86162 -0.16836,0.20309 -0.54593,-0.20308 -0.71428,0 -0.16836,0.20309 0.16835,0.65854 0,0.86162 -0.16836,0.20309 -0.50133,-0.12844 -0.71429,0 -0.60234,0.36329 -0.82623,1.35995 -1.42857,1.72324 -0.21296,0.12844 -0.54593,-0.20309 -0.71429,0 -0.16836,0.20308 0.16836,0.65852 0,0.86161 -0.16836,0.20308 -0.50132,-0.12845 -0.71428,0 -0.30117,0.18165 -0.41312,0.67997 -0.71429,0.86162 -0.21296,0.12844 -0.60781,-0.25689 -0.71428,0 -0.21296,0.51377 0.21295,1.20946 0,1.72323 -0.18394,0.44376 -1.10257,-0.39324 -1.42858,0 -0.16835,0.20308 0.16836,0.65853 0,0.86162 -0.16835,0.20309 -0.50132,-0.12844 -0.71428,0 -0.30117,0.18164 -0.41312,0.67997 -0.71429,0.86161 -0.21296,0.12844 -0.47619,0 -0.71428,0 -0.47619,0 -0.95238,0 -1.42857,0 -0.4762,0 -1.00266,-0.25689 -1.42858,0 -0.21295,0.12844 0.16836,0.65854 0,0.86162 -0.16835,0.20309 -0.47619,0 -0.71428,0 -0.2381,0 -0.47619,0 -0.71429,0 -0.23809,0 -0.54592,-0.20308 -0.71428,0 -0.16836,0.20309 0,0.57441 0,0.86161 0,0.57441 0.21296,1.20947 0,1.72323 -0.10648,0.25689 -0.54593,-0.20307 -0.71429,0 -0.16836,0.20309 0,0.57443 0,0.86162 0,0.86163 0,1.72324 0,2.58486 0,0.2872 0.10648,0.60472 0,0.86161 -0.15058,0.36329 -0.5637,0.49833 -0.71428,0.86162 -0.10648,0.25688 0,0.57441 0,0.86161 0,0.86162 0,1.72324 0,2.58485 0,0.57441 0.21295,1.20947 0,1.72323 -0.10648,0.25689 -0.54593,-0.20308 -0.71429,0 -0.16836,0.20309 0,0.57441 0,0.86162 0,2.29765 0,4.59529 0,6.89293 z"
       id="path6357"
       inkscape:connector-curvature="0"
       sodipodi:nodetypes="ccssscccscssssccccssssscsscsssscssscsscscsssscccsccscssccsscccsccccccccssscsscssssssccsscscccccssssscssssssccsssscccssccccscsssssccssssccsssssccsscscccccccccssssssssscccccccccscssccscssscsssssccccssssccccscccccsccsscsscssscssccccssccccssssssssccsscsccssssssccsc" />
    <path
       style="fill:none;stroke:#000000;stroke-width:2;stroke-linecap:butt;stroke-linejoin:miter;stroke-miterlimit:4;stroke-opacity:1;stroke-dasharray:none"
       d="m 287.11763,347.36691 48.23293,0"
       id="path6387"
       inkscape:connector-curvature="0" />
    <path
       inkscape:connector-curvature="0"
       id="path6389"
       d="m 287.11763,505.36691 48.23293,0"
       style="fill:none;stroke:#000000;stroke-width:2;stroke-linecap:butt;stroke-linejoin:miter;stroke-miterlimit:4;stroke-opacity:1;stroke-dasharray:none" />
    <path
       style="fill:none;stroke:#000000;stroke-width:2;stroke-linecap:butt;stroke-linejoin:miter;stroke-miterlimit:4;stroke-opacity:1;stroke-dasharray:none;marker-start:url(#Arrow2Mstart);marker-end:url(#Arrow2Mend)"
       d="m 311.2341,502.16327 0,-151.67105"
       id="path6391"
       inkscape:connector-curvature="0" />
    <g
       id="g7035"
       transform="translate(93.28216,-203.99885)">
      <rect
         ry="0.046336461"
         y="610.20013"
         x="186.4028"
         height="31.497499"
         width="63.098267"
         id="rect7033"
         style="fill:#ffffff;stroke:#ffffff;stroke-width:2.13633966;stroke-miterlimit:4;stroke-opacity:1;stroke-dasharray:none;stroke-dashoffset:0" />
      <text
         sodipodi:linespacing="125%"
         id="text7029"
         y="631.11981"
         x="191.33084"
         style="font-size:18px;font-style:normal;font-variant:normal;font-weight:normal;font-stretch:normal;line-height:125%;letter-spacing:0px;word-spacing:0px;fill:#000000;fill-opacity:1;stroke:none;font-family:Times New Roman;-inkscape-font-specification:Times New Roman"
         xml:space="preserve"><tspan
           style="font-size:20px;font-style:normal;font-variant:normal;font-weight:normal;font-stretch:normal;text-align:start;line-height:125%;writing-mode:lr-tb;text-anchor:start;font-family:Arial;-inkscape-font-specification:Arial"
           y="631.11981"
           x="191.33084"
           id="tspan7031"
           sodipodi:role="line">slump</tspan></text>
    </g>
    <text
       sodipodi:linespacing="125%"
       id="text7044"
       y="635.34521"
       x="154.56303"
       style="font-size:24px;font-style:normal;font-variant:normal;font-weight:normal;font-stretch:normal;text-align:start;line-height:125%;letter-spacing:0px;word-spacing:0px;writing-mode:lr-tb;text-anchor:start;fill:#000000;fill-opacity:1;stroke:none;font-family:Arial;-inkscape-font-specification:Arial"
       xml:space="preserve"><tspan
         style="font-size:24px;font-style:normal;font-variant:normal;font-weight:normal;font-stretch:normal;text-align:start;line-height:125%;writing-mode:lr-tb;text-anchor:start;font-family:Arial;-inkscape-font-specification:Arial"
         y="635.34521"
         x="154.56303"
         id="tspan7046"
         sodipodi:role="line">Collapse</tspan></text>
    <path
       sodipodi:nodetypes="ccccc"
       inkscape:connector-curvature="0"
       id="path7066"
       d="m 439.23071,347.90659 85.81274,0 16,247.81273 -117.81274,0 z"
       style="fill:none;stroke:#000000;stroke-width:2;stroke-miterlimit:4;stroke-opacity:1;stroke-dasharray:4, 4;stroke-dashoffset:0" />
    <path
       sodipodi:nodetypes="cccssccssccccscsssscccscssscccscscscsssssccsssssssssssssssssscssccscccsscccccccsccccccsscssssssscsssccsssscsssscssssscsscccsssccssscsssssccccccccccsccsssssccsscsccsssssssssssssssscssssssssccssccccccccccsssssssccssssssscssscsscccccsscssssccccsccscsccssssscsssssssccssssssssccssscsssscssscccsssccssssssc"
       inkscape:connector-curvature="0"
       id="path7068"
       d="m 421.95048,595.76341 150.90666,0 c -0.49902,-1.00838 -0.8886,-2.10924 -1.49707,-3.02514 -0.10714,-0.16129 -0.34175,0 -0.51263,0 -0.34176,0 -0.68351,0 -1.02527,0 -0.17089,0 -0.43623,0.1852 -0.51264,0 -0.15284,-0.37039 0.15283,-0.87195 0,-1.24235 -0.0764,-0.18519 -0.34176,0 -0.51264,0 -0.17088,0 -0.34176,0 -0.51263,0 -0.17088,0 -0.3598,0.0926 -0.51264,0 -0.21615,-0.13095 -0.29649,-0.49022 -0.51264,-0.62117 -0.15284,-0.0926 -0.3598,0.0926 -0.51264,0 -0.21615,-0.13096 -0.29649,-0.49022 -0.51263,-0.62117 -0.15284,-0.0926 -0.34176,0 -0.51265,0 -0.17088,0 -0.43621,0.18519 -0.51263,0 -0.15284,-0.3704 0,-0.82824 0,-1.24235 0,-0.20706 -0.17088,0.62117 0,0.62117 0.17088,0 0,-0.41412 0,-0.62117 0,-0.41412 0.15284,-0.87196 0,-1.24235 -0.0764,-0.1852 -0.3918,0.14641 -0.51264,0 -0.85439,-1.03529 1.87967,-0.62118 -1.02528,-0.62118 -0.15283,-0.0926 0.0764,-0.43597 0,-0.62117 -0.10806,-0.26191 -0.34175,-0.41412 -0.51263,-0.62118 -0.17088,-0.20706 -0.31931,-0.44548 -0.51264,-0.62117 -0.49289,-0.44794 -1.10225,-0.71445 -1.53791,-1.24235 -0.27018,-0.32739 0.8544,1.03529 1.02528,0.62117 0.17088,-0.41411 -0.75509,-0.29378 -1.02528,-0.62117 -0.11934,-0.14461 0.10692,-0.98323 0,-1.24235 -0.10807,-0.26191 -0.40456,-0.35926 -0.51263,-0.62118 -0.0764,-0.18519 0.12083,-0.47476 0,-0.62117 -0.12084,-0.14641 -0.39182,0.14641 -0.51264,0 -0.12083,-0.14641 0.12082,-0.47476 0,-0.62117 -0.12083,-0.14642 -0.39181,0.14641 -0.51264,0 -0.12083,-0.14642 0.12083,-0.47477 0,-0.62118 -0.12083,-0.14641 -0.39181,0.14641 -0.51264,0 -0.12083,-0.14641 0.12083,-0.47476 0,-0.62117 -0.12083,-0.14642 -0.34175,0 -0.51263,0 -1.02528,0 -2.05055,0 -3.07583,0 -0.17088,0 -0.3918,0.14641 -0.51263,0 -0.12084,-0.14642 0,-0.41412 0,-0.62118 0,-0.20706 0,-0.41411 0,-0.62117 0,-0.20706 0.0764,-0.43598 0,-0.62118 -0.10808,-0.26191 -0.40457,-0.35926 -0.51264,-0.62117 -0.0764,-0.1852 0,-0.41412 0,-0.62118 0,-0.20706 0,-0.41411 0,-0.62117 0,-0.20706 0,-0.41412 0,-0.62118 0,-0.20705 0.15284,-0.52857 0,-0.62117 -0.30568,-0.1852 -0.7196,0.1852 -1.02528,0 -0.15284,-0.0926 0,-0.41412 0,-0.62118 0,-0.20705 0,-0.41411 0,-0.62117 0,-0.20706 0,-0.41412 0,-0.62117 0,-0.20706 0.0764,-0.43598 0,-0.62118 -0.63347,-1.53517 -0.51263,0.21442 -0.51263,-1.24235 0,-0.41412 0,-0.82823 0,-1.24235 0,-0.20706 0.15284,-0.52857 0,-0.62117 -0.30568,-0.1852 -0.71961,0.1852 -1.02528,0 -0.15284,-0.0926 0,-0.41412 0,-0.62118 0,-0.62117 0,-1.24235 0,-1.86352 0,-2.89882 0,-5.79763 0,-8.69645 0,-0.62117 0,-1.24235 0,-1.86352 0,-0.41412 0.15284,-0.87195 0,-1.24235 -0.0764,-0.1852 -0.3918,0.14641 -0.51264,0 -0.12083,-0.14641 0,-0.41412 0,-0.62117 0,-0.20706 0,-0.41412 0,-0.62118 0,-0.20706 0.0764,-0.43597 0,-0.62117 -0.10807,-0.26191 -0.40456,-0.35927 -0.51263,-0.62118 -0.0764,-0.1852 0.12083,-0.47476 0,-0.62117 -0.12083,-0.14641 -0.39181,0.14641 -0.51264,0 -0.11935,-0.14462 0.10693,-0.98323 0,-1.24235 -0.10807,-0.26191 -0.40457,-0.35927 -0.51264,-0.62118 -0.0764,-0.1852 0,-0.41411 0,-0.62117 0,-0.41412 0,-0.82823 0,-1.24235 0,-0.20706 0.0764,-0.43598 0,-0.62118 -0.10808,-0.26191 -0.40456,-0.35926 -0.51264,-0.62117 -0.15283,-0.3704 0.15284,-0.87195 0,-1.24235 -0.10807,-0.26191 -0.40456,-0.35926 -0.51263,-0.62117 -0.0764,-0.1852 0.0764,-0.43598 0,-0.62118 -0.10808,-0.26191 -0.40457,-0.35926 -0.51264,-0.62117 -0.15284,-0.3704 0.15284,-0.87196 0,-1.24235 -0.10807,-0.26191 -0.40456,-0.35927 -0.51264,-0.62118 -0.15284,-0.37039 0.15284,-0.87195 0,-1.24235 -0.10807,-0.26191 -0.40456,-0.35926 -0.51263,-0.62117 -0.0764,-0.1852 0.0764,-0.43598 0,-0.62118 -0.10808,-0.26191 -0.40457,-0.35926 -0.51264,-0.62117 -0.0381,-0.0925 0.0368,-1.10861 0,-1.24235 -0.12083,-0.43924 -0.34176,-0.82823 -0.51264,-1.24235 -0.17088,0 -0.39181,0.14641 -0.51264,0 -0.24165,-0.29282 0.24167,-0.94952 0,-1.24235 -0.12083,-0.14641 -0.3918,0.14641 -0.51263,0 -0.12084,-0.14641 0.15284,-0.52857 0,-0.62117 -0.30568,-0.1852 -0.71961,0.1852 -1.02528,0 -0.15284,-0.0926 0,-0.41412 0,-0.62118 0,-0.20706 0.0764,-0.43597 0,-0.62117 -1.06673,-2.58518 0.0354,0.66406 -1.02527,-0.62118 -0.12083,-0.14641 0.12083,-0.47476 0,-0.62117 -0.12083,-0.14641 -0.34176,0 -0.51264,0 -0.34176,0 -0.7196,0.1852 -1.02528,0 -0.15283,-0.0926 0.12084,-0.47476 0,-0.62118 -0.12083,-0.14641 -0.34175,0 -0.51263,0 -0.51264,0 -1.02528,0 -1.53791,0 -0.17088,0 -0.39182,0.14642 -0.51264,0 -0.12083,-0.14641 0.12082,-0.47476 0,-0.62117 -0.23397,-0.28351 -0.89327,0.31992 -1.02528,0 -0.15284,-0.3704 0.15284,-0.87195 0,-1.24235 -0.0764,-0.1852 -0.35979,0.0926 -0.51263,0 -0.43229,-0.26191 -0.59298,-0.98044 -1.02528,-1.24235 -0.15284,-0.0926 -0.3598,0.0926 -0.51264,0 -0.21615,-0.13095 -0.28337,-0.52857 -0.51263,-0.62117 -0.32423,-0.13096 -0.68352,0 -1.02528,0 -0.34176,0 -0.68351,0 -1.02527,0 -0.17088,0 -0.3598,0.0926 -0.51264,0 -0.21614,-0.13096 -0.29649,-0.49022 -0.51264,-0.62118 -0.15284,-0.0926 -0.34176,0 -0.51263,0 -0.34176,0 -0.68352,0 -1.02528,0 -0.17088,0 -0.43622,0.1852 -0.51264,0 -0.15284,-0.3704 0.15284,-0.87195 0,-1.24235 -0.13201,-0.31992 -0.7913,0.28351 -1.02527,0 -1.06067,-1.28523 1.62084,0.0502 -0.51264,-1.24235 -0.15284,-0.0926 -0.43622,0.1852 -0.51264,0 -0.48904,-1.18517 0.58747,-1.19701 -0.51263,-1.86352 -0.81524,-0.49392 -0.53757,1.19703 -1.53791,-0.62118 -0.18958,-0.34456 0,-0.82823 0,-1.24234 -0.17088,0 -0.39181,0.14641 -0.51264,0 -0.12083,-0.14642 0.12083,-0.47477 0,-0.62118 -0.12083,-0.14641 -0.34176,0 -0.51264,0 -0.17088,0 -0.34176,0 -0.51264,0 -0.17088,0 -0.35979,0.0926 -0.51263,0 -0.21615,-0.13095 -0.2965,-0.49022 -0.51264,-0.62117 -0.15284,-0.0926 -0.34176,0 -0.51264,0 -0.51264,0 -1.02527,0 -1.53791,0 -0.17087,0 -0.34176,0 -0.51264,0 -0.17088,0 -0.43622,0.18519 -0.51264,0 -0.15283,-0.3704 0.15284,-0.87196 0,-1.24235 -0.0764,-0.1852 -0.43621,0.1852 -0.51263,0 -0.15284,-0.3704 0.15284,-0.87196 0,-1.24235 -0.0764,-0.1852 -0.34176,0 -0.51264,0 -0.17088,0 -0.3598,0.0926 -0.51264,0 -1.1001,-0.66651 -0.0236,-0.67835 -0.51263,-1.86353 -0.13201,-0.31992 -0.79131,0.28351 -1.02527,0 -0.12084,-0.14641 0.12082,-0.47476 0,-0.62117 -0.11936,-0.14461 -0.81144,0.12956 -1.02528,0 -0.21615,-0.13096 -0.2965,-0.49022 -0.51264,-0.62118 -0.15284,-0.0926 -0.35053,0.0655 -0.51264,0 -0.36249,-0.14641 -0.66278,-0.47476 -1.02527,-0.62117 -0.16211,-0.0655 -0.3598,0.0926 -0.51264,0 -0.21615,-0.13096 -0.29649,-0.49022 -0.51264,-0.62118 -0.51264,-0.31058 -1.02527,0.62118 -1.5379,0 -0.24167,-0.29282 0.15283,-0.87195 0,-1.24234 -0.0764,-0.1852 -0.35981,0.0926 -0.51265,0 -0.21614,-0.13096 -0.29648,-0.49022 -0.51263,-0.62118 -0.15284,-0.0926 -0.34176,0 -0.51264,0 -0.17088,0 -0.34176,0 -0.51263,0 -0.17089,0 -0.43623,0.1852 -0.51265,0 -0.15284,-0.3704 0.15284,-0.87195 0,-1.24235 -0.0764,-0.1852 -0.34175,0 -0.51263,0 -0.17088,0 -0.3598,0.0926 -0.51264,0 -0.21615,-0.13095 -0.29649,-0.49022 -0.51263,-0.62117 -0.15284,-0.0926 -0.34177,0 -0.51265,0 -0.34175,0 -0.68351,0 -1.02527,0 -0.17087,0 -0.39181,0.14641 -0.51264,0 -0.12082,-0.14642 0.12083,-0.47477 0,-0.62118 -0.11934,-0.14461 -0.81143,0.12956 -1.02527,0 -0.21615,-0.13095 -0.29649,-0.49022 -0.51263,-0.62117 -0.30568,-0.1852 -0.71961,0.1852 -1.02528,0 -1.56332,-0.94716 2.35362,-2.42278 -0.12187,-3.17268 -0.33156,-0.10044 -0.68352,0 -1.02528,0 -0.0911,0 -0.65295,0 -1.02528,0 -0.17087,0 -0.3918,0.14641 -0.51263,0 -0.12083,-0.14641 0,-0.41412 0,-0.62118 0,-0.89633 0,-1.32597 0,-1.86352 0,-3.51999 -1.41604,-5.10965 -1.41604,-8.62964 0,-0.20706 0,-0.41412 0,-0.62117 0,-0.41412 0.24166,-0.94953 0,-1.24235 -0.24166,-0.29283 -0.71959,0.1852 -1.02527,0 -0.15284,-0.0926 0,-0.41412 0,-0.62118 0,-0.82823 0,-1.65646 0,-2.4847 0,-0.82823 -2.38707,-2.05431 -2.38707,-2.88254 0,-0.20706 0,-0.41412 0,-0.62118 0,-0.20706 0.0764,-0.43598 0,-0.62117 -0.10808,-0.26191 -0.40457,-0.35927 -0.51264,-0.62118 -0.0764,-0.1852 0,-0.41412 0,-0.62117 0,-0.41412 0,-0.82824 0,-1.24235 0,-1.65647 0,-3.31293 0,-4.9694 0,-0.20706 -0.17088,0.62117 0,0.62117 0.17087,0 0,-0.41411 0,-0.62117 0,-1.24235 0,-2.4847 0,-3.72705 0,-3.10587 0,-6.21174 0,-9.31762 0,-1.24235 0,-2.4847 0,-3.72705 0,-0.20705 0.0764,-0.43597 0,-0.62117 -0.10808,-0.26191 -0.40456,-0.35926 -0.51264,-0.62117 -0.0764,-0.1852 0,-0.41412 0,-0.62118 0,-0.20706 0,-0.41412 0,-0.62117 0,-0.20706 0.0764,-0.43598 0,-0.62118 -0.75184,-17.77563 -3.25954,-25.01099 -8.71483,-31.67991 -0.21615,-1.05606 -2.96387,-3.56488 -3.16494,-3.27347 -8.34463,-8.82965 -7.57288,-11.29847 -14.75955,-19.47239 -7.81388,-7.70698 -18.4224,-8.80508 -25.05005,-9.86234 -3.95052,0.19353 -3.95993,-1.46184 -6.32989,-0.53046 -2.16418,1.92044 -2.69365,15.00705 -3.49722,16.07364 -0.50326,4.81676 0.71063,4.003 -0.7244,7.74741 -0.13404,0.24364 0.65637,0.75711 0.54829,1.01902 -0.7543,1.828 1.18756,-0.81783 -0.51263,1.24235 -0.0764,0.1852 0.0764,0.43598 0,0.62117 -0.10808,0.26191 -0.43623,0.34338 -0.51265,0.62118 -0.10806,0.39286 0,0.82823 0,1.24235 0,1.13119 0.0541,0.88251 -0.51263,2.4847 -0.30103,0.85112 -0.81533,1.59433 -1.02527,2.48469 -0.14084,0.59728 0.1473,1.26855 0,1.86353 -0.6441,2.60152 -1.91911,4.85257 -2.5632,7.45409 -0.25037,1.01127 -0.27326,2.09071 -0.51263,3.10588 -0.10497,0.44518 -0.41996,0.79317 -0.51264,1.24235 -0.16577,0.8035 0.16578,1.68119 0,2.4847 -0.0927,0.44917 -0.39181,0.80311 -0.51263,1.24234 -0.2228,0.80992 -0.31909,1.66383 -0.51264,2.4847 -0.29691,1.25917 -0.72837,2.46789 -1.02527,3.72705 -0.19356,0.82088 -0.31909,1.66382 -0.51265,2.4847 -0.14844,0.62958 -0.36418,1.23394 -0.51263,1.86352 -0.19356,0.82088 -0.31908,1.66383 -0.51264,2.4847 -0.14845,0.62958 -0.40666,1.22147 -0.51263,1.86353 -0.067,0.40607 0,0.82823 0,1.24235 0,0.20705 0,0.41411 0,0.62117 0,0.41412 0.15284,0.87195 0,1.24235 -0.0764,0.1852 -0.39181,-0.14641 -0.51265,0 -0.12082,0.14641 0,0.41412 0,0.62117 0,0.41412 0.15284,0.87196 0,1.24235 -0.0764,0.1852 -0.3918,-0.14641 -0.51263,0 -0.12083,0.14642 0.0764,0.43598 0,0.62118 -0.10808,0.26191 -0.40456,0.35926 -0.51264,0.62117 -0.15283,0.3704 0.15284,0.87195 0,1.24235 -0.10807,0.26191 -0.40456,0.35927 -0.51263,0.62118 -0.0764,0.1852 0,0.41411 0,0.62117 0,0.41412 0,0.82823 0,1.24235 0,0.20706 0.15284,0.52858 0,0.62118 -0.30568,0.18519 -0.7196,-0.1852 -1.02528,0 -0.15284,0.0926 0,0.41411 0,0.62117 0,0.20706 0,0.41412 0,0.62117 0,0.20706 0.0764,0.43598 0,0.62118 -0.7543,1.828 -0.51264,-0.96424 -0.51264,1.86352 -0.22882,0.69317 -0.79645,1.17036 -1.02527,1.86353 -0.12692,0.38449 0.0562,0.83386 0,1.24235 -0.11583,0.8421 -0.39681,1.64259 -0.51264,2.48469 -0.0562,0.40849 0,0.82824 0,1.24235 0,0.41412 0.10808,0.84949 0,1.24235 -0.0764,0.2778 -0.43621,0.34338 -0.51263,0.62118 -0.10808,0.39286 0,0.82823 0,1.24235 0,0.20706 0.0541,0.42474 0,0.62117 -0.12084,0.43924 -0.41998,0.79318 -0.51264,1.24235 -0.16578,0.80351 0.16578,1.6812 0,2.4847 -0.0927,0.44917 -0.44983,0.78565 -0.51264,1.24235 -0.11237,0.81696 0.0848,1.66286 0,2.4847 -0.0874,0.84713 -0.43483,1.63619 -0.51264,2.4847 -0.0944,1.02896 0,2.07058 0,3.10587 0,0.41412 0,0.82823 0,1.24235 0,0.20706 0,0.41412 0,0.62117 0,0.20706 0.0764,0.43598 0,0.62118 -0.10807,0.26191 -0.43621,0.34337 -0.51263,0.62117 -0.10808,0.39287 0,0.82824 0,1.24235 0,0.82823 0,1.65647 0,2.4847 0,1.44941 0,2.89882 0,4.34822 0,6.83292 0,13.66585 0,20.49877 0,2.07058 0,4.14116 0,6.21174 0,0.62118 0,1.24235 0,1.86353 0,0.41411 -0.067,0.83627 0,1.24235 0.10597,0.64206 0.34175,1.24235 0.51263,1.86352 0,0.62117 -0.0843,1.2508 0,1.86352 0.0888,0.64587 0.36419,1.23395 0.51264,1.86353 0.19355,0.82087 0.34175,1.65646 0.51264,2.4847 0.17088,0.82823 0.42525,1.63756 0.51264,2.48469 0.0848,0.82184 0,1.65647 0,2.4847 0,0.82824 0,1.65647 0,2.4847 0,3.10588 0,6.21175 0,9.31762 0,0.62118 0,1.24235 0,1.86353 0,0.41411 -0.0829,0.84059 0,1.24234 0.0927,0.44918 0.3918,0.80312 0.51263,1.24235 0.0541,0.19644 0,0.41412 0,0.62118 0,0.41412 0,0.82823 0,1.24235 0,1.44941 0,2.89881 0,4.34822 0,0.20706 -0.15284,0.52858 0,0.62118 0.30568,0.18519 0.7196,-0.1852 1.02528,0 0.15284,0.0926 0,0.41411 0,0.62117 0,0.20706 0,0.41412 0,0.62117 0,0.20706 0,0.41412 0,0.62118 0,0.20706 -0.12083,0.47476 0,0.62117 0.12082,0.14642 0.3918,-0.14641 0.51263,0 0.12084,0.14642 0,0.41412 0,0.62118 0,0.41411 0,0.82823 0,1.24235 0,0.41411 -0.15283,0.87195 0,1.24235 0.0764,0.1852 0.39181,-0.14642 0.51264,0 0.23397,0.2835 -0.26402,1.08239 0,1.24235 0.30568,0.18519 0.7196,-0.1852 1.02528,0 0.15284,0.0926 0,0.41411 0,0.62117 0,0.20706 0,0.41412 0,0.62118 0,0.20705 -0.0764,0.43597 0,0.62117 0.10807,0.26191 0.40456,0.35926 0.51263,0.62117 0.0764,0.1852 0,0.41412 0,0.62118 0,0.62117 0,1.24235 0,1.86352 0,1.86353 0,3.72705 0,5.59058 0,0.20705 0,0.41411 0,0.62117 0,0.20706 -0.12083,0.47476 0,0.62117 0.68352,0.82824 0.51264,-1.03529 0.51264,0.62118 0,1.6359 -0.0191,0.41541 0.28049,3.64631 z"
       style="fill:none;stroke:#000000;stroke-width:2;stroke-linecap:butt;stroke-linejoin:miter;stroke-miterlimit:4;stroke-opacity:1;stroke-dasharray:none" />
    <path
       inkscape:connector-curvature="0"
       id="path7070"
       d="m 547.11763,347.36691 48.23293,0"
       style="fill:none;stroke:#000000;stroke-width:2;stroke-linecap:butt;stroke-linejoin:miter;stroke-miterlimit:4;stroke-opacity:1;stroke-dasharray:none" />
    <path
       style="fill:none;stroke:#000000;stroke-width:2;stroke-linecap:butt;stroke-linejoin:miter;stroke-miterlimit:4;stroke-opacity:1;stroke-dasharray:none"
       d="m 547.11763,505.36691 48.23293,0"
       id="path7072"
       inkscape:connector-curvature="0" />
    <path
       inkscape:connector-curvature="0"
       id="path7074"
       d="m 571.2341,502.16327 0,-151.67105"
       style="fill:none;stroke:#000000;stroke-width:2;stroke-linecap:butt;stroke-linejoin:miter;stroke-miterlimit:4;stroke-opacity:1;stroke-dasharray:none;marker-start:url(#Arrow2Mstart);marker-end:url(#Arrow2Mend)" />
    <g
       transform="translate(353.28216,-203.99885)"
       id="g7076">
      <rect
         style="fill:#ffffff;stroke:#ffffff;stroke-width:2.13633966;stroke-miterlimit:4;stroke-opacity:1;stroke-dasharray:none;stroke-dashoffset:0"
         id="rect7078"
         width="63.098267"
         height="31.497499"
         x="186.4028"
         y="610.20013"
         ry="0.046336461" />
      <text
         xml:space="preserve"
         style="font-size:18px;font-style:normal;font-variant:normal;font-weight:normal;font-stretch:normal;line-height:125%;letter-spacing:0px;word-spacing:0px;fill:#000000;fill-opacity:1;stroke:none;font-family:Times New Roman;-inkscape-font-specification:Times New Roman"
         x="191.33084"
         y="631.11981"
         id="text7080"
         sodipodi:linespacing="125%"><tspan
           sodipodi:role="line"
           id="tspan7082"
           x="191.33084"
           y="631.11981"
           style="font-size:20px;font-style:normal;font-variant:normal;font-weight:normal;font-stretch:normal;text-align:start;line-height:125%;writing-mode:lr-tb;text-anchor:start;font-family:Arial;-inkscape-font-specification:Arial">slump</tspan></text>
    </g>
    <text
       xml:space="preserve"
       style="font-size:24px;font-style:normal;font-variant:normal;font-weight:normal;font-stretch:normal;text-align:start;line-height:125%;letter-spacing:0px;word-spacing:0px;writing-mode:lr-tb;text-anchor:start;fill:#000000;fill-opacity:1;stroke:none;font-family:Arial;-inkscape-font-specification:Arial"
       x="461.1535"
       y="635.34521"
       id="text7084"
       sodipodi:linespacing="125%"><tspan
         sodipodi:role="line"
         id="tspan3025"
         x="461.1535"
         y="635.34521">Shear</tspan></text>
    <path
       sodipodi:nodetypes="ccccc"
       inkscape:connector-curvature="0"
       id="path7107"
       d="m 729.23071,347.90659 85.81274,0 16,247.81273 -117.81274,0 z"
       style="fill:none;stroke:#000000;stroke-width:2;stroke-miterlimit:4;stroke-opacity:1;stroke-dasharray:4, 4;stroke-dashoffset:0" />
    <path
       inkscape:connector-curvature="0"
       id="path7111"
       d="m 837.11763,347.36691 48.23293,0"
       style="fill:none;stroke:#000000;stroke-width:2;stroke-linecap:butt;stroke-linejoin:miter;stroke-miterlimit:4;stroke-opacity:1;stroke-dasharray:none" />
    <path
       style="fill:none;stroke:#000000;stroke-width:2;stroke-linecap:butt;stroke-linejoin:miter;stroke-miterlimit:4;stroke-opacity:1;stroke-dasharray:none"
       d="m 837.11763,391.36691 48.23293,0"
       id="path7113"
       inkscape:connector-curvature="0" />
    <path
       inkscape:connector-curvature="0"
       id="path7115"
       d="m 861.25331,441.38527 0,-47.52237"
       style="fill:none;stroke:#000000;stroke-width:2;stroke-linecap:butt;stroke-linejoin:miter;stroke-miterlimit:4;stroke-opacity:1;stroke-dasharray:none;marker-start:none;marker-end:url(#Arrow2Mend)" />
    <g
       transform="translate(643.28216,-255.99885)"
       id="g7117">
      <rect
         style="fill:#ffffff;stroke:#ffffff;stroke-width:2.13633966;stroke-miterlimit:4;stroke-opacity:1;stroke-dasharray:none;stroke-dashoffset:0"
         id="rect7119"
         width="63.098267"
         height="31.497499"
         x="186.4028"
         y="610.20013"
         ry="0.046336461" />
      <text
         xml:space="preserve"
         style="font-size:18px;font-style:normal;font-variant:normal;font-weight:normal;font-stretch:normal;line-height:125%;letter-spacing:0px;word-spacing:0px;fill:#000000;fill-opacity:1;stroke:none;font-family:Times New Roman;-inkscape-font-specification:Times New Roman"
         x="191.33084"
         y="631.11981"
         id="text7121"
         sodipodi:linespacing="125%"><tspan
           sodipodi:role="line"
           id="tspan7123"
           x="191.33084"
           y="631.11981"
           style="font-size:20px;font-style:normal;font-variant:normal;font-weight:normal;font-stretch:normal;text-align:start;line-height:125%;writing-mode:lr-tb;text-anchor:start;font-family:Arial;-inkscape-font-specification:Arial">slump</tspan></text>
    </g>
    <text
       xml:space="preserve"
       style="font-size:24px;font-style:normal;font-variant:normal;font-weight:normal;font-stretch:normal;text-align:start;line-height:125%;letter-spacing:0px;word-spacing:0px;writing-mode:lr-tb;text-anchor:start;fill:#000000;fill-opacity:1;stroke:none;font-family:Arial;-inkscape-font-specification:Arial"
       x="708.87549"
       y="635.34521"
       id="text7125"
       sodipodi:linespacing="125%"><tspan
         sodipodi:role="line"
         id="tspan7127"
         x="708.87549"
         y="635.34521"
         style="font-size:24px;font-style:normal;font-variant:normal;font-weight:normal;font-stretch:normal;text-align:start;line-height:125%;writing-mode:lr-tb;text-anchor:start;font-family:Arial;-inkscape-font-specification:Arial">True slump</tspan></text>
    <path
       style="fill:none;stroke:#000000;stroke-width:2;stroke-linecap:butt;stroke-linejoin:miter;stroke-miterlimit:4;stroke-opacity:1;stroke-dasharray:none"
       d="m 725.62206,391.71838 c -1.26444,0.78957 -1.52797,0.55456 -1.64548,0.67207 -0.11751,0.1175 0.11751,0.38103 0,0.49854 -0.11751,0.11751 -0.38104,-0.11751 -0.49855,0 -0.11751,0.11751 0.11751,0.38104 0,0.49855 -1.03149,1.03151 0.0403,-1.57629 -0.99709,0.49855 -0.10399,0.20797 0.11606,0.88102 0,0.99709 -0.11751,0.11751 -0.38104,-0.11751 -0.49855,0 -0.11751,0.11751 0.11751,0.38104 0,0.49854 -0.23501,0.23502 -0.76207,-0.23501 -0.99709,0 -0.11751,0.11751 0.11751,0.38104 0,0.49855 -0.11751,0.11751 -0.38104,-0.11751 -0.49855,0 -0.1175,0.11751 0.11751,0.38104 0,0.49855 -0.11606,0.11606 -0.78912,-0.10399 -0.99709,0 -0.2102,0.1051 -0.33236,0.33236 -0.49854,0.49854 -0.16619,0.16619 -0.39345,0.28834 -0.49855,0.49855 -0.61395,1.2279 1.44715,-0.45005 -0.49855,1.49564 -0.26275,0.26276 -0.73433,0.23579 -0.99709,0.49855 -0.11751,0.1175 0.0743,0.3499 0,0.49854 -0.1051,0.21021 -0.33236,0.33237 -0.49855,0.49855 -0.49854,0.49854 -0.99709,0.99709 -1.49564,1.49564 -0.33236,0.33236 -0.66472,0.66473 -0.99709,0.99709 -0.33236,0.33236 -0.71507,0.62107 -0.99709,0.99709 -0.22296,0.29728 -0.27559,0.69982 -0.49855,0.9971 -1.66182,2.21576 -0.41545,-0.41546 -2.49273,2.49273 -0.54293,0.7601 -1.7499,3.75404 -1.99419,4.48692 -0.21667,0.65002 -0.22026,1.36805 -0.49854,1.99418 -0.39355,0.88548 -1.10209,1.60725 -1.49564,2.49273 -1.97073,4.43415 -0.15127,0.75633 -0.49855,2.49274 -0.13437,0.67188 -0.3859,1.31832 -0.49854,1.99418 -0.0546,0.32784 0,0.66473 0,0.99709 0,0.83091 0.0827,1.66595 0,2.49274 -0.42287,4.22865 -0.44913,0.79941 -1.49564,4.98546 -0.12092,0.48366 0,0.99709 0,1.49564 0,0.33236 0,0.66473 0,0.99709 0,0.16618 0.0403,0.33733 0,0.49855 -0.12746,0.50982 -0.35418,0.99034 -0.49855,1.49564 -0.772,2.70199 -0.34417,1.72086 -0.99709,4.98546 -0.68267,3.41335 -0.57465,0.83713 -0.9971,5.48401 -0.0602,0.662 0,1.32946 0,1.99419 0,1.49564 0,2.99128 0,4.48691 0,4.6531 0,9.3062 0,13.9593 0,4.81929 0,9.63857 0,14.45785 0,1.16327 0,2.32655 0,3.48982 0,0.33237 -0.0652,0.67119 0,0.9971 0.10307,0.51531 0.41215,0.97727 0.49855,1.49564 0.082,0.49176 0,0.99709 0,1.49563 0,1.66183 0,3.32365 0,4.98547 0,5.15164 0,10.30329 0,15.45494 0,1.99418 0,3.98837 0,5.98255 0,0.83091 0,1.66182 0,2.49274 0,0.66472 -0.094,1.33613 0,1.99418 0.0743,0.52023 0.44625,0.97273 0.49855,1.49564 0.11575,1.1575 0,2.32655 0,3.48982 0,2.32655 0,4.6531 0,6.97965 0,2.32655 0,4.6531 0,6.97965 0,0.66473 0,1.32946 0,1.99419 0,0.49855 -0.12092,1.01198 0,1.49564 0.057,0.228 0.42424,0.27559 0.49854,0.49854 0.10511,0.31531 0,0.66473 0,0.9971 0,0.66473 0,1.32945 0,1.99418 0,0.33237 -0.1051,0.68179 0,0.9971 0.0743,0.22295 0.39345,0.28834 0.49855,0.49854 0.0743,0.14864 0,0.33237 0,0.49855 0,0.16618 0,0.33236 0,0.49855 0,0.99709 0,1.99418 0,2.99127 0,0.16619 0,0.33237 0,0.49855 0,0.33236 -0.1051,0.68178 0,0.99709 0.0743,0.22296 0.39344,0.28834 0.49855,0.49855 0.0743,0.14864 0,0.33236 0,0.49855 0,0.66472 0,1.32945 0,1.99418 0,1.54688 -0.0525,-1.3124 0.49854,1.99419 0.082,0.49176 -0.13696,1.01627 0,1.49564 0.20417,0.71459 0.76208,1.28913 0.9971,1.99418 0.26796,0.80388 0.26575,1.67797 0.49854,2.49273 0.10209,0.3573 0.38104,0.64457 0.49855,0.9971 0.0525,0.15765 0,0.33236 0,0.49854 0,0.16618 0,0.33237 0,0.49855 0,0.99709 0,1.99418 0,2.99128 0,0.16618 0,0.33236 0,0.49854 0,0.16619 -0.0922,0.36028 0,0.49855 0.26073,0.39109 0.66473,0.66473 0.99709,0.99709 0,0.16619 -0.0922,0.36028 0,0.49855 0.26073,0.39109 0.73637,0.606 0.99709,0.99709 0.0922,0.13827 -0.0525,0.34089 0,0.49855 0.11751,0.35252 0.38104,0.64457 0.49855,0.99709 0.0358,0.10734 -0.0371,0.92289 0,0.99709 0.1051,0.21021 0.42425,0.27559 0.49855,0.49855 0.1051,0.31531 0,0.66473 0,0.99709 0,0.49855 0,0.9971 0,1.49564 0,0.16618 -0.0743,0.34991 0,0.49855 0.1051,0.2102 0.39344,0.28834 0.49854,0.49855 0.26575,0.53148 -0.26574,0.4656 0,0.99709 0.10511,0.2102 0.39345,0.28834 0.49855,0.49854 0.0743,0.14864 0,0.33237 0,0.49855 0,0.33237 0,0.66473 0,0.99709 0,1.16328 0,2.32655 0,3.48983 0,0.83091 0,1.66182 0,2.49273 0,0.16618 -0.11751,0.38104 0,0.49855 0.11751,0.11751 0.38104,-0.11751 0.49855,0 0.1175,0.11751 0,0.33236 0,0.49854 0,0.49855 0,0.9971 0,1.49564 0,0.16618 -0.11751,0.38104 0,0.49855 0.1175,0.11751 0.38103,-0.11751 0.49854,0 0.11751,0.11751 0,0.33236 0,0.49855 0,0.16618 0,0.33236 0,0.49854 0,0.16618 0,0.33237 0,0.49855 0,0.16618 -0.0743,0.34991 0,0.49854 0.10511,0.21021 0.39345,0.28835 0.49855,0.49855 0.0743,0.14864 0,0.33236 0,0.49855 0,1.97135 -0.0377,1.33289 1.21765,4.45295 l 118.82945,0 c -0.13199,-0.81959 -0.42474,-1.62912 -0.39597,-2.45877 0.008,-0.23487 0.39345,-0.28834 0.49855,-0.49854 0.0743,-0.14864 0,-0.33237 0,-0.49855 0,-0.16618 0,-0.33236 0,-0.49855 0,-0.49854 0,-0.99709 0,-1.49564 0,-0.33236 0,-0.66472 0,-0.99709 0,-0.16618 -0.14864,-0.42423 0,-0.49854 0.29728,-0.14864 0.69982,0.14863 0.99709,0 0.14864,-0.0743 0,-0.33237 0,-0.49855 0,-0.66473 0,-1.32946 0,-1.99419 0,-0.49854 0,-0.99709 0,-1.49564 0,-0.16618 -0.0922,-0.36027 0,-0.49854 0.26073,-0.39109 0.73637,-0.606 0.9971,-0.9971 0.0792,-0.11873 -0.0761,-0.84481 0,-0.99709 0.1051,-0.2102 0.39344,-0.28834 0.49854,-0.49854 0.0743,-0.14864 0,-0.33237 0,-0.49855 0,-0.16618 0,-0.33237 0,-0.49855 0,-0.49854 0,-0.99709 0,-1.49564 0,-0.16618 -0.11751,-0.38103 0,-0.49854 0.11751,-0.11751 0.38104,0.11751 0.49855,0 0.11751,-0.11751 0,-0.33237 0,-0.49855 0,-0.16618 0,-0.33236 0,-0.49855 0,-0.16618 0,-0.33236 0,-0.49854 0,-0.33237 -0.23502,-0.76208 0,-0.99709 0.23502,-0.23502 0.69982,0.14863 0.99709,0 0.14864,-0.0743 0,-0.33237 0,-0.49855 0,-0.16618 0,-0.33237 0,-0.49855 0,-1.16327 0,-2.32655 0,-3.48982 0,-1.32946 0,-2.65892 0,-3.98837 0,-0.66322 0,-0.33388 0,-0.9971 0,-0.16618 0.0743,-0.3499 0,-0.49854 -0.1051,-0.21021 -0.39344,-0.28834 -0.49855,-0.49855 -0.0743,-0.14864 0,-0.33236 0,-0.49855 0,-0.33236 0,-0.66472 0,-0.99709 0,-0.49854 0.0705,-1.0021 0,-1.49564 -0.0969,-0.6783 -0.40164,-1.31588 -0.49854,-1.99418 -0.0705,-0.49354 0,-0.9971 0,-1.49564 0,-0.33237 0.0806,-0.67465 0,-0.99709 -0.0901,-0.3605 -0.38104,-0.64457 -0.49855,-0.9971 -0.0525,-0.15765 0,-0.33236 0,-0.49854 0,-0.33237 0,-0.66473 0,-0.9971 0,-0.99709 0,-1.99418 0,-2.99128 0,-10.63565 0,-21.27131 0,-31.90696 0,-3.94913 0,-4.61316 0,-8.47529 0,-1.49564 0,-2.99128 0,-4.48692 0,-0.49855 0.0618,-1.00094 0,-1.49564 -0.1051,-0.84082 -0.40497,-1.65055 -0.49854,-2.49273 -0.0734,-0.66066 0.0824,-1.33459 0,-1.99419 -0.085,-0.67989 -0.40165,-1.31588 -0.49855,-1.99418 -0.0705,-0.49354 0.0551,-1.00014 0,-1.49564 -0.11163,-1.00467 -0.37317,-1.98824 -0.49855,-2.99128 -0.0412,-0.3298 0,-0.66473 0,-0.99709 0,-0.33237 0,-0.66473 0,-0.9971 0,-2.99127 0,-5.98255 0,-8.97383 0,-0.66473 0,-1.32946 0,-1.99419 0,-0.83091 0.0918,-1.6669 0,-2.49273 -0.0757,-0.68099 -0.43037,-1.3124 -0.49854,-1.99418 -0.0992,-0.99215 0.11011,-2.00029 0,-2.99128 -0.058,-0.5223 -0.41216,-0.97728 -0.49855,-1.49564 -0.082,-0.49176 0,-0.99709 0,-1.49564 0,-0.99709 0,-1.99419 0,-2.99128 0,-0.33236 0.0652,-0.67118 0,-0.99709 -0.10306,-0.51531 -0.44051,-0.97334 -0.49855,-1.49564 -0.11011,-0.991 0.0903,-1.99828 0,-2.99128 -0.0767,-0.84389 -0.41423,-1.64957 -0.49854,-2.49273 -0.0827,-0.82679 0.10306,-1.66824 0,-2.49273 -0.0652,-0.52146 -0.39549,-0.98033 -0.49855,-1.49564 -0.0652,-0.32591 0,-0.66473 0,-0.9971 0,-0.33236 0.14864,-0.69981 0,-0.99709 -0.0743,-0.14864 -0.42423,0.14864 -0.49855,0 -0.14863,-0.29727 0,-0.66473 0,-0.99709 0,-0.33237 0,-0.66473 0,-0.99709 0,-0.33237 0.0806,-0.67466 0,-0.9971 -0.0901,-0.3605 -0.33236,-0.66473 -0.49854,-0.99709 0,-0.49855 0.082,-1.00388 0,-1.49564 -0.0864,-0.51836 -0.43337,-0.97418 -0.49855,-1.49564 0,-5.7248 0.20153,0.41359 -0.49854,-4.48692 -0.0705,-0.49353 0.0978,-1.00677 0,-1.49563 -0.0729,-0.36438 -0.40843,-0.6366 -0.49855,-0.9971 -0.0806,-0.32244 0,-0.66473 0,-0.99709 0,-0.66473 0,-1.32946 0,-1.99419 0,-1.99418 0,-3.98837 0,-5.98255 0,-0.33237 0,-0.66473 0,-0.9971 0,-0.66472 0.10928,-1.3385 0,-1.99418 -0.0611,-0.36654 -0.40842,-0.63659 -0.49855,-0.99709 -0.0119,-0.0474 0.0117,-1.9239 0,-1.99419 -1.23906,-7.4344 0.18833,2.43728 -0.99709,-3.48982 -0.0652,-0.32591 0.0652,-0.67119 0,-0.9971 -1.18542,-5.9271 0.24197,3.94458 -0.99709,-3.48982 -0.0546,-0.32784 0.0806,-0.67465 0,-0.99709 -0.18025,-0.721 -0.81685,-1.27319 -0.9971,-1.99419 -0.0806,-0.32244 0.0652,-0.67118 0,-0.99709 -0.10306,-0.51531 -0.41215,-0.97728 -0.49854,-1.49564 -0.082,-0.49176 0.15765,-1.02268 0,-1.49564 -0.18948,-0.56843 -0.80762,-0.92721 -0.9971,-1.49564 -0.15765,-0.47296 0.0978,-1.00677 0,-1.49564 -0.0729,-0.36438 -0.42567,-0.63271 -0.49854,-0.99709 -0.0978,-0.48887 0.0978,-1.00678 0,-1.49564 -0.0729,-0.36438 -0.38104,-0.64457 -0.49855,-0.99709 -0.0525,-0.15766 0.0525,-0.3409 0,-0.49855 -0.11751,-0.35253 -0.38104,-0.64457 -0.49854,-0.99709 -0.0526,-0.15766 0,-0.33237 0,-0.49855 0,-0.16618 0,-0.33236 0,-0.49855 0,-0.16618 0.1175,-0.38103 0,-0.49854 -0.11751,-0.11751 -0.38104,0.11751 -0.49855,0 -0.11751,-0.11751 0,-0.33237 0,-0.49855 0,-0.49855 0,-0.99709 0,-1.49564 0,-0.16618 0.0743,-0.34991 0,-0.49854 -0.1051,-0.21021 -0.39344,-0.28835 -0.49855,-0.49855 -0.10398,-0.20797 0.11607,-0.88103 0,-0.99709 -0.11751,-0.11751 -0.42422,0.14863 -0.49854,0 -0.14864,-0.29728 0,-0.66473 0,-0.9971 0,-0.49854 0,-0.99709 0,-1.49564 0,-0.16618 0,-0.33236 0,-0.49854 0,-0.16618 -0.16619,-0.49855 0,-0.49855 0.16618,0 0,0.66473 0,0.49855 0,-0.49855 0,-0.99709 0,-1.49564 -0.31695,-0.35568 -0.29079,-0.10002 -0.8062,-2.21254 0.1868,0 -93.26923,0.54338 -93.26923,0.54338 z"
       id="path7153"
       inkscape:connector-curvature="0"
       sodipodi:nodetypes="ccsssccsccscscscccccscssssssscscssscsscsssssccsssssccssssscssccssssccsscssscssssccccccccssccccssssscsscssssccsccccssssccsssccccssssssssccsssssccssccsccsssssscsccccssssssccssccccccsccssccccsscssssccccccccccccccscccsscsssccccsssssccc" />
    <path
       style="fill:none;stroke:#000000;stroke-width:2;stroke-linecap:butt;stroke-linejoin:miter;stroke-miterlimit:4;stroke-opacity:1;stroke-dasharray:none;marker-start:none;marker-end:url(#Arrow2Mend)"
       d="m 861.21488,298.21415 0,47.52237"
       id="path7523"
       inkscape:connector-curvature="0" />
  </g>
</svg>
