<?xml version="1.0" encoding="UTF-8" standalone="no"?>
<!-- Created with Inkscape (http://www.inkscape.org/) -->

<svg
   xmlns:dc="http://purl.org/dc/elements/1.1/"
   xmlns:cc="http://creativecommons.org/ns#"
   xmlns:rdf="http://www.w3.org/1999/02/22-rdf-syntax-ns#"
   xmlns:svg="http://www.w3.org/2000/svg"
   xmlns="http://www.w3.org/2000/svg"
   xmlns:sodipodi="http://sodipodi.sourceforge.net/DTD/sodipodi-0.dtd"
   xmlns:inkscape="http://www.inkscape.org/namespaces/inkscape"
   width="550"
   height="450"
   id="svg2470"
   sodipodi:version="0.32"
   inkscape:version="0.48.5 r10040"
   sodipodi:docname="least-squares-variance-stability.svg"
   inkscape:output_extension="org.inkscape.output.svg.inkscape"
   inkscape:export-filename="least-squares-variance-stability-3.png"
   inkscape:export-xdpi="300"
   inkscape:export-ydpi="300"
   version="1.1">
  <sodipodi:namedview
     id="base"
     pagecolor="#ffffff"
     bordercolor="#666666"
     borderopacity="1.0"
     gridtolerance="10000"
     guidetolerance="10"
     objecttolerance="10"
     inkscape:pageopacity="0.0"
     inkscape:pageshadow="2"
     inkscape:zoom="1"
     inkscape:cx="279.22801"
     inkscape:cy="215.31615"
     inkscape:document-units="px"
     inkscape:current-layer="g4559"
     showgrid="false"
     inkscape:window-width="2560"
     inkscape:window-height="1339"
     inkscape:window-x="0"
     inkscape:window-y="0"
     inkscape:window-maximized="1" />
  <defs
     id="defs2472">
    <inkscape:perspective
       id="perspective62"
       inkscape:persp3d-origin="372.04724 : 350.78739 : 1"
       inkscape:vp_z="744.09448 : 526.18109 : 1"
       inkscape:vp_y="0 : 1000 : 0"
       inkscape:vp_x="0 : 526.18109 : 1"
       sodipodi:type="inkscape:persp3d" />
    <marker
       style="overflow:visible"
       id="Arrow1Mstart"
       refX="0"
       refY="0"
       orient="auto"
       inkscape:stockid="Arrow1Mstart">
      <path
         inkscape:connector-curvature="0"
         transform="matrix(0.4,0,0,0.4,4,0)"
         style="fill-rule:evenodd;stroke:#000000;stroke-width:1pt;marker-start:none"
         d="M 0,0 5,-5 -12.5,0 5,5 0,0 z"
         id="path3214" />
    </marker>
    <marker
       style="overflow:visible"
       id="Arrow1Mend"
       refX="0"
       refY="0"
       orient="auto"
       inkscape:stockid="Arrow1Mend">
      <path
         inkscape:connector-curvature="0"
         transform="matrix(-0.4,0,0,-0.4,-4,0)"
         style="fill-rule:evenodd;stroke:#000000;stroke-width:1pt;marker-start:none"
         d="M 0,0 5,-5 -12.5,0 5,5 0,0 z"
         id="path3217" />
    </marker>
    <marker
       style="overflow:visible"
       id="Arrow1MendE"
       refX="0"
       refY="0"
       orient="auto"
       inkscape:stockid="Arrow1MendE">
      <path
         inkscape:connector-curvature="0"
         transform="matrix(-0.4,0,0,-0.4,-4,0)"
         style="marker-start:none;stroke:#ff0000;stroke-width:1pt;fill:#ff0000;fill-rule:evenodd"
         d="M 0,0 5,-5 -12.5,0 5,5 0,0 z"
         id="path4445" />
    </marker>
  </defs>
  <metadata
     id="metadata2475">
    <rdf:RDF>
      <cc:Work
         rdf:about="">
        <dc:format>image/svg+xml</dc:format>
        <dc:type
           rdf:resource="http://purl.org/dc/dcmitype/StillImage" />
        <dc:title></dc:title>
      </cc:Work>
    </rdf:RDF>
  </metadata>
  <g
     style="display:inline"
     inkscape:label="Axes"
     id="layer2"
     inkscape:groupmode="layer">
    <path
       id="path3092"
       d="m 15.98943,651.94696 0,396.99434"
       style="fill:none;stroke:#000000;stroke-width:4;stroke-linecap:butt;stroke-linejoin:miter;stroke-miterlimit:4;stroke-opacity:1;stroke-dasharray:none;marker-start:url(#Arrow1Mstart);marker-end:none;display:inline"
       inkscape:connector-curvature="0"
       transform="translate(0,-602.36212)" />
    <path
       style="fill:none;stroke:#000000;stroke-width:4;stroke-linecap:butt;stroke-linejoin:miter;stroke-miterlimit:4;stroke-opacity:1;stroke-dasharray:none;marker-mid:none;marker-end:url(#Arrow1Mend);display:inline"
       d="m 7.703203,1038.3622 497.999957,0"
       id="path3094"
       inkscape:connector-curvature="0"
       transform="translate(0,-602.36212)" />
    <text
       sodipodi:linespacing="125%"
       id="text3104"
       y="1044.699"
       x="523.15216"
       style="font-size:28px;font-style:italic;font-variant:normal;font-weight:normal;font-stretch:normal;text-align:start;line-height:125%;writing-mode:lr-tb;text-anchor:start;fill:#000000;fill-opacity:1;stroke:none;display:inline;font-family:Times New Roman;-inkscape-font-specification:'Times New Roman, Italic'"
       xml:space="preserve"
       transform="translate(0,-602.36212)"><tspan
         sodipodi:role="line"
         id="tspan3106"
         x="523.15216"
         y="1044.699">x</tspan></text>
    <text
       xml:space="preserve"
       style="font-size:28px;font-style:italic;font-variant:normal;font-weight:normal;font-stretch:normal;text-align:start;line-height:125%;writing-mode:lr-tb;text-anchor:start;fill:#000000;fill-opacity:1;stroke:none;display:inline;font-family:Times New Roman;-inkscape-font-specification:'Times New Roman, Italic'"
       x="12.689034"
       y="635.52368"
       id="text3108"
       sodipodi:linespacing="125%"
       transform="translate(0,-602.36212)"><tspan
         y="635.52368"
         x="12.689034"
         id="tspan3110"
         sodipodi:role="line">y</tspan></text>
    <path
       inkscape:connector-curvature="0"
       style="fill:none;stroke:#ff0000;stroke-width:4;stroke-linecap:butt;stroke-linejoin:miter;stroke-miterlimit:4;stroke-opacity:1;stroke-dasharray:none;display:inline"
       d="M 32.478195,383.85979 545.47146,72.244601"
       id="path3039" />
    <text
       xml:space="preserve"
       style="font-size:30px;font-style:normal;font-variant:normal;font-weight:normal;font-stretch:normal;text-align:start;line-height:100%;letter-spacing:0px;word-spacing:0px;writing-mode:lr;text-anchor:start;fill:#000000;fill-opacity:1;stroke:none;font-family:Arial;-inkscape-font-specification:Arial"
       x="60.848114"
       y="55.891411"
       id="text4577"
       sodipodi:linespacing="100%"><tspan
         sodipodi:role="line"
         id="tspan4708">Take new samples;</tspan><tspan
         sodipodi:role="line"
         id="tspan4710">each time we will</tspan><tspan
         sodipodi:role="line"
         id="tspan4712">calculate a different</tspan><tspan
         sodipodi:role="line"
         id="tspan4714">model</tspan></text>
    <path
       inkscape:connector-curvature="0"
       style="display:inline;fill:#004280;stroke:#ff0000;stroke-width:4;stroke-linecap:butt;stroke-linejoin:miter;stroke-miterlimit:4;stroke-opacity:1;stroke-dasharray:none;fill-opacity:1"
       d="M 32.478195,383.85979 545.47146,72.244601"
       id="path4625" />
  </g>
  <g
     style="display:inline"
     inkscape:label="Equation"
     id="layer3"
     inkscape:groupmode="layer">
    <g
       id="g4101"
       style="fill:#ff0000;fill-opacity:1;stroke:#ff0000;stroke-opacity:1"
       transform="translate(111.79451,265.92549)">
      <g
         word-spacing="normal"
         letter-spacing="normal"
         font-size-adjust="none"
         font-stretch="normal"
         font-weight="normal"
         font-variant="normal"
         font-style="normal"
         stroke-miterlimit="10.433"
         xml:space="preserve"
         transform="matrix(0.64285714,0,0,-0.64285714,-112.5,412.5)"
         id="g4103"
         style="font-style:normal;font-variant:normal;font-weight:normal;font-stretch:normal;letter-spacing:normal;word-spacing:normal;text-anchor:start;fill:#ff0000;fill-opacity:1;fill-rule:evenodd;stroke:#ff0000;stroke-linecap:butt;stroke-linejoin:miter;stroke-miterlimit:10.43299961;stroke-opacity:1;stroke-dasharray:none;stroke-dashoffset:0"><path
           id="path4105"
           d="m 479.74,425.18 0.01,0.04 0.01,0.03 0.01,0.06 0.02,0.05 0.01,0.06 0.01,0.05 0.02,0.04 0.01,0.05 0.01,0.04 0.01,0.04 0,0.04 0.01,0.04 0.01,0.04 0.01,0.03 0,0.03 0.01,0.03 0,0.03 0.01,0.03 0,0.03 0.01,0.05 0,0.06 0,0.05 0,0.05 0.01,0.05 0,0.03 0,0.03 0,0.03 0,0.03 c 0,0.91 -0.69,1.35 -1.44,1.35 -0.5,0 -1.3,-0.3 -1.75,-1.05 -0.1,-0.25 -0.5,-1.78 -0.69,-2.69 -0.36,-1.29 -0.7,-2.64 -1,-3.98 l -2.25,-8.97 c -0.19,-0.75 -2.33,-4.23 -5.62,-4.23 -2.54,0 -3.1,2.18 -3.1,4.03 0,2.29 0.86,5.39 2.55,9.76 0.8,2.05 1,2.6 1,3.6 0,2.23 -1.59,4.07 -4.09,4.07 -4.74,0 -6.58,-7.21 -6.58,-7.67 0,-0.5 0.5,-0.5 0.61,-0.5 0.5,0 0.54,0.11 0.79,0.91 1.35,4.69 3.33,6.17 5.03,6.17 0.4,0 1.25,0 1.25,-1.59 0,-1.25 -0.5,-2.53 -0.85,-3.49 -1.99,-5.28 -2.9,-8.12 -2.9,-10.47 0,-4.42 3.15,-5.92 6.08,-5.92 1.96,0 3.64,0.85 5.03,2.24 -0.64,-2.58 -1.23,-5.03 -3.23,-7.68 -1.3,-1.68 -3.19,-3.14 -5.48,-3.14 -0.69,0 -2.94,0.16 -3.79,2.1 0.8,0 1.46,0 2.14,0.61 0.5,0.43 1,1.09 1,2.03 0,1.55 -1.34,1.75 -1.84,1.75 -1.14,0 -2.8,-0.8 -2.8,-3.24 0,-2.5 2.21,-4.34 5.29,-4.34 5.14,0 10.26,4.55 11.67,10.17 z"
           style="fill:#ff0000;fill-opacity:1;stroke:#ff0000;stroke-width:0;stroke-opacity:1"
           inkscape:connector-curvature="0" /><path
           id="path4107"
           d="m 529.83,422.5 0.14,0 0.15,0 0.14,0 0.07,0.01 0.08,0 0.07,0.01 0.07,0.01 0.07,0.01 0.07,0.01 0.07,0.01 0.06,0.02 0.07,0.02 0.06,0.02 0.06,0.02 0.06,0.03 0.06,0.03 0.05,0.04 0.05,0.03 0.05,0.05 0.04,0.04 0.04,0.05 0.02,0.03 0.02,0.03 0.01,0.02 0.02,0.03 0.01,0.03 0.01,0.04 0.02,0.03 0.01,0.04 0.01,0.03 0.01,0.04 0,0.04 0.01,0.04 0,0.04 0.01,0.04 0,0.04 0,0.05 c 0,1 -0.95,1 -1.64,1 h -29.84 c -0.71,0 -1.65,0 -1.65,-1 0,-0.98 0.94,-0.98 1.69,-0.98 z"
           style="fill:#ff0000;fill-opacity:1;stroke:#ff0000;stroke-width:0;stroke-opacity:1"
           inkscape:connector-curvature="0" /><path
           id="path4109"
           d="m 529.88,412.82 0.06,0 0.07,0 0.14,0.01 0.14,0 0.07,0 0.07,0.01 0.06,0.01 0.07,0 0.07,0.01 0.07,0.02 0.07,0.01 0.06,0.02 0.07,0.02 0.06,0.02 0.06,0.02 0.05,0.03 0.06,0.03 0.05,0.04 0.05,0.04 0.05,0.04 0.04,0.05 0.02,0.02 0.02,0.03 0.02,0.02 0.02,0.03 0.01,0.03 0.02,0.03 0.01,0.03 0.01,0.03 0.02,0.04 0.01,0.03 0.01,0.04 0.01,0.04 0,0.04 0.01,0.04 0,0.04 0.01,0.04 0,0.05 0,0.04 c 0,1 -0.95,1 -1.69,1 h -29.75 c -0.75,0 -1.69,0 -1.69,-1 0,-1 0.94,-1 1.65,-1 z"
           style="fill:#ff0000;fill-opacity:1;stroke:#ff0000;stroke-width:0;stroke-opacity:1"
           inkscape:connector-curvature="0" /><path
           id="path4111"
           d="m 576.8,434.54 -0.01,0.35 -0.02,0.35 -0.04,0.33 -0.06,0.34 -0.07,0.33 -0.08,0.32 -0.1,0.32 -0.11,0.31 -0.13,0.3 -0.14,0.29 -0.15,0.29 -0.17,0.27 -0.18,0.27 -0.19,0.26 -0.21,0.25 -0.21,0.24 -0.23,0.22 -0.24,0.22 -0.25,0.2 -0.27,0.2 -0.27,0.17 -0.28,0.17 -0.3,0.15 -0.3,0.14 -0.31,0.12 -0.33,0.11 -0.33,0.09 -0.34,0.08 -0.35,0.06 -0.36,0.05 -0.36,0.02 -0.38,0.01 c -2.89,0 -4.28,-0.8 -6.03,-2.09 -2.73,-1.99 -5.48,-6.83 -6.42,-10.61 l -7.92,-31.64 c -0.07,-0.19 0.18,-0.5 0.59,-0.5 0.39,0 0.55,0.11 0.59,0.25 l 3.49,13.75 c 0.95,-2.99 3.14,-4.83 6.78,-4.83 l -0.16,1.09 c -3.78,0 -5.67,2.89 -5.67,6.44 0,0.48 0,1.23 0.25,2.19 l 3.19,12.61 c 1.09,4.28 4.69,12.2 10.66,12.2 2.89,0 4.64,-1.55 4.64,-4.53 h 0 c 0,-3.5 -1.9,-7.08 -4.49,-8.63 -1.34,0.5 -2.34,0.6 -3.84,0.6 -1.05,0 -3.83,0.04 -3.83,-1.6 -0.05,-1.39 2.53,-1.23 3.44,-1.23 l 0.14,1.09 c -0.69,0 -1.69,-0.06 -2.19,0.19 0.11,0.5 1.89,0.41 2.44,0.41 1.04,0 1.5,0 2.14,-0.25 h 0 c -0.64,-0.25 -1.19,-0.35 -2.39,-0.35 l -0.14,-1.09 c 1.84,0 2.59,0.05 4.08,0.64 1.89,-1.8 2.14,-3.34 2.2,-5.62 0.09,-2.9 -1.11,-6.63 -2.5,-8.58 -1.94,-2.69 -5.28,-4.49 -8.13,-4.49 l 0.16,-1.09 c 3.64,0 7.37,1.75 9.61,3.94 2.39,2.29 4,5.48 4,9.17 0,3.58 -1.84,6.17 -3.64,7.42 2.89,1.64 5.72,4.73 5.72,8.31 z"
           style="fill:#ff0000;fill-opacity:1;stroke:#ff0000;stroke-width:0;stroke-opacity:1"
           inkscape:connector-curvature="0" /><path
           id="path4113"
           d="m 594.34,409.87 0,0.71 -0.02,0.68 -0.03,0.66 -0.04,0.64 -0.06,0.62 -0.07,0.6 -0.1,0.57 -0.1,0.56 -0.13,0.55 -0.15,0.53 -0.17,0.51 -0.19,0.5 -0.21,0.49 -0.24,0.48 -0.26,0.47 -0.14,0.23 -0.15,0.23 c -1.08,1.61 -3.23,3 -6.03,3 v -0.98 c 1.89,0 3.7,-1.14 4.33,-3.17 0.56,-1.88 0.59,-4.39 0.59,-7.43 0,-2.57 0,-5.15 -0.45,-7.34 -0.7,-3.17 -3.06,-3.94 -4.47,-3.94 h 0 c -1.59,0 -3.72,0.94 -4.42,3.8 -0.49,2.05 -0.49,4.91 -0.49,7.48 0,2.55 0,5.21 0.52,7.11 0.73,2.75 2.97,3.49 4.39,3.49 v 0.98 c -8.08,0 -8.08,-9.51 -8.08,-12.03 0,-2.5 0,-11.81 8.08,-11.81 8.09,0 8.09,9.31 8.09,11.81 z"
           style="fill:#ff0000;fill-opacity:1;stroke:#ff0000;stroke-width:0;stroke-opacity:1"
           inkscape:connector-curvature="0" /><path
           id="path4115"
           d="m 630.22,417.65 h 13.9 c 0.69,0 1.64,0 1.64,1 0,1 -0.95,1 -1.64,1 h -13.9 v 13.96 c 0,0.68 0,1.64 -1,1.64 -0.99,0 -0.99,-0.96 -0.99,-1.64 v -13.96 h -13.95 c -0.71,0 -1.64,0 -1.64,-1 0,-1 0.93,-1 1.64,-1 h 13.95 v -13.94 c 0,-0.7 0,-1.65 0.99,-1.65 1,0 1,0.95 1,1.65 z"
           style="fill:#ff0000;fill-opacity:1;stroke:#ff0000;stroke-width:0;stroke-opacity:1"
           inkscape:connector-curvature="0" /><path
           id="path4117"
           d="m 688.28,434.54 -0.01,0.35 -0.02,0.35 -0.04,0.33 -0.06,0.34 -0.07,0.33 -0.08,0.32 -0.1,0.32 -0.11,0.31 -0.13,0.3 -0.14,0.29 -0.15,0.29 -0.17,0.27 -0.18,0.27 -0.19,0.26 -0.21,0.25 -0.21,0.24 -0.23,0.22 -0.24,0.22 -0.25,0.2 -0.27,0.2 -0.27,0.17 -0.28,0.17 -0.3,0.15 -0.3,0.14 -0.31,0.12 -0.33,0.11 -0.33,0.09 -0.34,0.08 -0.35,0.06 -0.36,0.05 -0.36,0.02 -0.38,0.01 c -2.89,0 -4.28,-0.8 -6.03,-2.09 -2.73,-1.99 -5.48,-6.83 -6.42,-10.61 l -7.92,-31.64 c -0.07,-0.19 0.18,-0.5 0.59,-0.5 0.39,0 0.55,0.11 0.59,0.25 l 3.49,13.75 c 0.95,-2.99 3.14,-4.83 6.78,-4.83 l -0.16,1.09 c -3.78,0 -5.67,2.89 -5.67,6.44 0,0.48 0,1.23 0.25,2.19 l 3.19,12.61 c 1.09,4.28 4.69,12.2 10.65,12.2 2.9,0 4.65,-1.55 4.65,-4.53 h 0 c 0,-3.5 -1.9,-7.08 -4.49,-8.63 -1.34,0.5 -2.34,0.6 -3.84,0.6 -1.05,0 -3.83,0.04 -3.83,-1.6 -0.05,-1.39 2.53,-1.23 3.44,-1.23 l 0.14,1.09 c -0.69,0 -1.69,-0.06 -2.19,0.19 0.11,0.5 1.89,0.41 2.44,0.41 1.05,0 1.5,0 2.14,-0.25 h 0 c -0.64,-0.25 -1.19,-0.35 -2.39,-0.35 l -0.14,-1.09 c 1.84,0 2.59,0.05 4.07,0.64 1.9,-1.8 2.15,-3.34 2.21,-5.62 0.09,-2.9 -1.11,-6.63 -2.5,-8.58 -1.94,-2.69 -5.28,-4.49 -8.13,-4.49 l 0.16,-1.09 c 3.64,0 7.38,1.75 9.61,3.94 2.39,2.29 4,5.48 4,9.17 0,3.58 -1.85,6.17 -3.64,7.42 2.89,1.64 5.72,4.73 5.72,8.31 z"
           style="fill:#ff0000;fill-opacity:1;stroke:#ff0000;stroke-width:0;stroke-opacity:1"
           inkscape:connector-curvature="0" /><path
           id="path4119"
           d="m 699.51,420.92 0,0.04 0,0.04 0,0.05 0,0.04 0,0.03 0,0.04 0,0.04 0,0.03 0,0.04 -0.01,0.03 0,0.03 0,0.03 0,0.03 -0.01,0.03 0,0.03 0,0.02 -0.01,0.03 0,0.02 -0.01,0.03 0,0.02 -0.02,0.04 -0.01,0.04 -0.02,0.03 -0.02,0.03 -0.02,0.03 -0.02,0.03 -0.03,0.02 -0.03,0.02 -0.03,0.02 -0.04,0.01 -0.04,0.01 -0.05,0.02 -0.02,0 -0.02,0 -0.03,0.01 -0.03,0 -0.02,0.01 -0.03,0 -0.03,0 -0.03,0 -0.03,0 -0.04,0.01 -0.03,0 -0.04,0 -0.03,0 -0.04,0 -0.04,0 -0.04,0 -0.04,0 -0.05,0 -0.04,0 -0.04,0 c -2.24,-2.2 -5.4,-2.23 -6.83,-2.23 v -1.25 c 0.84,0 3.14,0 5.04,0.97 v -17.77 c 0,-1.16 0,-1.61 -3.48,-1.61 h -1.31 v -1.25 c 0.62,0.03 4.9,0.14 6.2,0.14 1.08,0 5.47,-0.11 6.23,-0.14 v 1.25 H 703 c -3.49,0 -3.49,0.45 -3.49,1.61 z"
           style="fill:#ff0000;fill-opacity:1;stroke:#ff0000;stroke-width:0;stroke-opacity:1"
           inkscape:connector-curvature="0" /><path
           id="path4121"
           d="m 726.8,421.25 0.03,0.13 0.04,0.15 0.04,0.16 0.04,0.18 0.06,0.19 0.06,0.21 0.06,0.22 0.08,0.22 0.08,0.23 0.08,0.24 0.1,0.25 0.1,0.24 0.11,0.25 0.12,0.25 0.13,0.25 0.14,0.25 0.15,0.24 0.15,0.24 0.17,0.23 0.18,0.22 0.18,0.22 0.2,0.2 0.21,0.19 0.22,0.18 0.23,0.16 0.25,0.14 0.12,0.07 0.13,0.06 0.14,0.05 0.13,0.05 0.14,0.05 0.14,0.04 0.15,0.03 0.15,0.03 0.15,0.02 0.16,0.02 0.16,0.01 0.16,0 c 0.25,0 1.44,0 2.48,-0.64 -1.39,-0.25 -2.39,-1.5 -2.39,-2.69 0,-0.79 0.55,-1.75 1.89,-1.75 1.1,0 2.69,0.89 2.69,2.89 0,2.6 -2.94,3.28 -4.63,3.28 -2.88,0 -4.63,-2.64 -5.23,-3.78 -1.25,3.28 -3.94,3.78 -5.37,3.78 -5.19,0 -8.03,-6.42 -8.03,-7.67 0,-0.5 0.5,-0.5 0.6,-0.5 0.4,0 0.55,0.11 0.65,0.55 1.68,5.28 4.98,6.53 6.67,6.53 0.95,0 2.68,-0.44 2.68,-3.33 0,-1.54 -0.84,-4.89 -2.68,-11.86 -0.8,-3.09 -2.54,-5.18 -4.74,-5.18 -0.3,0 -1.43,0 -2.48,0.65 1.25,0.24 2.34,1.28 2.34,2.69 0,1.34 -1.09,1.73 -1.84,1.73 -1.5,0 -2.75,-1.29 -2.75,-2.89 0,-2.28 2.5,-3.28 4.68,-3.28 3.3,0 5.08,3.49 5.24,3.78 0.59,-1.84 2.39,-3.78 5.38,-3.78 5.13,0 7.98,6.42 7.98,7.67 0,0.5 -0.45,0.5 -0.61,0.5 -0.44,0 -0.55,-0.2 -0.64,-0.54 -1.64,-5.33 -5.03,-6.53 -6.63,-6.53 -1.95,0 -2.75,1.59 -2.75,3.29 0,1.1 0.3,2.19 0.86,4.38 z"
           style="fill:#ff0000;fill-opacity:1;stroke:#ff0000;stroke-width:0;stroke-opacity:1"
           inkscape:connector-curvature="0" /></g>    </g>
    <text
       xml:space="preserve"
       style="font-size:36px;font-style:normal;font-variant:normal;font-weight:normal;font-stretch:normal;text-align:start;line-height:125%;letter-spacing:0px;word-spacing:0px;writing-mode:lr-tb;text-anchor:start;fill:#ff0000;fill-opacity:1;stroke:none;font-family:Arial;-inkscape-font-specification:Arial"
       x="74.744392"
       y="419.48685"
       id="text4219"
       sodipodi:linespacing="125%"><tspan
         sodipodi:role="line"
         id="tspan4221"
         x="74.744392"
         y="419.48685">True system:</tspan></text>
    <path
       sodipodi:nodetypes="cc"
       inkscape:connector-curvature="0"
       id="path4250"
       d="m 162.8434,390.46699 c 15.11009,-35.56005 28.47127,-4.42937 4.85978,-69.80971"
       style="fill:none;stroke:#ff0000;stroke-width:3;stroke-linecap:butt;stroke-linejoin:miter;stroke-miterlimit:4;stroke-opacity:1;stroke-dasharray:none;marker-end:url(#Arrow1MendE);display:inline" />
  </g>
  <g
     transform="translate(0,-602.36212)"
     inkscape:label="Sample 3 - wide"
     inkscape:groupmode="layer"
     id="g3033"
     style="display:inline">
    <path
       sodipodi:type="arc"
       style="fill:#004780;fill-opacity:0.97407406;stroke:none"
       id="path3041"
       sodipodi:cx="429.34778"
       sodipodi:cy="164.45465"
       sodipodi:rx="22.418476"
       sodipodi:ry="22.418476"
       d="m 451.76625,164.45465 a 22.418476,22.418476 0 1 1 -44.83695,0 22.418476,22.418476 0 1 1 44.83695,0 z"
       transform="matrix(0.3345455,0,0,0.3345455,19.313924,832.44375)" />
    <path
       transform="matrix(0.3345455,0,0,0.3345455,-86.103531,913.08432)"
       d="m 451.76625,164.45465 a 22.418476,22.418476 0 1 1 -44.83695,0 22.418476,22.418476 0 1 1 44.83695,0 z"
       sodipodi:ry="22.418476"
       sodipodi:rx="22.418476"
       sodipodi:cy="164.45465"
       sodipodi:cx="429.34778"
       id="path3083"
       style="fill:#004780;fill-opacity:0.97407406;stroke:none"
       sodipodi:type="arc" />
    <path
       transform="matrix(0.3345455,0,0,0.3345455,129.81227,829.9599)"
       d="m 451.76625,164.45465 a 22.418476,22.418476 0 1 1 -44.83695,0 22.418476,22.418476 0 1 1 44.83695,0 z"
       sodipodi:ry="22.418476"
       sodipodi:rx="22.418476"
       sodipodi:cy="164.45465"
       sodipodi:cx="429.34778"
       id="path3085"
       style="fill:#004780;fill-opacity:0.97407406;stroke:none"
       sodipodi:type="arc" />
    <path
       sodipodi:type="arc"
       style="fill:#004780;fill-opacity:0.97407406;stroke:none"
       id="path3087"
       sodipodi:cx="429.34778"
       sodipodi:cy="164.45465"
       sodipodi:rx="22.418476"
       sodipodi:ry="22.418476"
       d="m 451.76625,164.45465 a 22.418476,22.418476 0 1 1 -44.83695,0 22.418476,22.418476 0 1 1 44.83695,0 z"
       transform="matrix(0.3345455,0,0,0.3345455,-1.3003027,905.30459)" />
    <path
       sodipodi:type="arc"
       style="fill:#004780;fill-opacity:0.97407406;stroke:none"
       id="path3089"
       sodipodi:cx="429.34778"
       sodipodi:cy="164.45465"
       sodipodi:rx="22.418476"
       sodipodi:ry="22.418476"
       d="m 451.76625,164.45465 a 22.418476,22.418476 0 1 1 -44.83695,0 22.418476,22.418476 0 1 1 44.83695,0 z"
       transform="matrix(0.3345455,0,0,0.3345455,64.32893,784.36789)" />
    <path
       transform="matrix(0.3345455,0,0,0.3345455,160.10744,735.16186)"
       d="m 451.76625,164.45465 a 22.418476,22.418476 0 1 1 -44.83695,0 22.418476,22.418476 0 1 1 44.83695,0 z"
       sodipodi:ry="22.418476"
       sodipodi:rx="22.418476"
       sodipodi:cy="164.45465"
       sodipodi:cx="429.34778"
       id="path3091"
       style="fill:#004780;fill-opacity:0.97407406;stroke:none"
       sodipodi:type="arc" />
    <path
       sodipodi:type="arc"
       style="fill:#004780;fill-opacity:0.97407406;stroke:none"
       id="path3093"
       sodipodi:cx="429.34778"
       sodipodi:cy="164.45465"
       sodipodi:rx="22.418476"
       sodipodi:ry="22.418476"
       d="m 451.76625,164.45465 a 22.418476,22.418476 0 1 1 -44.83695,0 22.418476,22.418476 0 1 1 44.83695,0 z"
       transform="matrix(0.3345455,0,0,0.3345455,232.33396,750.7988)" />
    <path
       transform="matrix(0.3345455,0,0,0.3345455,287.08057,707.67841)"
       d="m 451.76625,164.45465 a 22.418476,22.418476 0 1 1 -44.83695,0 22.418476,22.418476 0 1 1 44.83695,0 z"
       sodipodi:ry="22.418476"
       sodipodi:rx="22.418476"
       sodipodi:cy="164.45465"
       sodipodi:cx="429.34778"
       id="path3082"
       style="fill:#004780;fill-opacity:0.97407406;stroke:none"
       sodipodi:type="arc" />
    <path
       sodipodi:type="arc"
       style="fill:#004780;fill-opacity:0.97407406;stroke:none"
       id="path3084"
       sodipodi:cx="429.34778"
       sodipodi:cy="164.45465"
       sodipodi:rx="22.418476"
       sodipodi:ry="22.418476"
       d="m 451.76625,164.45465 a 22.418476,22.418476 0 1 1 -44.83695,0 22.418476,22.418476 0 1 1 44.83695,0 z"
       transform="matrix(0.3345455,0,0,0.3345455,293.77832,649.56857)" />
    <path
       transform="matrix(0.3345455,0,0,0.3345455,361.42613,602.1247)"
       d="m 451.76625,164.45465 a 22.418476,22.418476 0 1 1 -44.83695,0 22.418476,22.418476 0 1 1 44.83695,0 z"
       sodipodi:ry="22.418476"
       sodipodi:rx="22.418476"
       sodipodi:cy="164.45465"
       sodipodi:cx="429.34778"
       id="path3086"
       style="fill:#004780;fill-opacity:0.97407406;stroke:none"
       sodipodi:type="arc" />
    <path
       sodipodi:type="arc"
       style="fill:#004780;fill-opacity:0.97407406;stroke:none"
       id="path3837"
       sodipodi:cx="429.34778"
       sodipodi:cy="164.45465"
       sodipodi:rx="22.418476"
       sodipodi:ry="22.418476"
       d="m 451.76625,164.45465 a 22.418476,22.418476 0 1 1 -44.83695,0 22.418476,22.418476 0 1 1 44.83695,0 z"
       transform="matrix(0.3345455,0,0,0.3345455,356.96867,654.32767)" />
    <path
       id="path4621"
       d="M 43.971596,1003.7347 533.97807,657.09396"
       style="fill:#004280;fill-opacity:1;stroke:#004780;stroke-width:4;stroke-linecap:butt;stroke-linejoin:miter;stroke-miterlimit:4;stroke-opacity:1;stroke-dasharray:none;display:inline"
       inkscape:connector-curvature="0" />
    <text
       xml:space="preserve"
       style="font-size:30px;font-style:normal;font-variant:normal;font-weight:normal;font-stretch:normal;text-align:start;line-height:125%;letter-spacing:0px;word-spacing:0px;writing-mode:lr-tb;text-anchor:start;fill:#004780;fill-opacity:1;stroke:none;display:inline;font-family:Arial;-inkscape-font-specification:Arial"
       x="244.32858"
       y="954.75177"
       id="text4641"
       sodipodi:linespacing="125%"><tspan
         sodipodi:role="line"
         id="tspan4643"
         x="244.32858"
         y="954.75177">Sample 3 (wide range)</tspan></text>
  </g>
  <g
     style="display:none"
     id="g4678"
     inkscape:groupmode="layer"
     inkscape:label="Sample 2 - wide"
     transform="translate(0,-602.36212)">
    <path
       transform="matrix(0.3345455,0,0,0.3345455,-14.686076,842.44375)"
       d="m 451.76625,164.45465 a 22.418476,22.418476 0 1 1 -44.83695,0 22.418476,22.418476 0 1 1 44.83695,0 z"
       sodipodi:ry="22.418476"
       sodipodi:rx="22.418476"
       sodipodi:cy="164.45465"
       sodipodi:cx="429.34778"
       id="path4680"
       style="fill:#004780;fill-opacity:0.97407406;stroke:none"
       sodipodi:type="arc" />
    <path
       sodipodi:type="arc"
       style="fill:#004780;fill-opacity:0.97407406;stroke:none"
       id="path4682"
       sodipodi:cx="429.34778"
       sodipodi:cy="164.45465"
       sodipodi:rx="22.418476"
       sodipodi:ry="22.418476"
       d="m 451.76625,164.45465 a 22.418476,22.418476 0 1 1 -44.83695,0 22.418476,22.418476 0 1 1 44.83695,0 z"
       transform="matrix(0.3345455,0,0,0.3345455,-84.103531,897.08432)" />
    <path
       sodipodi:type="arc"
       style="fill:#004780;fill-opacity:0.97407406;stroke:none"
       id="path4684"
       sodipodi:cx="429.34778"
       sodipodi:cy="164.45465"
       sodipodi:rx="22.418476"
       sodipodi:ry="22.418476"
       d="m 451.76625,164.45465 a 22.418476,22.418476 0 1 1 -44.83695,0 22.418476,22.418476 0 1 1 44.83695,0 z"
       transform="matrix(0.3345455,0,0,0.3345455,128.81227,812.9599)" />
    <path
       transform="matrix(0.3345455,0,0,0.3345455,-7.3003027,886.30459)"
       d="m 451.76625,164.45465 a 22.418476,22.418476 0 1 1 -44.83695,0 22.418476,22.418476 0 1 1 44.83695,0 z"
       sodipodi:ry="22.418476"
       sodipodi:rx="22.418476"
       sodipodi:cy="164.45465"
       sodipodi:cx="429.34778"
       id="path4686"
       style="fill:#004780;fill-opacity:0.97407406;stroke:none"
       sodipodi:type="arc" />
    <path
       transform="matrix(0.3345455,0,0,0.3345455,85.32893,800.36789)"
       d="m 451.76625,164.45465 a 22.418476,22.418476 0 1 1 -44.83695,0 22.418476,22.418476 0 1 1 44.83695,0 z"
       sodipodi:ry="22.418476"
       sodipodi:rx="22.418476"
       sodipodi:cy="164.45465"
       sodipodi:cx="429.34778"
       id="path4688"
       style="fill:#004780;fill-opacity:0.97407406;stroke:none"
       sodipodi:type="arc" />
    <path
       sodipodi:type="arc"
       style="fill:#004780;fill-opacity:0.97407406;stroke:none"
       id="path4690"
       sodipodi:cx="429.34778"
       sodipodi:cy="164.45465"
       sodipodi:rx="22.418476"
       sodipodi:ry="22.418476"
       d="m 451.76625,164.45465 a 22.418476,22.418476 0 1 1 -44.83695,0 22.418476,22.418476 0 1 1 44.83695,0 z"
       transform="matrix(0.3345455,0,0,0.3345455,157.10744,732.16186)" />
    <path
       transform="matrix(0.3345455,0,0,0.3345455,235.33396,756.7988)"
       d="m 451.76625,164.45465 a 22.418476,22.418476 0 1 1 -44.83695,0 22.418476,22.418476 0 1 1 44.83695,0 z"
       sodipodi:ry="22.418476"
       sodipodi:rx="22.418476"
       sodipodi:cy="164.45465"
       sodipodi:cx="429.34778"
       id="path4692"
       style="fill:#004780;fill-opacity:0.97407406;stroke:none"
       sodipodi:type="arc" />
    <path
       sodipodi:type="arc"
       style="fill:#004780;fill-opacity:0.97407406;stroke:none"
       id="path4694"
       sodipodi:cx="429.34778"
       sodipodi:cy="164.45465"
       sodipodi:rx="22.418476"
       sodipodi:ry="22.418476"
       d="m 451.76625,164.45465 a 22.418476,22.418476 0 1 1 -44.83695,0 22.418476,22.418476 0 1 1 44.83695,0 z"
       transform="matrix(0.3345455,0,0,0.3345455,281.08057,721.67841)" />
    <path
       transform="matrix(0.3345455,0,0,0.3345455,277.77832,660.56857)"
       d="m 451.76625,164.45465 a 22.418476,22.418476 0 1 1 -44.83695,0 22.418476,22.418476 0 1 1 44.83695,0 z"
       sodipodi:ry="22.418476"
       sodipodi:rx="22.418476"
       sodipodi:cy="164.45465"
       sodipodi:cx="429.34778"
       id="path4696"
       style="fill:#004780;fill-opacity:0.97407406;stroke:none"
       sodipodi:type="arc" />
    <path
       sodipodi:type="arc"
       style="fill:#004780;fill-opacity:0.97407406;stroke:none"
       id="path4698"
       sodipodi:cx="429.34778"
       sodipodi:cy="164.45465"
       sodipodi:rx="22.418476"
       sodipodi:ry="22.418476"
       d="m 451.76625,164.45465 a 22.418476,22.418476 0 1 1 -44.83695,0 22.418476,22.418476 0 1 1 44.83695,0 z"
       transform="matrix(0.3345455,0,0,0.3345455,340.42613,631.1247)" />
    <path
       transform="matrix(0.3345455,0,0,0.3345455,387.96867,669.32767)"
       d="m 451.76625,164.45465 a 22.418476,22.418476 0 1 1 -44.83695,0 22.418476,22.418476 0 1 1 44.83695,0 z"
       sodipodi:ry="22.418476"
       sodipodi:rx="22.418476"
       sodipodi:cy="164.45465"
       sodipodi:cx="429.34778"
       id="path4700"
       style="fill:#004780;fill-opacity:0.97407406;stroke:none"
       sodipodi:type="arc" />
    <path
       inkscape:connector-curvature="0"
       style="fill:#004280;fill-opacity:1;stroke:#004780;stroke-width:4;stroke-linecap:butt;stroke-linejoin:miter;stroke-miterlimit:4;stroke-opacity:1;stroke-dasharray:none;display:inline"
       d="M 27.196839,977.1754 550.75281,683.65323"
       id="path4702" />
    <text
       sodipodi:linespacing="125%"
       id="text4704"
       y="954.75177"
       x="244.32858"
       style="font-size:30px;font-style:normal;font-variant:normal;font-weight:normal;font-stretch:normal;text-align:start;line-height:125%;letter-spacing:0px;word-spacing:0px;writing-mode:lr-tb;text-anchor:start;fill:#004780;fill-opacity:1;stroke:none;display:inline;font-family:Arial;-inkscape-font-specification:Arial"
       xml:space="preserve"><tspan
         y="954.75177"
         x="244.32858"
         id="tspan4706"
         sodipodi:role="line">Sample 2 (wide range)</tspan></text>
  </g>
  <g
     style="display:none"
     id="g4597"
     inkscape:groupmode="layer"
     inkscape:label="Sample 1 - wide"
     transform="translate(0,-602.36212)">
    <path
       transform="matrix(0.3345455,0,0,0.3345455,44.289794,840.5715)"
       d="m 451.76625,164.45465 a 22.418476,22.418476 0 1 1 -44.83695,0 22.418476,22.418476 0 1 1 44.83695,0 z"
       sodipodi:ry="22.418476"
       sodipodi:rx="22.418476"
       sodipodi:cy="164.45465"
       sodipodi:cx="429.34778"
       id="path4599"
       style="fill:#004780;fill-opacity:0.97407406;stroke:none"
       sodipodi:type="arc" />
    <path
       sodipodi:type="arc"
       style="fill:#004780;fill-opacity:0.97407406;stroke:none"
       id="path4601"
       sodipodi:cx="429.34778"
       sodipodi:cy="164.45465"
       sodipodi:rx="22.418476"
       sodipodi:ry="22.418476"
       d="m 451.76625,164.45465 a 22.418476,22.418476 0 1 1 -44.83695,0 22.418476,22.418476 0 1 1 44.83695,0 z"
       transform="matrix(0.3345455,0,0,0.3345455,-79.422906,910.19007)" />
    <path
       sodipodi:type="arc"
       style="fill:#004780;fill-opacity:0.97407406;stroke:none"
       id="path4603"
       sodipodi:cx="429.34778"
       sodipodi:cy="164.45465"
       sodipodi:rx="22.418476"
       sodipodi:ry="22.418476"
       d="m 451.76625,164.45465 a 22.418476,22.418476 0 1 1 -44.83695,0 22.418476,22.418476 0 1 1 44.83695,0 z"
       transform="matrix(0.3345455,0,0,0.3345455,111.96202,748.36728)" />
    <path
       transform="matrix(0.3345455,0,0,0.3345455,-39.12855,828.26484)"
       d="m 451.76625,164.45465 a 22.418476,22.418476 0 1 1 -44.83695,0 22.418476,22.418476 0 1 1 44.83695,0 z"
       sodipodi:ry="22.418476"
       sodipodi:rx="22.418476"
       sodipodi:cy="164.45465"
       sodipodi:cx="429.34778"
       id="path4605"
       style="fill:#004780;fill-opacity:0.97407406;stroke:none"
       sodipodi:type="arc" />
    <path
       transform="matrix(0.3345455,0,0,0.3345455,85.32893,800.36789)"
       d="m 451.76625,164.45465 a 22.418476,22.418476 0 1 1 -44.83695,0 22.418476,22.418476 0 1 1 44.83695,0 z"
       sodipodi:ry="22.418476"
       sodipodi:rx="22.418476"
       sodipodi:cy="164.45465"
       sodipodi:cx="429.34778"
       id="path4607"
       style="fill:#004780;fill-opacity:0.97407406;stroke:none"
       sodipodi:type="arc" />
    <path
       sodipodi:type="arc"
       style="fill:#004780;fill-opacity:0.97407406;stroke:none"
       id="path4609"
       sodipodi:cx="429.34778"
       sodipodi:cy="164.45465"
       sodipodi:rx="22.418476"
       sodipodi:ry="22.418476"
       d="m 451.76625,164.45465 a 22.418476,22.418476 0 1 1 -44.83695,0 22.418476,22.418476 0 1 1 44.83695,0 z"
       transform="matrix(0.3345455,0,0,0.3345455,202.97756,749.94823)" />
    <path
       transform="matrix(0.3345455,0,0,0.3345455,229.71721,668.80306)"
       d="m 451.76625,164.45465 a 22.418476,22.418476 0 1 1 -44.83695,0 22.418476,22.418476 0 1 1 44.83695,0 z"
       sodipodi:ry="22.418476"
       sodipodi:rx="22.418476"
       sodipodi:cy="164.45465"
       sodipodi:cx="429.34778"
       id="path4611"
       style="fill:#004780;fill-opacity:0.97407406;stroke:none"
       sodipodi:type="arc" />
    <path
       sodipodi:type="arc"
       style="fill:#004780;fill-opacity:0.97407406;stroke:none"
       id="path4613"
       sodipodi:cx="429.34778"
       sodipodi:cy="164.45465"
       sodipodi:rx="22.418476"
       sodipodi:ry="22.418476"
       d="m 451.76625,164.45465 a 22.418476,22.418476 0 1 1 -44.83695,0 22.418476,22.418476 0 1 1 44.83695,0 z"
       transform="matrix(0.3345455,0,0,0.3345455,281.08057,721.67841)" />
    <path
       transform="matrix(0.3345455,0,0,0.3345455,306.79819,654.95182)"
       d="m 451.76625,164.45465 a 22.418476,22.418476 0 1 1 -44.83695,0 22.418476,22.418476 0 1 1 44.83695,0 z"
       sodipodi:ry="22.418476"
       sodipodi:rx="22.418476"
       sodipodi:cy="164.45465"
       sodipodi:cx="429.34778"
       id="path4615"
       style="fill:#004780;fill-opacity:0.97407406;stroke:none"
       sodipodi:type="arc" />
    <path
       sodipodi:type="arc"
       style="fill:#004780;fill-opacity:0.97407406;stroke:none"
       id="path4617"
       sodipodi:cx="429.34778"
       sodipodi:cy="164.45465"
       sodipodi:rx="22.418476"
       sodipodi:ry="22.418476"
       d="m 451.76625,164.45465 a 22.418476,22.418476 0 1 1 -44.83695,0 22.418476,22.418476 0 1 1 44.83695,0 z"
       transform="matrix(0.3345455,0,0,0.3345455,382.55175,646.1027)" />
    <path
       transform="matrix(0.3345455,0,0,0.3345455,378.80725,615.21058)"
       d="m 451.76625,164.45465 a 22.418476,22.418476 0 1 1 -44.83695,0 22.418476,22.418476 0 1 1 44.83695,0 z"
       sodipodi:ry="22.418476"
       sodipodi:rx="22.418476"
       sodipodi:cy="164.45465"
       sodipodi:cx="429.34778"
       id="path4619"
       style="fill:#004780;fill-opacity:0.97407406;stroke:none"
       sodipodi:type="arc" />
    <text
       sodipodi:linespacing="125%"
       id="text4629"
       y="954.75177"
       x="244.32858"
       style="font-size:30px;font-style:normal;font-variant:normal;font-weight:normal;font-stretch:normal;text-align:start;line-height:125%;letter-spacing:0px;word-spacing:0px;writing-mode:lr-tb;text-anchor:start;fill:#004780;fill-opacity:1;stroke:none;display:inline;font-family:Arial;-inkscape-font-specification:Arial"
       xml:space="preserve"><tspan
         y="954.75177"
         x="244.32858"
         id="tspan4631"
         sodipodi:role="line">Sample 1 (wide range)</tspan></text>
    <path
       inkscape:connector-curvature="0"
       style="fill:#004280;fill-opacity:1;stroke:#004780;stroke-width:4;stroke-linecap:butt;stroke-linejoin:miter;stroke-miterlimit:4;stroke-opacity:1;stroke-dasharray:none;display:inline"
       d="M 38.072052,995.0786 539.87761,665.75003"
       id="path4647" />
  </g>
  <g
     style="display:inline"
     id="g4658"
     inkscape:groupmode="layer"
     inkscape:label="Sample 3"
     transform="translate(0,-602.36212)">
    <path
       transform="matrix(0.3345455,0,0,0.3345455,122.1637,821.92257)"
       d="m 451.76625,164.45465 a 22.418476,22.418476 0 1 1 -44.83695,0 22.418476,22.418476 0 1 1 44.83695,0 z"
       sodipodi:ry="22.418476"
       sodipodi:rx="22.418476"
       sodipodi:cy="164.45465"
       sodipodi:cx="429.34778"
       id="path4660"
       style="fill:#00731e;fill-opacity:1;stroke:none"
       sodipodi:type="arc" />
    <path
       sodipodi:type="arc"
       style="fill:#00731e;fill-opacity:1;stroke:none"
       id="path4662"
       sodipodi:cx="429.34778"
       sodipodi:cy="164.45465"
       sodipodi:rx="22.418476"
       sodipodi:ry="22.418476"
       d="m 451.76625,164.45465 a 22.418476,22.418476 0 1 1 -44.83695,0 22.418476,22.418476 0 1 1 44.83695,0 z"
       transform="matrix(0.3345455,0,0,0.3345455,131.55676,782.5149)" />
    <path
       transform="matrix(0.3345455,0,0,0.3345455,192.48626,704.89072)"
       d="m 451.76625,164.45465 a 22.418476,22.418476 0 1 1 -44.83695,0 22.418476,22.418476 0 1 1 44.83695,0 z"
       sodipodi:ry="22.418476"
       sodipodi:rx="22.418476"
       sodipodi:cy="164.45465"
       sodipodi:cx="429.34778"
       id="path4664"
       style="fill:#00731e;fill-opacity:1;stroke:none"
       sodipodi:type="arc" />
    <path
       sodipodi:type="arc"
       style="fill:#00731e;fill-opacity:1;stroke:none"
       id="path4666"
       sodipodi:cx="429.34778"
       sodipodi:cy="164.45465"
       sodipodi:rx="22.418476"
       sodipodi:ry="22.418476"
       d="m 451.76625,164.45465 a 22.418476,22.418476 0 1 1 -44.83695,0 22.418476,22.418476 0 1 1 44.83695,0 z"
       transform="matrix(0.3345455,0,0,0.3345455,185.43864,766.64068)" />
    <path
       transform="matrix(0.3345455,0,0,0.3345455,150.78534,751.9249)"
       d="m 451.76625,164.45465 a 22.418476,22.418476 0 1 1 -44.83695,0 22.418476,22.418476 0 1 1 44.83695,0 z"
       sodipodi:ry="22.418476"
       sodipodi:rx="22.418476"
       sodipodi:cy="164.45465"
       sodipodi:cx="429.34778"
       id="path4668"
       style="fill:#00731e;fill-opacity:1;stroke:none"
       sodipodi:type="arc" />
    <text
       sodipodi:linespacing="125%"
       id="text4672"
       y="895.09314"
       x="297.68771"
       style="font-size:30px;font-style:normal;font-variant:normal;font-weight:normal;font-stretch:normal;text-align:start;line-height:125%;letter-spacing:0px;word-spacing:0px;writing-mode:lr-tb;text-anchor:start;fill:#00731e;fill-opacity:1;stroke:none;display:inline;font-family:Arial;-inkscape-font-specification:Arial"
       xml:space="preserve"><tspan
         y="895.09314"
         x="297.68771"
         id="tspan4674"
         sodipodi:role="line">Sample 3 (narrow)</tspan></text>
    <path
       style="fill:#00731e;fill-opacity:1;stroke:#00731e;stroke-width:4;stroke-linecap:butt;stroke-linejoin:miter;stroke-miterlimit:4;stroke-opacity:1;stroke-dasharray:none;display:inline"
       d="M 234.55596,899.71265 364.73689,752.6144"
       id="path4676"
       inkscape:connector-curvature="0"
       sodipodi:nodetypes="cc" />
  </g>
  <g
     style="display:none"
     id="g3090"
     inkscape:groupmode="layer"
     inkscape:label="Sample 2"
     transform="translate(0,-602.36212)">
    <path
       transform="matrix(0.3345455,0,0,0.3345455,101.84645,774.58332)"
       d="m 451.76625,164.45465 a 22.418476,22.418476 0 1 1 -44.83695,0 22.418476,22.418476 0 1 1 44.83695,0 z"
       sodipodi:ry="22.418476"
       sodipodi:rx="22.418476"
       sodipodi:cy="164.45465"
       sodipodi:cx="429.34778"
       id="path3098"
       style="fill:#00731e;fill-opacity:1;stroke:none"
       sodipodi:type="arc" />
    <path
       sodipodi:type="arc"
       style="fill:#00731e;fill-opacity:1;stroke:none"
       id="path3142"
       sodipodi:cx="429.34778"
       sodipodi:cy="164.45465"
       sodipodi:rx="22.418476"
       sodipodi:ry="22.418476"
       d="m 451.76625,164.45465 a 22.418476,22.418476 0 1 1 -44.83695,0 22.418476,22.418476 0 1 1 44.83695,0 z"
       transform="matrix(0.3345455,0,0,0.3345455,132.55676,775.5149)" />
    <path
       transform="matrix(0.3345455,0,0,0.3345455,206.01713,779.44147)"
       d="m 451.76625,164.45465 a 22.418476,22.418476 0 1 1 -44.83695,0 22.418476,22.418476 0 1 1 44.83695,0 z"
       sodipodi:ry="22.418476"
       sodipodi:rx="22.418476"
       sodipodi:cy="164.45465"
       sodipodi:cx="429.34778"
       id="path3146"
       style="fill:#00731e;fill-opacity:1;stroke:none"
       sodipodi:type="arc" />
    <path
       sodipodi:type="arc"
       style="fill:#00731e;fill-opacity:1;stroke:none"
       id="path3148"
       sodipodi:cx="429.34778"
       sodipodi:cy="164.45465"
       sodipodi:rx="22.418476"
       sodipodi:ry="22.418476"
       d="m 451.76625,164.45465 a 22.418476,22.418476 0 1 1 -44.83695,0 22.418476,22.418476 0 1 1 44.83695,0 z"
       transform="matrix(0.3345455,0,0,0.3345455,184.43864,756.64068)" />
    <path
       transform="matrix(0.3345455,0,0,0.3345455,156.78534,757.9249)"
       d="m 451.76625,164.45465 a 22.418476,22.418476 0 1 1 -44.83695,0 22.418476,22.418476 0 1 1 44.83695,0 z"
       sodipodi:ry="22.418476"
       sodipodi:rx="22.418476"
       sodipodi:cy="164.45465"
       sodipodi:cx="429.34778"
       id="path3150"
       style="fill:#00731e;fill-opacity:1;stroke:none"
       sodipodi:type="arc" />
    <path
       sodipodi:nodetypes="cc"
       inkscape:connector-curvature="0"
       id="path3055"
       d="M 202.50777,840.66607 396.78508,811.66098"
       style="fill:#00731e;fill-opacity:1;stroke:#00731e;stroke-width:4;stroke-linecap:butt;stroke-linejoin:miter;stroke-miterlimit:4;stroke-opacity:1;stroke-dasharray:none;display:inline" />
    <text
       sodipodi:linespacing="125%"
       id="text4650"
       y="895.09314"
       x="297.68771"
       style="font-size:30px;font-style:normal;font-variant:normal;font-weight:normal;font-stretch:normal;text-align:start;line-height:125%;letter-spacing:0px;word-spacing:0px;writing-mode:lr-tb;text-anchor:start;fill:#00731e;fill-opacity:1;stroke:none;display:inline;font-family:Arial;-inkscape-font-specification:Arial"
       xml:space="preserve"><tspan
         y="895.09314"
         x="297.68771"
         id="tspan4652"
         sodipodi:role="line">Sample 2 (narrow)</tspan></text>
  </g>
  <g
     transform="translate(0,-602.36212)"
     inkscape:label="Sample 1"
     inkscape:groupmode="layer"
     id="g4559"
     style="display:none">
    <path
       sodipodi:type="arc"
       style="fill:#00731e;fill-opacity:1;stroke:none"
       id="path4561"
       sodipodi:cx="429.34778"
       sodipodi:cy="164.45465"
       sodipodi:rx="22.418476"
       sodipodi:ry="22.418476"
       d="m 451.76625,164.45465 a 22.418476,22.418476 0 1 1 -44.83695,0 22.418476,22.418476 0 1 1 44.83695,0 z"
       transform="matrix(0.3345455,0,0,0.3345455,141.1637,798.92257)" />
    <path
       transform="matrix(0.3345455,0,0,0.3345455,132.55676,775.5149)"
       d="m 451.76625,164.45465 a 22.418476,22.418476 0 1 1 -44.83695,0 22.418476,22.418476 0 1 1 44.83695,0 z"
       sodipodi:ry="22.418476"
       sodipodi:rx="22.418476"
       sodipodi:cy="164.45465"
       sodipodi:cx="429.34778"
       id="path4563"
       style="fill:#00731e;fill-opacity:1;stroke:none"
       sodipodi:type="arc" />
    <path
       sodipodi:type="arc"
       style="fill:#00731e;fill-opacity:1;stroke:none"
       id="path4565"
       sodipodi:cx="429.34778"
       sodipodi:cy="164.45465"
       sodipodi:rx="22.418476"
       sodipodi:ry="22.418476"
       d="m 451.76625,164.45465 a 22.418476,22.418476 0 1 1 -44.83695,0 22.418476,22.418476 0 1 1 44.83695,0 z"
       transform="matrix(0.3345455,0,0,0.3345455,184.48626,728.89072)" />
    <path
       transform="matrix(0.3345455,0,0,0.3345455,184.43864,756.64068)"
       d="m 451.76625,164.45465 a 22.418476,22.418476 0 1 1 -44.83695,0 22.418476,22.418476 0 1 1 44.83695,0 z"
       sodipodi:ry="22.418476"
       sodipodi:rx="22.418476"
       sodipodi:cy="164.45465"
       sodipodi:cx="429.34778"
       id="path4567"
       style="fill:#00731e;fill-opacity:1;stroke:none"
       sodipodi:type="arc" />
    <path
       sodipodi:type="arc"
       style="fill:#00731e;fill-opacity:1;stroke:none"
       id="path4569"
       sodipodi:cx="429.34778"
       sodipodi:cy="164.45465"
       sodipodi:rx="22.418476"
       sodipodi:ry="22.418476"
       d="m 451.76625,164.45465 a 22.418476,22.418476 0 1 1 -44.83695,0 22.418476,22.418476 0 1 1 44.83695,0 z"
       transform="matrix(0.3345455,0,0,0.3345455,156.78534,757.9249)" />
    <path
       transform="translate(0,602.36212)"
       style="fill:#00731e;fill-opacity:1;stroke:#00731e;stroke-width:4;stroke-linecap:butt;stroke-linejoin:miter;stroke-miterlimit:4;stroke-opacity:1;stroke-dasharray:none;display:inline"
       d="M 248.3165,307.53598 350.97635,140.06683"
       id="path4571"
       inkscape:connector-curvature="0"
       sodipodi:nodetypes="cc" />
    <text
       xml:space="preserve"
       style="font-size:30px;font-style:normal;font-variant:normal;font-weight:normal;font-stretch:normal;text-align:start;line-height:125%;letter-spacing:0px;word-spacing:0px;writing-mode:lr-tb;text-anchor:start;fill:#00731e;fill-opacity:1;stroke:none;display:inline;font-family:Arial;-inkscape-font-specification:Arial"
       x="297.68771"
       y="895.09314"
       id="text4573"
       sodipodi:linespacing="125%"><tspan
         sodipodi:role="line"
         id="tspan4575"
         x="297.68771"
         y="895.09314">Sample 1 (narrow)</tspan></text>
  </g>
</svg>
