<?xml version="1.0" encoding="UTF-8" standalone="no"?>
<!-- Created with Inkscape (http://www.inkscape.org/) -->

<svg
   xmlns:dc="http://purl.org/dc/elements/1.1/"
   xmlns:cc="http://creativecommons.org/ns#"
   xmlns:rdf="http://www.w3.org/1999/02/22-rdf-syntax-ns#"
   xmlns:svg="http://www.w3.org/2000/svg"
   xmlns="http://www.w3.org/2000/svg"
   xmlns:sodipodi="http://sodipodi.sourceforge.net/DTD/sodipodi-0.dtd"
   xmlns:inkscape="http://www.inkscape.org/namespaces/inkscape"
   width="550"
   height="450"
   id="svg2470"
   sodipodi:version="0.32"
   inkscape:version="0.48.5 r10040"
   sodipodi:docname="least-squares-picture-outliers.svg"
   inkscape:output_extension="org.inkscape.output.svg.inkscape"
   inkscape:export-filename="least-squares-picture-outliers.png"
   inkscape:export-xdpi="300"
   inkscape:export-ydpi="300"
   version="1.1">
  <defs
     id="defs2472">
    <inkscape:perspective
       sodipodi:type="inkscape:persp3d"
       inkscape:vp_x="0 : 526.18109 : 1"
       inkscape:vp_y="0 : 1000 : 0"
       inkscape:vp_z="744.09448 : 526.18109 : 1"
       inkscape:persp3d-origin="372.04724 : 350.78739 : 1"
       id="perspective62" />
    <marker
       inkscape:stockid="Arrow1Mstart"
       orient="auto"
       refY="0"
       refX="0"
       id="Arrow1Mstart"
       style="overflow:visible">
      <path
         id="path3214"
         d="M 0,0 5,-5 -12.5,0 5,5 0,0 z"
         style="fill-rule:evenodd;stroke:#000000;stroke-width:1pt;marker-start:none"
         transform="matrix(0.4,0,0,0.4,4,0)"
         inkscape:connector-curvature="0" />
    </marker>
    <marker
       inkscape:stockid="Arrow1Mend"
       orient="auto"
       refY="0"
       refX="0"
       id="Arrow1Mend"
       style="overflow:visible">
      <path
         id="path3217"
         d="M 0,0 5,-5 -12.5,0 5,5 0,0 z"
         style="fill-rule:evenodd;stroke:#000000;stroke-width:1pt;marker-start:none"
         transform="matrix(-0.4,0,0,-0.4,-4,0)"
         inkscape:connector-curvature="0" />
    </marker>
  </defs>
  <sodipodi:namedview
     id="base"
     pagecolor="#ffffff"
     bordercolor="#666666"
     borderopacity="1.0"
     gridtolerance="10000"
     guidetolerance="10"
     objecttolerance="10"
     inkscape:pageopacity="0.0"
     inkscape:pageshadow="2"
     inkscape:zoom="2.5822222"
     inkscape:cx="275"
     inkscape:cy="225"
     inkscape:document-units="px"
     inkscape:current-layer="g3033"
     showgrid="false"
     inkscape:window-width="2560"
     inkscape:window-height="1339"
     inkscape:window-x="0"
     inkscape:window-y="0"
     inkscape:window-maximized="1" />
  <metadata
     id="metadata2475">
    <rdf:RDF>
      <cc:Work
         rdf:about="">
        <dc:format>image/svg+xml</dc:format>
        <dc:type
           rdf:resource="http://purl.org/dc/dcmitype/StillImage" />
        <dc:title></dc:title>
      </cc:Work>
    </rdf:RDF>
  </metadata>
  <g
     style="display:inline"
     id="g3033"
     inkscape:groupmode="layer"
     inkscape:label="Original variables"
     transform="translate(0,-602.36212)">
    <path
       id="path3035"
       d="m 25.98943,651.94696 0,396.99434"
       style="fill:none;stroke:#000000;stroke-width:4;stroke-linecap:butt;stroke-linejoin:miter;stroke-miterlimit:4;stroke-opacity:1;stroke-dasharray:none;marker-start:url(#Arrow1Mstart);marker-end:none"
       inkscape:connector-curvature="0" />
    <path
       style="fill:none;stroke:#000000;stroke-width:4;stroke-linecap:butt;stroke-linejoin:miter;stroke-miterlimit:4;stroke-opacity:1;stroke-dasharray:none;marker-mid:none;marker-end:url(#Arrow1Mend)"
       d="m 7.703203,1026.3622 497.999957,0"
       id="path3037"
       inkscape:connector-curvature="0" />
    <path
       transform="matrix(0.3345455,0,0,0.3345455,60.24792,797.5935)"
       d="m 451.76625,164.45465 c 0,12.38138 -10.03709,22.41848 -22.41847,22.41848 -12.38138,0 -22.41848,-10.0371 -22.41848,-22.41848 0,-12.38138 10.0371,-22.41848 22.41848,-22.41848 12.38138,0 22.41847,10.0371 22.41847,22.41848 z"
       sodipodi:ry="22.418476"
       sodipodi:rx="22.418476"
       sodipodi:cy="164.45465"
       sodipodi:cx="429.34778"
       id="path3041"
       style="fill:#004780;fill-opacity:0.97407406;stroke:none"
       sodipodi:type="arc" />
    <text
       sodipodi:linespacing="125%"
       id="text3047"
       y="1032.699"
       x="529.15216"
       style="font-size:28px;font-style:italic;font-variant:normal;font-weight:bold;font-stretch:normal;text-align:start;line-height:125%;writing-mode:lr-tb;text-anchor:start;fill:#000000;fill-opacity:1;stroke:none;font-family:Times New Roman;-inkscape-font-specification:'Times New Roman, Bold Italic'"
       xml:space="preserve"><tspan
         sodipodi:role="line"
         id="tspan3049"
         x="529.15216"
         y="1032.699">x</tspan></text>
    <text
       xml:space="preserve"
       style="font-size:28px;font-style:italic;font-variant:normal;font-weight:bold;font-stretch:normal;text-align:start;line-height:125%;writing-mode:lr-tb;text-anchor:start;fill:#000000;fill-opacity:1;stroke:none;font-family:Times New Roman;-inkscape-font-specification:'Times New Roman, Bold Italic'"
       x="22.689034"
       y="621.52368"
       id="text3051"
       sodipodi:linespacing="125%"><tspan
         y="621.52368"
         x="22.689034"
         id="tspan3053"
         sodipodi:role="line">y</tspan></text>
    <path
       sodipodi:type="arc"
       style="fill:#004780;fill-opacity:0.97407406;stroke:none"
       id="path3083"
       sodipodi:cx="429.34778"
       sodipodi:cy="164.45465"
       sodipodi:rx="22.418476"
       sodipodi:ry="22.418476"
       d="m 451.76625,164.45465 c 0,12.38138 -10.03709,22.41848 -22.41847,22.41848 -12.38138,0 -22.41848,-10.0371 -22.41848,-22.41848 0,-12.38138 10.0371,-22.41848 22.41848,-22.41848 12.38138,0 22.41847,10.0371 22.41847,22.41848 z"
       transform="matrix(0.3345455,0,0,0.3345455,-31.073619,650.96455)" />
    <path
       sodipodi:type="arc"
       style="fill:#004780;fill-opacity:0.97407406;stroke:none"
       id="path3085"
       sodipodi:cx="429.34778"
       sodipodi:cy="164.45465"
       sodipodi:rx="22.418476"
       sodipodi:ry="22.418476"
       d="m 451.76625,164.45465 a 22.418476,22.418476 0 1 1 -44.83695,0 22.418476,22.418476 0 1 1 44.83695,0 z"
       transform="matrix(0.3345455,0,0,0.3345455,175.44002,890.57591)" />
    <path
       transform="matrix(0.3345455,0,0,0.3345455,9.5597163,738.96708)"
       d="m 451.76625,164.45465 a 22.418476,22.418476 0 1 1 -44.83695,0 22.418476,22.418476 0 1 1 44.83695,0 z"
       sodipodi:ry="22.418476"
       sodipodi:rx="22.418476"
       sodipodi:cy="164.45465"
       sodipodi:cx="429.34778"
       id="path3087"
       style="fill:#004780;fill-opacity:0.97407406;stroke:none"
       sodipodi:type="arc" />
    <path
       transform="matrix(0.3345455,0,0,0.3345455,139.99349,858.04579)"
       d="m 451.76625,164.45465 c 0,12.38138 -10.03709,22.41848 -22.41847,22.41848 -12.38138,0 -22.41848,-10.0371 -22.41848,-22.41848 0,-12.38138 10.0371,-22.41848 22.41848,-22.41848 12.38138,0 22.41847,10.0371 22.41847,22.41848 z"
       sodipodi:ry="22.418476"
       sodipodi:rx="22.418476"
       sodipodi:cy="164.45465"
       sodipodi:cx="429.34778"
       id="path3089"
       style="fill:#004780;fill-opacity:0.97407406;stroke:none"
       sodipodi:type="arc" />
    <path
       sodipodi:type="arc"
       style="fill:#004780;fill-opacity:0.97407406;stroke:none"
       id="path3091"
       sodipodi:cx="429.34778"
       sodipodi:cy="164.45465"
       sodipodi:rx="22.418476"
       sodipodi:ry="22.418476"
       d="m 451.76625,164.45465 c 0,12.38138 -10.03709,22.41848 -22.41847,22.41848 -12.38138,0 -22.41848,-10.0371 -22.41848,-22.41848 0,-12.38138 10.0371,-22.41848 22.41848,-22.41848 12.38138,0 22.41847,10.0371 22.41847,22.41848 z"
       transform="matrix(0.3345455,0,0,0.3345455,209.44931,922.35673)" />
    <path
       transform="matrix(0.3345455,0,0,0.3345455,262.18428,919.78429)"
       d="m 451.76625,164.45465 c 0,12.38138 -10.03709,22.41848 -22.41847,22.41848 -12.38138,0 -22.41848,-10.0371 -22.41848,-22.41848 0,-12.38138 10.0371,-22.41848 22.41848,-22.41848 12.38138,0 22.41847,10.0371 22.41847,22.41848 z"
       sodipodi:ry="22.418476"
       sodipodi:rx="22.418476"
       sodipodi:cy="164.45465"
       sodipodi:cx="429.34778"
       id="path3093"
       style="fill:#004780;fill-opacity:0.97407406;stroke:none"
       sodipodi:type="arc" />
    <path
       sodipodi:type="arc"
       style="fill:#004780;fill-opacity:0.97407406;stroke:none"
       id="path3080"
       sodipodi:cx="429.34778"
       sodipodi:cy="164.45465"
       sodipodi:rx="22.418476"
       sodipodi:ry="22.418476"
       d="m 451.76625,164.45465 a 22.418476,22.418476 0 1 1 -44.83695,0 22.418476,22.418476 0 1 1 44.83695,0 z"
       transform="matrix(0.3345455,0,0,0.3345455,-80.285378,708.76054)" />
    <path
       transform="matrix(0.3345455,0,0,0.3345455,340.66987,744.77603)"
       d="m 451.76625,164.45465 a 22.418476,22.418476 0 1 1 -44.83695,0 22.418476,22.418476 0 1 1 44.83695,0 z"
       sodipodi:ry="22.418476"
       sodipodi:rx="22.418476"
       sodipodi:cy="164.45465"
       sodipodi:cx="429.34778"
       id="path3082"
       style="fill:#004780;fill-opacity:0.97407406;stroke:none"
       sodipodi:type="arc" />
  </g>
</svg>
