<?xml version="1.0" encoding="UTF-8" standalone="no"?>
<!-- Created with Inkscape (http://www.inkscape.org/) -->

<svg
   xmlns:dc="http://purl.org/dc/elements/1.1/"
   xmlns:cc="http://creativecommons.org/ns#"
   xmlns:rdf="http://www.w3.org/1999/02/22-rdf-syntax-ns#"
   xmlns:svg="http://www.w3.org/2000/svg"
   xmlns="http://www.w3.org/2000/svg"
   xmlns:sodipodi="http://sodipodi.sourceforge.net/DTD/sodipodi-0.dtd"
   xmlns:inkscape="http://www.inkscape.org/namespaces/inkscape"
   width="1200"
   height="744.09448"
   id="svg2"
   version="1.1"
   inkscape:version="0.48.5 r10040"
   sodipodi:docname="branch-bound-no-subscripts-3-variables.svg"
   inkscape:export-filename="branch-bound-no-subscripts-3-variables.png"
   inkscape:export-xdpi="300"
   inkscape:export-ydpi="300">
  <sodipodi:namedview
     id="base"
     pagecolor="#ffffff"
     bordercolor="#666666"
     borderopacity="1.0"
     inkscape:pageopacity="0.0"
     inkscape:pageshadow="2"
     inkscape:zoom="1.6016667"
     inkscape:cx="600"
     inkscape:cy="373.42181"
     inkscape:document-units="px"
     inkscape:current-layer="layer1"
     showgrid="false"
     width="1200px"
     inkscape:window-width="2079"
     inkscape:window-height="1318"
     inkscape:window-x="0"
     inkscape:window-y="0"
     inkscape:window-maximized="0" />
  <defs
     id="defs4" />
  <metadata
     id="metadata7">
    <rdf:RDF>
      <cc:Work
         rdf:about="">
        <dc:format>image/svg+xml</dc:format>
        <dc:type
           rdf:resource="http://purl.org/dc/dcmitype/StillImage" />
        <dc:title></dc:title>
      </cc:Work>
    </rdf:RDF>
  </metadata>
  <g
     transform="translate(0,-308.2677)"
     id="layer1"
     inkscape:groupmode="layer"
     inkscape:label="Layer 1">
    <g
       transform="translate(0,0.80978394)"
       id="g3835">
      <path
         transform="matrix(0.8,0,0,0.8,-111.30463,755.82143)"
         d="m 269.33481,121.29848 c 0,20.16942 -16.35055,36.51997 -36.51998,36.51997 -20.16942,0 -36.51997,-16.35055 -36.51997,-36.51997 0,-20.16943 16.35055,-36.519977 36.51997,-36.519977 20.16943,0 36.51998,16.350547 36.51998,36.519977 z"
         sodipodi:ry="36.519974"
         sodipodi:rx="36.519974"
         sodipodi:cy="121.29848"
         sodipodi:cx="232.81483"
         id="path3785"
         style="fill:none;stroke:#000000;stroke-opacity:1"
         sodipodi:type="arc" />
      <path
         sodipodi:type="arc"
         style="fill:none;stroke:#000000;stroke-opacity:1"
         id="path3787"
         sodipodi:cx="232.81483"
         sodipodi:cy="121.29848"
         sodipodi:rx="36.519974"
         sodipodi:ry="36.519974"
         d="m 269.33481,121.29848 c 0,20.16942 -16.35055,36.51997 -36.51998,36.51997 -20.16942,0 -36.51997,-16.35055 -36.51997,-36.51997 0,-20.16943 16.35055,-36.519977 36.51997,-36.519977 20.16943,0 36.51998,16.350547 36.51998,36.519977 z"
         transform="matrix(0.8,0,0,0.8,189.21227,755.82143)" />
      <path
         transform="matrix(0.8,0,0,0.8,489.72922,755.82143)"
         d="m 269.33481,121.29848 c 0,20.16942 -16.35055,36.51997 -36.51998,36.51997 -20.16942,0 -36.51997,-16.35055 -36.51997,-36.51997 0,-20.16943 16.35055,-36.519977 36.51997,-36.519977 20.16943,0 36.51998,16.350547 36.51998,36.519977 z"
         sodipodi:ry="36.519974"
         sodipodi:rx="36.519974"
         sodipodi:cy="121.29848"
         sodipodi:cx="232.81483"
         id="path3789"
         style="fill:none;stroke:#000000;stroke-opacity:1"
         sodipodi:type="arc" />
      <path
         sodipodi:type="arc"
         style="fill:none;stroke:#000000;stroke-opacity:1"
         id="path3791"
         sodipodi:cx="232.81483"
         sodipodi:cy="121.29848"
         sodipodi:rx="36.519974"
         sodipodi:ry="36.519974"
         d="m 269.33481,121.29848 c 0,20.16942 -16.35055,36.51997 -36.51998,36.51997 -20.16942,0 -36.51997,-16.35055 -36.51997,-36.51997 0,-20.16943 16.35055,-36.519977 36.51997,-36.519977 20.16943,0 36.51998,16.350547 36.51998,36.519977 z"
         transform="matrix(0.8,0,0,0.8,639.98763,755.82143)" />
      <path
         transform="matrix(0.8,0,0,0.8,790.24608,755.82143)"
         d="m 269.33481,121.29848 c 0,20.16942 -16.35055,36.51997 -36.51998,36.51997 -20.16942,0 -36.51997,-16.35055 -36.51997,-36.51997 0,-20.16943 16.35055,-36.519977 36.51997,-36.519977 20.16943,0 36.51998,16.350547 36.51998,36.519977 z"
         sodipodi:ry="36.519974"
         sodipodi:rx="36.519974"
         sodipodi:cy="121.29848"
         sodipodi:cx="232.81483"
         id="path3793"
         style="fill:none;stroke:#000000;stroke-opacity:1"
         sodipodi:type="arc" />
      <path
         sodipodi:type="arc"
         style="fill:none;stroke:#000000;stroke-opacity:1"
         id="path3795"
         sodipodi:cx="232.81483"
         sodipodi:cy="121.29848"
         sodipodi:rx="36.519974"
         sodipodi:ry="36.519974"
         d="m 269.33481,121.29848 c 0,20.16942 -16.35055,36.51997 -36.51998,36.51997 -20.16942,0 -36.51997,-16.35055 -36.51997,-36.51997 0,-20.16943 16.35055,-36.519977 36.51997,-36.519977 20.16943,0 36.51998,16.350547 36.51998,36.519977 z"
         transform="matrix(0.8,0,0,0.8,940.50458,755.82143)" />
      <path
         transform="matrix(0.8,0,0,0.8,38.95382,755.82143)"
         d="m 269.33481,121.29848 c 0,20.16942 -16.35055,36.51997 -36.51998,36.51997 -20.16942,0 -36.51997,-16.35055 -36.51997,-36.51997 0,-20.16943 16.35055,-36.519977 36.51997,-36.519977 20.16943,0 36.51998,16.350547 36.51998,36.519977 z"
         sodipodi:ry="36.519974"
         sodipodi:rx="36.519974"
         sodipodi:cy="121.29848"
         sodipodi:cx="232.81483"
         id="path3797"
         style="fill:none;stroke:#000000;stroke-opacity:1"
         sodipodi:type="arc" />
      <path
         sodipodi:type="arc"
         style="fill:none;stroke:#000000;stroke-opacity:1"
         id="path3799"
         sodipodi:cx="232.81483"
         sodipodi:cy="121.29848"
         sodipodi:rx="36.519974"
         sodipodi:ry="36.519974"
         d="m 269.33481,121.29848 c 0,20.16942 -16.35055,36.51997 -36.51998,36.51997 -20.16942,0 -36.51997,-16.35055 -36.51997,-36.51997 0,-20.16943 16.35055,-36.519977 36.51997,-36.519977 20.16943,0 36.51998,16.350547 36.51998,36.519977 z"
         transform="matrix(0.8,0,0,0.8,339.47074,755.82143)" />
    </g>
    <g
       transform="translate(0,8.4377441)"
       id="g3845">
      <path
         sodipodi:type="arc"
         style="fill:none;stroke:#000000;stroke-opacity:1"
         id="path3801"
         sodipodi:cx="232.81483"
         sodipodi:cy="121.29848"
         sodipodi:rx="36.519974"
         sodipodi:ry="36.519974"
         d="m 269.33481,121.29848 c 0,20.16942 -16.35055,36.51997 -36.51998,36.51997 -20.16942,0 -36.51997,-16.35055 -36.51997,-36.51997 0,-20.16943 16.35055,-36.519977 36.51997,-36.519977 20.16943,0 36.51998,16.350547 36.51998,36.519977 z"
         transform="matrix(0.8,0,0,0.8,-36.175407,605.06385)" />
      <path
         transform="matrix(0.8,0,0,0.8,564.85842,605.06385)"
         d="m 269.33481,121.29848 c 0,20.16942 -16.35055,36.51997 -36.51998,36.51997 -20.16942,0 -36.51997,-16.35055 -36.51997,-36.51997 0,-20.16943 16.35055,-36.519977 36.51997,-36.519977 20.16943,0 36.51998,16.350547 36.51998,36.519977 z"
         sodipodi:ry="36.519974"
         sodipodi:rx="36.519974"
         sodipodi:cy="121.29848"
         sodipodi:cx="232.81483"
         id="path3803"
         style="fill:none;stroke:#000000;stroke-opacity:1"
         sodipodi:type="arc" />
      <path
         sodipodi:type="arc"
         style="fill:none;stroke:#000000;stroke-opacity:1"
         id="path3805"
         sodipodi:cx="232.81483"
         sodipodi:cy="121.29848"
         sodipodi:rx="36.519974"
         sodipodi:ry="36.519974"
         d="m 269.33481,121.29848 c 0,20.16942 -16.35055,36.51997 -36.51998,36.51997 -20.16942,0 -36.51997,-16.35055 -36.51997,-36.51997 0,-20.16943 16.35055,-36.519977 36.51997,-36.519977 20.16943,0 36.51998,16.350547 36.51998,36.519977 z"
         transform="matrix(0.8,0,0,0.8,264.34152,605.06385)" />
      <path
         transform="matrix(0.8,0,0,0.8,865.37531,605.06385)"
         d="m 269.33481,121.29848 c 0,20.16942 -16.35055,36.51997 -36.51998,36.51997 -20.16942,0 -36.51997,-16.35055 -36.51997,-36.51997 0,-20.16943 16.35055,-36.519977 36.51997,-36.519977 20.16943,0 36.51998,16.350547 36.51998,36.519977 z"
         sodipodi:ry="36.519974"
         sodipodi:rx="36.519974"
         sodipodi:cy="121.29848"
         sodipodi:cx="232.81483"
         id="path3807"
         style="fill:none;stroke:#000000;stroke-opacity:1"
         sodipodi:type="arc" />
    </g>
    <g
       transform="translate(0,3.8444519)"
       id="g3851">
      <path
         transform="matrix(0.8,0,0,0.8,114.08302,466.52754)"
         d="m 269.33481,121.29848 c 0,20.16942 -16.35055,36.51997 -36.51998,36.51997 -20.16942,0 -36.51997,-16.35055 -36.51997,-36.51997 0,-20.16943 16.35055,-36.519977 36.51997,-36.519977 20.16943,0 36.51998,16.350547 36.51998,36.519977 z"
         sodipodi:ry="36.519974"
         sodipodi:rx="36.519974"
         sodipodi:cy="121.29848"
         sodipodi:cx="232.81483"
         id="path3811"
         style="fill:none;stroke:#000000;stroke-opacity:1"
         sodipodi:type="arc" />
      <path
         transform="matrix(0.8,0,0,0.8,715.11688,466.52754)"
         d="m 269.33481,121.29848 c 0,20.16942 -16.35055,36.51997 -36.51998,36.51997 -20.16942,0 -36.51997,-16.35055 -36.51997,-36.51997 0,-20.16943 16.35055,-36.519977 36.51997,-36.519977 20.16943,0 36.51998,16.350547 36.51998,36.519977 z"
         sodipodi:ry="36.519974"
         sodipodi:rx="36.519974"
         sodipodi:cy="121.29848"
         sodipodi:cx="232.81483"
         id="path3813"
         style="fill:none;stroke:#000000;stroke-opacity:1"
         sodipodi:type="arc" />
    </g>
    <path
       transform="matrix(0.8,0,0,0.8,414.59993,327.24239)"
       d="m 269.33481,121.29848 c 0,20.16942 -16.35055,36.51997 -36.51998,36.51997 -20.16942,0 -36.51997,-16.35055 -36.51997,-36.51997 0,-20.16943 16.35055,-36.519977 36.51997,-36.519977 20.16943,0 36.51998,16.350547 36.51998,36.519977 z"
       sodipodi:ry="36.519974"
       sodipodi:rx="36.519974"
       sodipodi:cy="121.29848"
       sodipodi:cx="232.81483"
       id="path3815"
       style="fill:none;stroke:#000000;stroke-opacity:1"
       sodipodi:type="arc" />
    <path
       transform="translate(0,308.2677)"
       inkscape:connector-curvature="0"
       id="path3855"
       d="M 577.27273,135.76115 325.75758,247.12479"
       style="fill:none;stroke:#000000;stroke-width:1px;stroke-linecap:butt;stroke-linejoin:miter;stroke-opacity:1" />
    <path
       style="fill:none;stroke:#000000;stroke-width:1px;stroke-linecap:butt;stroke-linejoin:miter;stroke-opacity:1"
       d="M 875.27273,555.39249 623.75758,444.02885"
       id="path3857"
       inkscape:connector-curvature="0" />
    <path
       transform="translate(0,308.2677)"
       inkscape:connector-curvature="0"
       id="path3859"
       d="M 281.81818,280.45812 173.48485,388.79145"
       style="fill:none;stroke:#000000;stroke-width:1px;stroke-linecap:butt;stroke-linejoin:miter;stroke-opacity:1" />
    <path
       style="fill:none;stroke:#000000;stroke-width:1px;stroke-linecap:butt;stroke-linejoin:miter;stroke-opacity:1"
       d="M 428.78788,695.544 320.45455,587.21067"
       id="path3861"
       inkscape:connector-curvature="0" />
    <path
       style="fill:none;stroke:#000000;stroke-width:1px;stroke-linecap:butt;stroke-linejoin:miter;stroke-opacity:1"
       d="M 883.81818,588.72582 775.48485,697.05915"
       id="path3863"
       inkscape:connector-curvature="0" />
    <path
       inkscape:connector-curvature="0"
       id="path3865"
       d="M 1028.7879,695.544 920.45455,587.21067"
       style="fill:none;stroke:#000000;stroke-width:1px;stroke-linecap:butt;stroke-linejoin:miter;stroke-opacity:1" />
    <path
       sodipodi:nodetypes="cc"
       transform="translate(0,308.2677)"
       inkscape:connector-curvature="0"
       id="path3886"
       d="M 136.36363,428.94297 90.909091,519.85206"
       style="fill:none;stroke:#000000;stroke-width:1px;stroke-linecap:butt;stroke-linejoin:miter;stroke-opacity:1" />
    <path
       style="fill:none;stroke:#000000;stroke-width:1px;stroke-linecap:butt;stroke-linejoin:miter;stroke-opacity:1"
       d="M 208.36363,828.11976 162.90909,737.21067"
       id="path3888"
       inkscape:connector-curvature="0"
       sodipodi:nodetypes="cc" />
    <path
       style="fill:none;stroke:#000000;stroke-width:1px;stroke-linecap:butt;stroke-linejoin:miter;stroke-opacity:1"
       d="m 436.36363,737.21067 -45.45454,90.90909"
       id="path3890"
       inkscape:connector-curvature="0"
       sodipodi:nodetypes="cc" />
    <path
       sodipodi:nodetypes="cc"
       inkscape:connector-curvature="0"
       id="path3892"
       d="M 508.36363,828.11976 462.90909,737.21067"
       style="fill:none;stroke:#000000;stroke-width:1px;stroke-linecap:butt;stroke-linejoin:miter;stroke-opacity:1" />
    <path
       sodipodi:nodetypes="cc"
       inkscape:connector-curvature="0"
       id="path3894"
       d="m 736.36363,737.21067 -45.45454,90.90909"
       style="fill:none;stroke:#000000;stroke-width:1px;stroke-linecap:butt;stroke-linejoin:miter;stroke-opacity:1" />
    <path
       style="fill:none;stroke:#000000;stroke-width:1px;stroke-linecap:butt;stroke-linejoin:miter;stroke-opacity:1"
       d="M 808.36363,828.11976 762.90909,737.21067"
       id="path3896"
       inkscape:connector-curvature="0"
       sodipodi:nodetypes="cc" />
    <path
       style="fill:none;stroke:#000000;stroke-width:1px;stroke-linecap:butt;stroke-linejoin:miter;stroke-opacity:1"
       d="m 1036.3636,737.21067 -45.45451,90.90909"
       id="path3898"
       inkscape:connector-curvature="0"
       sodipodi:nodetypes="cc" />
    <path
       sodipodi:nodetypes="cc"
       inkscape:connector-curvature="0"
       id="path3900"
       d="m 1110.3636,828.11976 -45.4545,-90.90909"
       style="fill:none;stroke:#000000;stroke-width:1px;stroke-linecap:butt;stroke-linejoin:miter;stroke-opacity:1" />
    <path
       style="font-style:normal;font-variant:normal;font-weight:normal;font-stretch:normal;letter-spacing:normal;word-spacing:normal;text-anchor:start;fill:#000000;stroke:#000000;stroke-width:0;stroke-linecap:butt;stroke-linejoin:miter;stroke-miterlimit:10.43299961;stroke-opacity:1;stroke-dasharray:none;stroke-dashoffset:0"
       inkscape:connector-curvature="0"
       d="m 393.96986,473.32364 0.0204,-0.0884 0.0272,-0.10205 0.0272,-0.10885 0.0272,-0.12245 0.0408,-0.12926 0.0408,-0.14287 0.0408,-0.14967 0.0476,-0.14967 0.0544,-0.15647 0.0612,-0.16328 0.068,-0.17008 0.068,-0.16327 0.0748,-0.17008 0.0816,-0.17008 0.0884,-0.17008 0.0953,-0.17008 0.10204,-0.16327 0.10205,-0.16328 0.11565,-0.15647 0.12246,-0.14967 0.12246,-0.14967 0.13606,-0.13606 0.14287,-0.12926 0.14966,-0.12246 0.15648,-0.10885 0.17008,-0.0952 0.0816,-0.0476 0.0884,-0.0408 0.0953,-0.034 0.0884,-0.034 0.0952,-0.034 0.0953,-0.0272 0.10205,-0.0204 0.10204,-0.0204 0.10205,-0.0136 0.10885,-0.0136 0.10885,-0.007 0.10885,0 c 0.17008,0 0.97965,0 1.68718,0.4354 -0.94564,0.17008 -1.62595,1.02048 -1.62595,1.83005 0,0.53745 0.37417,1.19055 1.28579,1.19055 0.74835,0 1.83005,-0.60548 1.83005,-1.96611 0,-1.76882 -2.00012,-2.23143 -3.14986,-2.23143 -1.96611,0 -3.15666,1.79603 -3.55804,2.57159 -0.8504,-2.23143 -2.68044,-2.57159 -3.65329,-2.57159 -3.53084,0 -5.46974,4.36762 -5.46974,5.21802 0,0.34015 0.34016,0.34015 0.415,0.34015 0.26532,0 0.37417,-0.0748 0.4354,-0.37417 1.14973,-3.59206 3.39477,-4.44246 4.5445,-4.44246 0.6463,0 1.82324,0.29934 1.82324,2.26545 0,1.04769 -0.57146,3.32674 -1.82324,8.06854 -0.54425,2.10217 -1.728,3.52403 -3.22469,3.52403 -0.2041,0 -0.97966,0 -1.68718,-0.44221 0.85039,-0.16327 1.59193,-0.8708 1.59193,-1.83004 0,-0.91163 -0.74154,-1.17695 -1.25178,-1.17695 -1.02047,0 -1.87086,0.87761 -1.87086,1.96611 0,1.55112 1.70079,2.23143 3.18387,2.23143 2.24504,0 3.456,-2.37429 3.56485,-2.57159 0.40139,1.25178 1.62595,2.57159 3.65329,2.57159 3.49682,0 5.43572,-4.36762 5.43572,-5.21801 0,-0.34016 -0.30614,-0.34016 -0.41499,-0.34016 -0.29934,0 -0.37418,0.13606 -0.4354,0.36737 -1.11572,3.62608 -3.42199,4.44246 -4.51049,4.44246 -1.32662,0 -1.87087,-1.0817 -1.87087,-2.23824 0,-0.74834 0.2041,-1.48989 0.58507,-2.97978 z"
       id="path4210" />
    <path
       style="font-style:normal;font-variant:normal;font-weight:normal;font-stretch:normal;letter-spacing:normal;word-spacing:normal;text-anchor:start;fill:#000000;stroke:#000000;stroke-width:0;stroke-linecap:butt;stroke-linejoin:miter;stroke-miterlimit:10.43299961;stroke-opacity:1;stroke-dasharray:none;stroke-dashoffset:0"
       inkscape:connector-curvature="0"
       d="m 449.93937,472.47325 0.0952,0 0.10205,0 0.0952,0 0.0476,-0.007 0.0544,0 0.0476,-0.007 0.0476,-0.007 0.0476,-0.007 0.0476,-0.007 0.0476,-0.007 0.0408,-0.0136 0.0476,-0.0136 0.0408,-0.0136 0.0408,-0.0136 0.0408,-0.0204 0.0408,-0.0204 0.034,-0.0272 0.034,-0.0204 0.034,-0.034 0.0272,-0.0272 0.0272,-0.034 0.0136,-0.0204 0.0136,-0.0204 0.007,-0.0136 0.0136,-0.0204 0.007,-0.0204 0.0136,-0.0272 0.007,-0.0204 0.007,-0.0272 0.007,-0.0204 0.007,-0.0272 0,-0.0272 0.007,-0.0272 0,-0.0272 0.007,-0.0272 0,-0.0272 0,-0.034 c 0,-0.68032 -0.6463,-0.68032 -1.11572,-0.68032 h -20.3006 c -0.48302,0 -1.11571,0 -1.11571,0.68032 0,0.66671 0.63269,0.66671 1.14293,0.66671 z"
       id="path4214" />
    <path
       style="font-style:normal;font-variant:normal;font-weight:normal;font-stretch:normal;letter-spacing:normal;word-spacing:normal;text-anchor:start;fill:#000000;stroke:#000000;stroke-width:0;stroke-linecap:butt;stroke-linejoin:miter;stroke-miterlimit:10.43299961;stroke-opacity:1;stroke-dasharray:none;stroke-dashoffset:0"
       inkscape:connector-curvature="0"
       d="m 449.97338,479.0587 0.0476,0 0.0408,0 0.0952,-0.007 0.0952,0 0.0476,0 0.0476,-0.007 0.0476,-0.007 0.0476,0 0.0408,-0.007 0.0476,-0.0136 0.0476,-0.007 0.0408,-0.0136 0.0476,-0.0136 0.0408,-0.0136 0.0408,-0.0136 0.0408,-0.0204 0.034,-0.0204 0.034,-0.0272 0.034,-0.0272 0.034,-0.0272 0.0272,-0.034 0.0136,-0.0136 0.0136,-0.0204 0.0136,-0.0136 0.0136,-0.0204 0.007,-0.0204 0.0136,-0.0204 0.007,-0.0204 0.0136,-0.0204 0.007,-0.0272 0.007,-0.0204 0.007,-0.0272 0.007,-0.0272 0,-0.0272 0.007,-0.0272 0,-0.0272 0.007,-0.0272 0,-0.034 0,-0.0272 c 0,-0.68031 -0.6463,-0.68031 -1.14973,-0.68031 H 429.7 c -0.51024,0 -1.14293,0 -1.14293,0.68031 0,0.68032 0.63269,0.68032 1.11571,0.68032 z"
       id="path4216" />
    <path
       style="font-style:normal;font-variant:normal;font-weight:normal;font-stretch:normal;letter-spacing:normal;word-spacing:normal;text-anchor:start;fill:#000000;stroke:#000000;stroke-width:0;stroke-linecap:butt;stroke-linejoin:miter;stroke-miterlimit:10.43299961;stroke-opacity:1;stroke-dasharray:none;stroke-dashoffset:0"
       inkscape:connector-curvature="0"
       d="m 472.36935,461.86714 0,-0.034 0,-0.0408 0,-0.034 0,-0.034 0,-0.034 0,-0.034 0,-0.0272 0,-0.034 -0.007,-0.0272 0,-0.0272 0,-0.0272 0,-0.0272 0,-0.0272 0,-0.0204 -0.007,-0.0272 0,-0.0204 -0.007,-0.0476 -0.007,-0.0408 -0.007,-0.034 -0.007,-0.034 -0.0136,-0.034 -0.0136,-0.0272 -0.0136,-0.0272 -0.0136,-0.0204 -0.0204,-0.0204 -0.0204,-0.0204 -0.0272,-0.0204 -0.0272,-0.0136 -0.0272,-0.0136 -0.0204,-0.007 -0.0136,-0.007 -0.0204,0 -0.0204,-0.007 -0.0136,-0.007 -0.0204,0 -0.0204,-0.007 -0.0272,0 -0.0204,-0.007 -0.0204,0 -0.0272,0 -0.0272,-0.007 -0.0272,0 -0.0272,0 -0.0272,0 -0.0272,0 -0.034,0 -0.0272,-0.007 -0.034,0 -0.034,0 -0.034,0 -0.034,0 c -2.10898,2.1702 -5.08195,2.1702 -6.16365,2.1702 v 1.05449 c 0.68031,0 2.67363,0 4.42885,-0.88441 v 17.55893 c 0,1.22457 -0.0953,1.62595 -3.14306,1.62595 h -1.0885 v 1.05449 c 1.19055,-0.10885 4.13631,-0.10885 5.48334,-0.10885 1.36063,0 4.30639,0 5.49694,0.10885 v -1.05449 h -1.0817 c -3.05461,0 -3.15666,-0.36737 -3.15666,-1.62595 z"
       id="path4218" />
    <path
       style="font-style:normal;font-variant:normal;font-weight:normal;font-stretch:normal;letter-spacing:normal;word-spacing:normal;text-anchor:start;fill:#000000;stroke:#000000;stroke-width:0;stroke-linecap:butt;stroke-linejoin:miter;stroke-miterlimit:10.43299961;stroke-opacity:1;stroke-dasharray:none;stroke-dashoffset:0"
       inkscape:connector-curvature="0"
       d="m 740.72372,474.35985 0.0217,-0.094 0.0289,-0.10847 0.0289,-0.11571 0.0289,-0.13017 0.0434,-0.1374 0.0434,-0.15187 0.0434,-0.15909 0.0506,-0.1591 0.0579,-0.16633 0.0651,-0.17356 0.0723,-0.18079 0.0723,-0.17356 0.0795,-0.1808 0.0868,-0.18079 0.094,-0.18079 0.10124,-0.18079 0.10848,-0.17356 0.10847,-0.17356 0.12294,-0.16633 0.13017,-0.1591 0.13017,-0.1591 0.14464,-0.14463 0.15186,-0.1374 0.1591,-0.13017 0.16633,-0.11571 0.18079,-0.10125 0.0868,-0.0506 0.094,-0.0434 0.10125,-0.0362 0.094,-0.0362 0.10124,-0.0362 0.10125,-0.0289 0.10847,-0.0217 0.10848,-0.0217 0.10847,-0.0145 0.11571,-0.0145 0.11571,-0.007 0.11571,0 c 0.18079,0 1.04136,0 1.79346,0.46283 -1.00521,0.18079 -1.72838,1.08475 -1.72838,1.94533 0,0.5713 0.39774,1.26554 1.36679,1.26554 0.79549,0 1.94533,-0.64362 1.94533,-2.08996 0,-1.88024 -2.12612,-2.37199 -3.34828,-2.37199 -2.08996,0 -3.3555,1.90916 -3.78217,2.73358 -0.90397,-2.372 -2.84929,-2.73358 -3.88342,-2.73358 -3.75325,0 -5.81429,4.64274 -5.81429,5.54671 0,0.36158 0.36159,0.36158 0.44114,0.36158 0.28203,0 0.39774,-0.0795 0.46283,-0.39774 1.22215,-3.81834 3.60861,-4.7223 4.83077,-4.7223 0.68701,0 1.93809,0.3182 1.93809,2.40816 0,1.11368 -0.60746,3.53629 -1.93809,8.57678 -0.57854,2.2346 -1.83685,3.74602 -3.42783,3.74602 -0.21695,0 -1.04136,0 -1.79346,-0.47006 0.90397,-0.17356 1.69222,-0.92565 1.69222,-1.94532 0,-0.96905 -0.78825,-1.25109 -1.33063,-1.25109 -1.08475,0 -1.98872,0.93289 -1.98872,2.08996 0,1.64883 1.80793,2.372 3.38444,2.372 2.38646,0 3.6737,-2.52386 3.7894,-2.73358 0.42667,1.33063 1.72838,2.73358 3.88342,2.73358 3.71709,0 5.77813,-4.64275 5.77813,-5.54671 0,-0.36159 -0.32543,-0.36159 -0.44114,-0.36159 -0.31819,0 -0.39774,0.14464 -0.46282,0.39052 -1.186,3.85449 -3.63755,4.72229 -4.79462,4.72229 -1.41018,0 -1.98871,-1.14984 -1.98871,-2.37922 0,-0.79549 0.21695,-1.58375 0.62192,-3.16749 z"
       id="path4625" />
    <path
       style="font-style:normal;font-variant:normal;font-weight:normal;font-stretch:normal;letter-spacing:normal;word-spacing:normal;text-anchor:start;fill:#000000;stroke:#000000;stroke-width:0;stroke-linecap:butt;stroke-linejoin:miter;stroke-miterlimit:10.43299961;stroke-opacity:1;stroke-dasharray:none;stroke-dashoffset:0"
       inkscape:connector-curvature="0"
       d="m 800.21887,473.45588 0.10124,0 0.10848,0 0.10124,0 0.0506,-0.007 0.0578,0 0.0506,-0.007 0.0506,-0.007 0.0506,-0.007 0.0506,-0.007 0.0506,-0.007 0.0434,-0.0145 0.0506,-0.0145 0.0434,-0.0145 0.0434,-0.0145 0.0434,-0.0217 0.0434,-0.0217 0.0362,-0.0289 0.0362,-0.0217 0.0362,-0.0362 0.0289,-0.0289 0.0289,-0.0362 0.0145,-0.0217 0.0145,-0.0217 0.007,-0.0145 0.0145,-0.0217 0.007,-0.0217 0.0145,-0.0289 0.007,-0.0217 0.007,-0.0289 0.007,-0.0217 0.007,-0.0289 0,-0.0289 0.007,-0.0289 0,-0.0289 0.007,-0.0289 0,-0.0289 0,-0.0362 c 0,-0.72317 -0.68701,-0.72317 -1.186,-0.72317 h -21.57937 c -0.51345,0 -1.186,0 -1.186,0.72317 0,0.7087 0.67255,0.7087 1.21493,0.7087 z"
       id="path4629" />
    <path
       style="font-style:normal;font-variant:normal;font-weight:normal;font-stretch:normal;letter-spacing:normal;word-spacing:normal;text-anchor:start;fill:#000000;stroke:#000000;stroke-width:0;stroke-linecap:butt;stroke-linejoin:miter;stroke-miterlimit:10.43299961;stroke-opacity:1;stroke-dasharray:none;stroke-dashoffset:0"
       inkscape:connector-curvature="0"
       d="m 800.25502,480.45616 0.0506,0 0.0434,0 0.10124,-0.007 0.10124,0 0.0506,0 0.0506,-0.007 0.0506,-0.007 0.0506,0 0.0434,-0.007 0.0506,-0.0145 0.0506,-0.007 0.0434,-0.0145 0.0506,-0.0145 0.0434,-0.0145 0.0434,-0.0145 0.0434,-0.0217 0.0362,-0.0217 0.0362,-0.0289 0.0362,-0.0289 0.0362,-0.0289 0.0289,-0.0362 0.0145,-0.0145 0.0145,-0.0217 0.0145,-0.0145 0.0145,-0.0217 0.007,-0.0217 0.0145,-0.0217 0.007,-0.0217 0.0145,-0.0217 0.007,-0.0289 0.007,-0.0217 0.007,-0.0289 0.007,-0.0289 0,-0.0289 0.007,-0.0289 0,-0.0289 0.007,-0.0289 0,-0.0362 0,-0.0289 c 0,-0.72316 -0.68701,-0.72316 -1.22215,-0.72316 h -21.51429 c -0.54238,0 -1.21493,0 -1.21493,0.72316 0,0.72317 0.67255,0.72317 1.186,0.72317 z"
       id="path4631" />
    <path
       style="font-style:normal;font-variant:normal;font-weight:normal;font-stretch:normal;letter-spacing:normal;word-spacing:normal;text-anchor:start;fill:#000000;stroke:#000000;stroke-width:0;stroke-linecap:butt;stroke-linejoin:miter;stroke-miterlimit:10.43299961;stroke-opacity:1;stroke-dasharray:none;stroke-dashoffset:0"
       inkscape:connector-curvature="0"
       d="m 830.0496,473.71623 0,-0.53515 -0.007,-0.54238 -0.0145,-0.54237 -0.0289,-0.53515 -0.0289,-0.54238 -0.0434,-0.53514 -0.0579,-0.53515 -0.0651,-0.52791 -0.0868,-0.52791 -0.10125,-0.52792 -0.1157,-0.52068 -0.13741,-0.52068 -0.15909,-0.52068 -0.17356,-0.50622 -0.20249,-0.50622 -0.10848,-0.25311 -0.1157,-0.24588 c -1.64883,-3.47121 -4.61383,-4.04975 -6.12525,-4.04975 -2.15504,0 -4.78738,0.94012 -6.26988,4.29563 -1.14984,2.4877 -1.33063,5.30083 -1.33063,8.17905 0,2.70465 0.14463,5.94445 1.62713,8.67803 1.54758,2.91437 4.17992,3.63754 5.93722,3.63754 v -0.78825 c -1.39572,0 -3.5363,-0.90397 -4.17992,-4.36072 -0.39051,-2.15504 -0.39051,-5.46716 -0.39051,-7.60774 0,-2.29968 0,-4.67167 0.28927,-6.617 0.67978,-4.29562 3.3772,-4.61382 4.28116,-4.61382 1.186,0 3.57246,0.64362 4.25224,4.21608 0.36158,2.01041 0.36158,4.75845 0.36158,7.01474 0,2.71189 0,5.1562 -0.39774,7.46311 -0.54238,3.42059 -2.59618,4.50535 -4.21608,4.50535 h 0 v 0.78825 c 1.94533,0 4.67891,-0.7521 6.27711,-4.17992 1.14984,-2.48047 1.33063,-5.28637 1.33063,-8.13565 z"
       id="path4633" />
    <path
       id="path4834"
       d="m 372.00401,620.94864 0.0163,-0.0707 0.0218,-0.0816 0.0218,-0.0871 0.0218,-0.098 0.0327,-0.10341 0.0327,-0.1143 0.0327,-0.11973 0.0381,-0.11974 0.0435,-0.12517 0.049,-0.13062 0.0544,-0.13607 0.0544,-0.13062 0.0599,-0.13606 0.0653,-0.13606 0.0707,-0.13607 0.0762,-0.13606 0.0816,-0.13062 0.0816,-0.13062 0.0925,-0.12518 0.098,-0.11973 0.098,-0.11974 0.10885,-0.10885 0.1143,-0.10341 0.11973,-0.098 0.12518,-0.0871 0.13606,-0.0762 0.0653,-0.0381 0.0708,-0.0326 0.0762,-0.0272 0.0708,-0.0272 0.0762,-0.0272 0.0762,-0.0218 0.0816,-0.0163 0.0816,-0.0163 0.0816,-0.0109 0.0871,-0.0109 0.0871,-0.005 0.0871,0 c 0.13606,0 0.78372,0 1.34974,0.34832 -0.75651,0.13607 -1.30076,0.81638 -1.30076,1.46404 0,0.42996 0.29934,0.95244 1.02864,0.95244 0.59868,0 1.46404,-0.48438 1.46404,-1.57289 0,-1.41505 -1.6001,-1.78514 -2.51989,-1.78514 -1.57289,0 -2.52533,1.43682 -2.84644,2.05727 -0.68031,-1.78515 -2.14435,-2.05727 -2.92263,-2.05727 -2.82467,0 -4.37579,3.4941 -4.37579,4.17441 0,0.27213 0.27213,0.27213 0.332,0.27213 0.21226,0 0.29934,-0.0599 0.34832,-0.29934 0.91978,-2.87365 2.71582,-3.55397 3.6356,-3.55397 0.51704,0 1.4586,0.23947 1.4586,1.81236 0,0.83815 -0.45717,2.66139 -1.4586,6.45483 -0.4354,1.68174 -1.3824,2.81923 -2.57975,2.81923 -0.16328,0 -0.78373,0 -1.34975,-0.35377 0.68032,-0.13062 1.27355,-0.69664 1.27355,-1.46404 0,-0.72929 -0.59323,-0.94155 -1.00142,-0.94155 -0.81638,0 -1.49669,0.70208 -1.49669,1.57289 0,1.24089 1.36063,1.78514 2.54709,1.78514 1.79604,0 2.7648,-1.89944 2.85189,-2.05727 0.3211,1.00142 1.30076,2.05727 2.92263,2.05727 2.79745,0 4.34857,-3.4941 4.34857,-4.17441 0,-0.27213 -0.24491,-0.27213 -0.33199,-0.27213 -0.23947,0 -0.29934,0.10885 -0.34832,0.2939 -0.89258,2.90086 -2.73759,3.55397 -3.60839,3.55397 -1.0613,0 -1.4967,-0.86537 -1.4967,-1.79059 0,-0.59868 0.16328,-1.19192 0.46806,-2.38383 z"
       inkscape:connector-curvature="0"
       style="font-style:normal;font-variant:normal;font-weight:normal;font-stretch:normal;letter-spacing:normal;word-spacing:normal;text-anchor:start;fill:#000000;stroke:#000000;stroke-width:0;stroke-linecap:butt;stroke-linejoin:miter;stroke-miterlimit:10.43299961;stroke-opacity:1;stroke-dasharray:none;stroke-dashoffset:0" />
    <path
       id="path4838"
       d="m 416.77961,620.26833 0.0762,0 0.0816,0 0.0762,0 0.0381,-0.005 0.0435,0 0.0381,-0.005 0.0381,-0.005 0.0381,-0.005 0.0381,-0.005 0.0381,-0.005 0.0326,-0.0109 0.0381,-0.0109 0.0327,-0.0109 0.0326,-0.0109 0.0327,-0.0163 0.0326,-0.0163 0.0272,-0.0218 0.0272,-0.0163 0.0272,-0.0272 0.0218,-0.0218 0.0218,-0.0272 0.0109,-0.0163 0.0109,-0.0163 0.005,-0.0109 0.0109,-0.0163 0.005,-0.0163 0.0109,-0.0218 0.005,-0.0163 0.005,-0.0218 0.005,-0.0163 0.005,-0.0218 0,-0.0218 0.005,-0.0218 0,-0.0218 0.005,-0.0218 0,-0.0218 0,-0.0272 c 0,-0.54425 -0.51704,-0.54425 -0.89257,-0.54425 h -16.24048 c -0.38642,0 -0.89257,0 -0.89257,0.54425 0,0.53337 0.50615,0.53337 0.91434,0.53337 z"
       inkscape:connector-curvature="0"
       style="font-style:normal;font-variant:normal;font-weight:normal;font-stretch:normal;letter-spacing:normal;word-spacing:normal;text-anchor:start;fill:#000000;stroke:#000000;stroke-width:0;stroke-linecap:butt;stroke-linejoin:miter;stroke-miterlimit:10.43299961;stroke-opacity:1;stroke-dasharray:none;stroke-dashoffset:0" />
    <path
       id="path4840"
       d="m 416.80683,625.53669 0.0381,0 0.0327,0 0.0762,-0.005 0.0762,0 0.0381,0 0.0381,-0.005 0.0381,-0.005 0.0381,0 0.0327,-0.005 0.0381,-0.0109 0.0381,-0.005 0.0327,-0.0109 0.0381,-0.0109 0.0327,-0.0109 0.0327,-0.0109 0.0327,-0.0163 0.0272,-0.0163 0.0272,-0.0218 0.0272,-0.0218 0.0272,-0.0218 0.0218,-0.0272 0.0109,-0.0109 0.0109,-0.0163 0.0109,-0.0109 0.0109,-0.0163 0.005,-0.0163 0.0109,-0.0163 0.005,-0.0163 0.0109,-0.0163 0.005,-0.0218 0.005,-0.0163 0.005,-0.0218 0.005,-0.0218 0,-0.0218 0.005,-0.0218 0,-0.0218 0.005,-0.0218 0,-0.0272 0,-0.0218 c 0,-0.54425 -0.51704,-0.54425 -0.91979,-0.54425 h -16.19149 c -0.40819,0 -0.91434,0 -0.91434,0.54425 0,0.54426 0.50615,0.54426 0.89257,0.54426 z"
       inkscape:connector-curvature="0"
       style="font-style:normal;font-variant:normal;font-weight:normal;font-stretch:normal;letter-spacing:normal;word-spacing:normal;text-anchor:start;fill:#000000;stroke:#000000;stroke-width:0;stroke-linecap:butt;stroke-linejoin:miter;stroke-miterlimit:10.43299961;stroke-opacity:1;stroke-dasharray:none;stroke-dashoffset:0" />
    <path
       id="path4842"
       d="m 439.23001,620.46426 0,-0.40275 -0.005,-0.40819 -0.0109,-0.40819 -0.0218,-0.40274 -0.0218,-0.40819 -0.0327,-0.40275 -0.0435,-0.40275 -0.049,-0.3973 -0.0653,-0.3973 -0.0762,-0.39731 -0.0871,-0.39186 -0.10341,-0.39186 -0.11974,-0.39186 -0.13062,-0.38098 -0.15239,-0.38097 -0.0816,-0.19049 -0.0871,-0.18505 c -1.24089,-2.61241 -3.47232,-3.04781 -4.60981,-3.04781 -1.62187,0 -3.60295,0.70753 -4.71866,3.23286 -0.86537,1.87222 -1.00143,3.98936 -1.00143,6.15549 0,2.0355 0.10885,4.47375 1.22457,6.53102 1.1647,2.19334 3.14577,2.73759 4.46831,2.73759 v -0.59324 c -1.05041,0 -2.6614,-0.68031 -3.14578,-3.28184 -0.2939,-1.62187 -0.2939,-4.11454 -0.2939,-5.72553 0,-1.73072 0,-3.51586 0.21771,-4.9799 0.51159,-3.23286 2.54165,-3.47233 3.22197,-3.47233 0.89257,0 2.6886,0.48439 3.2002,3.17299 0.27212,1.51302 0.27212,3.58118 0.27212,5.27924 0,2.04095 0,3.88052 -0.29933,5.61668 -0.40819,2.57432 -1.95387,3.39069 -3.17299,3.39069 h 0 v 0.59324 c 1.46403,0 3.52131,-0.56602 4.7241,-3.14578 0.86536,-1.86678 1.00143,-3.97848 1.00143,-6.12283 z"
       inkscape:connector-curvature="0"
       style="font-style:normal;font-variant:normal;font-weight:normal;font-stretch:normal;letter-spacing:normal;word-spacing:normal;text-anchor:start;fill:#000000;stroke:#000000;stroke-width:0;stroke-linecap:butt;stroke-linejoin:miter;stroke-miterlimit:10.43299961;stroke-opacity:1;stroke-dasharray:none;stroke-dashoffset:0" />
    <path
       style="font-style:normal;font-variant:normal;font-weight:normal;font-stretch:normal;letter-spacing:normal;word-spacing:normal;text-anchor:start;fill:#000000;stroke:#000000;stroke-width:0;stroke-linecap:butt;stroke-linejoin:miter;stroke-miterlimit:10.43299961;stroke-opacity:1;stroke-dasharray:none;stroke-dashoffset:0"
       inkscape:connector-curvature="0"
       d="m 169.52337,620.86208 0.0173,-0.0752 0.0231,-0.0868 0.0231,-0.0926 0.0232,-0.10413 0.0347,-0.10993 0.0347,-0.12149 0.0347,-0.12728 0.0405,-0.12727 0.0463,-0.13307 0.0521,-0.13885 0.0579,-0.14463 0.0579,-0.13885 0.0636,-0.14463 0.0694,-0.14464 0.0752,-0.14463 0.081,-0.14463 0.0868,-0.13885 0.0868,-0.13885 0.0984,-0.13306 0.10413,-0.12728 0.10414,-0.12728 0.11571,-0.11571 0.12149,-0.10992 0.12728,-0.10413 0.13306,-0.0926 0.14463,-0.081 0.0694,-0.0405 0.0752,-0.0347 0.081,-0.0289 0.0752,-0.0289 0.081,-0.0289 0.081,-0.0231 0.0868,-0.0174 0.0868,-0.0174 0.0868,-0.0116 0.0926,-0.0116 0.0926,-0.006 0.0926,0 c 0.14464,0 0.83309,0 1.43477,0.37027 -0.80416,0.14463 -1.3827,0.8678 -1.3827,1.55626 0,0.45704 0.31819,1.01243 1.09343,1.01243 0.63639,0 1.55626,-0.51489 1.55626,-1.67196 0,-1.5042 -1.70089,-1.8976 -2.67862,-1.8976 -1.67196,0 -2.6844,1.52733 -3.02574,2.18687 -0.72317,-1.8976 -2.27943,-2.18687 -3.10673,-2.18687 -3.0026,0 -4.65143,3.7142 -4.65143,4.43737 0,0.28927 0.28927,0.28927 0.35291,0.28927 0.22563,0 0.31819,-0.0636 0.37026,-0.3182 0.97772,-3.05467 2.88689,-3.77784 3.86462,-3.77784 0.54961,0 1.55047,0.25456 1.55047,1.92653 0,0.89094 -0.48597,2.82904 -1.55047,6.86143 -0.46283,1.78767 -1.46948,2.99681 -2.74226,2.99681 -0.17356,0 -0.83309,0 -1.43477,-0.37604 0.72317,-0.13885 1.35377,-0.74053 1.35377,-1.55627 0,-0.77523 -0.6306,-1.00086 -1.0645,-1.00086 -0.8678,0 -1.59097,0.74631 -1.59097,1.67197 0,1.31906 1.44633,1.89759 2.70754,1.89759 1.90917,0 2.93896,-2.01909 3.03153,-2.18686 0.34133,1.0645 1.3827,2.18686 3.10673,2.18686 2.97368,0 4.6225,-3.7142 4.6225,-4.43737 0,-0.28926 -0.26034,-0.28926 -0.3529,-0.28926 -0.25456,0 -0.3182,0.1157 -0.37027,0.31241 -0.94879,3.08359 -2.91003,3.77783 -3.83569,3.77783 -1.12814,0 -1.59097,-0.91987 -1.59097,-1.90338 0,-0.63639 0.17356,-1.26699 0.49754,-2.53398 z"
       id="path5062" />
    <path
       style="font-style:normal;font-variant:normal;font-weight:normal;font-stretch:normal;letter-spacing:normal;word-spacing:normal;text-anchor:start;fill:#000000;stroke:#000000;stroke-width:0;stroke-linecap:butt;stroke-linejoin:miter;stroke-miterlimit:10.43299961;stroke-opacity:1;stroke-dasharray:none;stroke-dashoffset:0"
       inkscape:connector-curvature="0"
       d="m 217.11948,620.13891 0.081,0 0.0868,0 0.081,0 0.0405,-0.006 0.0463,0 0.0405,-0.006 0.0405,-0.006 0.0405,-0.006 0.0405,-0.006 0.0405,-0.006 0.0347,-0.0116 0.0405,-0.0116 0.0347,-0.0116 0.0347,-0.0116 0.0347,-0.0173 0.0347,-0.0174 0.0289,-0.0231 0.0289,-0.0174 0.0289,-0.0289 0.0231,-0.0231 0.0231,-0.0289 0.0116,-0.0174 0.0116,-0.0174 0.006,-0.0116 0.0116,-0.0174 0.006,-0.0174 0.0116,-0.0231 0.006,-0.0173 0.006,-0.0231 0.006,-0.0174 0.006,-0.0231 0,-0.0231 0.006,-0.0231 0,-0.0231 0.006,-0.0231 0,-0.0231 0,-0.0289 c 0,-0.57853 -0.54961,-0.57853 -0.9488,-0.57853 h -17.2635 c -0.41076,0 -0.9488,0 -0.9488,0.57853 0,0.56697 0.53804,0.56697 0.97194,0.56697 z"
       id="path5066" />
    <path
       style="font-style:normal;font-variant:normal;font-weight:normal;font-stretch:normal;letter-spacing:normal;word-spacing:normal;text-anchor:start;fill:#000000;stroke:#000000;stroke-width:0;stroke-linecap:butt;stroke-linejoin:miter;stroke-miterlimit:10.43299961;stroke-opacity:1;stroke-dasharray:none;stroke-dashoffset:0"
       inkscape:connector-curvature="0"
       d="m 217.14841,625.73913 0.0405,0 0.0347,0 0.081,-0.006 0.081,0 0.0405,0 0.0405,-0.006 0.0405,-0.006 0.0405,0 0.0347,-0.006 0.0405,-0.0116 0.0405,-0.006 0.0347,-0.0116 0.0405,-0.0116 0.0347,-0.0116 0.0347,-0.0116 0.0347,-0.0173 0.0289,-0.0174 0.0289,-0.0231 0.0289,-0.0231 0.0289,-0.0231 0.0231,-0.0289 0.0116,-0.0116 0.0116,-0.0174 0.0116,-0.0116 0.0116,-0.0173 0.006,-0.0174 0.0116,-0.0174 0.006,-0.0174 0.0116,-0.0174 0.006,-0.0231 0.006,-0.0174 0.006,-0.0231 0.006,-0.0231 0,-0.0231 0.006,-0.0231 0,-0.0231 0.006,-0.0231 0,-0.0289 0,-0.0231 c 0,-0.57854 -0.54961,-0.57854 -0.97773,-0.57854 h -17.21143 c -0.4339,0 -0.97194,0 -0.97194,0.57854 0,0.57853 0.53804,0.57853 0.9488,0.57853 z"
       id="path5068" />
    <path
       style="font-style:normal;font-variant:normal;font-weight:normal;font-stretch:normal;letter-spacing:normal;word-spacing:normal;text-anchor:start;fill:#000000;stroke:#000000;stroke-width:0;stroke-linecap:butt;stroke-linejoin:miter;stroke-miterlimit:10.43299961;stroke-opacity:1;stroke-dasharray:none;stroke-dashoffset:0"
       inkscape:connector-curvature="0"
       d="m 236.1938,611.11954 0,-0.0289 0,-0.0347 0,-0.0289 0,-0.0289 0,-0.0289 0,-0.0289 0,-0.0231 0,-0.0289 -0.006,-0.0232 0,-0.0231 0,-0.0231 0,-0.0231 0,-0.0231 0,-0.0174 -0.006,-0.0231 0,-0.0174 -0.006,-0.0405 -0.006,-0.0347 -0.006,-0.0289 -0.006,-0.0289 -0.0116,-0.0289 -0.0116,-0.0231 -0.0116,-0.0231 -0.0116,-0.0174 -0.0174,-0.0174 -0.0174,-0.0174 -0.0231,-0.0173 -0.0231,-0.0116 -0.0231,-0.0116 -0.0174,-0.006 -0.0116,-0.006 -0.0173,0 -0.0174,-0.006 -0.0116,-0.006 -0.0174,0 -0.0173,-0.006 -0.0231,0 -0.0174,-0.006 -0.0174,0 -0.0231,0 -0.0231,-0.006 -0.0231,0 -0.0231,0 -0.0231,0 -0.0231,0 -0.0289,0 -0.0231,-0.006 -0.0289,0 -0.0289,0 -0.0289,0 -0.0289,0 c -1.79346,1.84553 -4.32166,1.84553 -5.24153,1.84553 v 0.89673 c 0.57853,0 2.27364,0 3.76626,-0.75209 v 14.932 c 0,1.04136 -0.081,1.3827 -2.67283,1.3827 h -0.92566 v 0.89673 c 1.01244,-0.0926 3.5175,-0.0926 4.663,-0.0926 1.15707,0 3.66213,0 4.67457,0.0926 v -0.89673 h -0.91987 c -2.59763,0 -2.68441,-0.31241 -2.68441,-1.3827 z"
       id="path5070" />
    <path
       id="path5197"
       d="m 769.52346,620.86208 0.0173,-0.0752 0.0231,-0.0868 0.0231,-0.0926 0.0231,-0.10413 0.0347,-0.10993 0.0347,-0.12149 0.0347,-0.12728 0.0405,-0.12727 0.0463,-0.13307 0.0521,-0.13885 0.0579,-0.14463 0.0579,-0.13885 0.0636,-0.14463 0.0694,-0.14464 0.0752,-0.14463 0.081,-0.14463 0.0868,-0.13885 0.0868,-0.13885 0.0983,-0.13306 0.10413,-0.12728 0.10414,-0.12728 0.11571,-0.11571 0.12149,-0.10992 0.12728,-0.10413 0.13306,-0.0926 0.14463,-0.081 0.0694,-0.0405 0.0752,-0.0347 0.081,-0.0289 0.0752,-0.0289 0.081,-0.0289 0.081,-0.0231 0.0868,-0.0174 0.0868,-0.0174 0.0868,-0.0116 0.0926,-0.0116 0.0926,-0.006 0.0926,0 c 0.14464,0 0.83309,0 1.43477,0.37027 -0.80416,0.14463 -1.3827,0.8678 -1.3827,1.55626 0,0.45704 0.31819,1.01243 1.09343,1.01243 0.63639,0 1.55626,-0.51489 1.55626,-1.67196 0,-1.5042 -1.70089,-1.8976 -2.67862,-1.8976 -1.67196,0 -2.6844,1.52733 -3.02574,2.18687 -0.72317,-1.8976 -2.27943,-2.18687 -3.10673,-2.18687 -3.0026,0 -4.65143,3.7142 -4.65143,4.43737 0,0.28927 0.28927,0.28927 0.35291,0.28927 0.22563,0 0.31819,-0.0636 0.37026,-0.3182 0.97772,-3.05467 2.88689,-3.77784 3.86462,-3.77784 0.54961,0 1.55047,0.25456 1.55047,1.92653 0,0.89094 -0.48597,2.82904 -1.55047,6.86143 -0.46283,1.78767 -1.46948,2.99681 -2.74226,2.99681 -0.17356,0 -0.83309,0 -1.43477,-0.37604 0.72317,-0.13885 1.35377,-0.74053 1.35377,-1.55627 0,-0.77523 -0.6306,-1.00086 -1.0645,-1.00086 -0.8678,0 -1.59097,0.74631 -1.59097,1.67197 0,1.31906 1.44633,1.89759 2.70754,1.89759 1.90917,0 2.93896,-2.01909 3.03153,-2.18686 0.34133,1.0645 1.3827,2.18686 3.10673,2.18686 2.97368,0 4.6225,-3.7142 4.6225,-4.43737 0,-0.28926 -0.26034,-0.28926 -0.3529,-0.28926 -0.25456,0 -0.3182,0.1157 -0.37027,0.31241 -0.94879,3.08359 -2.91003,3.77783 -3.83569,3.77783 -1.12814,0 -1.59097,-0.91987 -1.59097,-1.90338 0,-0.63639 0.17356,-1.26699 0.49754,-2.53398 z"
       inkscape:connector-curvature="0"
       style="font-style:normal;font-variant:normal;font-weight:normal;font-stretch:normal;letter-spacing:normal;word-spacing:normal;text-anchor:start;fill:#000000;stroke:#000000;stroke-width:0;stroke-linecap:butt;stroke-linejoin:miter;stroke-miterlimit:10.43299961;stroke-opacity:1;stroke-dasharray:none;stroke-dashoffset:0" />
    <path
       id="path5201"
       d="m 817.11957,620.13891 0.081,0 0.0868,0 0.081,0 0.0405,-0.006 0.0463,0 0.0405,-0.006 0.0405,-0.006 0.0405,-0.006 0.0405,-0.006 0.0405,-0.006 0.0347,-0.0116 0.0405,-0.0116 0.0347,-0.0116 0.0347,-0.0116 0.0347,-0.0173 0.0347,-0.0174 0.0289,-0.0231 0.0289,-0.0174 0.0289,-0.0289 0.0231,-0.0231 0.0231,-0.0289 0.0116,-0.0174 0.0116,-0.0174 0.006,-0.0116 0.0116,-0.0174 0.006,-0.0174 0.0116,-0.0231 0.006,-0.0173 0.006,-0.0231 0.006,-0.0174 0.006,-0.0231 0,-0.0231 0.006,-0.0231 0,-0.0231 0.006,-0.0231 0,-0.0231 0,-0.0289 c 0,-0.57853 -0.54961,-0.57853 -0.9488,-0.57853 H 799.885 c -0.41076,0 -0.9488,0 -0.9488,0.57853 0,0.56697 0.53804,0.56697 0.97194,0.56697 z"
       inkscape:connector-curvature="0"
       style="font-style:normal;font-variant:normal;font-weight:normal;font-stretch:normal;letter-spacing:normal;word-spacing:normal;text-anchor:start;fill:#000000;stroke:#000000;stroke-width:0;stroke-linecap:butt;stroke-linejoin:miter;stroke-miterlimit:10.43299961;stroke-opacity:1;stroke-dasharray:none;stroke-dashoffset:0" />
    <path
       id="path5203"
       d="m 817.1485,625.73913 0.0405,0 0.0347,0 0.081,-0.006 0.081,0 0.0405,0 0.0405,-0.006 0.0405,-0.006 0.0405,0 0.0347,-0.006 0.0405,-0.0116 0.0405,-0.006 0.0347,-0.0116 0.0405,-0.0116 0.0347,-0.0116 0.0347,-0.0116 0.0347,-0.0173 0.0289,-0.0174 0.0289,-0.0231 0.0289,-0.0231 0.0289,-0.0231 0.0231,-0.0289 0.0116,-0.0116 0.0116,-0.0174 0.0116,-0.0116 0.0116,-0.0173 0.006,-0.0174 0.0116,-0.0174 0.006,-0.0174 0.0116,-0.0174 0.006,-0.0231 0.006,-0.0174 0.006,-0.0231 0.006,-0.0231 0,-0.0231 0.006,-0.0231 0,-0.0231 0.006,-0.0231 0,-0.0289 0,-0.0231 c 0,-0.57854 -0.54961,-0.57854 -0.97773,-0.57854 h -17.21143 c -0.4339,0 -0.97194,0 -0.97194,0.57854 0,0.57853 0.53804,0.57853 0.9488,0.57853 z"
       inkscape:connector-curvature="0"
       style="font-style:normal;font-variant:normal;font-weight:normal;font-stretch:normal;letter-spacing:normal;word-spacing:normal;text-anchor:start;fill:#000000;stroke:#000000;stroke-width:0;stroke-linecap:butt;stroke-linejoin:miter;stroke-miterlimit:10.43299961;stroke-opacity:1;stroke-dasharray:none;stroke-dashoffset:0" />
    <path
       id="path5205"
       d="m 836.19389,611.11954 0,-0.0289 0,-0.0347 0,-0.0289 0,-0.0289 0,-0.0289 0,-0.0289 0,-0.0231 0,-0.0289 -0.006,-0.0232 0,-0.0231 0,-0.0231 0,-0.0231 0,-0.0231 0,-0.0174 -0.006,-0.0231 0,-0.0174 -0.006,-0.0405 -0.006,-0.0347 -0.006,-0.0289 -0.006,-0.0289 -0.0116,-0.0289 -0.0116,-0.0231 -0.0116,-0.0231 -0.0116,-0.0174 -0.0174,-0.0174 -0.0174,-0.0174 -0.0231,-0.0173 -0.0231,-0.0116 -0.0231,-0.0116 -0.0174,-0.006 -0.0116,-0.006 -0.0173,0 -0.0174,-0.006 -0.0116,-0.006 -0.0174,0 -0.0174,-0.006 -0.0231,0 -0.0174,-0.006 -0.0174,0 -0.0231,0 -0.0231,-0.006 -0.0231,0 -0.0231,0 -0.0231,0 -0.0231,0 -0.0289,0 -0.0231,-0.006 -0.0289,0 -0.0289,0 -0.0289,0 -0.0289,0 c -1.79346,1.84553 -4.32166,1.84553 -5.24153,1.84553 v 0.89673 c 0.57853,0 2.27364,0 3.76626,-0.75209 v 14.932 c 0,1.04136 -0.081,1.3827 -2.67283,1.3827 h -0.92566 v 0.89673 c 1.01244,-0.0926 3.5175,-0.0926 4.663,-0.0926 1.15707,0 3.66213,0 4.67457,0.0926 v -0.89673 h -0.91987 c -2.59763,0 -2.68441,-0.31241 -2.68441,-1.3827 z"
       inkscape:connector-curvature="0"
       style="font-style:normal;font-variant:normal;font-weight:normal;font-stretch:normal;letter-spacing:normal;word-spacing:normal;text-anchor:start;fill:#000000;stroke:#000000;stroke-width:0;stroke-linecap:butt;stroke-linejoin:miter;stroke-miterlimit:10.43299961;stroke-opacity:1;stroke-dasharray:none;stroke-dashoffset:0" />
    <path
       id="path5348"
       d="m 49.853292,777.58873 0.01388,-0.0602 0.01851,-0.0694 0.01851,-0.0741 0.01851,-0.0833 0.02777,-0.0879 0.02777,-0.0972 0.02777,-0.10182 0.0324,-0.10183 0.03703,-0.10645 0.04165,-0.11108 0.04628,-0.1157 0.04628,-0.11108 0.05091,-0.11571 0.05554,-0.11571 0.06017,-0.1157 0.0648,-0.11571 0.06942,-0.11108 0.06942,-0.11108 0.07868,-0.10645 0.08331,-0.10182 0.08331,-0.10182 0.09257,-0.0926 0.09719,-0.0879 0.101822,-0.0833 0.106451,-0.0741 0.115707,-0.0648 0.05554,-0.0324 0.06017,-0.0278 0.0648,-0.0231 0.06017,-0.0231 0.0648,-0.0231 0.0648,-0.0185 0.06942,-0.0139 0.06942,-0.0139 0.06942,-0.009 0.07405,-0.009 0.07405,-0.005 0.07405,0 c 0.115707,0 0.666473,0 1.147814,0.29621 -0.643331,0.11571 -1.106159,0.69424 -1.106159,1.24501 0,0.36563 0.254555,0.80995 0.874745,0.80995 0.509112,0 1.245009,-0.41192 1.245009,-1.33757 0,-1.20336 -1.360716,-1.51808 -2.142896,-1.51808 -1.337574,0 -2.147524,1.22187 -2.420593,1.74949 -0.578535,-1.51808 -1.823544,-1.74949 -2.485388,-1.74949 -2.40208,0 -3.721141,2.97136 -3.721141,3.54989 0,0.23142 0.231414,0.23142 0.282325,0.23142 0.180504,0 0.254556,-0.0509 0.296211,-0.25456 0.78218,-2.44373 2.309514,-3.02227 3.091694,-3.02227 0.439687,0 1.24038,0.20365 1.24038,1.54122 0,0.71276 -0.388776,2.26323 -1.24038,5.48914 -0.370263,1.43014 -1.175585,2.39746 -2.193807,2.39746 -0.138849,0 -0.666473,0 -1.147815,-0.30084 0.578536,-0.11108 1.083019,-0.59242 1.083019,-1.24501 0,-0.62019 -0.504483,-0.80069 -0.851604,-0.80069 -0.694243,0 -1.272779,0.59704 -1.272779,1.33757 0,1.05525 1.157071,1.51808 2.166037,1.51808 1.527334,0 2.351169,-1.61527 2.425221,-1.74949 0.273069,0.8516 1.10616,1.74949 2.485389,1.74949 2.378938,0 3.697999,-2.97136 3.697999,-3.5499 0,-0.23141 -0.208273,-0.23141 -0.282325,-0.23141 -0.203645,0 -0.254556,0.0926 -0.29621,0.24993 -0.759039,2.46687 -2.328027,3.02227 -3.068553,3.02227 -0.902515,0 -1.272778,-0.7359 -1.272778,-1.52271 0,-0.50911 0.138849,-1.01359 0.398032,-2.02719 z"
       inkscape:connector-curvature="0"
       style="font-style:normal;font-variant:normal;font-weight:normal;font-stretch:normal;letter-spacing:normal;word-spacing:normal;text-anchor:start;fill:#000000;stroke:#000000;stroke-width:0;stroke-linecap:butt;stroke-linejoin:miter;stroke-miterlimit:10.43299961;stroke-opacity:1;stroke-dasharray:none;stroke-dashoffset:0" />
    <path
       id="path5352"
       d="m 87.930186,777.0102 0.0648,0 0.06943,0 0.0648,0 0.0324,-0.005 0.03703,0 0.0324,-0.005 0.0324,-0.005 0.0324,-0.005 0.0324,-0.005 0.0324,-0.005 0.02777,-0.009 0.0324,-0.009 0.02777,-0.009 0.02777,-0.009 0.02777,-0.0139 0.02777,-0.0139 0.02314,-0.0185 0.02314,-0.0139 0.02314,-0.0231 0.01851,-0.0185 0.01851,-0.0231 0.0093,-0.0139 0.0093,-0.0139 0.0046,-0.009 0.0093,-0.0139 0.0046,-0.0139 0.0093,-0.0185 0.0046,-0.0139 0.0046,-0.0185 0.0046,-0.0139 0.0046,-0.0185 0,-0.0185 0.0046,-0.0185 0,-0.0185 0.0046,-0.0185 0,-0.0185 0,-0.0231 c 0,-0.46283 -0.439687,-0.46283 -0.759038,-0.46283 h -13.8108 c -0.328609,0 -0.759039,0 -0.759039,0.46283 0,0.45357 0.43043,0.45357 0.777552,0.45357 z"
       inkscape:connector-curvature="0"
       style="font-style:normal;font-variant:normal;font-weight:normal;font-stretch:normal;letter-spacing:normal;word-spacing:normal;text-anchor:start;fill:#000000;stroke:#000000;stroke-width:0;stroke-linecap:butt;stroke-linejoin:miter;stroke-miterlimit:10.43299961;stroke-opacity:1;stroke-dasharray:none;stroke-dashoffset:0" />
    <path
       id="path5354"
       d="m 87.953328,781.49038 0.0324,0 0.02777,0 0.0648,-0.005 0.0648,0 0.0324,0 0.0324,-0.005 0.0324,-0.005 0.0324,0 0.02777,-0.005 0.0324,-0.009 0.0324,-0.005 0.02777,-0.009 0.0324,-0.009 0.02777,-0.009 0.02777,-0.009 0.02777,-0.0139 0.02314,-0.0139 0.02314,-0.0185 0.02314,-0.0185 0.02314,-0.0185 0.01851,-0.0231 0.0093,-0.009 0.0093,-0.0139 0.0093,-0.009 0.0093,-0.0139 0.0046,-0.0139 0.0093,-0.0139 0.0046,-0.0139 0.0093,-0.0139 0.0046,-0.0185 0.0046,-0.0139 0.0046,-0.0185 0.0046,-0.0185 0,-0.0185 0.0046,-0.0185 0,-0.0185 0.0046,-0.0185 0,-0.0231 0,-0.0185 c 0,-0.46283 -0.439687,-0.46283 -0.78218,-0.46283 H 74.161041 c -0.347122,0 -0.777552,0 -0.777552,0.46283 0,0.46283 0.43043,0.46283 0.759039,0.46283 z"
       inkscape:connector-curvature="0"
       style="font-style:normal;font-variant:normal;font-weight:normal;font-stretch:normal;letter-spacing:normal;word-spacing:normal;text-anchor:start;fill:#000000;stroke:#000000;stroke-width:0;stroke-linecap:butt;stroke-linejoin:miter;stroke-miterlimit:10.43299961;stroke-opacity:1;stroke-dasharray:none;stroke-dashoffset:0" />
    <path
       id="path5356"
       d="m 103.18964,769.7947 0,-0.0231 0,-0.0278 0,-0.0231 0,-0.0231 0,-0.0231 0,-0.0231 0,-0.0185 0,-0.0231 -0.005,-0.0185 0,-0.0185 0,-0.0185 0,-0.0185 0,-0.0185 0,-0.0139 -0.005,-0.0185 0,-0.0139 -0.005,-0.0324 -0.005,-0.0278 -0.005,-0.0231 -0.005,-0.0231 -0.009,-0.0231 -0.009,-0.0185 -0.009,-0.0185 -0.009,-0.0139 -0.0139,-0.0139 -0.0139,-0.0139 -0.0185,-0.0139 -0.0185,-0.009 -0.0185,-0.009 -0.0139,-0.005 -0.009,-0.005 -0.0139,0 -0.0139,-0.005 -0.009,-0.005 -0.0139,0 -0.0139,-0.005 -0.0185,0 -0.0139,-0.005 -0.0139,0 -0.0185,0 -0.0185,-0.005 -0.0185,0 -0.0185,0 -0.0185,0 -0.0185,0 -0.0232,0 -0.0185,-0.005 -0.0231,0 -0.0231,0 -0.0231,0 -0.0231,0 c -1.43477,1.47642 -3.457333,1.47642 -4.19323,1.47642 v 0.71738 c 0.462828,0 1.81892,0 3.01301,-0.60167 v 11.9456 c 0,0.83309 -0.0648,1.10616 -2.138264,1.10616 H 98.60301 v 0.71738 c 0.80995,-0.0741 2.814,-0.0741 3.7304,-0.0741 0.92565,0 2.9297,0 3.73965,0.0741 v -0.71738 h -0.7359 c -2.0781,0 -2.14752,-0.24993 -2.14752,-1.10616 z"
       inkscape:connector-curvature="0"
       style="font-style:normal;font-variant:normal;font-weight:normal;font-stretch:normal;letter-spacing:normal;word-spacing:normal;text-anchor:start;fill:#000000;stroke:#000000;stroke-width:0;stroke-linecap:butt;stroke-linejoin:miter;stroke-miterlimit:10.43299961;stroke-opacity:1;stroke-dasharray:none;stroke-dashoffset:0" />
    <path
       style="font-style:normal;font-variant:normal;font-weight:normal;font-stretch:normal;letter-spacing:normal;word-spacing:normal;text-anchor:start;fill:#000000;stroke:#000000;stroke-width:0;stroke-linecap:butt;stroke-linejoin:miter;stroke-miterlimit:10.43299961;stroke-opacity:1;stroke-dasharray:none;stroke-dashoffset:0"
       inkscape:connector-curvature="0"
       d="m 200.30523,777.58873 0.0139,-0.0602 0.0185,-0.0694 0.0185,-0.0741 0.0185,-0.0833 0.0278,-0.0879 0.0278,-0.0972 0.0278,-0.10182 0.0324,-0.10183 0.037,-0.10645 0.0417,-0.11108 0.0463,-0.1157 0.0463,-0.11108 0.0509,-0.11571 0.0555,-0.11571 0.0602,-0.1157 0.0648,-0.11571 0.0694,-0.11108 0.0694,-0.11108 0.0787,-0.10645 0.0833,-0.10182 0.0833,-0.10182 0.0926,-0.0926 0.0972,-0.0879 0.10183,-0.0833 0.10645,-0.0741 0.1157,-0.0648 0.0555,-0.0324 0.0602,-0.0278 0.0648,-0.0231 0.0602,-0.0231 0.0648,-0.0231 0.0648,-0.0185 0.0694,-0.0139 0.0694,-0.0139 0.0694,-0.009 0.074,-0.009 0.0741,-0.005 0.074,0 c 0.11571,0 0.66647,0 1.14781,0.29621 -0.64333,0.11571 -1.10616,0.69424 -1.10616,1.24501 0,0.36563 0.25456,0.80995 0.87475,0.80995 0.50911,0 1.24501,-0.41192 1.24501,-1.33757 0,-1.20336 -1.36072,-1.51808 -2.1429,-1.51808 -1.33757,0 -2.14752,1.22187 -2.42059,1.74949 -0.57854,-1.51808 -1.82355,-1.74949 -2.48539,-1.74949 -2.40208,0 -3.72114,2.97136 -3.72114,3.54989 0,0.23142 0.23141,0.23142 0.28232,0.23142 0.18051,0 0.25456,-0.0509 0.29621,-0.25456 0.78218,-2.44373 2.30952,-3.02227 3.0917,-3.02227 0.43969,0 1.24038,0.20365 1.24038,1.54122 0,0.71276 -0.38878,2.26323 -1.24038,5.48914 -0.37026,1.43014 -1.17559,2.39746 -2.19381,2.39746 -0.13885,0 -0.66647,0 -1.14781,-0.30084 0.57853,-0.11108 1.08302,-0.59242 1.08302,-1.24501 0,-0.62019 -0.50449,-0.80069 -0.85161,-0.80069 -0.69424,0 -1.27278,0.59704 -1.27278,1.33757 0,1.05525 1.15707,1.51808 2.16604,1.51808 1.52733,0 2.35117,-1.61527 2.42522,-1.74949 0.27307,0.8516 1.10616,1.74949 2.48539,1.74949 2.37894,0 3.698,-2.97136 3.698,-3.5499 0,-0.23141 -0.20827,-0.23141 -0.28233,-0.23141 -0.20364,0 -0.25455,0.0926 -0.29621,0.24993 -0.75903,2.46687 -2.32802,3.02227 -3.06855,3.02227 -0.90251,0 -1.27278,-0.7359 -1.27278,-1.52271 0,-0.50911 0.13885,-1.01359 0.39804,-2.02719 z"
       id="path5648" />
    <path
       style="font-style:normal;font-variant:normal;font-weight:normal;font-stretch:normal;letter-spacing:normal;word-spacing:normal;text-anchor:start;fill:#000000;stroke:#000000;stroke-width:0;stroke-linecap:butt;stroke-linejoin:miter;stroke-miterlimit:10.43299961;stroke-opacity:1;stroke-dasharray:none;stroke-dashoffset:0"
       inkscape:connector-curvature="0"
       d="m 238.38212,777.0102 0.0648,0 0.0694,0 0.0648,0 0.0324,-0.005 0.037,0 0.0324,-0.005 0.0324,-0.005 0.0324,-0.005 0.0324,-0.005 0.0324,-0.005 0.0278,-0.009 0.0324,-0.009 0.0278,-0.009 0.0278,-0.009 0.0278,-0.0139 0.0278,-0.0139 0.0231,-0.0185 0.0231,-0.0139 0.0231,-0.0231 0.0185,-0.0185 0.0185,-0.0231 0.009,-0.0139 0.009,-0.0139 0.005,-0.009 0.009,-0.0139 0.005,-0.0139 0.009,-0.0185 0.005,-0.0139 0.005,-0.0185 0.005,-0.0139 0.005,-0.0185 0,-0.0185 0.005,-0.0185 0,-0.0185 0.005,-0.0185 0,-0.0185 0,-0.0231 c 0,-0.46283 -0.43969,-0.46283 -0.75904,-0.46283 h -13.8108 c -0.32861,0 -0.75904,0 -0.75904,0.46283 0,0.45357 0.43043,0.45357 0.77755,0.45357 z"
       id="path5652" />
    <path
       style="font-style:normal;font-variant:normal;font-weight:normal;font-stretch:normal;letter-spacing:normal;word-spacing:normal;text-anchor:start;fill:#000000;stroke:#000000;stroke-width:0;stroke-linecap:butt;stroke-linejoin:miter;stroke-miterlimit:10.43299961;stroke-opacity:1;stroke-dasharray:none;stroke-dashoffset:0"
       inkscape:connector-curvature="0"
       d="m 238.40526,781.49038 0.0324,0 0.0278,0 0.0648,-0.005 0.0648,0 0.0324,0 0.0324,-0.005 0.0324,-0.005 0.0324,0 0.0278,-0.005 0.0324,-0.009 0.0324,-0.005 0.0278,-0.009 0.0324,-0.009 0.0278,-0.009 0.0278,-0.009 0.0278,-0.0139 0.0231,-0.0139 0.0231,-0.0185 0.0231,-0.0185 0.0231,-0.0185 0.0185,-0.0231 0.009,-0.009 0.009,-0.0139 0.009,-0.009 0.009,-0.0139 0.005,-0.0139 0.009,-0.0139 0.005,-0.0139 0.009,-0.0139 0.005,-0.0185 0.005,-0.0139 0.005,-0.0185 0.005,-0.0185 0,-0.0185 0.005,-0.0185 0,-0.0185 0.005,-0.0185 0,-0.0231 0,-0.0185 c 0,-0.46283 -0.43969,-0.46283 -0.78218,-0.46283 h -13.76915 c -0.34712,0 -0.77755,0 -0.77755,0.46283 0,0.46283 0.43043,0.46283 0.75904,0.46283 z"
       id="path5654" />
    <path
       style="font-style:normal;font-variant:normal;font-weight:normal;font-stretch:normal;letter-spacing:normal;word-spacing:normal;text-anchor:start;fill:#000000;stroke:#000000;stroke-width:0;stroke-linecap:butt;stroke-linejoin:miter;stroke-miterlimit:10.43299961;stroke-opacity:1;stroke-dasharray:none;stroke-dashoffset:0"
       inkscape:connector-curvature="0"
       d="m 257.47379,777.17682 0,-0.3425 -0.005,-0.34712 -0.009,-0.34712 -0.0185,-0.34249 -0.0185,-0.34712 -0.0278,-0.3425 -0.037,-0.34249 -0.0417,-0.33786 -0.0555,-0.33787 -0.0648,-0.33786 -0.0741,-0.33324 -0.0879,-0.33324 -0.10183,-0.33323 -0.11107,-0.32398 -0.1296,-0.32398 -0.0694,-0.16199 -0.074,-0.15736 c -1.05525,-2.22158 -2.95285,-2.59184 -3.92016,-2.59184 -1.37923,0 -3.06392,0.60167 -4.01272,2.7492 -0.7359,1.59213 -0.85161,3.39253 -0.85161,5.23459 0,1.73097 0.0926,3.80445 1.04137,5.55394 0.99045,1.8652 2.67515,2.32802 3.79982,2.32802 v -0.50448 c -0.89326,0 -2.26323,-0.57853 -2.67515,-2.79085 -0.24993,-1.37923 -0.24993,-3.49899 -0.24993,-4.86896 0,-1.47179 0,-2.98987 0.18513,-4.23488 0.43506,-2.7492 2.16141,-2.95284 2.73995,-2.95284 0.75904,0 2.28637,0.41191 2.72143,2.69829 0.23141,1.28666 0.23141,3.04541 0.23141,4.48943 0,1.73561 0,3.29997 -0.25455,4.77639 -0.34712,2.18918 -1.66156,2.88342 -2.69829,2.88342 h 0 v 0.50448 c 1.24501,0 2.9945,-0.48134 4.01735,-2.67514 0.7359,-1.58751 0.8516,-3.38328 0.8516,-5.20682 z"
       id="path5656" />
    <path
       style="font-style:normal;font-variant:normal;font-weight:normal;font-stretch:normal;letter-spacing:normal;word-spacing:normal;text-anchor:start;fill:#000000;stroke:#000000;stroke-width:0;stroke-linecap:butt;stroke-linejoin:miter;stroke-miterlimit:10.43299961;stroke-opacity:1;stroke-dasharray:none;stroke-dashoffset:0"
       inkscape:connector-curvature="0"
       d="m 349.8533,777.58873 0.0139,-0.0602 0.0185,-0.0694 0.0185,-0.0741 0.0185,-0.0833 0.0278,-0.0879 0.0278,-0.0972 0.0278,-0.10182 0.0324,-0.10183 0.037,-0.10645 0.0417,-0.11108 0.0463,-0.1157 0.0463,-0.11108 0.0509,-0.11571 0.0555,-0.11571 0.0602,-0.1157 0.0648,-0.11571 0.0694,-0.11108 0.0694,-0.11108 0.0787,-0.10645 0.0833,-0.10182 0.0833,-0.10182 0.0926,-0.0926 0.0972,-0.0879 0.10182,-0.0833 0.10645,-0.0741 0.11571,-0.0648 0.0555,-0.0324 0.0602,-0.0278 0.0648,-0.0231 0.0602,-0.0231 0.0648,-0.0231 0.0648,-0.0185 0.0694,-0.0139 0.0694,-0.0139 0.0694,-0.009 0.074,-0.009 0.074,-0.005 0.074,0 c 0.11571,0 0.66648,0 1.14782,0.29621 -0.64333,0.11571 -1.10616,0.69424 -1.10616,1.24501 0,0.36563 0.25455,0.80995 0.87474,0.80995 0.50912,0 1.24501,-0.41192 1.24501,-1.33757 0,-1.20336 -1.36071,-1.51808 -2.14289,-1.51808 -1.33758,0 -2.14753,1.22187 -2.4206,1.74949 -0.57853,-1.51808 -1.82354,-1.74949 -2.48538,-1.74949 -2.40208,0 -3.72114,2.97136 -3.72114,3.54989 0,0.23142 0.23141,0.23142 0.28232,0.23142 0.1805,0 0.25456,-0.0509 0.29621,-0.25456 0.78218,-2.44373 2.30951,-3.02227 3.09169,-3.02227 0.43969,0 1.24038,0.20365 1.24038,1.54122 0,0.71276 -0.38877,2.26323 -1.24038,5.48914 -0.37026,1.43014 -1.17558,2.39746 -2.1938,2.39746 -0.13885,0 -0.66648,0 -1.14782,-0.30084 0.57854,-0.11108 1.08302,-0.59242 1.08302,-1.24501 0,-0.62019 -0.50448,-0.80069 -0.8516,-0.80069 -0.69425,0 -1.27278,0.59704 -1.27278,1.33757 0,1.05525 1.15707,1.51808 2.16604,1.51808 1.52733,0 2.35116,-1.61527 2.42522,-1.74949 0.27307,0.8516 1.10616,1.74949 2.48539,1.74949 2.37893,0 3.698,-2.97136 3.698,-3.5499 0,-0.23141 -0.20828,-0.23141 -0.28233,-0.23141 -0.20364,0 -0.25456,0.0926 -0.29621,0.24993 -0.75904,2.46687 -2.32803,3.02227 -3.06855,3.02227 -0.90252,0 -1.27278,-0.7359 -1.27278,-1.52271 0,-0.50911 0.13885,-1.01359 0.39803,-2.02719 z"
       id="path5811" />
    <path
       style="font-style:normal;font-variant:normal;font-weight:normal;font-stretch:normal;letter-spacing:normal;word-spacing:normal;text-anchor:start;fill:#000000;stroke:#000000;stroke-width:0;stroke-linecap:butt;stroke-linejoin:miter;stroke-miterlimit:10.43299961;stroke-opacity:1;stroke-dasharray:none;stroke-dashoffset:0"
       inkscape:connector-curvature="0"
       d="m 387.9302,777.0102 0.0648,0 0.0694,0 0.0648,0 0.0324,-0.005 0.037,0 0.0324,-0.005 0.0324,-0.005 0.0324,-0.005 0.0324,-0.005 0.0324,-0.005 0.0278,-0.009 0.0324,-0.009 0.0278,-0.009 0.0278,-0.009 0.0278,-0.0139 0.0278,-0.0139 0.0231,-0.0185 0.0232,-0.0139 0.0231,-0.0231 0.0185,-0.0185 0.0185,-0.0231 0.009,-0.0139 0.009,-0.0139 0.005,-0.009 0.009,-0.0139 0.005,-0.0139 0.009,-0.0185 0.005,-0.0139 0.005,-0.0185 0.005,-0.0139 0.005,-0.0185 0,-0.0185 0.005,-0.0185 0,-0.0185 0.005,-0.0185 0,-0.0185 0,-0.0231 c 0,-0.46283 -0.43969,-0.46283 -0.75904,-0.46283 h -13.8108 c -0.32861,0 -0.75904,0 -0.75904,0.46283 0,0.45357 0.43043,0.45357 0.77755,0.45357 z"
       id="path5815" />
    <path
       style="font-style:normal;font-variant:normal;font-weight:normal;font-stretch:normal;letter-spacing:normal;word-spacing:normal;text-anchor:start;fill:#000000;stroke:#000000;stroke-width:0;stroke-linecap:butt;stroke-linejoin:miter;stroke-miterlimit:10.43299961;stroke-opacity:1;stroke-dasharray:none;stroke-dashoffset:0"
       inkscape:connector-curvature="0"
       d="m 387.95334,781.49038 0.0324,0 0.0278,0 0.0648,-0.005 0.0648,0 0.0324,0 0.0324,-0.005 0.0324,-0.005 0.0324,0 0.0278,-0.005 0.0324,-0.009 0.0324,-0.005 0.0278,-0.009 0.0324,-0.009 0.0278,-0.009 0.0278,-0.009 0.0278,-0.0139 0.0231,-0.0139 0.0231,-0.0185 0.0232,-0.0185 0.0231,-0.0185 0.0185,-0.0231 0.009,-0.009 0.009,-0.0139 0.009,-0.009 0.009,-0.0139 0.005,-0.0139 0.009,-0.0139 0.005,-0.0139 0.009,-0.0139 0.005,-0.0185 0.005,-0.0139 0.005,-0.0185 0.005,-0.0185 0,-0.0185 0.005,-0.0185 0,-0.0185 0.005,-0.0185 0,-0.0231 0,-0.0185 c 0,-0.46283 -0.43969,-0.46283 -0.78218,-0.46283 h -13.76915 c -0.34712,0 -0.77755,0 -0.77755,0.46283 0,0.46283 0.43043,0.46283 0.75904,0.46283 z"
       id="path5817" />
    <path
       style="font-style:normal;font-variant:normal;font-weight:normal;font-stretch:normal;letter-spacing:normal;word-spacing:normal;text-anchor:start;fill:#000000;stroke:#000000;stroke-width:0;stroke-linecap:butt;stroke-linejoin:miter;stroke-miterlimit:10.43299961;stroke-opacity:1;stroke-dasharray:none;stroke-dashoffset:0"
       inkscape:connector-curvature="0"
       d="m 403.18965,769.7947 0,-0.0231 0,-0.0278 0,-0.0231 0,-0.0231 0,-0.0231 0,-0.0231 0,-0.0185 0,-0.0231 -0.005,-0.0185 0,-0.0185 0,-0.0185 0,-0.0185 0,-0.0185 0,-0.0139 -0.005,-0.0185 0,-0.0139 -0.005,-0.0324 -0.005,-0.0278 -0.005,-0.0231 -0.005,-0.0231 -0.009,-0.0231 -0.009,-0.0185 -0.009,-0.0185 -0.009,-0.0139 -0.0139,-0.0139 -0.0139,-0.0139 -0.0185,-0.0139 -0.0185,-0.009 -0.0185,-0.009 -0.0139,-0.005 -0.009,-0.005 -0.0139,0 -0.0139,-0.005 -0.009,-0.005 -0.0139,0 -0.0139,-0.005 -0.0185,0 -0.0139,-0.005 -0.0139,0 -0.0185,0 -0.0185,-0.005 -0.0185,0 -0.0185,0 -0.0185,0 -0.0185,0 -0.0231,0 -0.0185,-0.005 -0.0231,0 -0.0231,0 -0.0231,0 -0.0231,0 c -1.43477,1.47642 -3.45733,1.47642 -4.19323,1.47642 v 0.71738 c 0.46283,0 1.81892,0 3.01301,-0.60167 v 11.9456 c 0,0.83309 -0.0648,1.10616 -2.13826,1.10616 h -0.74053 v 0.71738 c 0.80995,-0.0741 2.814,-0.0741 3.7304,-0.0741 0.92565,0 2.9297,0 3.73965,0.0741 v -0.71738 h -0.7359 c -2.0781,0 -2.14752,-0.24993 -2.14752,-1.10616 z"
       id="path5819" />
    <path
       id="path5825"
       d="m 500.30524,777.58873 0.0139,-0.0602 0.0185,-0.0694 0.0185,-0.0741 0.0185,-0.0833 0.0278,-0.0879 0.0278,-0.0972 0.0278,-0.10182 0.0324,-0.10183 0.037,-0.10645 0.0417,-0.11108 0.0463,-0.1157 0.0463,-0.11108 0.0509,-0.11571 0.0555,-0.11571 0.0602,-0.1157 0.0648,-0.11571 0.0694,-0.11108 0.0694,-0.11108 0.0787,-0.10645 0.0833,-0.10182 0.0833,-0.10182 0.0926,-0.0926 0.0972,-0.0879 0.10182,-0.0833 0.10645,-0.0741 0.11571,-0.0648 0.0555,-0.0324 0.0602,-0.0278 0.0648,-0.0231 0.0602,-0.0231 0.0648,-0.0231 0.0648,-0.0185 0.0694,-0.0139 0.0694,-0.0139 0.0694,-0.009 0.074,-0.009 0.074,-0.005 0.074,0 c 0.11571,0 0.66648,0 1.14782,0.29621 -0.64333,0.11571 -1.10616,0.69424 -1.10616,1.24501 0,0.36563 0.25455,0.80995 0.87474,0.80995 0.50912,0 1.24501,-0.41192 1.24501,-1.33757 0,-1.20336 -1.36071,-1.51808 -2.14289,-1.51808 -1.33758,0 -2.14753,1.22187 -2.4206,1.74949 -0.57853,-1.51808 -1.82354,-1.74949 -2.48538,-1.74949 -2.40208,0 -3.72114,2.97136 -3.72114,3.54989 0,0.23142 0.23141,0.23142 0.28232,0.23142 0.1805,0 0.25456,-0.0509 0.29621,-0.25456 0.78218,-2.44373 2.30951,-3.02227 3.09169,-3.02227 0.43969,0 1.24038,0.20365 1.24038,1.54122 0,0.71276 -0.38877,2.26323 -1.24038,5.48914 -0.37026,1.43014 -1.17558,2.39746 -2.1938,2.39746 -0.13885,0 -0.66648,0 -1.14782,-0.30084 0.57854,-0.11108 1.08302,-0.59242 1.08302,-1.24501 0,-0.62019 -0.50448,-0.80069 -0.8516,-0.80069 -0.69425,0 -1.27278,0.59704 -1.27278,1.33757 0,1.05525 1.15707,1.51808 2.16604,1.51808 1.52733,0 2.35116,-1.61527 2.42522,-1.74949 0.27307,0.8516 1.10616,1.74949 2.48539,1.74949 2.37893,0 3.698,-2.97136 3.698,-3.5499 0,-0.23141 -0.20828,-0.23141 -0.28233,-0.23141 -0.20364,0 -0.25456,0.0926 -0.29621,0.24993 -0.75904,2.46687 -2.32803,3.02227 -3.06855,3.02227 -0.90252,0 -1.27278,-0.7359 -1.27278,-1.52271 0,-0.50911 0.13885,-1.01359 0.39803,-2.02719 z"
       inkscape:connector-curvature="0"
       style="font-style:normal;font-variant:normal;font-weight:normal;font-stretch:normal;letter-spacing:normal;word-spacing:normal;text-anchor:start;fill:#000000;stroke:#000000;stroke-width:0;stroke-linecap:butt;stroke-linejoin:miter;stroke-miterlimit:10.43299961;stroke-opacity:1;stroke-dasharray:none;stroke-dashoffset:0" />
    <path
       id="path5829"
       d="m 538.38214,777.0102 0.0648,0 0.0694,0 0.0648,0 0.0324,-0.005 0.037,0 0.0324,-0.005 0.0324,-0.005 0.0324,-0.005 0.0324,-0.005 0.0324,-0.005 0.0278,-0.009 0.0324,-0.009 0.0278,-0.009 0.0278,-0.009 0.0278,-0.0139 0.0278,-0.0139 0.0231,-0.0185 0.0231,-0.0139 0.0231,-0.0231 0.0185,-0.0185 0.0185,-0.0231 0.009,-0.0139 0.009,-0.0139 0.005,-0.009 0.009,-0.0139 0.005,-0.0139 0.009,-0.0185 0.005,-0.0139 0.005,-0.0185 0.005,-0.0139 0.005,-0.0185 0,-0.0185 0.005,-0.0185 0,-0.0185 0.005,-0.0185 0,-0.0185 0,-0.0231 c 0,-0.46283 -0.43969,-0.46283 -0.75904,-0.46283 h -13.8108 c -0.32861,0 -0.75904,0 -0.75904,0.46283 0,0.45357 0.43043,0.45357 0.77755,0.45357 z"
       inkscape:connector-curvature="0"
       style="font-style:normal;font-variant:normal;font-weight:normal;font-stretch:normal;letter-spacing:normal;word-spacing:normal;text-anchor:start;fill:#000000;stroke:#000000;stroke-width:0;stroke-linecap:butt;stroke-linejoin:miter;stroke-miterlimit:10.43299961;stroke-opacity:1;stroke-dasharray:none;stroke-dashoffset:0" />
    <path
       id="path5831"
       d="m 538.40528,781.49038 0.0324,0 0.0278,0 0.0648,-0.005 0.0648,0 0.0324,0 0.0324,-0.005 0.0324,-0.005 0.0324,0 0.0278,-0.005 0.0324,-0.009 0.0324,-0.005 0.0278,-0.009 0.0324,-0.009 0.0278,-0.009 0.0278,-0.009 0.0278,-0.0139 0.0231,-0.0139 0.0231,-0.0185 0.0231,-0.0185 0.0231,-0.0185 0.0185,-0.0231 0.009,-0.009 0.009,-0.0139 0.009,-0.009 0.009,-0.0139 0.005,-0.0139 0.009,-0.0139 0.005,-0.0139 0.009,-0.0139 0.005,-0.0185 0.005,-0.0139 0.005,-0.0185 0.005,-0.0185 0,-0.0185 0.005,-0.0185 0,-0.0185 0.005,-0.0185 0,-0.0231 0,-0.0185 c 0,-0.46283 -0.43969,-0.46283 -0.78218,-0.46283 h -13.76915 c -0.34712,0 -0.77755,0 -0.77755,0.46283 0,0.46283 0.43043,0.46283 0.75904,0.46283 z"
       inkscape:connector-curvature="0"
       style="font-style:normal;font-variant:normal;font-weight:normal;font-stretch:normal;letter-spacing:normal;word-spacing:normal;text-anchor:start;fill:#000000;stroke:#000000;stroke-width:0;stroke-linecap:butt;stroke-linejoin:miter;stroke-miterlimit:10.43299961;stroke-opacity:1;stroke-dasharray:none;stroke-dashoffset:0" />
    <path
       id="path5833"
       d="m 557.47381,777.17682 0,-0.3425 -0.005,-0.34712 -0.009,-0.34712 -0.0185,-0.34249 -0.0185,-0.34712 -0.0278,-0.3425 -0.037,-0.34249 -0.0417,-0.33786 -0.0555,-0.33787 -0.0648,-0.33786 -0.074,-0.33324 -0.0879,-0.33324 -0.10182,-0.33323 -0.11108,-0.32398 -0.12959,-0.32398 -0.0694,-0.16199 -0.0741,-0.15736 c -1.05525,-2.22158 -2.95284,-2.59184 -3.92015,-2.59184 -1.37923,0 -3.06393,0.60167 -4.01273,2.7492 -0.73589,1.59213 -0.8516,3.39253 -0.8516,5.23459 0,1.73097 0.0926,3.80445 1.04136,5.55394 0.99046,1.8652 2.67515,2.32802 3.79982,2.32802 v -0.50448 c -0.89325,0 -2.26323,-0.57853 -2.67514,-2.79085 -0.24993,-1.37923 -0.24993,-3.49899 -0.24993,-4.86896 0,-1.47179 0,-2.98987 0.18513,-4.23488 0.43506,-2.7492 2.16141,-2.95284 2.73994,-2.95284 0.75904,0 2.28638,0.41191 2.72144,2.69829 0.23141,1.28666 0.23141,3.04541 0.23141,4.48943 0,1.73561 0,3.29997 -0.25456,4.77639 -0.34712,2.18918 -1.66155,2.88342 -2.69829,2.88342 h 0 v 0.50448 c 1.24501,0 2.9945,-0.48134 4.01735,-2.67514 0.7359,-1.58751 0.85161,-3.38328 0.85161,-5.20682 z"
       inkscape:connector-curvature="0"
       style="font-style:normal;font-variant:normal;font-weight:normal;font-stretch:normal;letter-spacing:normal;word-spacing:normal;text-anchor:start;fill:#000000;stroke:#000000;stroke-width:0;stroke-linecap:butt;stroke-linejoin:miter;stroke-miterlimit:10.43299961;stroke-opacity:1;stroke-dasharray:none;stroke-dashoffset:0" />
    <path
       id="path5839"
       d="m 649.85331,777.58873 0.0139,-0.0602 0.0185,-0.0694 0.0185,-0.0741 0.0185,-0.0833 0.0278,-0.0879 0.0278,-0.0972 0.0278,-0.10182 0.0324,-0.10183 0.037,-0.10645 0.0417,-0.11108 0.0463,-0.1157 0.0463,-0.11108 0.0509,-0.11571 0.0555,-0.11571 0.0602,-0.1157 0.0648,-0.11571 0.0694,-0.11108 0.0694,-0.11108 0.0787,-0.10645 0.0833,-0.10182 0.0833,-0.10182 0.0926,-0.0926 0.0972,-0.0879 0.10182,-0.0833 0.10645,-0.0741 0.11571,-0.0648 0.0555,-0.0324 0.0602,-0.0278 0.0648,-0.0231 0.0602,-0.0231 0.0648,-0.0231 0.0648,-0.0185 0.0694,-0.0139 0.0694,-0.0139 0.0694,-0.009 0.074,-0.009 0.0741,-0.005 0.074,0 c 0.11571,0 0.66648,0 1.14782,0.29621 -0.64333,0.11571 -1.10616,0.69424 -1.10616,1.24501 0,0.36563 0.25455,0.80995 0.87474,0.80995 0.50912,0 1.24501,-0.41192 1.24501,-1.33757 0,-1.20336 -1.36071,-1.51808 -2.14289,-1.51808 -1.33758,0 -2.14753,1.22187 -2.4206,1.74949 -0.57853,-1.51808 -1.82354,-1.74949 -2.48538,-1.74949 -2.40208,0 -3.72114,2.97136 -3.72114,3.54989 0,0.23142 0.23141,0.23142 0.28232,0.23142 0.1805,0 0.25456,-0.0509 0.29621,-0.25456 0.78218,-2.44373 2.30951,-3.02227 3.09169,-3.02227 0.43969,0 1.24038,0.20365 1.24038,1.54122 0,0.71276 -0.38877,2.26323 -1.24038,5.48914 -0.37026,1.43014 -1.17558,2.39746 -2.1938,2.39746 -0.13885,0 -0.66648,0 -1.14782,-0.30084 0.57854,-0.11108 1.08302,-0.59242 1.08302,-1.24501 0,-0.62019 -0.50448,-0.80069 -0.8516,-0.80069 -0.69425,0 -1.27278,0.59704 -1.27278,1.33757 0,1.05525 1.15707,1.51808 2.16604,1.51808 1.52733,0 2.35116,-1.61527 2.42522,-1.74949 0.27307,0.8516 1.10616,1.74949 2.48539,1.74949 2.37893,0 3.698,-2.97136 3.698,-3.5499 0,-0.23141 -0.20828,-0.23141 -0.28233,-0.23141 -0.20364,0 -0.25456,0.0926 -0.29621,0.24993 -0.75904,2.46687 -2.32803,3.02227 -3.06855,3.02227 -0.90252,0 -1.27278,-0.7359 -1.27278,-1.52271 0,-0.50911 0.13885,-1.01359 0.39803,-2.02719 z"
       inkscape:connector-curvature="0"
       style="font-style:normal;font-variant:normal;font-weight:normal;font-stretch:normal;letter-spacing:normal;word-spacing:normal;text-anchor:start;fill:#000000;stroke:#000000;stroke-width:0;stroke-linecap:butt;stroke-linejoin:miter;stroke-miterlimit:10.43299961;stroke-opacity:1;stroke-dasharray:none;stroke-dashoffset:0" />
    <path
       id="path5843"
       d="m 687.93021,777.0102 0.0648,0 0.0694,0 0.0648,0 0.0324,-0.005 0.037,0 0.0324,-0.005 0.0324,-0.005 0.0324,-0.005 0.0324,-0.005 0.0324,-0.005 0.0278,-0.009 0.0324,-0.009 0.0278,-0.009 0.0278,-0.009 0.0278,-0.0139 0.0278,-0.0139 0.0231,-0.0185 0.0231,-0.0139 0.0231,-0.0231 0.0185,-0.0185 0.0185,-0.0231 0.009,-0.0139 0.009,-0.0139 0.005,-0.009 0.009,-0.0139 0.005,-0.0139 0.009,-0.0185 0.005,-0.0139 0.005,-0.0185 0.005,-0.0139 0.005,-0.0185 0,-0.0185 0.005,-0.0185 0,-0.0185 0.005,-0.0185 0,-0.0185 0,-0.0231 c 0,-0.46283 -0.43969,-0.46283 -0.75904,-0.46283 h -13.8108 c -0.32861,0 -0.75904,0 -0.75904,0.46283 0,0.45357 0.43043,0.45357 0.77755,0.45357 z"
       inkscape:connector-curvature="0"
       style="font-style:normal;font-variant:normal;font-weight:normal;font-stretch:normal;letter-spacing:normal;word-spacing:normal;text-anchor:start;fill:#000000;stroke:#000000;stroke-width:0;stroke-linecap:butt;stroke-linejoin:miter;stroke-miterlimit:10.43299961;stroke-opacity:1;stroke-dasharray:none;stroke-dashoffset:0" />
    <path
       id="path5845"
       d="m 687.95335,781.49038 0.0324,0 0.0278,0 0.0648,-0.005 0.0648,0 0.0324,0 0.0324,-0.005 0.0324,-0.005 0.0324,0 0.0278,-0.005 0.0324,-0.009 0.0324,-0.005 0.0278,-0.009 0.0324,-0.009 0.0278,-0.009 0.0278,-0.009 0.0278,-0.0139 0.0231,-0.0139 0.0231,-0.0185 0.0231,-0.0185 0.0231,-0.0185 0.0185,-0.0231 0.009,-0.009 0.009,-0.0139 0.009,-0.009 0.009,-0.0139 0.005,-0.0139 0.009,-0.0139 0.005,-0.0139 0.009,-0.0139 0.005,-0.0185 0.005,-0.0139 0.005,-0.0185 0.005,-0.0185 0,-0.0185 0.005,-0.0185 0,-0.0185 0.005,-0.0185 0,-0.0231 0,-0.0185 c 0,-0.46283 -0.43969,-0.46283 -0.78218,-0.46283 h -13.76915 c -0.34712,0 -0.77755,0 -0.77755,0.46283 0,0.46283 0.43043,0.46283 0.75904,0.46283 z"
       inkscape:connector-curvature="0"
       style="font-style:normal;font-variant:normal;font-weight:normal;font-stretch:normal;letter-spacing:normal;word-spacing:normal;text-anchor:start;fill:#000000;stroke:#000000;stroke-width:0;stroke-linecap:butt;stroke-linejoin:miter;stroke-miterlimit:10.43299961;stroke-opacity:1;stroke-dasharray:none;stroke-dashoffset:0" />
    <path
       id="path5847"
       d="m 703.18966,769.7947 0,-0.0231 0,-0.0278 0,-0.0231 0,-0.0231 0,-0.0231 0,-0.0231 0,-0.0185 0,-0.0231 -0.005,-0.0185 0,-0.0185 0,-0.0185 0,-0.0185 0,-0.0185 0,-0.0139 -0.005,-0.0185 0,-0.0139 -0.005,-0.0324 -0.005,-0.0278 -0.005,-0.0231 -0.005,-0.0231 -0.009,-0.0231 -0.009,-0.0185 -0.009,-0.0185 -0.009,-0.0139 -0.0139,-0.0139 -0.0139,-0.0139 -0.0185,-0.0139 -0.0185,-0.009 -0.0185,-0.009 -0.0139,-0.005 -0.009,-0.005 -0.0139,0 -0.0139,-0.005 -0.009,-0.005 -0.0139,0 -0.0139,-0.005 -0.0185,0 -0.0139,-0.005 -0.0139,0 -0.0185,0 -0.0185,-0.005 -0.0185,0 -0.0185,0 -0.0185,0 -0.0185,0 -0.0231,0 -0.0185,-0.005 -0.0231,0 -0.0231,0 -0.0231,0 -0.0231,0 c -1.43477,1.47642 -3.45733,1.47642 -4.19323,1.47642 v 0.71738 c 0.46283,0 1.81892,0 3.01301,-0.60167 v 11.9456 c 0,0.83309 -0.0648,1.10616 -2.13826,1.10616 h -0.74053 v 0.71738 c 0.80995,-0.0741 2.814,-0.0741 3.7304,-0.0741 0.92565,0 2.9297,0 3.73965,0.0741 v -0.71738 h -0.7359 c -2.0781,0 -2.14752,-0.24993 -2.14752,-1.10616 z"
       inkscape:connector-curvature="0"
       style="font-style:normal;font-variant:normal;font-weight:normal;font-stretch:normal;letter-spacing:normal;word-spacing:normal;text-anchor:start;fill:#000000;stroke:#000000;stroke-width:0;stroke-linecap:butt;stroke-linejoin:miter;stroke-miterlimit:10.43299961;stroke-opacity:1;stroke-dasharray:none;stroke-dashoffset:0" />
    <path
       style="font-style:normal;font-variant:normal;font-weight:normal;font-stretch:normal;letter-spacing:normal;word-spacing:normal;text-anchor:start;fill:#000000;stroke:#000000;stroke-width:0;stroke-linecap:butt;stroke-linejoin:miter;stroke-miterlimit:10.43299961;stroke-opacity:1;stroke-dasharray:none;stroke-dashoffset:0"
       inkscape:connector-curvature="0"
       d="m 800.30534,777.58873 0.0139,-0.0602 0.0185,-0.0694 0.0185,-0.0741 0.0185,-0.0833 0.0278,-0.0879 0.0278,-0.0972 0.0278,-0.10182 0.0324,-0.10183 0.037,-0.10645 0.0417,-0.11108 0.0463,-0.1157 0.0463,-0.11108 0.0509,-0.11571 0.0555,-0.11571 0.0602,-0.1157 0.0648,-0.11571 0.0694,-0.11108 0.0694,-0.11108 0.0787,-0.10645 0.0833,-0.10182 0.0833,-0.10182 0.0926,-0.0926 0.0972,-0.0879 0.10182,-0.0833 0.10645,-0.0741 0.11571,-0.0648 0.0555,-0.0324 0.0602,-0.0278 0.0648,-0.0231 0.0602,-0.0231 0.0648,-0.0231 0.0648,-0.0185 0.0694,-0.0139 0.0694,-0.0139 0.0694,-0.009 0.0741,-0.009 0.074,-0.005 0.0741,0 c 0.11571,0 0.66648,0 1.14782,0.29621 -0.64333,0.11571 -1.10616,0.69424 -1.10616,1.24501 0,0.36563 0.25455,0.80995 0.87474,0.80995 0.50912,0 1.24501,-0.41192 1.24501,-1.33757 0,-1.20336 -1.36071,-1.51808 -2.14289,-1.51808 -1.33758,0 -2.14753,1.22187 -2.4206,1.74949 -0.57853,-1.51808 -1.82354,-1.74949 -2.48538,-1.74949 -2.40208,0 -3.72114,2.97136 -3.72114,3.54989 0,0.23142 0.23141,0.23142 0.28232,0.23142 0.1805,0 0.25456,-0.0509 0.29621,-0.25456 0.78218,-2.44373 2.30951,-3.02227 3.09169,-3.02227 0.43969,0 1.24038,0.20365 1.24038,1.54122 0,0.71276 -0.38877,2.26323 -1.24038,5.48914 -0.37026,1.43014 -1.17558,2.39746 -2.1938,2.39746 -0.13885,0 -0.66648,0 -1.14782,-0.30084 0.57854,-0.11108 1.08302,-0.59242 1.08302,-1.24501 0,-0.62019 -0.50448,-0.80069 -0.8516,-0.80069 -0.69425,0 -1.27278,0.59704 -1.27278,1.33757 0,1.05525 1.15707,1.51808 2.16604,1.51808 1.52733,0 2.35116,-1.61527 2.42522,-1.74949 0.27307,0.8516 1.10616,1.74949 2.48539,1.74949 2.37893,0 3.698,-2.97136 3.698,-3.5499 0,-0.23141 -0.20828,-0.23141 -0.28233,-0.23141 -0.20364,0 -0.25456,0.0926 -0.29621,0.24993 -0.75904,2.46687 -2.32803,3.02227 -3.06855,3.02227 -0.90252,0 -1.27278,-0.7359 -1.27278,-1.52271 0,-0.50911 0.13885,-1.01359 0.39803,-2.02719 z"
       id="path5853" />
    <path
       style="font-style:normal;font-variant:normal;font-weight:normal;font-stretch:normal;letter-spacing:normal;word-spacing:normal;text-anchor:start;fill:#000000;stroke:#000000;stroke-width:0;stroke-linecap:butt;stroke-linejoin:miter;stroke-miterlimit:10.43299961;stroke-opacity:1;stroke-dasharray:none;stroke-dashoffset:0"
       inkscape:connector-curvature="0"
       d="m 838.38224,777.0102 0.0648,0 0.0694,0 0.0648,0 0.0324,-0.005 0.037,0 0.0324,-0.005 0.0324,-0.005 0.0324,-0.005 0.0324,-0.005 0.0324,-0.005 0.0278,-0.009 0.0324,-0.009 0.0278,-0.009 0.0278,-0.009 0.0278,-0.0139 0.0278,-0.0139 0.0231,-0.0185 0.0231,-0.0139 0.0231,-0.0231 0.0185,-0.0185 0.0185,-0.0231 0.009,-0.0139 0.009,-0.0139 0.005,-0.009 0.009,-0.0139 0.005,-0.0139 0.009,-0.0185 0.005,-0.0139 0.005,-0.0185 0.005,-0.0139 0.005,-0.0185 0,-0.0185 0.005,-0.0185 0,-0.0185 0.005,-0.0185 0,-0.0185 0,-0.0231 c 0,-0.46283 -0.43969,-0.46283 -0.75904,-0.46283 h -13.8108 c -0.32861,0 -0.75904,0 -0.75904,0.46283 0,0.45357 0.43043,0.45357 0.77755,0.45357 z"
       id="path5857" />
    <path
       style="font-style:normal;font-variant:normal;font-weight:normal;font-stretch:normal;letter-spacing:normal;word-spacing:normal;text-anchor:start;fill:#000000;stroke:#000000;stroke-width:0;stroke-linecap:butt;stroke-linejoin:miter;stroke-miterlimit:10.43299961;stroke-opacity:1;stroke-dasharray:none;stroke-dashoffset:0"
       inkscape:connector-curvature="0"
       d="m 838.40538,781.49038 0.0324,0 0.0278,0 0.0648,-0.005 0.0648,0 0.0324,0 0.0324,-0.005 0.0324,-0.005 0.0324,0 0.0278,-0.005 0.0324,-0.009 0.0324,-0.005 0.0278,-0.009 0.0324,-0.009 0.0278,-0.009 0.0278,-0.009 0.0278,-0.0139 0.0231,-0.0139 0.0231,-0.0185 0.0231,-0.0185 0.0231,-0.0185 0.0185,-0.0231 0.009,-0.009 0.009,-0.0139 0.009,-0.009 0.009,-0.0139 0.005,-0.0139 0.009,-0.0139 0.005,-0.0139 0.009,-0.0139 0.005,-0.0185 0.005,-0.0139 0.005,-0.0185 0.005,-0.0185 0,-0.0185 0.005,-0.0185 0,-0.0185 0.005,-0.0185 0,-0.0231 0,-0.0185 c 0,-0.46283 -0.43969,-0.46283 -0.78218,-0.46283 h -13.76915 c -0.34712,0 -0.77755,0 -0.77755,0.46283 0,0.46283 0.43043,0.46283 0.75904,0.46283 z"
       id="path5859" />
    <path
       style="font-style:normal;font-variant:normal;font-weight:normal;font-stretch:normal;letter-spacing:normal;word-spacing:normal;text-anchor:start;fill:#000000;stroke:#000000;stroke-width:0;stroke-linecap:butt;stroke-linejoin:miter;stroke-miterlimit:10.43299961;stroke-opacity:1;stroke-dasharray:none;stroke-dashoffset:0"
       inkscape:connector-curvature="0"
       d="m 857.47391,777.17682 0,-0.3425 -0.005,-0.34712 -0.009,-0.34712 -0.0185,-0.34249 -0.0185,-0.34712 -0.0278,-0.3425 -0.037,-0.34249 -0.0417,-0.33786 -0.0555,-0.33787 -0.0648,-0.33786 -0.074,-0.33324 -0.0879,-0.33324 -0.10182,-0.33323 -0.11108,-0.32398 -0.12959,-0.32398 -0.0694,-0.16199 -0.074,-0.15736 c -1.05525,-2.22158 -2.95284,-2.59184 -3.92015,-2.59184 -1.37923,0 -3.06393,0.60167 -4.01273,2.7492 -0.73589,1.59213 -0.8516,3.39253 -0.8516,5.23459 0,1.73097 0.0926,3.80445 1.04136,5.55394 0.99046,1.8652 2.67515,2.32802 3.79982,2.32802 v -0.50448 c -0.89325,0 -2.26323,-0.57853 -2.67514,-2.79085 -0.24993,-1.37923 -0.24993,-3.49899 -0.24993,-4.86896 0,-1.47179 0,-2.98987 0.18513,-4.23488 0.43506,-2.7492 2.16141,-2.95284 2.73994,-2.95284 0.75904,0 2.28638,0.41191 2.72144,2.69829 0.23141,1.28666 0.23141,3.04541 0.23141,4.48943 0,1.73561 0,3.29997 -0.25456,4.77639 -0.34712,2.18918 -1.66155,2.88342 -2.69829,2.88342 h 0 v 0.50448 c 1.24501,0 2.9945,-0.48134 4.01735,-2.67514 0.7359,-1.58751 0.85161,-3.38328 0.85161,-5.20682 z"
       id="path5861" />
    <path
       style="font-style:normal;font-variant:normal;font-weight:normal;font-stretch:normal;letter-spacing:normal;word-spacing:normal;text-anchor:start;fill:#000000;stroke:#000000;stroke-width:0;stroke-linecap:butt;stroke-linejoin:miter;stroke-miterlimit:10.43299961;stroke-opacity:1;stroke-dasharray:none;stroke-dashoffset:0"
       inkscape:connector-curvature="0"
       d="m 949.85343,777.58873 0.0139,-0.0602 0.0185,-0.0694 0.0185,-0.0741 0.0185,-0.0833 0.0278,-0.0879 0.0278,-0.0972 0.0278,-0.10182 0.0324,-0.10183 0.037,-0.10645 0.0417,-0.11108 0.0463,-0.1157 0.0463,-0.11108 0.0509,-0.11571 0.0555,-0.11571 0.0602,-0.1157 0.0648,-0.11571 0.0694,-0.11108 0.0694,-0.11108 0.0787,-0.10645 0.0833,-0.10182 0.0833,-0.10182 0.0926,-0.0926 0.0972,-0.0879 0.10182,-0.0833 0.10645,-0.0741 0.11571,-0.0648 0.0555,-0.0324 0.0602,-0.0278 0.0648,-0.0231 0.0602,-0.0231 0.0648,-0.0231 0.0648,-0.0185 0.0694,-0.0139 0.0694,-0.0139 0.0694,-0.009 0.0741,-0.009 0.074,-0.005 0.0741,0 c 0.11571,0 0.66648,0 1.14782,0.29621 -0.64333,0.11571 -1.10616,0.69424 -1.10616,1.24501 0,0.36563 0.25455,0.80995 0.87474,0.80995 0.50912,0 1.24501,-0.41192 1.24501,-1.33757 0,-1.20336 -1.36071,-1.51808 -2.14289,-1.51808 -1.33758,0 -2.14753,1.22187 -2.4206,1.74949 -0.57853,-1.51808 -1.82354,-1.74949 -2.48538,-1.74949 -2.40208,0 -3.72114,2.97136 -3.72114,3.54989 0,0.23142 0.23141,0.23142 0.28232,0.23142 0.1805,0 0.25456,-0.0509 0.29621,-0.25456 0.78218,-2.44373 2.30951,-3.02227 3.09169,-3.02227 0.43969,0 1.24038,0.20365 1.24038,1.54122 0,0.71276 -0.38877,2.26323 -1.24038,5.48914 -0.37026,1.43014 -1.17558,2.39746 -2.1938,2.39746 -0.13885,0 -0.66648,0 -1.14782,-0.30084 0.57854,-0.11108 1.08302,-0.59242 1.08302,-1.24501 0,-0.62019 -0.50448,-0.80069 -0.8516,-0.80069 -0.69425,0 -1.27278,0.59704 -1.27278,1.33757 0,1.05525 1.15707,1.51808 2.16604,1.51808 1.52733,0 2.35116,-1.61527 2.42522,-1.74949 0.27307,0.8516 1.10616,1.74949 2.48539,1.74949 2.37893,0 3.698,-2.97136 3.698,-3.5499 0,-0.23141 -0.20828,-0.23141 -0.28233,-0.23141 -0.20364,0 -0.25456,0.0926 -0.29621,0.24993 -0.75904,2.46687 -2.32803,3.02227 -3.06855,3.02227 -0.90252,0 -1.27278,-0.7359 -1.27278,-1.52271 0,-0.50911 0.13885,-1.01359 0.39803,-2.02719 z"
       id="path5867" />
    <path
       style="font-style:normal;font-variant:normal;font-weight:normal;font-stretch:normal;letter-spacing:normal;word-spacing:normal;text-anchor:start;fill:#000000;stroke:#000000;stroke-width:0;stroke-linecap:butt;stroke-linejoin:miter;stroke-miterlimit:10.43299961;stroke-opacity:1;stroke-dasharray:none;stroke-dashoffset:0"
       inkscape:connector-curvature="0"
       d="m 987.93033,777.0102 0.0648,0 0.0694,0 0.0648,0 0.0324,-0.005 0.037,0 0.0324,-0.005 0.0324,-0.005 0.0324,-0.005 0.0324,-0.005 0.0324,-0.005 0.0278,-0.009 0.0324,-0.009 0.0278,-0.009 0.0278,-0.009 0.0278,-0.0139 0.0278,-0.0139 0.0231,-0.0185 0.0231,-0.0139 0.0231,-0.0231 0.0185,-0.0185 0.0185,-0.0231 0.009,-0.0139 0.009,-0.0139 0.005,-0.009 0.009,-0.0139 0.005,-0.0139 0.009,-0.0185 0.005,-0.0139 0.005,-0.0185 0.005,-0.0139 0.005,-0.0185 0,-0.0185 0.005,-0.0185 0,-0.0185 0.005,-0.0185 0,-0.0185 0,-0.0231 c 0,-0.46283 -0.43969,-0.46283 -0.75904,-0.46283 h -13.8108 c -0.32861,0 -0.75904,0 -0.75904,0.46283 0,0.45357 0.43043,0.45357 0.77755,0.45357 z"
       id="path5871" />
    <path
       style="font-style:normal;font-variant:normal;font-weight:normal;font-stretch:normal;letter-spacing:normal;word-spacing:normal;text-anchor:start;fill:#000000;stroke:#000000;stroke-width:0;stroke-linecap:butt;stroke-linejoin:miter;stroke-miterlimit:10.43299961;stroke-opacity:1;stroke-dasharray:none;stroke-dashoffset:0"
       inkscape:connector-curvature="0"
       d="m 987.95347,781.49038 0.0324,0 0.0278,0 0.0648,-0.005 0.0648,0 0.0324,0 0.0324,-0.005 0.0324,-0.005 0.0324,0 0.0278,-0.005 0.0324,-0.009 0.0324,-0.005 0.0278,-0.009 0.0324,-0.009 0.0278,-0.009 0.0278,-0.009 0.0278,-0.0139 0.0231,-0.0139 0.0231,-0.0185 0.0231,-0.0185 0.0231,-0.0185 0.0185,-0.0231 0.009,-0.009 0.009,-0.0139 0.009,-0.009 0.009,-0.0139 0.005,-0.0139 0.009,-0.0139 0.005,-0.0139 0.009,-0.0139 0.005,-0.0185 0.005,-0.0139 0.005,-0.0185 0.005,-0.0185 0,-0.0185 0.005,-0.0185 0,-0.0185 0.005,-0.0185 0,-0.0231 0,-0.0185 c 0,-0.46283 -0.43969,-0.46283 -0.78218,-0.46283 h -13.76915 c -0.34712,0 -0.77755,0 -0.77755,0.46283 0,0.46283 0.43043,0.46283 0.75904,0.46283 z"
       id="path5873" />
    <path
       style="font-style:normal;font-variant:normal;font-weight:normal;font-stretch:normal;letter-spacing:normal;word-spacing:normal;text-anchor:start;fill:#000000;stroke:#000000;stroke-width:0;stroke-linecap:butt;stroke-linejoin:miter;stroke-miterlimit:10.43299961;stroke-opacity:1;stroke-dasharray:none;stroke-dashoffset:0"
       inkscape:connector-curvature="0"
       d="m 1003.1898,769.7947 0,-0.0231 0,-0.0278 0,-0.0231 0,-0.0231 0,-0.0231 0,-0.0231 0,-0.0185 0,-0.0231 0,-0.0185 0,-0.0185 0,-0.0185 0,-0.0185 0,-0.0185 0,-0.0139 0,-0.0185 0,-0.0139 0,-0.0324 0,-0.0278 0,-0.0231 0,-0.0231 -0.01,-0.0231 -0.01,-0.0185 -0.01,-0.0185 -0.01,-0.0139 -0.014,-0.0139 -0.014,-0.0139 -0.019,-0.0139 -0.019,-0.009 -0.019,-0.009 -0.014,-0.005 -0.01,-0.005 -0.014,0 -0.014,-0.005 -0.01,-0.005 -0.014,0 -0.014,-0.005 -0.019,0 -0.014,-0.005 -0.014,0 -0.019,0 -0.019,-0.005 -0.019,0 -0.019,0 -0.019,0 -0.019,0 -0.023,0 -0.019,-0.005 -0.023,0 -0.023,0 -0.023,0 -0.023,0 c -1.4348,1.47642 -3.45737,1.47642 -4.19327,1.47642 v 0.71738 c 0.46283,0 1.81887,0 3.01297,-0.60167 v 11.9456 c 0,0.83309 -0.065,1.10616 -2.13822,1.10616 h -0.74053 v 0.71738 c 0.80995,-0.0741 2.81395,-0.0741 3.73035,-0.0741 0.9257,0 2.9298,0 3.7397,0.0741 v -0.71738 h -0.7359 c -2.0781,0 -2.1475,-0.24993 -2.1475,-1.10616 z"
       id="path5875" />
    <path
       id="path5881"
       d="m 1100.3055,777.58873 0.014,-0.0602 0.019,-0.0694 0.018,-0.0741 0.019,-0.0833 0.028,-0.0879 0.028,-0.0972 0.028,-0.10182 0.032,-0.10183 0.037,-0.10645 0.042,-0.11108 0.046,-0.1157 0.046,-0.11108 0.051,-0.11571 0.055,-0.11571 0.06,-0.1157 0.065,-0.11571 0.069,-0.11108 0.069,-0.11108 0.079,-0.10645 0.083,-0.10182 0.083,-0.10182 0.093,-0.0926 0.097,-0.0879 0.1018,-0.0833 0.1064,-0.0741 0.1157,-0.0648 0.056,-0.0324 0.06,-0.0278 0.065,-0.0231 0.06,-0.0231 0.065,-0.0231 0.065,-0.0185 0.069,-0.0139 0.07,-0.0139 0.069,-0.009 0.074,-0.009 0.074,-0.005 0.074,0 c 0.1157,0 0.6665,0 1.1478,0.29621 -0.6433,0.11571 -1.1061,0.69424 -1.1061,1.24501 0,0.36563 0.2545,0.80995 0.8747,0.80995 0.5091,0 1.245,-0.41192 1.245,-1.33757 0,-1.20336 -1.3607,-1.51808 -2.1429,-1.51808 -1.3375,0 -2.1475,1.22187 -2.4205,1.74949 -0.5786,-1.51808 -1.8236,-1.74949 -2.4854,-1.74949 -2.4021,0 -3.7212,2.97136 -3.7212,3.54989 0,0.23142 0.2314,0.23142 0.2824,0.23142 0.1805,0 0.2545,-0.0509 0.2962,-0.25456 0.7821,-2.44373 2.3095,-3.02227 3.0917,-3.02227 0.4396,0 1.2403,0.20365 1.2403,1.54122 0,0.71276 -0.3887,2.26323 -1.2403,5.48914 -0.3703,1.43014 -1.1756,2.39746 -2.1939,2.39746 -0.1388,0 -0.6664,0 -1.1478,-0.30084 0.5786,-0.11108 1.0831,-0.59242 1.0831,-1.24501 0,-0.62019 -0.5045,-0.80069 -0.8517,-0.80069 -0.6942,0 -1.2727,0.59704 -1.2727,1.33757 0,1.05525 1.157,1.51808 2.166,1.51808 1.5273,0 2.3512,-1.61527 2.4252,-1.74949 0.2731,0.8516 1.1062,1.74949 2.4854,1.74949 2.379,0 3.698,-2.97136 3.698,-3.5499 0,-0.23141 -0.2083,-0.23141 -0.2823,-0.23141 -0.2037,0 -0.2546,0.0926 -0.2962,0.24993 -0.7591,2.46687 -2.328,3.02227 -3.0686,3.02227 -0.9025,0 -1.2728,-0.7359 -1.2728,-1.52271 0,-0.50911 0.1389,-1.01359 0.3981,-2.02719 z"
       inkscape:connector-curvature="0"
       style="font-style:normal;font-variant:normal;font-weight:normal;font-stretch:normal;letter-spacing:normal;word-spacing:normal;text-anchor:start;fill:#000000;stroke:#000000;stroke-width:0;stroke-linecap:butt;stroke-linejoin:miter;stroke-miterlimit:10.43299961;stroke-opacity:1;stroke-dasharray:none;stroke-dashoffset:0" />
    <path
       id="path5885"
       d="m 1138.3824,777.0102 0.065,0 0.069,0 0.065,0 0.032,-0.005 0.037,0 0.032,-0.005 0.032,-0.005 0.032,-0.005 0.032,-0.005 0.032,-0.005 0.028,-0.009 0.032,-0.009 0.028,-0.009 0.028,-0.009 0.028,-0.0139 0.028,-0.0139 0.023,-0.0185 0.023,-0.0139 0.023,-0.0231 0.018,-0.0185 0.019,-0.0231 0.01,-0.0139 0.01,-0.0139 0,-0.009 0.01,-0.0139 0,-0.0139 0.01,-0.0185 0,-0.0139 0,-0.0185 0,-0.0139 0,-0.0185 0,-0.0185 0,-0.0185 0,-0.0185 0,-0.0185 0,-0.0185 0,-0.0231 c 0,-0.46283 -0.4397,-0.46283 -0.759,-0.46283 h -13.8108 c -0.3286,0 -0.759,0 -0.759,0.46283 0,0.45357 0.4304,0.45357 0.7775,0.45357 z"
       inkscape:connector-curvature="0"
       style="font-style:normal;font-variant:normal;font-weight:normal;font-stretch:normal;letter-spacing:normal;word-spacing:normal;text-anchor:start;fill:#000000;stroke:#000000;stroke-width:0;stroke-linecap:butt;stroke-linejoin:miter;stroke-miterlimit:10.43299961;stroke-opacity:1;stroke-dasharray:none;stroke-dashoffset:0" />
    <path
       id="path5887"
       d="m 1138.4055,781.49038 0.032,0 0.028,0 0.065,-0.005 0.065,0 0.032,0 0.032,-0.005 0.032,-0.005 0.032,0 0.028,-0.005 0.032,-0.009 0.032,-0.005 0.028,-0.009 0.032,-0.009 0.028,-0.009 0.028,-0.009 0.028,-0.0139 0.023,-0.0139 0.023,-0.0185 0.023,-0.0185 0.023,-0.0185 0.018,-0.0231 0.01,-0.009 0.01,-0.0139 0.01,-0.009 0.01,-0.0139 0,-0.0139 0.01,-0.0139 0,-0.0139 0.01,-0.0139 0,-0.0185 0,-0.0139 0,-0.0185 0,-0.0185 0,-0.0185 0,-0.0185 0,-0.0185 0,-0.0185 0,-0.0231 0,-0.0185 c 0,-0.46283 -0.4397,-0.46283 -0.7821,-0.46283 h -13.7692 c -0.3471,0 -0.7775,0 -0.7775,0.46283 0,0.46283 0.4304,0.46283 0.759,0.46283 z"
       inkscape:connector-curvature="0"
       style="font-style:normal;font-variant:normal;font-weight:normal;font-stretch:normal;letter-spacing:normal;word-spacing:normal;text-anchor:start;fill:#000000;stroke:#000000;stroke-width:0;stroke-linecap:butt;stroke-linejoin:miter;stroke-miterlimit:10.43299961;stroke-opacity:1;stroke-dasharray:none;stroke-dashoffset:0" />
    <path
       id="path5889"
       d="m 1157.474,777.17682 0,-0.3425 0,-0.34712 -0.01,-0.34712 -0.018,-0.34249 -0.019,-0.34712 -0.028,-0.3425 -0.037,-0.34249 -0.042,-0.33786 -0.056,-0.33787 -0.065,-0.33786 -0.074,-0.33324 -0.088,-0.33324 -0.1018,-0.33323 -0.1111,-0.32398 -0.1296,-0.32398 -0.069,-0.16199 -0.074,-0.15736 c -1.0553,-2.22158 -2.9529,-2.59184 -3.9202,-2.59184 -1.3792,0 -3.0639,0.60167 -4.0127,2.7492 -0.7359,1.59213 -0.8516,3.39253 -0.8516,5.23459 0,1.73097 0.093,3.80445 1.0414,5.55394 0.9904,1.8652 2.6751,2.32802 3.7998,2.32802 v -0.50448 c -0.8933,0 -2.2633,-0.57853 -2.6752,-2.79085 -0.2499,-1.37923 -0.2499,-3.49899 -0.2499,-4.86896 0,-1.47179 0,-2.98987 0.1851,-4.23488 0.4351,-2.7492 2.1614,-2.95284 2.74,-2.95284 0.759,0 2.2863,0.41191 2.7214,2.69829 0.2314,1.28666 0.2314,3.04541 0.2314,4.48943 0,1.73561 0,3.29997 -0.2545,4.77639 -0.3472,2.18918 -1.6616,2.88342 -2.6983,2.88342 h 0 v 0.50448 c 1.245,0 2.9945,-0.48134 4.0173,-2.67514 0.7359,-1.58751 0.8516,-3.38328 0.8516,-5.20682 z"
       inkscape:connector-curvature="0"
       style="font-style:normal;font-variant:normal;font-weight:normal;font-stretch:normal;letter-spacing:normal;word-spacing:normal;text-anchor:start;fill:#000000;stroke:#000000;stroke-width:0;stroke-linecap:butt;stroke-linejoin:miter;stroke-miterlimit:10.43299961;stroke-opacity:1;stroke-dasharray:none;stroke-dashoffset:0" />
    <path
       style="font-style:normal;font-variant:normal;font-weight:normal;font-stretch:normal;letter-spacing:normal;word-spacing:normal;text-anchor:start;fill:#000000;stroke:#000000;stroke-width:0;stroke-linecap:butt;stroke-linejoin:miter;stroke-miterlimit:10.43299961;stroke-opacity:1;stroke-dasharray:none;stroke-dashoffset:0"
       inkscape:connector-curvature="0"
       d="m 972.00401,620.94864 0.0163,-0.0707 0.0218,-0.0816 0.0218,-0.0871 0.0218,-0.098 0.0327,-0.10341 0.0326,-0.1143 0.0327,-0.11973 0.0381,-0.11974 0.0435,-0.12517 0.049,-0.13062 0.0544,-0.13607 0.0544,-0.13062 0.0599,-0.13606 0.0653,-0.13606 0.0707,-0.13607 0.0762,-0.13606 0.0816,-0.13062 0.0816,-0.13062 0.0925,-0.12518 0.098,-0.11973 0.098,-0.11974 0.10885,-0.10885 0.1143,-0.10341 0.11973,-0.098 0.12518,-0.0871 0.13606,-0.0762 0.0653,-0.0381 0.0708,-0.0326 0.0762,-0.0272 0.0708,-0.0272 0.0762,-0.0272 0.0762,-0.0218 0.0816,-0.0163 0.0816,-0.0163 0.0816,-0.0109 0.0871,-0.0109 0.0871,-0.005 0.0871,0 c 0.13606,0 0.78372,0 1.34974,0.34832 -0.75651,0.13607 -1.30076,0.81638 -1.30076,1.46404 0,0.42996 0.29934,0.95244 1.02864,0.95244 0.59868,0 1.46404,-0.48438 1.46404,-1.57289 0,-1.41505 -1.6001,-1.78514 -2.51989,-1.78514 -1.57289,0 -2.52533,1.43682 -2.84644,2.05727 -0.68031,-1.78515 -2.14435,-2.05727 -2.92263,-2.05727 -2.82467,0 -4.37579,3.4941 -4.37579,4.17441 0,0.27213 0.27213,0.27213 0.332,0.27213 0.21226,0 0.29934,-0.0599 0.34832,-0.29934 0.91978,-2.87365 2.71582,-3.55397 3.6356,-3.55397 0.51704,0 1.4586,0.23947 1.4586,1.81236 0,0.83815 -0.45717,2.66139 -1.4586,6.45483 -0.4354,1.68174 -1.3824,2.81923 -2.57975,2.81923 -0.16328,0 -0.78373,0 -1.34975,-0.35377 0.68032,-0.13062 1.27355,-0.69664 1.27355,-1.46404 0,-0.72929 -0.59323,-0.94155 -1.00142,-0.94155 -0.81638,0 -1.49669,0.70208 -1.49669,1.57289 0,1.24089 1.36063,1.78514 2.54709,1.78514 1.79604,0 2.7648,-1.89944 2.85189,-2.05727 0.3211,1.00142 1.30076,2.05727 2.92263,2.05727 2.79745,0 4.34857,-3.4941 4.34857,-4.17441 0,-0.27213 -0.24491,-0.27213 -0.33199,-0.27213 -0.23947,0 -0.29934,0.10885 -0.34832,0.2939 -0.89258,2.90086 -2.73759,3.55397 -3.60839,3.55397 -1.0613,0 -1.4967,-0.86537 -1.4967,-1.79059 0,-0.59868 0.16328,-1.19192 0.46806,-2.38383 z"
       id="path5183" />
    <path
       style="font-style:normal;font-variant:normal;font-weight:normal;font-stretch:normal;letter-spacing:normal;word-spacing:normal;text-anchor:start;fill:#000000;stroke:#000000;stroke-width:0;stroke-linecap:butt;stroke-linejoin:miter;stroke-miterlimit:10.43299961;stroke-opacity:1;stroke-dasharray:none;stroke-dashoffset:0"
       inkscape:connector-curvature="0"
       d="m 1016.7796,620.26833 0.076,0 0.082,0 0.076,0 0.038,-0.005 0.044,0 0.038,-0.005 0.038,-0.005 0.038,-0.005 0.038,-0.005 0.038,-0.005 0.033,-0.0109 0.038,-0.0109 0.033,-0.0109 0.033,-0.0109 0.033,-0.0163 0.033,-0.0163 0.027,-0.0218 0.027,-0.0163 0.027,-0.0272 0.022,-0.0218 0.022,-0.0272 0.011,-0.0163 0.011,-0.0163 0.01,-0.0109 0.011,-0.0163 0.01,-0.0163 0.011,-0.0218 0.01,-0.0163 0.01,-0.0218 0.01,-0.0163 0.01,-0.0218 0,-0.0218 0.01,-0.0218 0,-0.0218 0.01,-0.0218 0,-0.0218 0,-0.0272 c 0,-0.54425 -0.517,-0.54425 -0.8926,-0.54425 h -16.2405 c -0.3864,0 -0.89252,0 -0.89252,0.54425 0,0.53337 0.50612,0.53337 0.91432,0.53337 z"
       id="path5187" />
    <path
       style="font-style:normal;font-variant:normal;font-weight:normal;font-stretch:normal;letter-spacing:normal;word-spacing:normal;text-anchor:start;fill:#000000;stroke:#000000;stroke-width:0;stroke-linecap:butt;stroke-linejoin:miter;stroke-miterlimit:10.43299961;stroke-opacity:1;stroke-dasharray:none;stroke-dashoffset:0"
       inkscape:connector-curvature="0"
       d="m 1016.8068,625.53669 0.038,0 0.033,0 0.076,-0.005 0.076,0 0.038,0 0.038,-0.005 0.038,-0.005 0.038,0 0.033,-0.005 0.038,-0.0109 0.038,-0.005 0.033,-0.0109 0.038,-0.0109 0.033,-0.0109 0.033,-0.0109 0.033,-0.0163 0.027,-0.0163 0.027,-0.0218 0.027,-0.0218 0.027,-0.0218 0.022,-0.0272 0.011,-0.0109 0.011,-0.0163 0.011,-0.0109 0.011,-0.0163 0.01,-0.0163 0.011,-0.0163 0.01,-0.0163 0.011,-0.0163 0.01,-0.0218 0.01,-0.0163 0.01,-0.0218 0.01,-0.0218 0,-0.0218 0.01,-0.0218 0,-0.0218 0.01,-0.0218 0,-0.0272 0,-0.0218 c 0,-0.54425 -0.517,-0.54425 -0.9198,-0.54425 h -16.1915 c -0.4082,0 -0.91432,0 -0.91432,0.54425 0,0.54426 0.50612,0.54426 0.89252,0.54426 z"
       id="path5189" />
    <path
       style="font-style:normal;font-variant:normal;font-weight:normal;font-stretch:normal;letter-spacing:normal;word-spacing:normal;text-anchor:start;fill:#000000;stroke:#000000;stroke-width:0;stroke-linecap:butt;stroke-linejoin:miter;stroke-miterlimit:10.43299961;stroke-opacity:1;stroke-dasharray:none;stroke-dashoffset:0"
       inkscape:connector-curvature="0"
       d="m 1039.23,620.46426 0,-0.40275 -0.01,-0.40819 -0.011,-0.40819 -0.022,-0.40274 -0.022,-0.40819 -0.033,-0.40275 -0.044,-0.40275 -0.049,-0.3973 -0.065,-0.3973 -0.076,-0.39731 -0.087,-0.39186 -0.1034,-0.39186 -0.1198,-0.39186 -0.1306,-0.38098 -0.1524,-0.38097 -0.082,-0.19049 -0.087,-0.18505 c -1.2409,-2.61241 -3.4723,-3.04781 -4.6098,-3.04781 -1.6219,0 -3.603,0.70753 -4.7187,3.23286 -0.8653,1.87222 -1.0014,3.98936 -1.0014,6.15549 0,2.0355 0.1089,4.47375 1.2246,6.53102 1.1647,2.19334 3.1457,2.73759 4.4683,2.73759 v -0.59324 c -1.0504,0 -2.6614,-0.68031 -3.1458,-3.28184 -0.2939,-1.62187 -0.2939,-4.11454 -0.2939,-5.72553 0,-1.73072 0,-3.51586 0.2177,-4.9799 0.5116,-3.23286 2.5417,-3.47233 3.222,-3.47233 0.8926,0 2.6886,0.48439 3.2002,3.17299 0.2721,1.51302 0.2721,3.58118 0.2721,5.27924 0,2.04095 0,3.88052 -0.2993,5.61668 -0.4082,2.57432 -1.9539,3.39069 -3.173,3.39069 h 0 v 0.59324 c 1.464,0 3.5213,-0.56602 4.7241,-3.14578 0.8653,-1.86678 1.0014,-3.97848 1.0014,-6.12283 z"
       id="path5191" />
    <g
       id="g4001"
       transform="translate(-115.40783,-209.21527)" />
  </g>
</svg>
