<?xml version="1.0"?>
<svg xmlns="http://www.w3.org/2000/svg" width="722.70" height="722.70" viewBox="0,0,722.70,722.70">
<desc>R SVG Plot!</desc>
<rect width="100%" height="100%" style="fill:#FFFFFF"/>
<polyline points="60.16 , 662.29 60.79 , 662.26 61.42 , 662.23 62.05 , 662.20 62.68 , 662.17 63.31 , 662.14 63.94 , 662.11 64.57 , 662.08 65.19 , 662.04 65.82 , 662.01 66.45 , 661.98 67.08 , 661.95 67.71 , 661.91 68.34 , 661.88 68.97 , 661.84 69.60 , 661.81 70.23 , 661.77 70.86 , 661.74 71.48 , 661.70 72.11 , 661.66 72.74 , 661.63 73.37 , 661.59 74.00 , 661.55 74.63 , 661.51 75.26 , 661.48 75.89 , 661.44 76.52 , 661.40 77.15 , 661.36 77.77 , 661.32 78.40 , 661.27 79.03 , 661.23 79.66 , 661.19 80.29 , 661.15 80.92 , 661.11 81.55 , 661.06 82.18 , 661.02 82.81 , 660.97 83.44 , 660.93 84.07 , 660.88 84.69 , 660.84 85.32 , 660.79 85.95 , 660.74 86.58 , 660.69 87.21 , 660.65 87.84 , 660.60 88.47 , 660.55 89.10 , 660.50 89.73 , 660.45 90.36 , 660.40 90.98 , 660.34 91.61 , 660.29 92.24 , 660.24 92.87 , 660.18 93.50 , 660.13 94.13 , 660.07 94.76 , 660.02 95.39 , 659.96 96.02 , 659.90 96.65 , 659.85 97.28 , 659.79 97.90 , 659.73 98.53 , 659.67 99.16 , 659.61 99.79 , 659.54 100.42 , 659.48 101.05 , 659.42 101.68 , 659.36 102.31 , 659.29 102.94 , 659.22 103.57 , 659.16 104.19 , 659.09 104.82 , 659.02 105.45 , 658.95 106.08 , 658.88 106.71 , 658.81 107.34 , 658.74 107.97 , 658.67 108.60 , 658.60 109.23 , 658.52 109.86 , 658.45 110.49 , 658.37 111.11 , 658.29 111.74 , 658.22 112.37 , 658.14 113.00 , 658.06 113.63 , 657.98 114.26 , 657.90 114.89 , 657.81 115.52 , 657.73 116.15 , 657.64 116.78 , 657.56 117.40 , 657.47 118.03 , 657.38 118.66 , 657.29 119.29 , 657.20 119.92 , 657.11 120.55 , 657.02 121.18 , 656.92 121.81 , 656.83 122.44 , 656.73 123.07 , 656.63 123.70 , 656.53 124.32 , 656.43 124.95 , 656.33 125.58 , 656.23 126.21 , 656.12 126.84 , 656.02 127.47 , 655.91 128.10 , 655.80 128.73 , 655.69 129.36 , 655.58 129.99 , 655.47 130.61 , 655.36 131.24 , 655.24 131.87 , 655.12 132.50 , 655.00 133.13 , 654.88 133.76 , 654.76 134.39 , 654.64 135.02 , 654.51 135.65 , 654.39 136.28 , 654.26 136.90 , 654.13 137.53 , 654.00 138.16 , 653.86 138.79 , 653.73 139.42 , 653.59 140.05 , 653.45 140.68 , 653.31 141.31 , 653.17 141.94 , 653.03 142.57 , 652.88 143.20 , 652.73 143.82 , 652.58 144.45 , 652.43 145.08 , 652.28 145.71 , 652.12 146.34 , 651.96 146.97 , 651.80 147.60 , 651.64 148.23 , 651.48 148.86 , 651.31 149.49 , 651.14 150.11 , 650.97 150.74 , 650.80 151.37 , 650.62 152.00 , 650.44 152.63 , 650.26 153.26 , 650.08 153.89 , 649.89 154.52 , 649.70 155.15 , 649.51 155.78 , 649.32 156.41 , 649.13 157.03 , 648.93 157.66 , 648.73 158.29 , 648.52 158.92 , 648.32 159.55 , 648.11 160.18 , 647.90 160.81 , 647.68 161.44 , 647.46 162.07 , 647.24 162.70 , 647.02 163.32 , 646.79 163.95 , 646.56 164.58 , 646.33 165.21 , 646.09 165.84 , 645.85 166.47 , 645.61 167.10 , 645.36 167.73 , 645.11 168.36 , 644.86 168.99 , 644.60 169.62 , 644.34 170.24 , 644.08 170.87 , 643.81 171.50 , 643.54 172.13 , 643.27 172.76 , 642.99 173.39 , 642.71 174.02 , 642.42 174.65 , 642.13 175.28 , 641.84 175.91 , 641.54 176.53 , 641.24 177.16 , 640.93 177.79 , 640.62 178.42 , 640.31 179.05 , 639.99 179.68 , 639.67 180.31 , 639.34 180.94 , 639.01 181.57 , 638.67 182.20 , 638.33 182.83 , 637.98 183.45 , 637.63 184.08 , 637.27 184.71 , 636.91 185.34 , 636.55 185.97 , 636.17 186.60 , 635.80 187.23 , 635.42 187.86 , 635.03 188.49 , 634.64 189.12 , 634.24 189.74 , 633.84 190.37 , 633.43 191.00 , 633.01 191.63 , 632.59 192.26 , 632.17 192.89 , 631.73 193.52 , 631.30 194.15 , 630.85 194.78 , 630.40 195.41 , 629.94 196.04 , 629.48 196.66 , 629.01 197.29 , 628.53 197.92 , 628.05 198.55 , 627.56 199.18 , 627.07 199.81 , 626.56 200.44 , 626.05 201.07 , 625.53 201.70 , 625.01 202.33 , 624.48 202.95 , 623.94 203.58 , 623.39 204.21 , 622.84 204.84 , 622.27 205.47 , 621.70 206.10 , 621.12 206.73 , 620.54 207.36 , 619.94 207.99 , 619.34 208.62 , 618.73 209.24 , 618.11 209.87 , 617.48 210.50 , 616.84 211.13 , 616.20 211.76 , 615.54 212.39 , 614.88 213.02 , 614.20 213.65 , 613.52 214.28 , 612.83 214.91 , 612.13 215.54 , 611.42 216.16 , 610.69 216.79 , 609.96 217.42 , 609.22 218.05 , 608.47 218.68 , 607.71 219.31 , 606.93 219.94 , 606.15 220.57 , 605.35 221.20 , 604.55 221.83 , 603.73 222.45 , 602.90 223.08 , 602.06 223.71 , 601.21 224.34 , 600.35 224.97 , 599.47 225.60 , 598.59 226.23 , 597.69 226.86 , 596.78 227.49 , 595.85 228.12 , 594.92 228.75 , 593.97 229.37 , 593.01 230.00 , 592.03 230.63 , 591.04 231.26 , 590.04 231.89 , 589.02 232.52 , 588.00 233.15 , 586.95 233.78 , 585.89 234.41 , 584.82 235.04 , 583.74 235.66 , 582.64 236.29 , 581.52 236.92 , 580.39 237.55 , 579.24 238.18 , 578.08 238.81 , 576.91 239.44 , 575.71 240.07 , 574.50 240.70 , 573.28 241.33 , 572.04 241.96 , 570.78 242.58 , 569.51 243.21 , 568.22 243.84 , 566.91 244.47 , 565.59 245.10 , 564.25 245.73 , 562.89 246.36 , 561.51 246.99 , 560.11 247.62 , 558.70 248.25 , 557.27 248.87 , 555.82 249.50 , 554.35 250.13 , 552.86 250.76 , 551.36 251.39 , 549.83 252.02 , 548.29 252.65 , 546.72 253.28 , 545.14 253.91 , 543.54 254.54 , 541.91 255.17 , 540.27 255.79 , 538.60 256.42 , 536.92 257.05 , 535.21 257.68 , 533.48 258.31 , 531.73 258.94 , 529.96 259.57 , 528.17 260.20 , 526.36 260.83 , 524.52 261.46 , 522.66 262.08 , 520.78 262.71 , 518.88 263.34 , 516.96 263.97 , 515.01 264.60 , 513.04 265.23 , 511.04 265.86 , 509.03 266.49 , 506.99 267.12 , 504.92 267.75 , 502.83 268.38 , 500.72 269.00 , 498.59 269.63 , 496.43 270.26 , 494.24 270.89 , 492.04 271.52 , 489.80 272.15 , 487.55 272.78 , 485.26 273.41 , 482.96 274.04 , 480.62 274.67 , 478.27 275.29 , 475.89 275.92 , 473.48 276.55 , 471.05 277.18 , 468.59 277.81 , 466.10 278.44 , 463.60 279.07 , 461.06 279.70 , 458.50 280.33 , 455.92 280.96 , 453.30 281.58 , 450.67 282.21 , 448.00 282.84 , 445.32 283.47 , 442.60 284.10 , 439.86 284.73 , 437.09 285.36 , 434.30 285.99 , 431.49 286.62 , 428.64 287.25 , 425.78 287.88 , 422.88 288.50 , 419.96 289.13 , 417.02 289.76 , 414.05 290.39 , 411.05 291.02 , 408.03 291.65 , 404.99 292.28 , 401.92 292.91 , 398.82 293.54 , 395.71 294.17 , 392.56 294.79 , 389.40 295.42 , 386.21 296.05 , 382.99 296.68 , 379.76 297.31 , 376.49 297.94 , 373.21 298.57 , 369.91 299.20 , 366.58 299.83 , 363.23 300.46 , 359.86 301.09 , 356.46 301.71 , 353.05 302.34 , 349.61 302.97 , 346.16 303.60 , 342.69 304.23 , 339.19 304.86 , 335.68 305.49 , 332.15 306.12 , 328.60 306.75 , 325.03 307.38 , 321.45 308.00 , 317.85 308.63 , 314.23 309.26 , 310.60 309.89 , 306.96 310.52 , 303.29 311.15 , 299.62 311.78 , 295.93 312.41 , 292.24 313.04 , 288.52 313.67 , 284.80 314.30 , 281.07 314.92 , 277.33 315.55 , 273.58 316.18 , 269.82 316.81 , 266.05 317.44 , 262.28 318.07 , 258.50 318.70 , 254.72 319.33 , 250.94 319.96 , 247.15 320.59 , 243.35 321.21 , 239.56 321.84 , 235.77 322.47 , 231.97 323.10 , 228.18 323.73 , 224.39 324.36 , 220.60 324.99 , 216.82 325.62 , 213.05 326.25 , 209.28 326.88 , 205.51 327.51 , 201.76 328.13 , 198.02 328.76 , 194.28 329.39 , 190.56 330.02 , 186.85 330.65 , 183.15 331.28 , 179.47 331.91 , 175.81 332.54 , 172.16 333.17 , 168.53 333.80 , 164.93 334.42 , 161.34 335.05 , 157.77 335.68 , 154.23 336.31 , 150.71 336.94 , 147.22 337.57 , 143.75 338.20 , 140.32 338.83 , 136.91 339.46 , 133.53 340.09 , 130.18 340.71 , 126.87 341.34 , 123.59 341.97 , 120.35 342.60 , 117.14 343.23 , 113.97 343.86 , 110.84 344.49 , 107.75 345.12 , 104.70 345.75 , 101.69 346.38 , 98.73 347.01 , 95.81 347.63 , 92.94 348.26 , 90.12 348.89 , 87.34 349.52 , 84.62 350.15 , 81.94 350.78 , 79.32 351.41 , 76.75 352.04 , 74.23 352.67 , 71.77 353.30 , 69.37 353.92 , 67.02 354.55 , 64.73 355.18 , 62.50 355.81 , 60.33 356.44 , 58.22 357.07 , 56.18 357.70 , 54.19 358.33 , 52.28 358.96 , 50.42 359.59 , 48.63 360.22 , 46.91 360.84 , 45.25 361.47 , 43.67 362.10 , 42.15 362.73 , 40.70 363.36 , 39.32 363.99 , 38.01 364.62 , 36.78 365.25 , 35.61 365.88 , 34.52 366.51 , 33.50 367.13 , 32.56 367.76 , 31.69 368.39 , 30.89 369.02 , 30.17 369.65 , 29.52 370.28 , 28.95 370.91 , 28.45 371.54 , 28.03 372.17 , 27.69 372.80 , 27.42 373.43 , 27.23 374.05 , 27.11 374.68 , 27.08 375.31 , 27.11 375.94 , 27.23 376.57 , 27.42 377.20 , 27.69 377.83 , 28.03 378.46 , 28.45 379.09 , 28.95 379.72 , 29.52 380.34 , 30.17 380.97 , 30.89 381.60 , 31.69 382.23 , 32.56 382.86 , 33.50 383.49 , 34.52 384.12 , 35.61 384.75 , 36.78 385.38 , 38.01 386.01 , 39.32 386.64 , 40.70 387.26 , 42.15 387.89 , 43.67 388.52 , 45.25 389.15 , 46.91 389.78 , 48.63 390.41 , 50.42 391.04 , 52.28 391.67 , 54.19 392.30 , 56.18 392.93 , 58.22 393.55 , 60.33 394.18 , 62.50 394.81 , 64.73 395.44 , 67.02 396.07 , 69.37 396.70 , 71.77 397.33 , 74.23 397.96 , 76.75 398.59 , 79.32 399.22 , 81.94 399.85 , 84.62 400.47 , 87.34 401.10 , 90.12 401.73 , 92.94 402.36 , 95.81 402.99 , 98.73 403.62 , 101.69 404.25 , 104.70 404.88 , 107.75 405.51 , 110.84 406.14 , 113.97 406.76 , 117.14 407.39 , 120.35 408.02 , 123.59 408.65 , 126.87 409.28 , 130.18 409.91 , 133.53 410.54 , 136.91 411.17 , 140.32 411.80 , 143.75 412.43 , 147.22 413.05 , 150.71 413.68 , 154.23 414.31 , 157.77 414.94 , 161.34 415.57 , 164.93 416.20 , 168.53 416.83 , 172.16 417.46 , 175.81 418.09 , 179.47 418.72 , 183.15 419.35 , 186.85 419.97 , 190.56 420.60 , 194.28 421.23 , 198.02 421.86 , 201.76 422.49 , 205.51 423.12 , 209.28 423.75 , 213.05 424.38 , 216.82 425.01 , 220.60 425.64 , 224.39 426.26 , 228.18 426.89 , 231.97 427.52 , 235.77 428.15 , 239.56 428.78 , 243.35 429.41 , 247.15 430.04 , 250.94 430.67 , 254.72 431.30 , 258.50 431.93 , 262.28 432.56 , 266.05 433.18 , 269.82 433.81 , 273.58 434.44 , 277.33 435.07 , 281.07 435.70 , 284.80 436.33 , 288.52 436.96 , 292.24 437.59 , 295.93 438.22 , 299.62 438.85 , 303.29 439.47 , 306.96 440.10 , 310.60 440.73 , 314.23 441.36 , 317.85 441.99 , 321.45 442.62 , 325.03 443.25 , 328.60 443.88 , 332.15 444.51 , 335.68 445.14 , 339.19 445.77 , 342.69 446.39 , 346.16 447.02 , 349.61 447.65 , 353.05 448.28 , 356.46 448.91 , 359.86 449.54 , 363.23 450.17 , 366.58 450.80 , 369.91 451.43 , 373.21 452.06 , 376.49 452.68 , 379.76 453.31 , 382.99 453.94 , 386.21 454.57 , 389.40 455.20 , 392.56 455.83 , 395.71 456.46 , 398.82 457.09 , 401.92 457.72 , 404.99 458.35 , 408.03 458.98 , 411.05 459.60 , 414.05 460.23 , 417.02 460.86 , 419.96 461.49 , 422.88 462.12 , 425.78 462.75 , 428.64 463.38 , 431.49 464.01 , 434.30 464.64 , 437.09 465.27 , 439.86 465.89 , 442.60 466.52 , 445.32 467.15 , 448.00 467.78 , 450.67 468.41 , 453.30 469.04 , 455.92 469.67 , 458.50 470.30 , 461.06 470.93 , 463.60 471.56 , 466.10 472.19 , 468.59 472.81 , 471.05 473.44 , 473.48 474.07 , 475.89 474.70 , 478.27 475.33 , 480.62 475.96 , 482.96 476.59 , 485.26 477.22 , 487.55 477.85 , 489.80 478.48 , 492.04 479.10 , 494.24 479.73 , 496.43 480.36 , 498.59 480.99 , 500.72 481.62 , 502.83 482.25 , 504.92 482.88 , 506.99 483.51 , 509.03 484.14 , 511.04 484.77 , 513.04 485.39 , 515.01 486.02 , 516.96 486.65 , 518.88 487.28 , 520.78 487.91 , 522.66 488.54 , 524.52 489.17 , 526.36 489.80 , 528.17 490.43 , 529.96 491.06 , 531.73 491.69 , 533.48 492.31 , 535.21 492.94 , 536.92 493.57 , 538.60 494.20 , 540.27 494.83 , 541.91 495.46 , 543.54 496.09 , 545.14 496.72 , 546.72 497.35 , 548.29 497.98 , 549.83 498.60 , 551.36 499.23 , 552.86 499.86 , 554.35 500.49 , 555.82 501.12 , 557.27 501.75 , 558.70 502.38 , 560.11 503.01 , 561.51 503.64 , 562.89 504.27 , 564.25 504.90 , 565.59 505.52 , 566.91 506.15 , 568.22 506.78 , 569.51 507.41 , 570.78 508.04 , 572.04 508.67 , 573.28 509.30 , 574.50 509.93 , 575.71 510.56 , 576.91 511.19 , 578.08 511.81 , 579.24 512.44 , 580.39 513.07 , 581.52 513.70 , 582.64 514.33 , 583.74 514.96 , 584.82 515.59 , 585.89 516.22 , 586.95 516.85 , 588.00 517.48 , 589.02 518.11 , 590.04 518.73 , 591.04 519.36 , 592.03 519.99 , 593.01 520.62 , 593.97 521.25 , 594.92 521.88 , 595.85 522.51 , 596.78 523.14 , 597.69 523.77 , 598.59 524.40 , 599.47 525.02 , 600.35 525.65 , 601.21 526.28 , 602.06 526.91 , 602.90 527.54 , 603.73 528.17 , 604.55 528.80 , 605.35 529.43 , 606.15 530.06 , 606.93 530.69 , 607.71 531.32 , 608.47 531.94 , 609.22 532.57 , 609.96 533.20 , 610.69 533.83 , 611.42 534.46 , 612.13 535.09 , 612.83 535.72 , 613.52 536.35 , 614.20 536.98 , 614.88 537.61 , 615.54 538.23 , 616.20 538.86 , 616.84 539.49 , 617.48 540.12 , 618.11 540.75 , 618.73 541.38 , 619.34 542.01 , 619.94 542.64 , 620.54 543.27 , 621.12 543.90 , 621.70 544.52 , 622.27 545.15 , 622.84 545.78 , 623.39 546.41 , 623.94 547.04 , 624.48 547.67 , 625.01 548.30 , 625.53 548.93 , 626.05 549.56 , 626.56 550.19 , 627.07 550.82 , 627.56 551.44 , 628.05 552.07 , 628.53 552.70 , 629.01 553.33 , 629.48 553.96 , 629.94 554.59 , 630.40 555.22 , 630.85 555.85 , 631.30 556.48 , 631.73 557.11 , 632.17 557.73 , 632.59 558.36 , 633.01 558.99 , 633.43 559.62 , 633.84 560.25 , 634.24 560.88 , 634.64 561.51 , 635.03 562.14 , 635.42 562.77 , 635.80 563.40 , 636.17 564.03 , 636.55 564.65 , 636.91 565.28 , 637.27 565.91 , 637.63 566.54 , 637.98 567.17 , 638.33 567.80 , 638.67 568.43 , 639.01 569.06 , 639.34 569.69 , 639.67 570.32 , 639.99 570.94 , 640.31 571.57 , 640.62 572.20 , 640.93 572.83 , 641.24 573.46 , 641.54 574.09 , 641.84 574.72 , 642.13 575.35 , 642.42 575.98 , 642.71 576.61 , 642.99 577.24 , 643.27 577.86 , 643.54 578.49 , 643.81 579.12 , 644.08 579.75 , 644.34 580.38 , 644.60 581.01 , 644.86 581.64 , 645.11 582.27 , 645.36 582.90 , 645.61 583.53 , 645.85 584.15 , 646.09 584.78 , 646.33 585.41 , 646.56 586.04 , 646.79 586.67 , 647.02 587.30 , 647.24 587.93 , 647.46 588.56 , 647.68 589.19 , 647.90 589.82 , 648.11 590.45 , 648.32 591.07 , 648.52 591.70 , 648.73 592.33 , 648.93 592.96 , 649.13 593.59 , 649.32 594.22 , 649.51 594.85 , 649.70 595.48 , 649.89 596.11 , 650.08 596.74 , 650.26 597.36 , 650.44 597.99 , 650.62 598.62 , 650.80 599.25 , 650.97 599.88 , 651.14 600.51 , 651.31 601.14 , 651.48 601.77 , 651.64 602.40 , 651.80 603.03 , 651.96 603.66 , 652.12 604.28 , 652.28 604.91 , 652.43 605.54 , 652.58 606.17 , 652.73 606.80 , 652.88 607.43 , 653.03 608.06 , 653.17 608.69 , 653.31 609.32 , 653.45 609.95 , 653.59 610.57 , 653.73 611.20 , 653.86 611.83 , 654.00 612.46 , 654.13 613.09 , 654.26 613.72 , 654.39 614.35 , 654.51 614.98 , 654.64 615.61 , 654.76 616.24 , 654.88 616.86 , 655.00 617.49 , 655.12 618.12 , 655.24 618.75 , 655.36 619.38 , 655.47 620.01 , 655.58 620.64 , 655.69 621.27 , 655.80 621.90 , 655.91 622.53 , 656.02 623.16 , 656.12 623.78 , 656.23 624.41 , 656.33 625.04 , 656.43 625.67 , 656.53 626.30 , 656.63 626.93 , 656.73 627.56 , 656.83 628.19 , 656.92 628.82 , 657.02 629.45 , 657.11 630.07 , 657.20 630.70 , 657.29 631.33 , 657.38 631.96 , 657.47 632.59 , 657.56 633.22 , 657.64 633.85 , 657.73 634.48 , 657.81 635.11 , 657.90 635.74 , 657.98 636.37 , 658.06 636.99 , 658.14 637.62 , 658.22 638.25 , 658.29 638.88 , 658.37 639.51 , 658.45 640.14 , 658.52 640.77 , 658.60 641.40 , 658.67 642.03 , 658.74 642.66 , 658.81 643.28 , 658.88 643.91 , 658.95 644.54 , 659.02 645.17 , 659.09 645.80 , 659.16 646.43 , 659.22 647.06 , 659.29 647.69 , 659.36 648.32 , 659.42 648.95 , 659.48 649.58 , 659.54 650.20 , 659.61 650.83 , 659.67 651.46 , 659.73 652.09 , 659.79 652.72 , 659.85 653.35 , 659.90 653.98 , 659.96 654.61 , 660.02 655.24 , 660.07 655.87 , 660.13 656.49 , 660.18 657.12 , 660.24 657.75 , 660.29 658.38 , 660.34 659.01 , 660.40 659.64 , 660.45 660.27 , 660.50 660.90 , 660.55 661.53 , 660.60 662.16 , 660.65 662.79 , 660.69 663.41 , 660.74 664.04 , 660.79 664.67 , 660.84 665.30 , 660.88 665.93 , 660.93 666.56 , 660.97 667.19 , 661.02 667.82 , 661.06 668.45 , 661.11 669.08 , 661.15 669.70 , 661.19 670.33 , 661.23 670.96 , 661.27 671.59 , 661.32 672.22 , 661.36 672.85 , 661.40 673.48 , 661.44 674.11 , 661.48 674.74 , 661.51 675.37 , 661.55 676.00 , 661.59 676.62 , 661.63 677.25 , 661.66 677.88 , 661.70 678.51 , 661.74 679.14 , 661.77 679.77 , 661.81 680.40 , 661.84 681.03 , 661.88 681.66 , 661.91 682.29 , 661.95 682.91 , 661.98 683.54 , 662.01 684.17 , 662.04 684.80 , 662.08 685.43 , 662.11 686.06 , 662.14 686.69 , 662.17 687.32 , 662.20 687.95 , 662.23 688.58 , 662.26 689.20 , 662.29 " style="stroke-width:4;stroke:#000000;fill:#000000;stroke-opacity:1.000000;fill-opacity:0.000000"/>
<line x1="123.07" y1="687.70" x2="626.30" y2="687.70" style="stroke-width:1;stroke:#000000;fill:#000000;stroke-opacity:1.000000;fill-opacity:0.000000"/>
<line x1="123.07" y1="687.70" x2="123.07" y2="691.87" style="stroke-width:1;stroke:#000000;fill:#000000;stroke-opacity:1.000000;fill-opacity:0.000000"/>
<line x1="248.87" y1="687.70" x2="248.87" y2="691.87" style="stroke-width:1;stroke:#000000;fill:#000000;stroke-opacity:1.000000;fill-opacity:0.000000"/>
<line x1="374.68" y1="687.70" x2="374.68" y2="691.87" style="stroke-width:1;stroke:#000000;fill:#000000;stroke-opacity:1.000000;fill-opacity:0.000000"/>
<line x1="500.49" y1="687.70" x2="500.49" y2="691.87" style="stroke-width:1;stroke:#000000;fill:#000000;stroke-opacity:1.000000;fill-opacity:0.000000"/>
<line x1="626.30" y1="687.70" x2="626.30" y2="691.87" style="stroke-width:1;stroke:#000000;fill:#000000;stroke-opacity:1.000000;fill-opacity:0.000000"/>
<text transform="translate(115.57,704.37) "  style="font-size:18" >-4</text>
<text transform="translate(240.62,704.37) "  style="font-size:18" >-2</text>
<text transform="translate(369.73,704.37) "  style="font-size:18" >0</text>
<text transform="translate(495.54,704.37) "  style="font-size:18" >2</text>
<text transform="translate(621.35,704.37) "  style="font-size:18" >4</text>
<line x1="35.00" y1="665.25" x2="35.00" y2="160.90" style="stroke-width:1;stroke:#000000;fill:#000000;stroke-opacity:1.000000;fill-opacity:0.000000"/>
<line x1="35.00" y1="665.25" x2="30.83" y2="665.25" style="stroke-width:1;stroke:#000000;fill:#000000;stroke-opacity:1.000000;fill-opacity:0.000000"/>
<line x1="35.00" y1="497.13" x2="30.83" y2="497.13" style="stroke-width:1;stroke:#000000;fill:#000000;stroke-opacity:1.000000;fill-opacity:0.000000"/>
<line x1="35.00" y1="329.02" x2="30.83" y2="329.02" style="stroke-width:1;stroke:#000000;fill:#000000;stroke-opacity:1.000000;fill-opacity:0.000000"/>
<line x1="35.00" y1="160.90" x2="30.83" y2="160.90" style="stroke-width:1;stroke:#000000;fill:#000000;stroke-opacity:1.000000;fill-opacity:0.000000"/>
<text transform="translate(26.67,677.90)  rotate(-90)"  style="font-size:18" >0.0</text>
<text transform="translate(26.67,509.78)  rotate(-90)"  style="font-size:18" >0.1</text>
<text transform="translate(26.67,341.67)  rotate(-90)"  style="font-size:18" >0.2</text>
<text transform="translate(26.67,173.56)  rotate(-90)"  style="font-size:18" >0.3</text>
<polyline points="35.00 , 687.70 714.37 , 687.70 714.37 , 1.67 35.00 , 1.67 35.00 , 687.70 " style="stroke-width:1;stroke:#000000;fill:#000000;stroke-opacity:1.000000;fill-opacity:0.000000"/>
<line x1="35.00" y1="665.25" x2="714.37" y2="665.25" style="stroke-width:1;stroke:#000000;fill:#000000;stroke-opacity:1.000000;fill-opacity:0.000000"/>
<line x1="469.04" y1="687.70" x2="469.04" y2="1.67" style="stroke-width:1;stroke:#000000;fill:#000000;stroke-opacity:1.000000;fill-opacity:0.000000"/>
<line x1="280.33" y1="687.70" x2="280.33" y2="1.67" style="stroke-width:1;stroke:#000000;fill:#000000;stroke-opacity:1.000000;fill-opacity:0.000000"/>
<line x1="374.68" y1="687.70" x2="374.68" y2="1.67" style="stroke-width:1;stroke:#000000;fill:#000000;stroke-opacity:1.000000;fill-opacity:0.000000"/>
</svg>
