<?xml version="1.0" encoding="UTF-8" standalone="no"?>
<!-- Created with Inkscape (http://www.inkscape.org/) -->

<svg
   xmlns:dc="http://purl.org/dc/elements/1.1/"
   xmlns:cc="http://creativecommons.org/ns#"
   xmlns:rdf="http://www.w3.org/1999/02/22-rdf-syntax-ns#"
   xmlns:svg="http://www.w3.org/2000/svg"
   xmlns="http://www.w3.org/2000/svg"
   xmlns:sodipodi="http://sodipodi.sourceforge.net/DTD/sodipodi-0.dtd"
   xmlns:inkscape="http://www.inkscape.org/namespaces/inkscape"
   width="450"
   height="450"
   id="svg2"
   version="1.1"
   inkscape:version="0.48.2 r9819"
   sodipodi:docname="central-composite-design-MOOC.svg"
   inkscape:export-filename="central-composite-design-MOOC-3-factors.png"
   inkscape:export-xdpi="250"
   inkscape:export-ydpi="250"
   enable-background="new">
  <sodipodi:namedview
     id="base"
     pagecolor="#ffffff"
     bordercolor="#666666"
     borderopacity="1.0"
     inkscape:pageopacity="0.0"
     inkscape:pageshadow="2"
     inkscape:zoom="1.4755556"
     inkscape:cx="228.72741"
     inkscape:cy="225"
     inkscape:document-units="px"
     inkscape:current-layer="layer12"
     showgrid="false"
     inkscape:window-width="1440"
     inkscape:window-height="852"
     inkscape:window-x="0"
     inkscape:window-y="0"
     inkscape:window-maximized="1" />
  <defs
     id="defs4">
    <marker
       style="overflow:visible"
       id="Arrow1Mend"
       refX="0"
       refY="0"
       orient="auto"
       inkscape:stockid="Arrow1Mend">
      <path
         inkscape:connector-curvature="0"
         transform="matrix(-0.4,0,0,-0.4,-4,0)"
         style="fill-rule:evenodd;stroke:#000000;stroke-width:1pt;marker-start:none"
         d="M 0,0 5,-5 -12.5,0 5,5 0,0 z"
         id="path3812" />
    </marker>
    <inkscape:perspective
       id="perspective10"
       inkscape:persp3d-origin="372.04724 : 350.78739 : 1"
       inkscape:vp_z="744.09448 : 526.18109 : 1"
       inkscape:vp_y="0 : 1000 : 0"
       inkscape:vp_x="0 : 526.18109 : 1"
       sodipodi:type="inkscape:persp3d" />
    <marker
       style="overflow:visible"
       id="Arrow1MendI"
       refX="0"
       refY="0"
       orient="auto"
       inkscape:stockid="Arrow1MendI">
      <path
         inkscape:connector-curvature="0"
         transform="matrix(-0.4,0,0,-0.4,-4,0)"
         style="marker-start:none;stroke:#800080;stroke-width:1pt;fill:#800080;fill-rule:evenodd"
         d="M 0,0 5,-5 -12.5,0 5,5 0,0 z"
         id="path4032" />
    </marker>
  </defs>
  <metadata
     id="metadata7">
    <rdf:RDF>
      <cc:Work
         rdf:about="">
        <dc:format>image/svg+xml</dc:format>
        <dc:type
           rdf:resource="http://purl.org/dc/dcmitype/StillImage" />
        <dc:title></dc:title>
      </cc:Work>
    </rdf:RDF>
  </metadata>
  <g
     style="display:none"
     inkscape:label="lines-horiz"
     id="layer1"
     inkscape:groupmode="layer">
    <path
       style="fill:none;stroke:#000000;stroke-width:2.76987195;stroke-linecap:butt;stroke-linejoin:miter;stroke-miterlimit:4;stroke-opacity:1;stroke-dasharray:none;display:inline"
       d="m 68.541071,712.58044 344.901239,0"
       id="path4167"
       inkscape:connector-curvature="0"
       transform="translate(0,-294.09454)" />
  </g>
  <g
     style="display:none"
     inkscape:label="lines-vert"
     id="layer10"
     inkscape:groupmode="layer">
    <path
       inkscape:connector-curvature="0"
       id="path4235"
       d="M 20,700.82979 20,322.34773"
       style="fill:none;stroke:#000000;stroke-width:2.90158272;stroke-linecap:butt;stroke-linejoin:miter;stroke-miterlimit:4;stroke-opacity:1;stroke-dasharray:none;display:inline"
       transform="translate(0,-294.09454)" />
  </g>
  <g
     transform="translate(0,-294.09454)"
     style="display:none"
     inkscape:label="perspective-face"
     id="layer9"
     inkscape:groupmode="layer">
    <path
       sodipodi:type="arc"
       style="fill:#800080;fill-opacity:1;stroke:none;display:inline"
       id="path4203"
       sodipodi:cx="48.06535"
       sodipodi:cy="497.85199"
       sodipodi:rx="13.063916"
       sodipodi:ry="13.063916"
       d="m 61.129266,497.85199 c 0,7.215 -5.848915,13.06392 -13.063916,13.06392 -7.215002,0 -13.063917,-5.84892 -13.063917,-13.06392 0,-7.215 5.848915,-13.06392 13.063917,-13.06392 7.215001,0 13.063916,5.84892 13.063916,13.06392 z"
       transform="matrix(0.6123738,0,0,0.6123738,310.28058,407.70893)" />
    <path
       transform="matrix(0.6123738,0,0,0.6123738,110.28058,407.70893)"
       d="m 61.129266,497.85199 c 0,7.215 -5.848915,13.06392 -13.063916,13.06392 -7.215002,0 -13.063917,-5.84892 -13.063917,-13.06392 0,-7.215 5.848915,-13.06392 13.063917,-13.06392 7.215001,0 13.063916,5.84892 13.063916,13.06392 z"
       sodipodi:ry="13.063916"
       sodipodi:rx="13.063916"
       sodipodi:cy="497.85199"
       sodipodi:cx="48.06535"
       id="path4205"
       style="fill:#0080ff;fill-opacity:1;stroke:none;display:inline"
       sodipodi:type="arc" />
    <path
       transform="matrix(0.6123738,0,0,0.6123738,306.28058,403.70893)"
       d="m 61.129266,497.85199 c 0,7.215 -5.848915,13.06392 -13.063916,13.06392 -7.215002,0 -13.063917,-5.84892 -13.063917,-13.06392 0,-7.215 5.848915,-13.06392 13.063917,-13.06392 7.215001,0 13.063916,5.84892 13.063916,13.06392 z"
       sodipodi:ry="13.063916"
       sodipodi:rx="13.063916"
       sodipodi:cy="497.85199"
       sodipodi:cx="48.06535"
       id="path3116"
       style="fill:#0080ff;fill-opacity:1;stroke:none;display:inline"
       sodipodi:type="arc" />
    <path
       sodipodi:type="arc"
       style="fill:#800080;fill-opacity:1;stroke:none;display:inline"
       id="path3892"
       sodipodi:cx="48.06535"
       sodipodi:cy="497.85199"
       sodipodi:rx="13.063916"
       sodipodi:ry="13.063916"
       d="m 61.129266,497.85199 c 0,7.215 -5.848915,13.06392 -13.063916,13.06392 -7.215002,0 -13.063917,-5.84892 -13.063917,-13.06392 0,-7.215 5.848915,-13.06392 13.063917,-13.06392 7.215001,0 13.063916,5.84892 13.063916,13.06392 z"
       transform="matrix(0.6123738,0,0,0.6123738,112.28058,401.70893)" />
    <path
       sodipodi:type="arc"
       style="fill:#ff0000;fill-opacity:1;stroke:none;display:inline"
       id="path3976"
       sodipodi:cx="48.06535"
       sodipodi:cy="497.85199"
       sodipodi:rx="13.063916"
       sodipodi:ry="13.063916"
       d="m 61.129266,497.85199 c 0,7.215 -5.848915,13.06392 -13.063916,13.06392 -7.215002,0 -13.063917,-5.84892 -13.063917,-13.06392 0,-7.215 5.848915,-13.06392 13.063917,-13.06392 7.215001,0 13.063916,5.84892 13.063916,13.06392 z"
       transform="matrix(-0.6123738,0,0,-0.6123738,269.94213,1017.452)" />
  </g>
  <g
     style="display:none"
     inkscape:label="perspective-face-vert"
     id="layer11"
     inkscape:groupmode="layer">
    <path
       transform="matrix(0,-0.6123738,0.6123738,0,-284.15697,144.91987)"
       d="m 61.129266,497.85199 a 13.063916,13.063916 0 1 1 -26.127833,0 13.063916,13.063916 0 1 1 26.127833,0 z"
       sodipodi:ry="13.063916"
       sodipodi:rx="13.063916"
       sodipodi:cy="497.85199"
       sodipodi:cx="48.06535"
       id="path3942"
       style="display:inline;fill:#800080;fill-opacity:1;stroke:none"
       sodipodi:type="arc" />
    <path
       sodipodi:type="arc"
       style="display:inline;fill:#0080ff;fill-opacity:1;stroke:none"
       id="path3944"
       sodipodi:cx="48.06535"
       sodipodi:cy="497.85199"
       sodipodi:rx="13.063916"
       sodipodi:ry="13.063916"
       d="m 61.129266,497.85199 a 13.063916,13.063916 0 1 1 -26.127833,0 13.063916,13.063916 0 1 1 26.127833,0 z"
       transform="matrix(0,-0.6123738,0.6123738,0,-284.15697,344.91987)" />
    <path
       sodipodi:type="arc"
       style="display:inline;fill:#0080ff;fill-opacity:1;stroke:none"
       id="path3948"
       sodipodi:cx="48.06535"
       sodipodi:cy="497.85199"
       sodipodi:rx="13.063916"
       sodipodi:ry="13.063916"
       d="m 61.129266,497.85199 a 13.063916,13.063916 0 1 1 -26.127833,0 13.063916,13.063916 0 1 1 26.127833,0 z"
       transform="matrix(0,-0.6123738,0.6123738,0,-288.15697,148.91987)" />
    <path
       transform="matrix(0,-0.6123738,0.6123738,0,-290.15697,342.91987)"
       d="m 61.129266,497.85199 a 13.063916,13.063916 0 1 1 -26.127833,0 13.063916,13.063916 0 1 1 26.127833,0 z"
       sodipodi:ry="13.063916"
       sodipodi:rx="13.063916"
       sodipodi:cy="497.85199"
       sodipodi:cx="48.06535"
       id="path3950"
       style="display:inline;fill:#800080;fill-opacity:1;stroke:none"
       sodipodi:type="arc" />
    <path
       transform="matrix(0,-0.6123738,0.6123738,0,-284.87151,247.91986)"
       d="m 61.129266,497.85199 a 13.063916,13.063916 0 1 1 -26.127833,0 13.063916,13.063916 0 1 1 26.127833,0 z"
       sodipodi:ry="13.063916"
       sodipodi:rx="13.063916"
       sodipodi:cy="497.85199"
       sodipodi:cx="48.06535"
       id="path3974"
       style="display:inline;fill:#ff0000;fill-opacity:1;stroke:none"
       sodipodi:type="arc" />
  </g>
  <g
     transform="translate(0,-294.09454)"
     inkscape:groupmode="layer"
     id="g3079"
     inkscape:label="perspective-star"
     style="display:none">
    <path
       sodipodi:type="arc"
       style="fill:#0080ff;fill-opacity:1;stroke:none;display:inline"
       id="path3915"
       sodipodi:cx="48.06535"
       sodipodi:cy="497.85199"
       sodipodi:rx="13.063916"
       sodipodi:ry="13.063916"
       d="m 61.129266,497.85199 c 0,7.215 -5.848915,13.06392 -13.063916,13.06392 -7.215002,0 -13.063917,-5.84892 -13.063917,-13.06392 0,-7.215 5.848915,-13.06392 13.063917,-13.06392 7.215001,0 13.063916,5.84892 13.063916,13.06392 z"
       transform="matrix(-0.6123738,0,0,-0.6123738,169.71943,1017.452)" />
    <path
       transform="matrix(-0.6123738,0,0,-0.6123738,369.71943,1017.452)"
       d="m 61.129266,497.85199 c 0,7.215 -5.848915,13.06392 -13.063916,13.06392 -7.215002,0 -13.063917,-5.84892 -13.063917,-13.06392 0,-7.215 5.848915,-13.06392 13.063917,-13.06392 7.215001,0 13.063916,5.84892 13.063916,13.06392 z"
       sodipodi:ry="13.063916"
       sodipodi:rx="13.063916"
       sodipodi:cy="497.85199"
       sodipodi:cx="48.06535"
       id="path3917"
       style="fill:#0080ff;fill-opacity:1;stroke:none;display:inline"
       sodipodi:type="arc" />
    <path
       transform="matrix(-0.6123738,0,0,-0.6123738,410.43397,1017.452)"
       d="m 61.129266,497.85199 c 0,7.215 -5.848915,13.06392 -13.063916,13.06392 -7.215002,0 -13.063917,-5.84892 -13.063917,-13.06392 0,-7.215 5.848915,-13.06392 13.063917,-13.06392 7.215001,0 13.063916,5.84892 13.063916,13.06392 z"
       sodipodi:ry="13.063916"
       sodipodi:rx="13.063916"
       sodipodi:cy="497.85199"
       sodipodi:cx="48.06535"
       id="path3919"
       style="fill:#800080;fill-opacity:1;stroke:none;display:inline"
       sodipodi:type="arc" />
    <path
       transform="matrix(-0.6123738,0,0,-0.6123738,128.43397,1017.452)"
       d="m 61.129266,497.85199 c 0,7.215 -5.848915,13.06392 -13.063916,13.06392 -7.215002,0 -13.063917,-5.84892 -13.063917,-13.06392 0,-7.215 5.848915,-13.06392 13.063917,-13.06392 7.215001,0 13.063916,5.84892 13.063916,13.06392 z"
       sodipodi:ry="13.063916"
       sodipodi:rx="13.063916"
       sodipodi:cy="497.85199"
       sodipodi:cx="48.06535"
       id="path3921"
       style="fill:#800080;fill-opacity:1;stroke:none;display:inline"
       sodipodi:type="arc" />
    <path
       transform="matrix(-0.6123738,0,0,-0.6123738,269.94213,1017.452)"
       d="m 61.129266,497.85199 c 0,7.215 -5.848915,13.06392 -13.063916,13.06392 -7.215002,0 -13.063917,-5.84892 -13.063917,-13.06392 0,-7.215 5.848915,-13.06392 13.063917,-13.06392 7.215001,0 13.063916,5.84892 13.063916,13.06392 z"
       sodipodi:ry="13.063916"
       sodipodi:rx="13.063916"
       sodipodi:cy="497.85199"
       sodipodi:cx="48.06535"
       id="path3923"
       style="fill:#ff0000;fill-opacity:1;stroke:none;display:inline"
       sodipodi:type="arc" />
  </g>
  <g
     style="display:none"
     inkscape:label="perspective-star vert"
     id="g3980"
     inkscape:groupmode="layer"
     transform="translate(0,-294.09454)">
    <path
       sodipodi:type="arc"
       style="fill:#0080ff;fill-opacity:1;stroke:none;display:inline"
       id="path3982"
       sodipodi:cx="48.06535"
       sodipodi:cy="497.85199"
       sodipodi:rx="13.063916"
       sodipodi:ry="13.063916"
       d="m 61.129266,497.85199 c 0,7.215 -5.848915,13.06392 -13.063916,13.06392 -7.215002,0 -13.063917,-5.84892 -13.063917,-13.06392 0,-7.215 5.848915,-13.06392 13.063917,-13.06392 7.215001,0 13.063916,5.84892 13.063916,13.06392 z"
       transform="matrix(0,-0.6123738,0.6123738,0,-284.87151,442.29987)" />
    <path
       transform="matrix(0,-0.6123738,0.6123738,0,-284.87151,642.29987)"
       d="m 61.129266,497.85199 c 0,7.215 -5.848915,13.06392 -13.063916,13.06392 -7.215002,0 -13.063917,-5.84892 -13.063917,-13.06392 0,-7.215 5.848915,-13.06392 13.063917,-13.06392 7.215001,0 13.063916,5.84892 13.063916,13.06392 z"
       sodipodi:ry="13.063916"
       sodipodi:rx="13.063916"
       sodipodi:cy="497.85199"
       sodipodi:cx="48.06535"
       id="path3984"
       style="fill:#0080ff;fill-opacity:1;stroke:none;display:inline"
       sodipodi:type="arc" />
    <path
       transform="matrix(0,-0.6123738,0.6123738,0,-284.87151,683.01441)"
       d="m 61.129266,497.85199 c 0,7.215 -5.848915,13.06392 -13.063916,13.06392 -7.215002,0 -13.063917,-5.84892 -13.063917,-13.06392 0,-7.215 5.848915,-13.06392 13.063917,-13.06392 7.215001,0 13.063916,5.84892 13.063916,13.06392 z"
       sodipodi:ry="13.063916"
       sodipodi:rx="13.063916"
       sodipodi:cy="497.85199"
       sodipodi:cx="48.06535"
       id="path3986"
       style="fill:#800080;fill-opacity:1;stroke:none;display:inline"
       sodipodi:type="arc" />
    <path
       transform="matrix(0,-0.6123738,0.6123738,0,-284.87151,401.01441)"
       d="m 61.129266,497.85199 c 0,7.215 -5.848915,13.06392 -13.063916,13.06392 -7.215002,0 -13.063917,-5.84892 -13.063917,-13.06392 0,-7.215 5.848915,-13.06392 13.063917,-13.06392 7.215001,0 13.063916,5.84892 13.063916,13.06392 z"
       sodipodi:ry="13.063916"
       sodipodi:rx="13.063916"
       sodipodi:cy="497.85199"
       sodipodi:cx="48.06535"
       id="path3988"
       style="fill:#800080;fill-opacity:1;stroke:none;display:inline"
       sodipodi:type="arc" />
    <path
       transform="matrix(0,-0.6123738,0.6123738,0,-284.87151,542.0144)"
       d="m 61.129266,497.85199 c 0,7.215 -5.848915,13.06392 -13.063916,13.06392 -7.215002,0 -13.063917,-5.84892 -13.063917,-13.06392 0,-7.215 5.848915,-13.06392 13.063917,-13.06392 7.215001,0 13.063916,5.84892 13.063916,13.06392 z"
       sodipodi:ry="13.063916"
       sodipodi:rx="13.063916"
       sodipodi:cy="497.85199"
       sodipodi:cx="48.06535"
       id="path3990"
       style="fill:#ff0000;fill-opacity:1;stroke:none;display:inline"
       sodipodi:type="arc" />
  </g>
  <g
     transform="translate(0,-294.09454)"
     style="display:none"
     inkscape:label="Cube"
     id="layer6"
     inkscape:groupmode="layer">
    <g
       id="g3144"
       style="fill:#007eff;fill-opacity:1;stroke:#0080ff;stroke-opacity:1;display:inline"
       transform="translate(0,-148.2677)">
      <path
         style="fill:#007eff;fill-opacity:1;stroke:#0080ff;stroke-width:4;stroke-linecap:butt;stroke-linejoin:miter;stroke-miterlimit:4;stroke-opacity:1;stroke-dasharray:none"
         d="m 140.42745,760.24437 0,-198.79247"
         id="path2820"
         inkscape:connector-curvature="0" />
      <path
         id="path2822"
         d="m 340.42745,760.24437 0,-198.79247"
         style="fill:#007eff;fill-opacity:1;stroke:#0080ff;stroke-width:4;stroke-linecap:butt;stroke-linejoin:miter;stroke-miterlimit:4;stroke-opacity:1;stroke-dasharray:none"
         inkscape:connector-curvature="0" />
      <path
         id="path2824"
         d="m 339.82368,560.84814 -198.79246,0"
         style="fill:#007eff;fill-opacity:1;stroke:#0080ff;stroke-width:4;stroke-linecap:butt;stroke-linejoin:miter;stroke-miterlimit:4;stroke-opacity:1;stroke-dasharray:none"
         inkscape:connector-curvature="0" />
      <path
         style="fill:#007eff;fill-opacity:1;stroke:#0080ff;stroke-width:4;stroke-linecap:butt;stroke-linejoin:miter;stroke-miterlimit:4;stroke-opacity:1;stroke-dasharray:none"
         d="m 339.82368,760.84814 -198.79246,0"
         id="path2826"
         inkscape:connector-curvature="0" />
    </g>
    <path
       transform="matrix(0.6123738,0,0,0.6123738,110.28058,108.28793)"
       d="m 61.129266,497.85199 c 0,7.215 -5.848915,13.06392 -13.063916,13.06392 -7.215002,0 -13.063917,-5.84892 -13.063917,-13.06392 0,-7.215 5.848915,-13.06392 13.063917,-13.06392 7.215001,0 13.063916,5.84892 13.063916,13.06392 z"
       sodipodi:ry="13.063916"
       sodipodi:rx="13.063916"
       sodipodi:cy="497.85199"
       sodipodi:cx="48.06535"
       id="path2828"
       style="fill:#0080ff;fill-opacity:1;stroke:#0080ff;stroke-opacity:1;display:inline"
       sodipodi:type="arc" />
    <path
       sodipodi:type="arc"
       style="fill:#0080ff;fill-opacity:1;stroke:#0080ff;stroke-opacity:1;display:inline"
       id="path3602"
       sodipodi:cx="48.06535"
       sodipodi:cy="497.85199"
       sodipodi:rx="13.063916"
       sodipodi:ry="13.063916"
       d="m 61.129266,497.85199 c 0,7.215 -5.848915,13.06392 -13.063916,13.06392 -7.215002,0 -13.063917,-5.84892 -13.063917,-13.06392 0,-7.215 5.848915,-13.06392 13.063917,-13.06392 7.215001,0 13.063916,5.84892 13.063916,13.06392 z"
       transform="matrix(0.6123738,0,0,0.6123738,310.28058,108.28793)" />
    <path
       transform="matrix(0.6123738,0,0,0.6123738,310.28058,308.28793)"
       d="m 61.129266,497.85199 c 0,7.215 -5.848915,13.06392 -13.063916,13.06392 -7.215002,0 -13.063917,-5.84892 -13.063917,-13.06392 0,-7.215 5.848915,-13.06392 13.063917,-13.06392 7.215001,0 13.063916,5.84892 13.063916,13.06392 z"
       sodipodi:ry="13.063916"
       sodipodi:rx="13.063916"
       sodipodi:cy="497.85199"
       sodipodi:cx="48.06535"
       id="path3604"
       style="fill:#0080ff;fill-opacity:1;stroke:#0080ff;stroke-opacity:1;display:inline"
       sodipodi:type="arc" />
    <path
       sodipodi:type="arc"
       style="fill:#0080ff;fill-opacity:1;stroke:#0080ff;stroke-opacity:1;display:inline"
       id="path3606"
       sodipodi:cx="48.06535"
       sodipodi:cy="497.85199"
       sodipodi:rx="13.063916"
       sodipodi:ry="13.063916"
       d="m 61.129266,497.85199 c 0,7.215 -5.848915,13.06392 -13.063916,13.06392 -7.215002,0 -13.063917,-5.84892 -13.063917,-13.06392 0,-7.215 5.848915,-13.06392 13.063917,-13.06392 7.215001,0 13.063916,5.84892 13.063916,13.06392 z"
       transform="matrix(0.6123738,0,0,0.6123738,110.28058,308.28793)" />
  </g>
  <g
     transform="translate(0,-294.09454)"
     style="display:none"
     inkscape:label="Star outside"
     id="layer7"
     inkscape:groupmode="layer">
    <path
       inkscape:connector-curvature="0"
       id="path2816"
       d="m 100.50817,512.58044 280.96704,0"
       style="fill:#800080;fill-opacity:1;stroke:#800080;stroke-width:2.5;stroke-linecap:butt;stroke-linejoin:miter;stroke-miterlimit:4;stroke-opacity:1;stroke-dasharray:none;display:inline" />
    <path
       inkscape:connector-curvature="0"
       style="fill:#800080;fill-opacity:1;stroke:#800080;stroke-width:2.5;stroke-linecap:butt;stroke-linejoin:miter;stroke-miterlimit:4;stroke-opacity:1;stroke-dasharray:none;display:inline"
       d="m 240.42745,652.078 0,-280.96704"
       id="path2818" />
    <path
       transform="matrix(0.6123738,0,0,0.6123738,211.55773,67.22297)"
       d="m 61.129266,497.85199 c 0,7.215 -5.848915,13.06392 -13.063916,13.06392 -7.215002,0 -13.063917,-5.84892 -13.063917,-13.06392 0,-7.215 5.848915,-13.06392 13.063917,-13.06392 7.215001,0 13.063916,5.84892 13.063916,13.06392 z"
       sodipodi:ry="13.063916"
       sodipodi:rx="13.063916"
       sodipodi:cy="497.85199"
       sodipodi:cx="48.06535"
       id="path3608"
       style="fill:#800080;fill-opacity:1;stroke:#800080;stroke-opacity:1;display:inline"
       sodipodi:type="arc" />
    <path
       sodipodi:type="arc"
       style="fill:#800080;fill-opacity:1;stroke:#800080;stroke-opacity:1;display:inline"
       id="path3610"
       sodipodi:cx="48.06535"
       sodipodi:cy="497.85199"
       sodipodi:rx="13.063916"
       sodipodi:ry="13.063916"
       d="m 61.129266,497.85199 c 0,7.215 -5.848915,13.06392 -13.063916,13.06392 -7.215002,0 -13.063917,-5.84892 -13.063917,-13.06392 0,-7.215 5.848915,-13.06392 13.063917,-13.06392 7.215001,0 13.063916,5.84892 13.063916,13.06392 z"
       transform="matrix(0.6123738,0,0,0.6123738,211.55773,349.22297)" />
    <path
       sodipodi:type="arc"
       style="fill:#800080;fill-opacity:1;stroke:#800080;stroke-opacity:1;display:inline"
       id="path3614"
       sodipodi:cx="48.06535"
       sodipodi:cy="497.85199"
       sodipodi:rx="13.063916"
       sodipodi:ry="13.063916"
       d="m 61.129266,497.85199 c 0,7.215 -5.848915,13.06392 -13.063916,13.06392 -7.215002,0 -13.063917,-5.84892 -13.063917,-13.06392 0,-7.215 5.848915,-13.06392 13.063917,-13.06392 7.215001,0 13.063916,5.84892 13.063916,13.06392 z"
       transform="matrix(0.6123738,0,0,0.6123738,69.566039,206.72297)" />
    <path
       sodipodi:type="arc"
       style="fill:#800080;fill-opacity:1;stroke:#800080;stroke-opacity:1;display:inline"
       id="path3977"
       sodipodi:cx="48.06535"
       sodipodi:cy="497.85199"
       sodipodi:rx="13.063916"
       sodipodi:ry="13.063916"
       d="m 61.129266,497.85199 c 0,7.215 -5.848915,13.06392 -13.063916,13.06392 -7.215002,0 -13.063917,-5.84892 -13.063917,-13.06392 0,-7.215 5.848915,-13.06392 13.063917,-13.06392 7.215001,0 13.063916,5.84892 13.063916,13.06392 z"
       transform="matrix(0.6123738,0,0,0.6123738,351.56604,206.72297)" />
  </g>
  <g
     transform="translate(0,-294.09454)"
     inkscape:groupmode="layer"
     id="g3185"
     inkscape:label="Star face"
     style="display:none">
    <path
       style="fill:#800080;fill-opacity:1;stroke:#800080;stroke-width:2.5;stroke-linecap:butt;stroke-linejoin:miter;stroke-miterlimit:4;stroke-opacity:1;stroke-dasharray:none;display:inline"
       d="m 139.98428,512.58044 202.01482,0"
       id="path3187"
       inkscape:connector-curvature="0" />
    <path
       id="path3189"
       d="m 240.50817,611.11012 0,-199.03128"
       style="fill:#800080;fill-opacity:1;stroke:#800080;stroke-width:2.5;stroke-linecap:butt;stroke-linejoin:miter;stroke-miterlimit:4;stroke-opacity:1;stroke-dasharray:none;display:inline"
       inkscape:connector-curvature="0" />
    <path
       sodipodi:type="arc"
       style="fill:#800080;fill-opacity:1;stroke:#800080;stroke-opacity:1;display:inline"
       id="path3191"
       sodipodi:cx="48.06535"
       sodipodi:cy="497.85199"
       sodipodi:rx="13.063916"
       sodipodi:ry="13.063916"
       d="m 61.129266,497.85199 c 0,7.215 -5.848915,13.06392 -13.063916,13.06392 -7.215002,0 -13.063917,-5.84892 -13.063917,-13.06392 0,-7.215 5.848915,-13.06392 13.063917,-13.06392 7.215001,0 13.063916,5.84892 13.063916,13.06392 z"
       transform="matrix(0.6123738,0,0,0.6123738,211.07421,106.9522)" />
    <path
       transform="matrix(0.6123738,0,0,0.6123738,211.07421,306.9522)"
       d="m 61.129266,497.85199 c 0,7.215 -5.848915,13.06392 -13.063916,13.06392 -7.215002,0 -13.063917,-5.84892 -13.063917,-13.06392 0,-7.215 5.848915,-13.06392 13.063917,-13.06392 7.215001,0 13.063916,5.84892 13.063916,13.06392 z"
       sodipodi:ry="13.063916"
       sodipodi:rx="13.063916"
       sodipodi:cy="497.85199"
       sodipodi:cx="48.06535"
       id="path3193"
       style="fill:#800080;fill-opacity:1;stroke:#800080;stroke-opacity:1;display:inline"
       sodipodi:type="arc" />
    <path
       sodipodi:type="arc"
       style="fill:#800080;fill-opacity:1;stroke:#800080;stroke-opacity:1;display:inline"
       id="path3195"
       sodipodi:cx="48.06535"
       sodipodi:cy="497.85199"
       sodipodi:rx="13.063916"
       sodipodi:ry="13.063916"
       d="m 61.129266,497.85199 c 0,7.215 -5.848915,13.06392 -13.063916,13.06392 -7.215002,0 -13.063917,-5.84892 -13.063917,-13.06392 0,-7.215 5.848915,-13.06392 13.063917,-13.06392 7.215001,0 13.063916,5.84892 13.063916,13.06392 z"
       transform="matrix(0.6123738,0,0,0.6123738,310.4433,206.72297)" />
    <path
       transform="matrix(0.6123738,0,0,0.6123738,110.4433,206.72297)"
       d="m 61.129266,497.85199 c 0,7.215 -5.848915,13.06392 -13.063916,13.06392 -7.215002,0 -13.063917,-5.84892 -13.063917,-13.06392 0,-7.215 5.848915,-13.06392 13.063917,-13.06392 7.215001,0 13.063916,5.84892 13.063916,13.06392 z"
       sodipodi:ry="13.063916"
       sodipodi:rx="13.063916"
       sodipodi:cy="497.85199"
       sodipodi:cx="48.06535"
       id="path3197"
       style="fill:#800080;fill-opacity:1;stroke:#800080;stroke-opacity:1;display:inline"
       sodipodi:type="arc" />
  </g>
  <g
     transform="translate(0,-294.09454)"
     style="display:none"
     inkscape:label="Center"
     id="layer8"
     inkscape:groupmode="layer">
    <path
       sodipodi:type="arc"
       style="fill:#ff0000;fill-opacity:1;stroke:none;display:inline"
       id="path4279"
       sodipodi:cx="48.06535"
       sodipodi:cy="497.85199"
       sodipodi:rx="13.063916"
       sodipodi:ry="13.063916"
       d="m 61.129266,497.85199 c 0,7.215 -5.848915,13.06392 -13.063916,13.06392 -7.215002,0 -13.063917,-5.84892 -13.063917,-13.06392 0,-7.215 5.848915,-13.06392 13.063917,-13.06392 7.215001,0 13.063916,5.84892 13.063916,13.06392 z"
       transform="matrix(0.6123738,0,0,0.6123738,211.00922,208.59698)" />
    <path
       transform="matrix(0.6123738,0,0,0.6123738,205.00922,204.59698)"
       d="m 61.129266,497.85199 c 0,7.215 -5.848915,13.06392 -13.063916,13.06392 -7.215002,0 -13.063917,-5.84892 -13.063917,-13.06392 0,-7.215 5.848915,-13.06392 13.063917,-13.06392 7.215001,0 13.063916,5.84892 13.063916,13.06392 z"
       sodipodi:ry="13.063916"
       sodipodi:rx="13.063916"
       sodipodi:cy="497.85199"
       sodipodi:cx="48.06535"
       id="path3047"
       style="fill:#ff0000;fill-opacity:1;stroke:none;display:inline"
       sodipodi:type="arc" />
    <path
       sodipodi:type="arc"
       style="fill:#ff0000;fill-opacity:1;stroke:none;display:inline"
       id="path3049"
       sodipodi:cx="48.06535"
       sodipodi:cy="497.85199"
       sodipodi:rx="13.063916"
       sodipodi:ry="13.063916"
       d="m 61.129266,497.85199 c 0,7.215 -5.848915,13.06392 -13.063916,13.06392 -7.215002,0 -13.063917,-5.84892 -13.063917,-13.06392 0,-7.215 5.848915,-13.06392 13.063917,-13.06392 7.215001,0 13.063916,5.84892 13.063916,13.06392 z"
       transform="matrix(0.6123738,0,0,0.6123738,219.00922,204.59698)" />
    <path
       transform="matrix(0.6123738,0,0,0.6123738,217.00922,216.59698)"
       d="m 61.129266,497.85199 c 0,7.215 -5.848915,13.06392 -13.063916,13.06392 -7.215002,0 -13.063917,-5.84892 -13.063917,-13.06392 0,-7.215 5.848915,-13.06392 13.063917,-13.06392 7.215001,0 13.063916,5.84892 13.063916,13.06392 z"
       sodipodi:ry="13.063916"
       sodipodi:rx="13.063916"
       sodipodi:cy="497.85199"
       sodipodi:cx="48.06535"
       id="path3051"
       style="fill:#ff0000;fill-opacity:1;stroke:none;display:inline"
       sodipodi:type="arc" />
    <path
       sodipodi:type="arc"
       style="fill:#ff0000;fill-opacity:1;stroke:none;display:inline"
       id="path3053"
       sodipodi:cx="48.06535"
       sodipodi:cy="497.85199"
       sodipodi:rx="13.063916"
       sodipodi:ry="13.063916"
       d="m 61.129266,497.85199 c 0,7.215 -5.848915,13.06392 -13.063916,13.06392 -7.215002,0 -13.063917,-5.84892 -13.063917,-13.06392 0,-7.215 5.848915,-13.06392 13.063917,-13.06392 7.215001,0 13.063916,5.84892 13.063916,13.06392 z"
       transform="matrix(0.6123738,0,0,0.6123738,207.00922,214.59698)" />
  </g>
  <g
     transform="translate(0,-294.09454)"
     style="display:none"
     inkscape:label="1.0"
     id="layer5"
     inkscape:groupmode="layer">
    <path
       inkscape:connector-curvature="0"
       id="path3616"
       d="m 240.03769,459.88028 97.27503,0"
       style="fill:none;stroke:#000000;stroke-width:1.55903077;stroke-linecap:butt;stroke-linejoin:miter;stroke-miterlimit:4;stroke-opacity:1;stroke-dasharray:9.35418463, 9.35418463;stroke-dashoffset:0;marker-start:none;marker-end:url(#Arrow1Mend)" />
    <text
       sodipodi:linespacing="125%"
       id="text4248"
       y="470.8775"
       x="347.8515"
       style="font-size:40px;font-style:normal;font-variant:normal;font-weight:normal;font-stretch:normal;text-align:start;line-height:125%;writing-mode:lr-tb;text-anchor:start;fill:#000000;fill-opacity:1;stroke:none;font-family:Times New Roman;-inkscape-font-specification:'Times New Roman,'"
       xml:space="preserve"><tspan
         y="470.8775"
         x="347.8515"
         id="tspan4250"
         sodipodi:role="line">1</tspan></text>
  </g>
  <g
     transform="translate(0,-294.09454)"
     style="display:none"
     inkscape:label="1.41"
     id="layer4"
     inkscape:groupmode="layer">
    <path
       inkscape:connector-curvature="0"
       style="fill:none;stroke:#000000;stroke-width:1.50980425;stroke-linecap:butt;stroke-linejoin:miter;stroke-miterlimit:4;stroke-opacity:1;stroke-dasharray:9.05882549, 9.05882549;stroke-dashoffset:0;marker-start:none;marker-end:url(#Arrow1Mend)"
       d="m 240.01307,577.6507 138.34831,0"
       id="path4252" />
    <text
       xml:space="preserve"
       style="font-size:40px;font-style:normal;font-variant:normal;font-weight:normal;font-stretch:normal;text-align:start;line-height:125%;writing-mode:lr-tb;text-anchor:start;fill:#000000;fill-opacity:1;stroke:none;font-family:Times New Roman;-inkscape-font-specification:'Times New Roman,'"
       x="383.44446"
       y="589.65625"
       id="text4254"
       sodipodi:linespacing="125%"><tspan
         sodipodi:role="line"
         id="tspan4256"
         x="383.44446"
         y="589.65625">1.41</tspan></text>
    <path
       id="path3983"
       d="m 381.02675,588.78095 0,-78.77971"
       style="fill:#9c9c9c;fill-opacity:1;stroke:#808080;stroke-width:1.1394552;stroke-linecap:butt;stroke-linejoin:miter;stroke-miterlimit:4;stroke-opacity:1;stroke-dasharray:1.13945512, 2.27891021;stroke-dashoffset:0;marker-start:none;marker-end:none"
       inkscape:connector-curvature="0" />
  </g>
  <g
     transform="translate(0,-294.09454)"
     style="display:none"
     inkscape:label="2-factor label"
     id="layer3"
     inkscape:groupmode="layer">
    <text
       sodipodi:linespacing="125%"
       id="text4367"
       y="621.08423"
       x="239.04332"
       style="font-size:40px;font-style:normal;font-variant:normal;font-weight:normal;font-stretch:normal;text-align:center;line-height:125%;writing-mode:lr-tb;text-anchor:middle;fill:#000000;fill-opacity:1;stroke:none;font-family:Arial;-inkscape-font-specification:Arial"
       xml:space="preserve"><tspan
         y="621.08423"
         x="244.59019"
         id="tspan4369"
         sodipodi:role="line">2-factor </tspan><tspan
         id="tspan4371"
         y="671.08423"
         x="239.04332"
         sodipodi:role="line">system</tspan></text>
  </g>
  <g
     style="display:inline;"
     inkscape:label="3F axial"
     id="layer12"
     inkscape:groupmode="layer">
    <path
       inkscape:connector-curvature="0"
       id="path4347"
       d="m 23.65681,521.40958 337.00142,0"
       style="fill:#800080;stroke:#800080;stroke-width:3.75000000000000000;stroke-linecap:butt;stroke-linejoin:miter;stroke-miterlimit:4;stroke-opacity:1;stroke-dasharray:none;display:inline;fill-opacity:1"
       transform="translate(0,-294.09454)" />
    <path
       transform="matrix(0.6123738,0,0,0.6123738,332.09262,-77.31907)"
       d="m 61.129266,497.85199 a 13.063916,13.063916 0 1 1 -26.127833,0 13.063916,13.063916 0 1 1 26.127833,0 z"
       sodipodi:ry="13.063916"
       sodipodi:rx="13.063916"
       sodipodi:cy="497.85199"
       sodipodi:cx="48.06535"
       id="path4355"
       style="fill:#800080;fill-opacity:1;stroke:#800080;display:inline;stroke-width:6.12371071000000011;stroke-miterlimit:4;stroke-dasharray:none;stroke-opacity:1"
       sodipodi:type="arc" />
    <path
       sodipodi:type="arc"
       style="fill:#800080;fill-opacity:1;stroke:#800080;display:inline;stroke-width:6.12371071000000011;stroke-miterlimit:4;stroke-dasharray:none;stroke-opacity:1"
       id="path4357"
       sodipodi:cx="48.06535"
       sodipodi:cy="497.85199"
       sodipodi:rx="13.063916"
       sodipodi:ry="13.063916"
       d="m 61.129266,497.85199 a 13.063916,13.063916 0 1 1 -26.127833,0 13.063916,13.063916 0 1 1 26.127833,0 z"
       transform="matrix(0.6123738,0,0,0.6123738,-7.90738,-77.31907)" />
    <path
       inkscape:connector-curvature="0"
       id="path3055"
       d="M 76.15844,591.54284 308.1566,451.27633"
       style="fill:#800080;stroke:#800080;stroke-width:3.75000000000000000;stroke-linecap:butt;stroke-linejoin:miter;stroke-miterlimit:4;stroke-opacity:1;stroke-dasharray:none;display:inline;fill-opacity:1"
       transform="translate(0,-294.09454)" />
    <path
       inkscape:connector-curvature="0"
       style="fill:#800080;stroke:#800080;stroke-width:3.75000000000000000;stroke-linecap:butt;stroke-linejoin:miter;stroke-miterlimit:4;stroke-opacity:1;stroke-dasharray:none;display:inline;fill-opacity:1"
       d="m 192.15752,689.91027 0,-337.0014"
       id="path4349"
       transform="translate(0,-294.09454)" />
    <path
       inkscape:connector-curvature="0"
       style="fill:#800080;stroke:#800080;stroke-width:3.75000000000000000;stroke-linecap:butt;stroke-linejoin:miter;stroke-miterlimit:4;stroke-opacity:1;stroke-dasharray:none;display:inline;fill-opacity:1"
       d="M 76.15844,591.54284 308.1566,451.27633"
       id="path4361"
       transform="translate(0,-294.09454)" />
    <path
       transform="matrix(0.6123738,0,0,0.6123738,280.84971,-150.67939)"
       d="m 61.129266,497.85199 a 13.063916,13.063916 0 1 1 -26.127833,0 13.063916,13.063916 0 1 1 26.127833,0 z"
       sodipodi:ry="13.063916"
       sodipodi:rx="13.063916"
       sodipodi:cy="497.85199"
       sodipodi:cx="48.06535"
       id="path4363"
       style="fill:#800080;fill-opacity:1;stroke:#800080;display:inline;stroke-width:6.12371071000000011;stroke-miterlimit:4;stroke-dasharray:none;stroke-opacity:1"
       sodipodi:type="arc" />
    <path
       transform="matrix(0.6123738,0,0,0.6123738,50.52582,-9.95875)"
       d="m 61.129266,497.85199 a 13.063916,13.063916 0 1 1 -26.127833,0 13.063916,13.063916 0 1 1 26.127833,0 z"
       sodipodi:ry="13.063916"
       sodipodi:rx="13.063916"
       sodipodi:cy="497.85199"
       sodipodi:cx="48.06535"
       id="path4365"
       style="fill:#800080;fill-opacity:1;stroke:#800080;display:inline;stroke-width:6.12371071000000011;stroke-miterlimit:4;stroke-dasharray:none;stroke-opacity:1"
       sodipodi:type="arc" />
    <path
       transform="matrix(0.6123738,0,0,0.6123738,162.79192,-250.42396)"
       d="m 61.129266,497.85199 a 13.063916,13.063916 0 1 1 -26.127833,0 13.063916,13.063916 0 1 1 26.127833,0 z"
       sodipodi:ry="13.063916"
       sodipodi:rx="13.063916"
       sodipodi:cy="497.85199"
       sodipodi:cx="48.06535"
       id="path4351"
       style="fill:#800080;fill-opacity:1;stroke:#800080;display:inline;stroke-width:6.12371071000000011;stroke-miterlimit:4;stroke-dasharray:none;stroke-opacity:1"
       sodipodi:type="arc" />
    <path
       sodipodi:type="arc"
       style="fill:#800080;fill-opacity:1;stroke:#800080;display:inline;stroke-width:6.12371071000000011;stroke-miterlimit:4;stroke-dasharray:none;stroke-opacity:1"
       id="path4353"
       sodipodi:cx="48.06535"
       sodipodi:cy="497.85199"
       sodipodi:rx="13.063916"
       sodipodi:ry="13.063916"
       d="m 61.129266,497.85199 a 13.063916,13.063916 0 1 1 -26.127833,0 13.063916,13.063916 0 1 1 26.127833,0 z"
       transform="matrix(0.6123738,0,0,0.6123738,162.09262,90.68093)" />
    <path
       inkscape:connector-curvature="0"
       id="path4315"
       d="m 192.96401,563.85454 168.153,0"
       style="stroke-linejoin:miter;marker-end:url(#Arrow1MendI);stroke-opacity:1;marker-start:none;stroke-dashoffset:0;stroke:#800080;stroke-linecap:butt;stroke-miterlimit:4;stroke-dasharray:9.86005424999999924, 9.86005424999999924;stroke-width:1.64334237999999999;display:inline;fill:#800080"
       transform="translate(0,-294.09454)" />
    <text
       sodipodi:linespacing="125%"
       id="text4317"
       y="575.86005"
       x="368.77811"
       style="font-size:40px;font-style:normal;font-variant:normal;font-weight:normal;font-stretch:normal;text-align:start;line-height:125%;writing-mode:lr-tb;text-anchor:start;fill:#800080;fill-opacity:1;stroke:none;display:inline;font-family:Times New Roman;-inkscape-font-specification:'Times New Roman,'"
       xml:space="preserve"
       transform="translate(0,-294.09454)"><tspan
         y="575.86005"
         x="368.77811"
         id="tspan3045"
         sodipodi:role="line">1.68</tspan></text>
  </g>
  <g
     style="display:inline"
     inkscape:label="3F cube"
     id="layer13"
     inkscape:groupmode="layer">
    <path
       inkscape:connector-curvature="0"
       id="path4339"
       d="M 41.25932,650.52042 141.44655,590.03968"
       style="fill:#0080ff;fill-opacity:1;stroke:#0080ff;stroke-width:3.75;stroke-linecap:butt;stroke-linejoin:miter;stroke-miterlimit:4;stroke-opacity:1;stroke-dasharray:none;display:inline"
       transform="translate(0,-294.09454)" />
    <path
       inkscape:connector-curvature="0"
       id="path4323"
       d="m 142.07677,589.79994 0,-198.79247"
       style="fill:#0080ff;fill-opacity:1;stroke:#0080ff;stroke-width:3.75;stroke-linecap:butt;stroke-linejoin:miter;stroke-miterlimit:4;stroke-opacity:1;stroke-dasharray:none;display:inline"
       transform="translate(0,-294.09454)" />
    <path
       inkscape:connector-curvature="0"
       style="fill:#0080ff;fill-opacity:1;stroke:#0080ff;stroke-width:3.75;stroke-linecap:butt;stroke-linejoin:miter;stroke-miterlimit:4;stroke-opacity:1;stroke-dasharray:none;display:inline"
       d="m 342.07677,589.79994 0,-198.79247"
       id="path4325"
       transform="translate(0,-294.09454)" />
    <path
       inkscape:connector-curvature="0"
       style="fill:#0080ff;fill-opacity:1;stroke:#0080ff;stroke-width:3.75;stroke-linecap:butt;stroke-linejoin:miter;stroke-miterlimit:4;stroke-opacity:1;stroke-dasharray:none;display:inline"
       d="m 341.473,390.40371 -198.79246,0"
       id="path4327"
       transform="translate(0,-294.09454)" />
    <path
       inkscape:connector-curvature="0"
       id="path4329"
       d="m 339.2659,590.40371 -198.79246,0"
       style="fill:#0080ff;fill-opacity:1;stroke:#0080ff;stroke-width:3.75;stroke-linecap:butt;stroke-linejoin:miter;stroke-miterlimit:4;stroke-opacity:1;stroke-dasharray:none;display:inline"
       transform="translate(0,-294.09454)" />
    <path
       transform="matrix(0.6123738,0,0,0.6123738,111.9299,-207.98334)"
       d="m 61.129266,497.85199 a 13.063916,13.063916 0 1 1 -26.127833,0 13.063916,13.063916 0 1 1 26.127833,0 z"
       sodipodi:ry="13.063916"
       sodipodi:rx="13.063916"
       sodipodi:cy="497.85199"
       sodipodi:cx="48.06535"
       id="path4331"
       style="fill:#0080ff;fill-opacity:1;stroke:#0080ff;stroke-width:6.12371063;stroke-miterlimit:4;stroke-opacity:1;stroke-dasharray:none;display:inline"
       sodipodi:type="arc" />
    <path
       sodipodi:type="arc"
       style="fill:#0080ff;fill-opacity:1;stroke:#0080ff;stroke-width:6.12371063;stroke-miterlimit:4;stroke-opacity:1;stroke-dasharray:none;display:inline"
       id="path4333"
       sodipodi:cx="48.06535"
       sodipodi:cy="497.85199"
       sodipodi:rx="13.063916"
       sodipodi:ry="13.063916"
       d="m 61.129266,497.85199 a 13.063916,13.063916 0 1 1 -26.127833,0 13.063916,13.063916 0 1 1 26.127833,0 z"
       transform="matrix(0.6123738,0,0,0.6123738,311.9299,-207.98334)" />
    <path
       transform="matrix(0.6123738,0,0,0.6123738,311.9299,-7.98334)"
       d="m 61.129266,497.85199 a 13.063916,13.063916 0 1 1 -26.127833,0 13.063916,13.063916 0 1 1 26.127833,0 z"
       sodipodi:ry="13.063916"
       sodipodi:rx="13.063916"
       sodipodi:cy="497.85199"
       sodipodi:cx="48.06535"
       id="path4335"
       style="fill:#0080ff;fill-opacity:1;stroke:#0080ff;stroke-width:6.12371063;stroke-miterlimit:4;stroke-opacity:1;stroke-dasharray:none;display:inline"
       sodipodi:type="arc" />
    <path
       sodipodi:type="arc"
       style="fill:#0080ff;fill-opacity:1;stroke:#0080ff;stroke-width:6.12371063;stroke-miterlimit:4;stroke-opacity:1;stroke-dasharray:none;display:inline"
       id="path4337"
       sodipodi:cx="48.06535"
       sodipodi:cy="497.85199"
       sodipodi:rx="13.063916"
       sodipodi:ry="13.063916"
       d="m 61.129266,497.85199 a 13.063916,13.063916 0 1 1 -26.127833,0 13.063916,13.063916 0 1 1 26.127833,0 z"
       transform="matrix(0.6123738,0,0,0.6123738,111.9299,-7.98334)" />
    <path
       inkscape:connector-curvature="0"
       style="fill:#0080ff;fill-opacity:1;stroke:#0080ff;stroke-width:3.75;stroke-linecap:butt;stroke-linejoin:miter;stroke-miterlimit:4;stroke-opacity:1;stroke-dasharray:none;display:inline"
       d="m 42.07677,649.79994 0,-198.79247"
       id="path4285"
       transform="translate(0,-294.09454)" />
    <path
       inkscape:connector-curvature="0"
       id="path4287"
       d="m 242.07677,649.79994 0,-198.79247"
       style="fill:#0080ff;fill-opacity:1;stroke:#0080ff;stroke-width:3.75;stroke-linecap:butt;stroke-linejoin:miter;stroke-miterlimit:4;stroke-opacity:1;stroke-dasharray:none;display:inline"
       transform="translate(0,-294.09454)" />
    <path
       inkscape:connector-curvature="0"
       id="path4289"
       d="m 241.473,450.40371 -198.79246,0"
       style="fill:#0080ff;fill-opacity:1;stroke:#0080ff;stroke-width:3.75;stroke-linecap:butt;stroke-linejoin:miter;stroke-miterlimit:4;stroke-opacity:1;stroke-dasharray:none;display:inline"
       transform="translate(0,-294.09454)" />
    <path
       inkscape:connector-curvature="0"
       style="fill:#0080ff;fill-opacity:1;stroke:#0080ff;stroke-width:3.75;stroke-linecap:butt;stroke-linejoin:miter;stroke-miterlimit:4;stroke-opacity:1;stroke-dasharray:none;display:inline"
       d="m 241.473,650.40371 -198.79246,0"
       id="path4291"
       transform="translate(0,-294.09454)" />
    <path
       sodipodi:type="arc"
       style="fill:#0080ff;fill-opacity:1;stroke:#0080ff;stroke-width:6.12371063;stroke-miterlimit:4;stroke-opacity:1;stroke-dasharray:none;display:inline"
       id="path4293"
       sodipodi:cx="48.06535"
       sodipodi:cy="497.85199"
       sodipodi:rx="13.063916"
       sodipodi:ry="13.063916"
       d="m 61.129266,497.85199 a 13.063916,13.063916 0 1 1 -26.127833,0 13.063916,13.063916 0 1 1 26.127833,0 z"
       transform="matrix(0.6123738,0,0,0.6123738,11.9299,-147.98334)" />
    <path
       transform="matrix(0.6123738,0,0,0.6123738,211.9299,-147.98334)"
       d="m 61.129266,497.85199 a 13.063916,13.063916 0 1 1 -26.127833,0 13.063916,13.063916 0 1 1 26.127833,0 z"
       sodipodi:ry="13.063916"
       sodipodi:rx="13.063916"
       sodipodi:cy="497.85199"
       sodipodi:cx="48.06535"
       id="path4295"
       style="fill:#0080ff;fill-opacity:1;stroke:#0080ff;stroke-width:6.12371063;stroke-miterlimit:4;stroke-opacity:1;stroke-dasharray:none;display:inline"
       sodipodi:type="arc" />
    <path
       sodipodi:type="arc"
       style="fill:#0080ff;fill-opacity:1;stroke:#0080ff;stroke-width:6.12371063;stroke-miterlimit:4;stroke-opacity:1;stroke-dasharray:none;display:inline"
       id="path4297"
       sodipodi:cx="48.06535"
       sodipodi:cy="497.85199"
       sodipodi:rx="13.063916"
       sodipodi:ry="13.063916"
       d="m 61.129266,497.85199 a 13.063916,13.063916 0 1 1 -26.127833,0 13.063916,13.063916 0 1 1 26.127833,0 z"
       transform="matrix(0.6123738,0,0,0.6123738,211.9299,52.01666)" />
    <path
       transform="matrix(0.6123738,0,0,0.6123738,11.9299,52.01666)"
       d="m 61.129266,497.85199 a 13.063916,13.063916 0 1 1 -26.127833,0 13.063916,13.063916 0 1 1 26.127833,0 z"
       sodipodi:ry="13.063916"
       sodipodi:rx="13.063916"
       sodipodi:cy="497.85199"
       sodipodi:cx="48.06535"
       id="path4299"
       style="fill:#0080ff;fill-opacity:1;stroke:#0080ff;stroke-width:6.12371063;stroke-miterlimit:4;stroke-opacity:1;stroke-dasharray:none;display:inline"
       sodipodi:type="arc" />
    <path
       inkscape:connector-curvature="0"
       style="fill:#0080ff;fill-opacity:1;stroke:#0080ff;stroke-width:3.75;stroke-linecap:butt;stroke-linejoin:miter;stroke-miterlimit:4;stroke-opacity:1;stroke-dasharray:none;display:inline"
       d="M 241.25932,650.52042 341.44655,590.03968"
       id="path4341"
       transform="translate(0,-294.09454)" />
    <path
       inkscape:connector-curvature="0"
       id="path4343"
       d="M 241.25932,450.52042 341.44655,390.03968"
       style="fill:#0080ff;fill-opacity:1;stroke:#0080ff;stroke-width:3.75;stroke-linecap:butt;stroke-linejoin:miter;stroke-miterlimit:4;stroke-opacity:1;stroke-dasharray:none;display:inline"
       transform="translate(0,-294.09454)" />
    <path
       inkscape:connector-curvature="0"
       style="fill:#0080ff;fill-opacity:1;stroke:#0080ff;stroke-width:3.75;stroke-linecap:butt;stroke-linejoin:miter;stroke-miterlimit:4;stroke-opacity:1;stroke-dasharray:none;display:inline"
       d="M 41.25932,450.52042 141.44655,390.03968"
       id="path4345"
       transform="translate(0,-294.09454)" />
  </g>
  <g
     style="display:inline"
     inkscape:label="3F center"
     id="layer14"
     inkscape:groupmode="layer">
    <path
       sodipodi:type="arc"
       style="fill:#ff0000;fill-opacity:1;stroke:none;display:inline"
       id="path4359"
       sodipodi:cx="48.06535"
       sodipodi:cy="497.85199"
       sodipodi:rx="13.063916"
       sodipodi:ry="13.063916"
       d="m 61.129266,497.85199 a 13.063916,13.063916 0 1 1 -26.127833,0 13.063916,13.063916 0 1 1 26.127833,0 z"
       transform="matrix(0.6123738,0,0,0.6123738,162.65852,-77.67429)" />
    <path
       transform="matrix(0.6123738,0,0,0.6123738,166.65852,-85.67429)"
       d="m 61.129266,497.85199 a 13.063916,13.063916 0 1 1 -26.127833,0 13.063916,13.063916 0 1 1 26.127833,0 z"
       sodipodi:ry="13.063916"
       sodipodi:rx="13.063916"
       sodipodi:cy="497.85199"
       sodipodi:cx="48.06535"
       id="path3179"
       style="fill:#ff0000;fill-opacity:1;stroke:none;display:inline"
       sodipodi:type="arc" />
    <path
       sodipodi:type="arc"
       style="fill:#ff0000;fill-opacity:1;stroke:none;display:inline"
       id="path3181"
       sodipodi:cx="48.06535"
       sodipodi:cy="497.85199"
       sodipodi:rx="13.063916"
       sodipodi:ry="13.063916"
       d="m 61.129266,497.85199 a 13.063916,13.063916 0 1 1 -26.127833,0 13.063916,13.063916 0 1 1 26.127833,0 z"
       transform="matrix(0.6123738,0,0,0.6123738,172.65852,-75.67429)" />
    <path
       transform="matrix(0.6123738,0,0,0.6123738,156.65852,-81.67429)"
       d="m 61.129266,497.85199 a 13.063916,13.063916 0 1 1 -26.127833,0 13.063916,13.063916 0 1 1 26.127833,0 z"
       sodipodi:ry="13.063916"
       sodipodi:rx="13.063916"
       sodipodi:cy="497.85199"
       sodipodi:cx="48.06535"
       id="path3183"
       style="fill:#ff0000;fill-opacity:1;stroke:none;display:inline"
       sodipodi:type="arc" />
    <path
       sodipodi:type="arc"
       style="fill:#ff0000;fill-opacity:1;stroke:none;display:inline"
       id="path3185"
       sodipodi:cx="48.06535"
       sodipodi:cy="497.85199"
       sodipodi:rx="13.063916"
       sodipodi:ry="13.063916"
       d="m 61.129266,497.85199 a 13.063916,13.063916 0 1 1 -26.127833,0 13.063916,13.063916 0 1 1 26.127833,0 z"
       transform="matrix(0.6123738,0,0,0.6123738,156.65852,-81.67429)" />
  </g>
</svg>
