<?xml version="1.0" encoding="UTF-8" standalone="no"?>
<!-- Created with Inkscape (http://www.inkscape.org/) -->

<svg
   xmlns:dc="http://purl.org/dc/elements/1.1/"
   xmlns:cc="http://creativecommons.org/ns#"
   xmlns:rdf="http://www.w3.org/1999/02/22-rdf-syntax-ns#"
   xmlns:svg="http://www.w3.org/2000/svg"
   xmlns="http://www.w3.org/2000/svg"
   xmlns:sodipodi="http://sodipodi.sourceforge.net/DTD/sodipodi-0.dtd"
   xmlns:inkscape="http://www.inkscape.org/namespaces/inkscape"
   width="450"
   height="450"
   id="svg2"
   version="1.1"
   inkscape:version="0.48.2 r9819"
   sodipodi:docname="central-composite-design-MOOC-anim.svg"
   inkscape:export-filename="central-composite-design-MOOC-anim-05.png"
   inkscape:export-xdpi="250"
   inkscape:export-ydpi="250">
  <defs
     id="defs4">
    <marker
       inkscape:stockid="Arrow1Mend"
       orient="auto"
       refY="0"
       refX="0"
       id="Arrow1Mend"
       style="overflow:visible">
      <path
         id="path3812"
         d="M 0,0 5,-5 -12.5,0 5,5 0,0 z"
         style="fill-rule:evenodd;stroke:#000000;stroke-width:1pt;marker-start:none"
         transform="matrix(-0.4,0,0,-0.4,-4,0)"
         inkscape:connector-curvature="0" />
    </marker>
    <inkscape:perspective
       sodipodi:type="inkscape:persp3d"
       inkscape:vp_x="0 : 526.18109 : 1"
       inkscape:vp_y="0 : 1000 : 0"
       inkscape:vp_z="744.09448 : 526.18109 : 1"
       inkscape:persp3d-origin="372.04724 : 350.78739 : 1"
       id="perspective10" />
  </defs>
  <sodipodi:namedview
     id="base"
     pagecolor="#ffffff"
     bordercolor="#666666"
     borderopacity="1.0"
     inkscape:pageopacity="0.0"
     inkscape:pageshadow="2"
     inkscape:zoom="1.4755556"
     inkscape:cx="225"
     inkscape:cy="225"
     inkscape:document-units="px"
     inkscape:current-layer="g3980"
     showgrid="false"
     inkscape:window-width="1440"
     inkscape:window-height="852"
     inkscape:window-x="0"
     inkscape:window-y="0"
     inkscape:window-maximized="1" />
  <metadata
     id="metadata7">
    <rdf:RDF>
      <cc:Work
         rdf:about="">
        <dc:format>image/svg+xml</dc:format>
        <dc:type
           rdf:resource="http://purl.org/dc/dcmitype/StillImage" />
        <dc:title></dc:title>
      </cc:Work>
    </rdf:RDF>
  </metadata>
  <g
     inkscape:groupmode="layer"
     id="layer1"
     inkscape:label="lines-horiz"
     style="display:inline">
    <path
       transform="translate(0,-294.09454)"
       inkscape:connector-curvature="0"
       id="path4167"
       d="m 68.541071,712.58044 344.901239,0"
       style="fill:none;stroke:#000000;stroke-width:2.76987195;stroke-linecap:butt;stroke-linejoin:miter;stroke-miterlimit:4;stroke-opacity:1;stroke-dasharray:none;display:inline" />
    <text
       transform="translate(0,-294.09454)"
       xml:space="preserve"
       style="font-size:25px;font-style:normal;font-variant:normal;font-weight:normal;font-stretch:normal;text-align:start;line-height:125%;letter-spacing:0px;word-spacing:0px;writing-mode:lr-tb;text-anchor:start;fill:#008000;fill-opacity:1;stroke:none;display:inline;font-family:Arial;-inkscape-font-specification:Arial"
       x="426.85843"
       y="721.11865"
       id="text3093"
       sodipodi:linespacing="125%"><tspan
         sodipodi:role="line"
         id="tspan3095"
         x="426.85843"
         y="721.11865">P</tspan></text>
  </g>
  <g
     inkscape:groupmode="layer"
     id="layer10"
     inkscape:label="lines-vert"
     style="display:inline">
    <path
       transform="translate(0,-294.09454)"
       style="fill:none;stroke:#000000;stroke-width:2.90158272;stroke-linecap:butt;stroke-linejoin:miter;stroke-miterlimit:4;stroke-opacity:1;stroke-dasharray:none;display:inline"
       d="M 20,700.82979 20,322.34773"
       id="path4235"
       inkscape:connector-curvature="0" />
    <text
       transform="translate(0,-294.09454)"
       sodipodi:linespacing="125%"
       id="text3097"
       y="315.94696"
       x="6.7771034"
       style="font-size:25px;font-style:normal;font-variant:normal;font-weight:normal;font-stretch:normal;text-align:start;line-height:125%;letter-spacing:0px;word-spacing:0px;writing-mode:lr-tb;text-anchor:start;fill:#008000;fill-opacity:1;stroke:none;display:inline;font-family:Arial;-inkscape-font-specification:Arial"
       xml:space="preserve"><tspan
         sodipodi:role="line"
         id="tspan3101"
         x="6.7771034"
         y="315.94696">T</tspan></text>
  </g>
  <g
     style="display:inline"
     inkscape:label="perspective-star"
     id="g3079"
     inkscape:groupmode="layer"
     transform="translate(0,-294.09454)">
    <path
       transform="matrix(-0.6123738,0,0,-0.6123738,169.71943,1017.452)"
       d="m 61.129266,497.85199 a 13.063916,13.063916 0 1 1 -26.127833,0 13.063916,13.063916 0 1 1 26.127833,0 z"
       sodipodi:ry="13.063916"
       sodipodi:rx="13.063916"
       sodipodi:cy="497.85199"
       sodipodi:cx="48.06535"
       id="path3915"
       style="fill:#0080ff;fill-opacity:1;stroke:none;display:inline"
       sodipodi:type="arc" />
    <path
       sodipodi:type="arc"
       style="fill:#0080ff;fill-opacity:1;stroke:none;display:inline"
       id="path3917"
       sodipodi:cx="48.06535"
       sodipodi:cy="497.85199"
       sodipodi:rx="13.063916"
       sodipodi:ry="13.063916"
       d="m 61.129266,497.85199 a 13.063916,13.063916 0 1 1 -26.127833,0 13.063916,13.063916 0 1 1 26.127833,0 z"
       transform="matrix(-0.6123738,0,0,-0.6123738,369.71943,1017.452)" />
    <path
       sodipodi:type="arc"
       style="fill:#800080;fill-opacity:1;stroke:none;display:inline"
       id="path3919"
       sodipodi:cx="48.06535"
       sodipodi:cy="497.85199"
       sodipodi:rx="13.063916"
       sodipodi:ry="13.063916"
       d="m 61.129266,497.85199 a 13.063916,13.063916 0 1 1 -26.127833,0 13.063916,13.063916 0 1 1 26.127833,0 z"
       transform="matrix(-0.6123738,0,0,-0.6123738,410.43397,1017.452)" />
    <path
       sodipodi:type="arc"
       style="fill:#800080;fill-opacity:1;stroke:none;display:inline"
       id="path3921"
       sodipodi:cx="48.06535"
       sodipodi:cy="497.85199"
       sodipodi:rx="13.063916"
       sodipodi:ry="13.063916"
       d="m 61.129266,497.85199 a 13.063916,13.063916 0 1 1 -26.127833,0 13.063916,13.063916 0 1 1 26.127833,0 z"
       transform="matrix(-0.6123738,0,0,-0.6123738,128.43397,1017.452)" />
    <path
       sodipodi:type="arc"
       style="fill:#ff0000;fill-opacity:1;stroke:none;display:inline"
       id="path3923"
       sodipodi:cx="48.06535"
       sodipodi:cy="497.85199"
       sodipodi:rx="13.063916"
       sodipodi:ry="13.063916"
       d="m 61.129266,497.85199 a 13.063916,13.063916 0 1 1 -26.127833,0 13.063916,13.063916 0 1 1 26.127833,0 z"
       transform="matrix(-0.6123738,0,0,-0.6123738,269.94213,1017.452)" />
  </g>
  <g
     transform="translate(0,-294.09454)"
     inkscape:groupmode="layer"
     id="g3980"
     inkscape:label="perspective-star vert"
     style="display:inline">
    <path
       transform="matrix(0,-0.6123738,0.6123738,0,-284.87151,442.29987)"
       d="m 61.129266,497.85199 a 13.063916,13.063916 0 1 1 -26.127833,0 13.063916,13.063916 0 1 1 26.127833,0 z"
       sodipodi:ry="13.063916"
       sodipodi:rx="13.063916"
       sodipodi:cy="497.85199"
       sodipodi:cx="48.06535"
       id="path3982"
       style="fill:#0080ff;fill-opacity:1;stroke:none;display:inline"
       sodipodi:type="arc" />
    <path
       sodipodi:type="arc"
       style="fill:#0080ff;fill-opacity:1;stroke:none;display:inline"
       id="path3984"
       sodipodi:cx="48.06535"
       sodipodi:cy="497.85199"
       sodipodi:rx="13.063916"
       sodipodi:ry="13.063916"
       d="m 61.129266,497.85199 a 13.063916,13.063916 0 1 1 -26.127833,0 13.063916,13.063916 0 1 1 26.127833,0 z"
       transform="matrix(0,-0.6123738,0.6123738,0,-284.87151,642.29987)" />
    <path
       sodipodi:type="arc"
       style="fill:#800080;fill-opacity:1;stroke:none;display:inline"
       id="path3986"
       sodipodi:cx="48.06535"
       sodipodi:cy="497.85199"
       sodipodi:rx="13.063916"
       sodipodi:ry="13.063916"
       d="m 61.129266,497.85199 a 13.063916,13.063916 0 1 1 -26.127833,0 13.063916,13.063916 0 1 1 26.127833,0 z"
       transform="matrix(0,-0.6123738,0.6123738,0,-284.87151,683.01441)" />
    <path
       sodipodi:type="arc"
       style="fill:#800080;fill-opacity:1;stroke:none;display:inline"
       id="path3988"
       sodipodi:cx="48.06535"
       sodipodi:cy="497.85199"
       sodipodi:rx="13.063916"
       sodipodi:ry="13.063916"
       d="m 61.129266,497.85199 a 13.063916,13.063916 0 1 1 -26.127833,0 13.063916,13.063916 0 1 1 26.127833,0 z"
       transform="matrix(0,-0.6123738,0.6123738,0,-284.87151,401.01441)" />
    <path
       sodipodi:type="arc"
       style="fill:#ff0000;fill-opacity:1;stroke:none;display:inline"
       id="path3990"
       sodipodi:cx="48.06535"
       sodipodi:cy="497.85199"
       sodipodi:rx="13.063916"
       sodipodi:ry="13.063916"
       d="m 61.129266,497.85199 a 13.063916,13.063916 0 1 1 -26.127833,0 13.063916,13.063916 0 1 1 26.127833,0 z"
       transform="matrix(0,-0.6123738,0.6123738,0,-284.87151,542.0144)" />
  </g>
  <g
     inkscape:groupmode="layer"
     id="layer6"
     inkscape:label="Cube"
     style="display:inline"
     transform="translate(0,-294.09454)">
    <g
       transform="translate(0,-148.2677)"
       style="fill:#0080ff;fill-opacity:1;stroke:#0080ff;stroke-opacity:1;display:inline"
       id="g3144">
      <path
         inkscape:connector-curvature="0"
         id="path2820"
         d="m 140.42745,760.24437 0,-198.79247"
         style="fill:#0080ff;fill-opacity:1;stroke:#0080ff;stroke-width:4;stroke-linecap:butt;stroke-linejoin:miter;stroke-miterlimit:4;stroke-opacity:1;stroke-dasharray:none" />
      <path
         inkscape:connector-curvature="0"
         style="fill:#0080ff;fill-opacity:1;stroke:#0080ff;stroke-width:4;stroke-linecap:butt;stroke-linejoin:miter;stroke-miterlimit:4;stroke-opacity:1;stroke-dasharray:none"
         d="m 340.42745,760.24437 0,-198.79247"
         id="path2822" />
      <path
         inkscape:connector-curvature="0"
         style="fill:#0080ff;fill-opacity:1;stroke:#0080ff;stroke-width:4;stroke-linecap:butt;stroke-linejoin:miter;stroke-miterlimit:4;stroke-opacity:1;stroke-dasharray:none"
         d="m 339.82368,560.84814 -198.79246,0"
         id="path2824" />
      <path
         inkscape:connector-curvature="0"
         id="path2826"
         d="m 339.82368,760.84814 -198.79246,0"
         style="fill:#0080ff;fill-opacity:1;stroke:#0080ff;stroke-width:4;stroke-linecap:butt;stroke-linejoin:miter;stroke-miterlimit:4;stroke-opacity:1;stroke-dasharray:none" />
    </g>
    <path
       sodipodi:type="arc"
       style="fill:#0080ff;fill-opacity:1;stroke:#0080ff;stroke-opacity:1;display:inline"
       id="path2828"
       sodipodi:cx="48.06535"
       sodipodi:cy="497.85199"
       sodipodi:rx="13.063916"
       sodipodi:ry="13.063916"
       d="m 61.129266,497.85199 c 0,7.215 -5.848915,13.06392 -13.063916,13.06392 -7.215002,0 -13.063917,-5.84892 -13.063917,-13.06392 0,-7.215 5.848915,-13.06392 13.063917,-13.06392 7.215001,0 13.063916,5.84892 13.063916,13.06392 z"
       transform="matrix(0.6123738,0,0,0.6123738,110.28058,108.28793)" />
    <path
       transform="matrix(0.6123738,0,0,0.6123738,310.28058,108.28793)"
       d="m 61.129266,497.85199 c 0,7.215 -5.848915,13.06392 -13.063916,13.06392 -7.215002,0 -13.063917,-5.84892 -13.063917,-13.06392 0,-7.215 5.848915,-13.06392 13.063917,-13.06392 7.215001,0 13.063916,5.84892 13.063916,13.06392 z"
       sodipodi:ry="13.063916"
       sodipodi:rx="13.063916"
       sodipodi:cy="497.85199"
       sodipodi:cx="48.06535"
       id="path3602"
       style="fill:#0080ff;fill-opacity:1;stroke:#0080ff;stroke-opacity:1;display:inline"
       sodipodi:type="arc" />
    <path
       sodipodi:type="arc"
       style="fill:#0080ff;fill-opacity:1;stroke:#0080ff;stroke-opacity:1;display:inline"
       id="path3604"
       sodipodi:cx="48.06535"
       sodipodi:cy="497.85199"
       sodipodi:rx="13.063916"
       sodipodi:ry="13.063916"
       d="m 61.129266,497.85199 c 0,7.215 -5.848915,13.06392 -13.063916,13.06392 -7.215002,0 -13.063917,-5.84892 -13.063917,-13.06392 0,-7.215 5.848915,-13.06392 13.063917,-13.06392 7.215001,0 13.063916,5.84892 13.063916,13.06392 z"
       transform="matrix(0.6123738,0,0,0.6123738,310.28058,308.28793)" />
    <path
       transform="matrix(0.6123738,0,0,0.6123738,110.28058,308.28793)"
       d="m 61.129266,497.85199 c 0,7.215 -5.848915,13.06392 -13.063916,13.06392 -7.215002,0 -13.063917,-5.84892 -13.063917,-13.06392 0,-7.215 5.848915,-13.06392 13.063917,-13.06392 7.215001,0 13.063916,5.84892 13.063916,13.06392 z"
       sodipodi:ry="13.063916"
       sodipodi:rx="13.063916"
       sodipodi:cy="497.85199"
       sodipodi:cx="48.06535"
       id="path3606"
       style="fill:#0080ff;fill-opacity:1;stroke:#0080ff;stroke-opacity:1;display:inline"
       sodipodi:type="arc" />
  </g>
  <g
     inkscape:groupmode="layer"
     id="layer7"
     inkscape:label="Star"
     style="display:inline"
     transform="translate(0,-294.09454)">
    <path
       style="fill:#800080;fill-opacity:1;stroke:#800080;stroke-width:2.5;stroke-linecap:butt;stroke-linejoin:miter;stroke-miterlimit:4;stroke-opacity:1;stroke-dasharray:none;display:inline"
       d="m 100.50817,512.58044 280.96704,0"
       id="path2816"
       inkscape:connector-curvature="0" />
    <path
       id="path2818"
       d="m 240.42745,652.078 0,-280.96704"
       style="fill:#800080;fill-opacity:1;stroke:#800080;stroke-width:2.5;stroke-linecap:butt;stroke-linejoin:miter;stroke-miterlimit:4;stroke-opacity:1;stroke-dasharray:none;display:inline"
       inkscape:connector-curvature="0" />
    <path
       sodipodi:type="arc"
       style="fill:#800080;fill-opacity:1;stroke:#800080;stroke-opacity:1;display:inline"
       id="path3608"
       sodipodi:cx="48.06535"
       sodipodi:cy="497.85199"
       sodipodi:rx="13.063916"
       sodipodi:ry="13.063916"
       d="m 61.129266,497.85199 c 0,7.215 -5.848915,13.06392 -13.063916,13.06392 -7.215002,0 -13.063917,-5.84892 -13.063917,-13.06392 0,-7.215 5.848915,-13.06392 13.063917,-13.06392 7.215001,0 13.063916,5.84892 13.063916,13.06392 z"
       transform="matrix(0.6123738,0,0,0.6123738,211.55773,67.22297)" />
    <path
       transform="matrix(0.6123738,0,0,0.6123738,211.55773,349.22297)"
       d="m 61.129266,497.85199 c 0,7.215 -5.848915,13.06392 -13.063916,13.06392 -7.215002,0 -13.063917,-5.84892 -13.063917,-13.06392 0,-7.215 5.848915,-13.06392 13.063917,-13.06392 7.215001,0 13.063916,5.84892 13.063916,13.06392 z"
       sodipodi:ry="13.063916"
       sodipodi:rx="13.063916"
       sodipodi:cy="497.85199"
       sodipodi:cx="48.06535"
       id="path3610"
       style="fill:#800080;fill-opacity:1;stroke:#800080;stroke-opacity:1;display:inline"
       sodipodi:type="arc" />
    <path
       transform="matrix(0.6123738,0,0,0.6123738,69.566039,206.72297)"
       d="m 61.129266,497.85199 c 0,7.215 -5.848915,13.06392 -13.063916,13.06392 -7.215002,0 -13.063917,-5.84892 -13.063917,-13.06392 0,-7.215 5.848915,-13.06392 13.063917,-13.06392 7.215001,0 13.063916,5.84892 13.063916,13.06392 z"
       sodipodi:ry="13.063916"
       sodipodi:rx="13.063916"
       sodipodi:cy="497.85199"
       sodipodi:cx="48.06535"
       id="path3614"
       style="fill:#800080;fill-opacity:1;stroke:#800080;stroke-opacity:1;display:inline"
       sodipodi:type="arc" />
    <path
       transform="matrix(0.6123738,0,0,0.6123738,351.56604,206.72297)"
       d="m 61.129266,497.85199 c 0,7.215 -5.848915,13.06392 -13.063916,13.06392 -7.215002,0 -13.063917,-5.84892 -13.063917,-13.06392 0,-7.215 5.848915,-13.06392 13.063917,-13.06392 7.215001,0 13.063916,5.84892 13.063916,13.06392 z"
       sodipodi:ry="13.063916"
       sodipodi:rx="13.063916"
       sodipodi:cy="497.85199"
       sodipodi:cx="48.06535"
       id="path3977"
       style="fill:#800080;fill-opacity:1;stroke:#800080;stroke-opacity:1;display:inline"
       sodipodi:type="arc" />
  </g>
  <g
     transform="translate(0,-294.09454)"
     style="display:inline"
     inkscape:label="1.0"
     id="layer5"
     inkscape:groupmode="layer">
    <path
       inkscape:connector-curvature="0"
       id="path3616"
       d="m 240.03769,459.88028 97.27503,0"
       style="fill:none;stroke:#000000;stroke-width:1.55903077;stroke-linecap:butt;stroke-linejoin:miter;stroke-miterlimit:4;stroke-opacity:1;stroke-dasharray:9.35418463, 9.35418463;stroke-dashoffset:0;marker-start:none;marker-end:url(#Arrow1Mend)" />
    <text
       sodipodi:linespacing="125%"
       id="text4248"
       y="470.8775"
       x="347.8515"
       style="font-size:40px;font-style:normal;font-variant:normal;font-weight:normal;font-stretch:normal;text-align:start;line-height:125%;writing-mode:lr-tb;text-anchor:start;fill:#000000;fill-opacity:1;stroke:none;font-family:Times New Roman;-inkscape-font-specification:'Times New Roman,'"
       xml:space="preserve"><tspan
         y="470.8775"
         x="347.8515"
         id="tspan4250"
         sodipodi:role="line">1</tspan></text>
  </g>
  <g
     transform="translate(0,-294.09454)"
     style="display:inline"
     inkscape:label="1.41"
     id="layer4"
     inkscape:groupmode="layer">
    <path
       inkscape:connector-curvature="0"
       style="fill:none;stroke:#000000;stroke-width:1.50980425;stroke-linecap:butt;stroke-linejoin:miter;stroke-miterlimit:4;stroke-opacity:1;stroke-dasharray:9.05882549, 9.05882549;stroke-dashoffset:0;marker-start:none;marker-end:url(#Arrow1Mend)"
       d="m 240.01307,577.6507 138.34831,0"
       id="path4252" />
    <text
       xml:space="preserve"
       style="font-size:40px;font-style:normal;font-variant:normal;font-weight:normal;font-stretch:normal;text-align:start;line-height:125%;writing-mode:lr-tb;text-anchor:start;fill:#000000;fill-opacity:1;stroke:none;font-family:Times New Roman;-inkscape-font-specification:'Times New Roman,'"
       x="383.44446"
       y="589.65625"
       id="text4254"
       sodipodi:linespacing="125%"><tspan
         sodipodi:role="line"
         id="tspan4256"
         x="383.44446"
         y="589.65625">1.41</tspan></text>
    <path
       id="path3983"
       d="m 381.02675,588.78095 0,-78.77971"
       style="fill:#9c9c9c;fill-opacity:1;stroke:#808080;stroke-width:1.1394552;stroke-linecap:butt;stroke-linejoin:miter;stroke-miterlimit:4;stroke-opacity:1;stroke-dasharray:1.13945512, 2.27891021;stroke-dashoffset:0;marker-start:none;marker-end:none"
       inkscape:connector-curvature="0" />
  </g>
  <g
     inkscape:groupmode="layer"
     id="layer8"
     inkscape:label="Center"
     style="display:inline"
     transform="translate(0,-294.09454)">
    <path
       transform="matrix(0.6123738,0,0,0.6123738,211.00922,208.59698)"
       d="m 61.129266,497.85199 c 0,7.215 -5.848915,13.06392 -13.063916,13.06392 -7.215002,0 -13.063917,-5.84892 -13.063917,-13.06392 0,-7.215 5.848915,-13.06392 13.063917,-13.06392 7.215001,0 13.063916,5.84892 13.063916,13.06392 z"
       sodipodi:ry="13.063916"
       sodipodi:rx="13.063916"
       sodipodi:cy="497.85199"
       sodipodi:cx="48.06535"
       id="path4279"
       style="fill:#ff0000;fill-opacity:1;stroke:none;display:inline"
       sodipodi:type="arc" />
    <path
       sodipodi:type="arc"
       style="fill:#ff0000;fill-opacity:1;stroke:none;display:inline"
       id="path3047"
       sodipodi:cx="48.06535"
       sodipodi:cy="497.85199"
       sodipodi:rx="13.063916"
       sodipodi:ry="13.063916"
       d="m 61.129266,497.85199 c 0,7.215 -5.848915,13.06392 -13.063916,13.06392 -7.215002,0 -13.063917,-5.84892 -13.063917,-13.06392 0,-7.215 5.848915,-13.06392 13.063917,-13.06392 7.215001,0 13.063916,5.84892 13.063916,13.06392 z"
       transform="matrix(0.6123738,0,0,0.6123738,205.00922,204.59698)" />
    <path
       transform="matrix(0.6123738,0,0,0.6123738,219.00922,204.59698)"
       d="m 61.129266,497.85199 c 0,7.215 -5.848915,13.06392 -13.063916,13.06392 -7.215002,0 -13.063917,-5.84892 -13.063917,-13.06392 0,-7.215 5.848915,-13.06392 13.063917,-13.06392 7.215001,0 13.063916,5.84892 13.063916,13.06392 z"
       sodipodi:ry="13.063916"
       sodipodi:rx="13.063916"
       sodipodi:cy="497.85199"
       sodipodi:cx="48.06535"
       id="path3049"
       style="fill:#ff0000;fill-opacity:1;stroke:none;display:inline"
       sodipodi:type="arc" />
    <path
       sodipodi:type="arc"
       style="fill:#ff0000;fill-opacity:1;stroke:none;display:inline"
       id="path3051"
       sodipodi:cx="48.06535"
       sodipodi:cy="497.85199"
       sodipodi:rx="13.063916"
       sodipodi:ry="13.063916"
       d="m 61.129266,497.85199 c 0,7.215 -5.848915,13.06392 -13.063916,13.06392 -7.215002,0 -13.063917,-5.84892 -13.063917,-13.06392 0,-7.215 5.848915,-13.06392 13.063917,-13.06392 7.215001,0 13.063916,5.84892 13.063916,13.06392 z"
       transform="matrix(0.6123738,0,0,0.6123738,217.00922,216.59698)" />
    <path
       transform="matrix(0.6123738,0,0,0.6123738,207.00922,214.59698)"
       d="m 61.129266,497.85199 c 0,7.215 -5.848915,13.06392 -13.063916,13.06392 -7.215002,0 -13.063917,-5.84892 -13.063917,-13.06392 0,-7.215 5.848915,-13.06392 13.063917,-13.06392 7.215001,0 13.063916,5.84892 13.063916,13.06392 z"
       sodipodi:ry="13.063916"
       sodipodi:rx="13.063916"
       sodipodi:cy="497.85199"
       sodipodi:cx="48.06535"
       id="path3053"
       style="fill:#ff0000;fill-opacity:1;stroke:none;display:inline"
       sodipodi:type="arc" />
  </g>
</svg>
